<?xml version="1.0" encoding="UTF-8"?>
<svg id="Layer_1" data-name="Layer 1" xmlns="http://www.w3.org/2000/svg" viewBox="0 0 125.05 131.38">
  <defs>
    <style>
      .cls-1 {
        fill: none;
        stroke: #000;
        stroke-linecap: round;
        stroke-linejoin: round;
        stroke-width: 3.14px;
      }

      .cls-2 {
        fill: #e9604d;
      }
    </style>
  </defs>
  <path class="cls-2" d="M7.78,21.2c-.69,25.4-1.39,50.8-2.08,76.21-.09,3.15-.17,6.31-.26,9.46-.13,4.6-.25,9.32,3.52,12.69,2.37,2.11,5.18,3.03,8.32,3.15,1.4.05,2.83-.21,4.22-.35,3.11-.32,6.22-.6,9.34-.85,12.54-1,25.13-1.45,37.71-1.34,14.14.12,28.28.95,42.34,2.46,2.04.22,4.96-1.14,6.31-2.62,1.61-1.75,2.61-3.89,2.62-6.31.03-24.97.07-49.95.1-74.92,0-3.16,0-6.33.01-9.49,0-3.87.19-7.81-1.87-11.28-2.41-4.07-6.62-5.32-10.93-6.15-2.87-.56-5.76-1.03-8.66-1.43-12.11-1.67-24.27-2.25-36.47-1.29-13.54,1.06-26.97,3.61-39.86,7.86-3.42,1.13-5.91,3.79-6.4,7.42-.45,3.33,1.09,7.3,4.26,8.9,6.33,3.18,12.3,7.01,17.9,11.34l-1.81-1.4c11.05,8.58,20.53,18.96,29.07,29.99l-1.4-1.81c8.99,11.65,16.96,24.02,24.84,36.43l7.71-13.44c-19.19.46-38.39-.6-57.42-3.15l2.37.32c-6.12-.83-12.22-1.81-18.3-2.94l2.13,16.32c21.49-16.49,43.12-32.99,62.4-52.09,5.3-5.25,10.41-10.7,15.27-16.36,2.39-2.79,3.33-6.25,1.85-9.75-1.32-3.14-4.62-5.64-8.16-5.49-21.59.9-43.16,2.12-64.71,3.67-3.12.22-6.29.34-9.38.86-4.43.75-8.47,4.37-9.33,8.84-.6,3.12-.37,6.33-.35,9.49.02,2.73.04,5.46.06,8.19.08,10.67.14,21.34.24,32.02.04,4.03.92,8.2,4.05,11.02,2.89,2.61,6.68,3.69,10.53,3.54,5.29-.2,10.59-.69,15.88-1.04,10.79-.71,21.58-1.43,32.37-2.14,5.23-.35,10.52-.48,15.72-1.06,2.33-.26,4.21-.59,6.32-1.68s3.66-2.76,4.75-4.73c1.8-3.22,1.7-7.13,2.02-10.71.95-10.78,1.98-21.55,2.86-32.33.31-3.8-.6-7.96-3.38-10.73-3-2.99-6.75-3.77-10.86-3.86-5.38-.11-10.76-.23-16.14-.34-10.76-.23-21.52-.45-32.27-.68-2.65-.06-5.3-.11-7.94-.17-3.72-.08-7.8,2.81-8.61,6.56-2.75,12.76-4.84,25.65-6.42,38.61-.5,4.1-1.04,8.04,1,11.88,1.31,2.46,3.49,4.21,6.01,5.28,2,.84,4,1.11,6.18,1.28,6.15.47,12.36.47,18.51.13,6.8-.37,13.58-1.19,20.29-2.36,3.47-.61,6.71-1.3,9.92-2.82s5.92-4.21,7.59-7.24c2.8-5.09,3.22-11.05,2.74-16.73-.31-3.67-.72-7.19-2.43-10.51-1.94-3.76-5.8-6.59-9.97-7.25-2.2-.35-4.13-.45-6.31-.18-1.77.22-3.54.47-5.3.7-3.44.46-6.88.91-10.33,1.37-7.05.93-14.1,1.87-21.14,2.8-2.47.33-4.48.78-6.31,2.62-1.55,1.55-2.72,4.09-2.62,6.31s.86,4.7,2.62,6.31c1.61,1.48,4.03,2.91,6.31,2.62.76-.1,1.52-.2,2.28-.3,2.46-.32,4.48-.79,6.31-2.62,1.55-1.55,2.72-4.09,2.62-6.31s-.86-4.7-2.62-6.31c-1.61-1.48-4.03-2.91-6.31-2.62-.76.1-1.52.2-2.28.3v17.86c6.97-.92,13.93-1.85,20.9-2.77,3.44-.46,6.88-.91,10.33-1.37,3.09-.41,6.35-1.17,9.48-.87l-2.37-.32c.64.09,1.23.23,1.84.45l-2.13-.9c.47.21.89.45,1.3.76l-1.81-1.4c.28.24.51.48.75.75l-1.4-1.81c.36.48.65.97.89,1.51l-.9-2.13c.41,1.03.64,2.09.8,3.19l-.32-2.37c.43,3.28.66,6.65.23,9.94l.32-2.37c-.2,1.35-.52,2.65-1.05,3.9l.9-2.13c-.36.8-.8,1.54-1.33,2.24l1.4-1.81c-.5.61-1.05,1.14-1.67,1.62l1.81-1.4c-.7.49-1.42.89-2.21,1.23l2.13-.9c-4.11,1.62-8.83,2.06-13.18,2.65l2.37-.32c-5.32.71-10.67,1.15-16.03,1.3s-10.51.2-15.66-.39l2.37.32c-.58-.09-1.13-.21-1.69-.41l2.13.9c-.32-.15-.58-.3-.87-.5l1.81,1.4c-.18-.14-.34-.3-.48-.47l1.4,1.81c-.16-.2-.29-.42-.39-.65l.9,2.13c-.14-.38-.23-.71-.29-1.11l.32,2.37c-.16-1.76.19-3.56.4-5.3.23-1.95.48-3.89.74-5.83l-.32,2.37c1.42-10.53,3.25-20.99,5.48-31.38l-8.61,6.56c9.85.21,19.69.41,29.54.62,4.88.1,9.76.2,14.65.31,2.48.05,4.97.1,7.45.16,2.3.05,4.65-.05,6.93.21l-2.37-.32c.37.06.7.14,1.05.25l-2.13-.9c.35.15.62.3.92.53l-1.81-1.4c.17.14.32.3.45.48l-1.4-1.81c.13.18.24.36.33.56l-.9-2.13c.17.42.27.84.35,1.29l-.32-2.37c.31,2.98-.34,6.18-.61,9.16-.3,3.4-.6,6.8-.9,10.2-.59,6.71-1.03,13.46-1.8,20.16l.32-2.37c-.08.51-.18.98-.37,1.47l.9-2.13c-.1.23-.23.44-.38.64l1.4-1.81c-.14.17-.29.33-.47.47l1.81-1.4c-.28.2-.54.34-.85.49l2.13-.9c-.55.2-1.09.31-1.66.39l2.37-.32c-4.22.46-8.5.59-12.74.87-4.4.29-8.8.58-13.2.87-8.8.58-17.6,1.16-26.4,1.75-2.41.16-4.81.32-7.22.48-2.14.14-4.37.48-6.51.2l2.37.32c-.45-.08-.86-.19-1.29-.35l2.13.9c-.31-.15-.56-.29-.84-.49l1.81,1.4c-.17-.14-.33-.29-.47-.46l1.4,1.81c-.23-.32-.4-.61-.56-.97l.9,2.13c-.12-.37-.21-.71-.28-1.1l.32,2.37c-.25-1.94-.13-3.95-.15-5.9s-.03-3.97-.04-5.96c-.03-4.22-.06-8.44-.09-12.66s-.06-8.27-.09-12.41-.35-8.3-.04-12.38l-.32,2.37c.06-.42.14-.75.3-1.14l-.9,2.13.2-.34-1.4,1.81c.13-.18.27-.34.45-.49l-1.81,1.4c.28-.21.53-.35.85-.49l-2.13.9c.44-.16.87-.26,1.34-.34l-2.37.32c4.45-.57,9-.69,13.47-1,4.73-.32,9.45-.63,14.18-.93,9.37-.58,18.75-1.1,28.13-1.56,5.31-.26,10.62-.5,15.94-.72l-6.31-15.24c-15.1,17.59-32.57,32.94-50.63,47.41-5.13,4.11-10.32,8.16-15.53,12.18l1.81-1.4c-3.23,2.49-6.46,4.98-9.7,7.46-1.23.94-2.41,1.84-3.2,3.2-1.02,1.74-1.32,3.72-1.06,5.69.44,3.25,2.96,6.78,6.4,7.42,20.12,3.75,40.56,5.97,61.02,6.43,5.69.13,11.38.12,17.07-.02,3.17-.08,6.09-1.66,7.71-4.42s1.69-6.35,0-9.01c-7.6-11.96-15.27-23.89-23.87-35.16s-18.46-22.7-29.91-31.86c-6.65-5.32-13.63-10.11-21.25-13.94l-2.13,16.32c9.36-3.09,18.99-5.3,28.76-6.62l-2.37.32c14.06-1.86,28.31-1.88,42.37-.02l-2.37-.32c2.36.32,4.72.69,7.07,1.11,2.11.38,4.46.61,6.45,1.44l-2.13-.9c.21.1.41.22.59.36l-1.81-1.4c.19.14.35.31.49.49l-1.4-1.81c.14.18.26.38.35.6l-.9-2.13c.17.45.27.89.34,1.37l-.32-2.37c.25,2.78.05,5.65.05,8.44s0,5.66-.01,8.49c0,5.83-.02,11.65-.02,17.48-.02,11.65-.03,23.31-.05,34.96,0,6.66-.02,13.32-.03,19.98l8.93-8.93c-24.61-2.65-49.44-3.18-74.14-1.55-3.45.23-6.89.5-10.33.81-1.72.16-3.44.32-5.16.5-1.48.15-2.99.42-4.49.29l2.37.32c-.33-.05-.63-.12-.95-.22l2.13.9c-.19-.07-.38-.16-.55-.28l1.81,1.4c-.17-.11-.32-.25-.46-.41l1.4,1.81c-.15-.18-.26-.38-.35-.6l.9,2.13c-.09-.24-.14-.48-.17-.73l.32,2.37c-.21-2.83.1-5.78.18-8.62l.24-8.72c.16-5.89.32-11.79.48-17.68.32-11.79.64-23.58.96-35.36.18-6.64.36-13.28.54-19.92.13-4.67-4.2-9.14-8.93-8.93s-8.79,3.92-8.93,8.93h0Z"/>
  <g>
    <rect class="cls-1" x="5.11" y="11.68" width="113.58" height="109.89"/>
    <path d="M79.91,28.39c-5.23-.94-10.52-1.65-15.83-1.92s-10.8-.08-16.12.83-10.33,2.5-14.91,5.09c-2.36,1.33-4.65,3.06-6.14,5.36-.76,1.17-1.18,2.57-.85,3.96.24,1,.86,1.88,1.57,2.6s1.48,1.28,2.29,1.82c.32.22.65.44.98.66.13.09.25.18.38.27.1.07-.21-.18-.01,0,.05.05.11.09.16.14.98.93,2.03,1.68,3.26,2.23,1.32.6,2.72,1.04,4.1,1.47,5.58,1.72,11.36,2.8,17.19,3.25s11.77.25,17.59-.57c2.93-.41,5.85-.96,8.71-1.74s5.64-1.87,8.27-3.25c2.27-1.19,4.76-2.59,6.15-4.82.75-1.2,1-2.56.77-3.95s-.95-2.59-1.77-3.66c-3-3.92-7.7-5.91-12.38-7.06-1.13-.28-2.27-.51-3.41-.72-.52-.09-1.12.14-1.25.71-.11.5.15,1.15.71,1.25,2.29.41,4.57.93,6.77,1.71.25.09.5.18.75.28.13.05.26.1.39.15.06.02.12.05.17.07.22.09-.1-.04.1.04.53.23,1.04.47,1.55.74s.99.55,1.47.85c.23.15.46.3.68.46.1.07.2.14.29.21.05.04.1.07.14.11-.16-.13.05.04.08.06.44.35.85.72,1.24,1.12.19.19.38.39.56.6.09.1.18.21.27.31.04.05.08.09.12.14.19.23-.12-.16.07.08.37.49.7,1,.98,1.54.04.08.08.16.12.24.01.03.1.24.05.1.05.13.1.27.15.4.05.15.09.31.13.46.02.09.04.17.05.26.04.21,0-.08.02.15,0,.14.02.28.02.42,0,.07,0,.14,0,.21,0,0-.03.3,0,.14s-.03.14-.02.13c-.01.06-.02.12-.04.18-.03.15-.08.29-.13.43-.02.06-.04.11-.06.17.07-.19,0,0-.02.04-.06.12-.12.24-.19.36-.06.1-.12.21-.19.31-.04.06-.08.13-.13.19-.03.04-.05.07-.08.11.06-.07.06-.08.02-.02-.36.45-.78.86-1.22,1.23-.1.08-.2.16-.3.24.14-.11-.02.02-.06.04-.06.05-.13.1-.19.14-.23.17-.47.33-.71.48-2.32,1.51-4.82,2.7-7.34,3.62-2.69.97-5.49,1.62-8.3,2.15s-5.41.86-8.28,1.08-5.59.28-8.39.2c-5.66-.16-11.05-.9-16.56-2.28-1.38-.34-2.74-.73-4.1-1.15-.66-.2-1.32-.42-1.97-.64-.3-.1-.61-.21-.91-.32-.08-.03-.16-.06-.24-.1-.02,0-.22-.09-.12-.05.12.05-.2-.09-.17-.07-.1-.04-.19-.09-.29-.13-.57-.27-1.11-.57-1.63-.93-.25-.17-.33-.24-.61-.48-.17-.15-.32-.32-.49-.47-.55-.49-1.19-.87-1.79-1.28-.17-.12-.34-.23-.51-.35-.09-.06-.17-.12-.26-.19-.05-.04-.1-.07-.14-.11-.03-.02-.19-.15-.07-.05.13.1-.06-.05-.07-.06-.04-.03-.08-.06-.11-.09-.09-.07-.17-.14-.25-.21-.18-.15-.35-.31-.51-.48-.15-.16-.3-.32-.44-.49-.04-.04-.11-.15.03.04-.03-.04-.06-.08-.08-.12-.07-.1-.13-.19-.2-.3s-.12-.2-.17-.31c-.02-.04-.04-.08-.06-.13-.09-.18.01.05.02.05-.12-.08-.16-.54-.19-.67-.03-.15,0,.05,0,.06,0,0-.01-.12-.01-.14,0-.15,0-.29,0-.44.01-.19-.05.23,0-.09.01-.07.03-.14.04-.2.04-.17.09-.33.15-.5.07-.19.04-.09.02-.05.04-.08.07-.16.11-.24.07-.14.15-.28.23-.42.07-.12.15-.24.23-.36.05-.07.1-.14.15-.22.03-.04.06-.08.09-.13-.04.05-.04.05,0,0,.4-.5.83-.97,1.29-1.41.22-.21.46-.42.69-.62.11-.09.21-.18.32-.26.05-.04.11-.09.16-.13-.13.1.1-.08.12-.09,1.03-.77,2.13-1.44,3.27-2.03.55-.29,1.11-.57,1.68-.83.28-.13.57-.26.85-.39.39-.17.45-.2.81-.34,2.33-.95,4.75-1.7,7.21-2.27,1.25-.29,2.51-.53,3.78-.73.31-.05.62-.1.93-.14.06,0,.41-.06.25-.03.17-.02.35-.05.52-.07.66-.08,1.32-.15,1.98-.21,2.56-.24,5.12-.32,7.69-.3s5.2.18,7.8.42c1.27.12,2.53.26,3.8.42.71.09,1.02.13,1.73.23.61.09,1.22.18,1.83.27,1.21.19,2.41.39,3.61.61.52.09,1.12-.14,1.25-.71.11-.5-.15-1.15-.71-1.25Z"/>
    <path d="M91.92,34.89c-3.66,1.48-7.43,2.68-11.27,3.59-1.92.46-3.86.84-5.81,1.16s-3.71.53-5.72.7c-3.93.34-7.89.38-11.83.14-.98-.06-1.95-.14-2.92-.24-.51-.05-1.01-.11-1.51-.16-.22-.03-.45-.05-.67-.08-.13-.02-.26-.03-.39-.05.11.01-.18-.03-.23-.03-1.96-.27-3.9-.62-5.83-1.04s-3.83-.9-5.7-1.52c-.46-.15-.92-.31-1.38-.48-.42-.16-.94-.36-1.28-.51-.81-.34-1.76-.8-2.6-1.26-.43-.23-.84-.48-1.25-.74-.45-.28-1.14-.11-1.4.37-.26.5-.12,1.09.37,1.4,3.41,2.14,7.28,3.43,11.17,4.36s7.97,1.57,12.01,1.91,7.97.36,11.95.1,8.04-.83,11.99-1.68,7.76-1.99,11.5-3.42c.46-.17.91-.35,1.36-.54.49-.2.9-.69.71-1.25-.15-.48-.72-.93-1.25-.71h0Z"/>
    <path d="M86.78,31.29c-.64.28-1.35.56-2.08.84s-1.5.54-2.26.78c-1.48.47-2.99.86-4.51,1.18-.8.17-1.6.31-2.41.43-.73.11-1.38.19-2.18.27-1.67.16-3.34.24-5.01.3-3.34.12-6.68.25-10.02.15-1.61-.05-3.23-.16-4.83-.34-1.43-.17-3.01-.42-4.53-.74-3.37-.7-6.84-1.78-9.91-3.09-.49-.21-1.12-.16-1.4.37-.23.44-.16,1.17.37,1.4,6.03,2.57,12.45,4.07,19,4.4,3.38.17,6.76.05,10.14-.06s6.81-.29,10.17-.9c3.61-.66,7.11-1.75,10.48-3.22.49-.21.64-.97.37-1.4-.33-.51-.87-.59-1.4-.37h0Z"/>
    <path d="M34.58,105.01c-.06,3.99-.12,7.99-.18,11.98-.02,1.12-.03,2.24-.05,3.36,0,.53.47,1.04,1.02,1.02s1.01-.45,1.02-1.02c.06-3.99.12-7.99.18-11.98l.05-3.36c0-.53-.47-1.04-1.02-1.02s-1.01.45-1.02,1.02h0Z"/>
    <path d="M48.38,84.9c-.06,4.62-.13,9.24-.19,13.86s-.13,9.28-.19,13.93c-.04,2.6-.07,5.2-.11,7.81,0,.53.47,1.04,1.02,1.02s1.01-.45,1.02-1.02c.06-4.62.13-9.24.19-13.86s.13-9.28.19-13.93c.04-2.6.07-5.2.11-7.81,0-.53-.47-1.04-1.02-1.02s-1.01.45-1.02,1.02h0Z"/>
    <path d="M62.32,66.19c-.03,6.81-.04,13.61-.04,20.42s-.01,13.92-.04,20.87c-.02,4.39-.04,8.79-.07,13.18,0,.53.47,1.04,1.02,1.02s1.02-.45,1.02-1.02c.05-7.55.08-15.09.09-22.64.01-6.75,0-13.5.02-20.25,0-3.86.02-7.72.03-11.58,0-.53-.47-1.04-1.02-1.02s-1.02.45-1.02,1.02h0Z"/>
    <path d="M90.06,105.01c.17,3.95.12,7.91-.16,11.85-.08,1.11-.17,2.23-.29,3.34-.02.24.13.55.3.72.18.18.47.31.72.3.6-.03.96-.45,1.02-1.02.4-3.93.58-7.89.54-11.84-.01-1.12-.04-2.23-.09-3.35-.02-.53-.45-1.05-1.02-1.02-.53.02-1.04.45-1.02,1.02h0Z"/>
    <path d="M76.58,85.37c-.2,4.53-.36,9.07-.47,13.6s-.18,9.03-.21,13.55c-.01,2.56-.01,5.12,0,7.68,0,.53.47,1.04,1.02,1.02s1.02-.45,1.02-1.02c-.02-4.54,0-9.07.06-13.61s.17-9.03.32-13.54c.09-2.56.19-5.12.3-7.67.02-.53-.49-1.04-1.02-1.02-.57.03-.99.45-1.02,1.02h0Z"/>
  </g>
</svg>