<?xml version="1.0" encoding="UTF-8"?>
<svg id="Layer_1" data-name="Layer 1" xmlns="http://www.w3.org/2000/svg" viewBox="0 0 125.05 131.38">
  <defs>
    <style>
      .cls-1 {
        fill: none;
        stroke: #000;
        stroke-linecap: round;
        stroke-linejoin: round;
        stroke-width: 3.14px;
      }

      .cls-2 {
        fill: #fff;
      }
    </style>
  </defs>
  <path class="cls-2" d="M13.59,23.17c-.02,22.33-.04,44.65-.07,66.98,0,6.33-.01,12.66-.02,18.99,2.81-2.81,5.62-5.62,8.43-8.43l-.3-.04,2.24.3c-.58-.1-1.12-.25-1.66-.47l2.01.85c-.51-.23-.98-.5-1.43-.83l1.71,1.32c-.59-.47-1.11-.99-1.58-1.58l1.32,1.71c-.66-.88-1.18-1.84-1.61-2.85l.85,2.01c-.77-1.9-1.23-3.88-1.52-5.9l.3,2.24c-.47-3.49-.48-7.05-.62-10.57-.16-4.2-.29-8.41-.38-12.62-.18-8.07-.64-16.34.4-24.37l-.3,2.24c.45-3.23,1.22-6.38,2.48-9.4l-.85,2.01c1.2-2.78,2.74-5.38,4.59-7.78l-1.32,1.71c1.96-2.49,4.2-4.71,6.69-6.66l-1.71,1.32c2.71-2.08,5.66-3.8,8.81-5.13l-2.01.85c3.51-1.45,7.19-2.31,10.95-2.82l-2.24.3c4.54-.57,9.12-.65,13.69-.69,4.83-.04,9.65-.05,14.48-.03s9.65.06,14.48.13c2.33.03,4.66.07,6.99.12s4.67-.02,6.97.26l-2.24-.3c.68.11,1.32.26,1.96.51l-2.01-.85c.38.17.71.36,1.06.59l-1.71-1.32c.37.28.68.59.99.94l-1.32-1.71c.35.46.62.93.87,1.45l-.85-2.01c.46,1.1.71,2.24.88,3.42l-.3-2.24c.71,5.45,1.03,10.99,1.39,16.47s.64,11.38.82,17.07c.34,11.23.28,22.46-.18,33.69-.26,6.44-.65,12.87-1.17,19.29,2.81-2.81,5.62-5.62,8.43-8.43-21.34-.06-42.67-.55-63.99-1.47-6.06-.26-12.11-.56-18.16-.89,1.42,5.24,2.84,10.48,4.26,15.72,8.19-5.38,16.85-10,25.86-13.83l-2.01.85c13.21-5.56,27.11-9.39,41.31-11.33l-2.24.3c2.32-.31,4.64-.57,6.97-.79s4.29-.8,5.96-2.47c1.46-1.46,2.56-3.86,2.47-5.96-.2-4.56-3.71-8.44-8.43-8.43-17.32.03-34.64.07-51.96.1-4.89,0-9.78.02-14.67.03.75,5.52,1.49,11.04,2.24,16.57,1.79-.26,3.58-.51,5.38-.75l-2.24.3c18.91-2.54,37.95-4.05,57.03-4.52-.75-5.52-1.49-11.04-2.24-16.57-4.69.81-9.39,1.54-14.11,2.18l2.24-.3c-15.45,2.07-31.02,3.19-46.61,3.34-4.21.04-7.73,3.18-8.28,7.31s1.94,8.26,6.04,9.25c16.79,4.07,33.59,8.15,50.09,13.28,4.68,1.46,9.33,3,13.94,4.64v-16.26c-4.54,1.67-9.24,2.84-14.03,3.5l2.24-.3c-6.07.81-12.21.81-18.28.02l2.24.3c-5.93-.81-11.71-2.37-17.23-4.68l2.01.85c-1.56-.67-3.27-1.3-4.65-2.29l1.71,1.32c-.17-.13-.33-.29-.47-.46l1.32,1.71c-.14-.17-.24-.36-.32-.57l.85,2.01-.09-.33.3,2.24c-.03-.22-.03-.43,0-.65l-.3,2.24c.04-.22.11-.43.21-.63l-.85,2.01c.1-.21.23-.41.37-.59l-1.32,1.71c.4-.48.84-.89,1.33-1.29l-1.71,1.32c4.71-3.52,9.52-6.92,14.27-10.37,2.81-2.04,4.51-4.79,4.03-8.4-.41-3.06-2.79-6.42-6.04-7.01-2.51-.46-4.95-1.19-7.3-2.18l2.01.85c-2.87-1.24-5.55-2.84-8.03-4.74l1.71,1.32c-2.66-2.08-5.04-4.47-7.11-7.12l1.32,1.71c-2.13-2.77-3.9-5.78-5.27-8.99l.85,2.01c-1.29-3.1-2.2-6.33-2.65-9.66l.3,2.24c-.36-2.88-.38-5.77-.02-8.65h-16.87c-1.28,13.91-1.68,28.47,5.36,41.06,1.65,2.95,5.15,4.46,8.4,4.03s6.3-2.79,7.01-6.04c3.38-15.4,6.76-30.79,10.14-46.19h-16.26l6.49,39.21c.31,1.88,2.23,4.17,3.88,5.04s3.46,1.26,5.38,1c4.13-.56,7.27-4.05,7.31-8.28.07-7.01.58-14,1.5-20.94l-.3,2.24c.61-4.52,1.41-9.01,2.37-13.47-5.14.67-10.28,1.34-15.41,2.01.72,1.55,1.41,3.11,2.08,4.68l-.85-2.01c3.48,8.31,6.12,16.94,7.86,25.78.35,1.75,1.66,3.33,3.02,4.38s3.26,1.89,5.11,1.81c1.5-.07,2.93-.45,4.26-1.15,1.64-.86,3.57-3.16,3.88-5.04,1.84-11.42,3.69-22.85,5.53-34.27-5.52-.75-11.04-1.49-16.57-2.24,1.15,11.82,3.06,23.57,5.88,35.1.84,3.45,4.54,6.35,8.13,6.19,1.5-.07,2.93-.45,4.26-1.15,1.66-.88,3.54-3.15,3.88-5.04,2.18-12.22,4.35-24.45,6.53-36.67h-16.26c3.1,11.82,6.2,23.63,9.29,35.45,1.07,4.07,5.19,6.59,9.25,6.04s7.12-4.05,7.31-8.28c.38-8.15.76-16.3,1.14-24.45h-16.87c.27,9.72,1.45,19.44,3.43,28.96.4,1.91,2.16,4.14,3.88,5.04s3.46,1.26,5.38,1c3.93-.53,7.55-4.08,7.31-8.28-.64-11.39-5.06-22.01-12.59-30.57-7.14-8.12-17.52-13.67-28.21-15.23-6.78-.99-13.46-.84-20.14.86-4.07,1.04-6.58,5.21-6.04,9.25s4.08,7.59,8.28,7.31c16.87-1.1,33.77-.01,50.56,1.58,4.84.46,9.68.96,14.52,1.46-.75-5.52-1.49-11.04-2.24-16.57-1.42.56-2.88.94-4.39,1.17l2.24-.3c-1.66.2-3.3.21-4.96,0l2.24.3c-1.65-.23-3.24-.66-4.79-1.29l2.01.85c-.64-.28-1.25-.58-1.86-.91-3.86-2.13-9.37-1.07-11.54,3.03s-1.1,9.26,3.03,11.54c6.73,3.71,15.25,4.73,22.49,1.87,2.02-.8,3.97-1.85,5.04-3.88.9-1.7,1.26-3.46,1-5.38-.24-1.77-.96-3.6-2.32-4.84-1.74-1.6-3.62-2.23-5.96-2.47-16.79-1.74-33.63-3.48-50.53-3.5-4.86,0-9.71.14-14.55.45.75,5.52,1.49,11.04,2.24,16.57,1.57-.4,3.16-.71,4.76-.93l-2.24.3c3.49-.44,7-.43,10.49.01l-2.24-.3c3.62.49,7.15,1.43,10.53,2.82l-2.01-.85c3.23,1.36,6.25,3.11,9.02,5.25l-1.71-1.32c2.64,2.08,5,4.48,7.06,7.14l-1.32-1.71c2.12,2.78,3.87,5.8,5.25,9.01l-.85-2.01c1.4,3.34,2.37,6.83,2.86,10.42l-.3-2.24c.13,1.03.23,2.05.28,3.08,5.52-.75,11.04-1.49,16.57-2.24-.73-3.52-1.34-7.06-1.83-10.62l.3,2.24c-.71-5.34-1.15-10.71-1.3-16.1-.12-4.41-3.79-8.64-8.43-8.43s-8.21,3.71-8.43,8.43c-.38,8.15-.76,16.3-1.14,24.45,5.52-.75,11.04-1.49,16.57-2.24-3.1-11.82-6.2-23.63-9.29-35.45-.9-3.44-4.49-6.35-8.13-6.19-1.5.07-2.93.45-4.26,1.15-1.66.88-3.54,3.15-3.88,5.04-2.18,12.22-4.35,24.45-6.53,36.67h16.26c-1.95-7.99-3.48-16.07-4.58-24.22l.3,2.24c-.38-2.88-.72-5.76-1-8.64-.21-2.19-.77-4.4-2.47-5.96-1.39-1.28-2.96-2.07-4.84-2.32s-3.81-.01-5.38,1c-1.73,1.12-3.53,2.92-3.88,5.04-1.84,11.42-3.69,22.85-5.53,34.27h16.26c-2.22-11.25-5.95-22.08-10.79-32.47-.55-1.18-1.92-2.38-3.03-3.03-1.64-.96-3.52-1.25-5.38-1-3.14.42-6.31,2.79-7.01,6.04-2.61,12.02-4.04,24.35-4.17,36.65,5.52-.75,11.04-1.49,16.57-2.24-2.16-13.07-4.32-26.14-6.49-39.21l-.85-2.01c-.53-.98-1.25-1.77-2.17-2.37-1.42-1.1-3.26-1.89-5.11-1.81-3.58.16-7.32,2.48-8.13,6.19-3.38,15.4-6.76,30.79-10.14,46.19,5.14-.67,10.28-1.34,15.41-2.01-.62-1.1-1.17-2.23-1.67-3.38l.85,2.01c-1.4-3.35-2.28-6.85-2.79-10.44l.3,2.24c-1.02-7.63-.45-15.35.25-22.98.19-2.04-1.08-4.57-2.47-5.96s-3.86-2.56-5.96-2.47-4.44.81-5.96,2.47l-1.32,1.71c-.76,1.32-1.15,2.73-1.15,4.26-1.08,8.71,1.14,17.68,5.15,25.4s10.35,14.4,17.8,18.85c4.16,2.48,8.86,4.37,13.63,5.23-.67-5.14-1.34-10.28-2.01-15.41-2.53,1.84-5.06,3.67-7.59,5.51-2.89,2.09-5.99,4.07-8.68,6.41-4.68,4.07-5.56,11.08-1.23,15.75,2.44,2.63,6.41,3.93,9.63,5.25,10.47,4.28,22.31,5.97,33.57,5.01,6.71-.57,13.34-1.85,19.66-4.18,3.39-1.25,6.37-4.24,6.19-8.13s-2.54-6.83-6.19-8.13c-16.28-5.8-32.99-10.28-49.75-14.43-4.76-1.18-9.52-2.34-14.29-3.49-.75,5.52-1.49,11.04-2.24,16.57,21.1-.21,42.17-2.22,62.96-5.82,1.89-.33,4.17-2.22,5.04-3.88s1.26-3.46,1-5.38c-.54-4.03-4.06-7.42-8.28-7.31-21.65.53-43.22,2.47-64.65,5.57-1.86.27-4.19,2.27-5.04,3.88-.9,1.7-1.26,3.46-1,5.38.55,4.1,4.06,7.32,8.28,7.31,17.32-.03,34.64-.07,51.96-.1,4.89,0,9.78-.02,14.67-.03v-16.87c-22.02,2.02-43.35,8.11-63.07,18.17-5.27,2.69-10.39,5.68-15.34,8.93-3.02,1.99-5.06,5.86-3.88,9.52s4.28,5.98,8.13,6.19c21.31,1.16,42.64,1.9,63.97,2.2,6.06.09,12.12.14,18.18.15,2.06,0,4.54-.92,5.96-2.47,1.58-1.72,2.28-3.63,2.47-5.96,1.59-19.84,1.97-39.77,1.1-59.66-.22-5.03-.52-10.06-.9-15.09s-.51-10.44-1.61-15.43c-.61-2.79-2.04-5.69-4.13-7.68-2.9-2.76-6.44-3.77-10.33-4.09-4.84-.39-9.78-.24-14.63-.31-10.02-.13-20.04-.19-30.06-.05-5.41.08-10.8.42-16.12,1.4-4.47.83-8.77,2.4-12.82,4.46-7.49,3.82-14.01,9.96-18.33,17.17-5.18,8.65-6.31,18.57-6.32,28.46,0,9.95.26,19.9.69,29.83.4,9.14,1.31,18.94,9.36,24.72,2.31,1.66,4.9,2.13,7.65,2.49,1.9.25,4.71-1.11,5.96-2.47,1.52-1.65,2.47-3.68,2.47-5.96.02-22.33.04-44.65.07-66.98,0-6.33.01-12.66.02-18.99,0-4.41-3.88-8.64-8.43-8.43s-8.43,3.71-8.43,8.43h0Z"/>
  <g>
    <path class="cls-1" d="M26.54,12.55h74.11c10.91,0,19.77,8.86,19.77,19.77v70.42c0,10.88-8.83,19.7-19.7,19.7H26.61c-10.91,0-19.77-8.86-19.77-19.77V32.25c0-10.88,8.83-19.7,19.7-19.7Z"/>
    <path d="M7.75,83.45c4.2.11,8.41.22,12.61.33s8.45.22,12.68.33,8.34.17,12.5.39c3.81.2,7.59.58,11.32,1.39,3.02.66,5.98,1.56,8.85,2.7.37.15.74.3,1.1.45-.13-.05.08.03.12.05.08.04.17.07.25.11.18.08.36.16.55.24.7.31,1.39.64,2.08.97,1.4.69,2.77,1.43,4.12,2.23s2.63,1.63,3.89,2.52c.63.44,1.25.89,1.86,1.35.34.26.46.35.83.64.3.24.6.48.89.72,2.4,1.98,4.65,4.13,6.72,6.45.51.57,1.01,1.15,1.5,1.74.24.29.48.59.72.89.12.16.25.31.37.47.1.13-.02-.02.08.1.07.08.13.17.2.26.93,1.23,1.82,2.5,2.66,3.79,1.67,2.6,3.13,5.33,4.36,8.17.04.08.07.17.11.25.07.17.03.07.01.03.02.04.04.08.05.13.07.17.14.34.21.51.14.36.28.71.42,1.07.18.47.62.79,1.14.65.45-.12.83-.67.65-1.14-1.13-2.96-2.5-5.83-4.1-8.57s-3.45-5.36-5.47-7.81-4.16-4.67-6.49-6.75-4.92-4.06-7.59-5.8-5.37-3.2-8.22-4.47-5.88-2.37-8.95-3.18c-3.53-.93-7.15-1.48-10.79-1.8-4.18-.36-8.37-.43-12.56-.54s-8.53-.22-12.8-.34-8.49-.22-12.74-.33c-1.04-.03-2.08-.05-3.12-.08-.5-.01-.93.44-.93.93s.42.91.93.93h0Z"/>
    <path d="M8.55,104.27c5.97.35,11.95.68,17.93.56,5.95-.11,11.93-.66,17.72-2.09,3.25-.8,6.41-1.9,9.45-3.3.45-.21.57-.87.33-1.27-.27-.47-.81-.54-1.27-.33-2.58,1.19-5.35,2.16-8.16,2.9s-5.65,1.26-8.38,1.6c-5.87.72-11.8.77-17.7.57-3.31-.11-6.62-.29-9.93-.49-.5-.03-.93.45-.93.93,0,.53.43.9.93.93h0Z"/>
    <path d="M71.62,49.41c-.27-6.17,1.03-12.38,3.76-17.9.68-1.38,1.45-2.72,2.31-4.01.81-1.22,1.57-2.23,2.49-3.31s1.91-2.12,2.95-3.1,2.14-1.89,3.17-2.66c1.28-.95,2.62-1.82,4.01-2.6.69-.39,1.4-.76,2.12-1.1.37-.18.75-.35,1.13-.52s.59-.25,1.02-.42c.46-.18.79-.62.65-1.14-.12-.44-.67-.83-1.14-.65-5.55,2.21-10.58,5.68-14.57,10.13-4.2,4.68-7.19,10.38-8.68,16.5-.86,3.52-1.23,7.17-1.07,10.79.02.5.41.93.93.93.49,0,.95-.42.93-.93h0Z"/>
    <path d="M70.45,50.3c3.17.82,6.39,1.51,9.66,1.71.9.05,1.81.07,2.72.04.48-.02.95-.41.93-.93s-.41-.95-.93-.93c-1.73.06-3.47-.05-5.19-.28l.25.03c-2.35-.32-4.66-.84-6.95-1.43-.47-.12-1.03.15-1.14.65s.15,1.01.65,1.14h0Z"/>
    <path d="M81.28,61.67c.06-2.1.66-4.16,1.39-6.16s1.54-4.06,2.42-6.03c1.44-3.23,3.23-6.29,5.32-9.13.12-.16.24-.33.37-.49.07-.09.13-.18.2-.26.03-.04.06-.07.09-.11-.08.1.04-.06.06-.07.27-.35.55-.69.83-1.03.55-.67,1.12-1.32,1.7-1.96,1.18-1.29,2.42-2.52,3.72-3.68.66-.59,1.33-1.16,2.01-1.71.16-.13.32-.26.48-.38.23-.18.26-.21.45-.35.35-.27.7-.53,1.06-.79,1.41-1.02,2.88-1.97,4.39-2.84s3.07-1.66,4.66-2.37c.19-.08.37-.16.56-.25.06-.02.12-.05.17-.07,0,0,.14-.06.06-.03s.06-.03.06-.03c.07-.03.15-.06.22-.09.41-.17.82-.33,1.23-.48.81-.31,1.62-.59,2.45-.85.42-.13.84-.26,1.26-.38.48-.14.78-.65.65-1.14s-.66-.79-1.14-.65c-3.46,1-6.81,2.39-9.97,4.1s-6.17,3.79-8.92,6.13-5.18,4.88-7.36,7.69-4.15,5.93-5.7,9.2c-.95,2.01-1.77,4.08-2.57,6.15s-1.54,4.14-1.84,6.33c-.08.58-.14,1.17-.15,1.75-.01.5.44.93.93.93s.91-.42.93-.93h0Z"/>
    <path d="M80.21,62.5c5.8.85,11.68,1.35,17.54.93,2.74-.2,5.46-.59,8.1-1.36s4.97-1.76,7.3-2.98c2.61-1.37,5.06-3,7.38-4.83.39-.31.32-.99,0-1.31-.39-.39-.92-.31-1.31,0-3.85,3.04-8.37,5.6-13.08,7.1-5.14,1.64-10.58,1.86-15.97,1.62-3.17-.14-6.33-.48-9.46-.94-.49-.07-1,.12-1.14.65-.12.44.15,1.07.65,1.14h0Z"/>
    <path d="M55.58,43.06c-3.05-3.17-7.95-4.38-12.15-3.14-2.28.67-4.26,2.11-5.75,3.94-1.58,1.93-2.55,4.2-2.74,6.69-.18,2.27.33,4.61,1.4,6.61,1.16,2.17,3.01,3.8,5.21,4.87,1.26.62,2.61,1.14,4.01,1.36s2.83.16,4.22-.21c1.29-.35,2.53-.93,3.65-1.66s2.06-1.52,2.88-2.49c.88-1.04,1.56-2.22,1.95-3.53s.53-2.77.54-4.16c.02-2.42-.64-4.87-2.04-6.87-.35-.5-.74-.98-1.16-1.42-.33-.35-.98-.36-1.31,0s-.36.93,0,1.31c.18.19.36.39.53.6.03.04.07.08.1.12.17.2-.1-.15.05.07.08.11.16.21.23.32.3.44.57.9.8,1.38.06.12.11.24.17.37-.07-.16-.01-.03,0,0,.03.08.06.15.09.23.1.25.18.51.26.77s.15.53.2.8c.03.12.05.25.07.37.01.07.02.14.04.21,0,.02.04.3.02.09.16,1.21.1,2.43-.03,3.64-.03.31.02-.09-.01.09-.01.08-.02.16-.04.24-.02.14-.05.28-.08.42-.06.33-.14.65-.24.97-.18.6-.33.95-.66,1.53-.14.24-.28.46-.44.69-.03.04-.24.32-.14.19-.11.14-.22.27-.33.4-.38.43-.79.84-1.23,1.21-.1.08-.2.17-.3.25-.03.02-.18.14-.05.04-.05.03-.09.07-.14.1-.27.2-.54.39-.83.57-.52.33-1.06.62-1.62.88-.06.03-.11.05-.17.07.14-.06-.04.02-.08.03-.13.05-.26.1-.39.15-.32.11-.64.21-.97.29-.27.07-.54.12-.81.16-.29.05.18-.02-.12.02-.06,0-.12.01-.18.02-.18.02-.36.03-.55.04-.28,0-.55,0-.83-.01-.16-.01-.32-.03-.49-.05.14.02-.02,0-.04,0-.11-.02-.22-.04-.34-.06-.64-.12-1.27-.31-1.88-.53-.14-.05-.28-.1-.41-.16-.09-.04-.18-.07-.27-.11.04.02.14.06-.04-.02-.3-.13-.59-.27-.88-.41-.55-.28-1.09-.59-1.59-.95-.11-.08-.23-.16-.34-.25.13.1-.1-.09-.1-.09-.04-.04-.09-.07-.13-.11-.19-.17-.38-.34-.56-.52s-.35-.37-.52-.56c-.08-.1-.16-.2-.24-.29.02.03.11.15,0,0-.05-.06-.09-.12-.14-.18-.3-.41-.56-.85-.79-1.3-.12-.23-.22-.46-.32-.69.07.17.02.05,0,0-.03-.07-.06-.14-.08-.21-.05-.12-.09-.24-.13-.36-.16-.48-.3-.98-.39-1.48-.02-.13-.05-.25-.07-.38,0-.05-.02-.1-.02-.15-.04-.26.02.2,0-.06s-.05-.51-.07-.76c-.03-.51-.02-1.02.03-1.53.01-.13.03-.25.04-.38.02-.18,0-.01,0,.02.01-.08.02-.15.03-.23.04-.25.09-.5.15-.75.12-.51.29-1,.48-1.49-.06.15,0,0,0-.02.04-.08.07-.16.11-.24.05-.12.11-.23.17-.35.14-.27.29-.53.45-.79.14-.23.3-.46.46-.68.03-.04.24-.32.14-.19.11-.14.22-.27.33-.4.38-.44.78-.85,1.21-1.24.2-.18.42-.35.63-.53.12-.1-.15.11.04-.03.04-.03.08-.06.12-.09.12-.09.24-.17.37-.26.41-.27.85-.51,1.3-.72.04-.02.09-.04.14-.06.22-.1-.12.05.02,0,.1-.04.21-.08.31-.12.25-.09.51-.18.77-.25.21-.06.43-.11.64-.16.12-.03.24-.05.36-.07.06-.01.12-.02.18-.03.05,0,.33-.05.08-.01.97-.13,1.94-.11,2.92,0,.15.02-.23-.04.01,0,.05,0,.1.01.15.02.12.02.24.04.37.06.25.05.51.11.76.17.48.13.95.28,1.41.46.05.02.21.09.02,0,.05.02.09.04.14.06.11.05.22.1.33.16.22.11.44.22.65.34s.42.25.63.39c.1.07.2.14.3.21.04.03.08.06.12.09.07.05.17.13.05.03.39.3.75.63,1.09.98s.98.36,1.31,0,.36-.94,0-1.31Z"/>
    <path d="M45.49,51.04c.18,2.87.3,5.75.34,8.62.01.81.02,1.61.02,2.42,0,.48.43.95.93.93s.93-.41.93-.93c0-2.88-.08-5.75-.23-8.63-.04-.81-.09-1.61-.14-2.41-.02-.25-.09-.48-.27-.66-.16-.16-.42-.28-.66-.27-.48.02-.96.41-.93.93h0Z"/>
    <path d="M36.28,52.04c5.54-.17,11.08-.23,16.62-.15,1.55.02,3.1.05,4.66.09.49.01.95-.44.93-.93s-.41-.91-.93-.93c-5.54-.14-11.08-.16-16.62-.06-1.55.03-3.1.07-4.66.12-.48.02-.95.42-.93.93s.41.94.93.93h0Z"/>
  </g>
</svg>