<?xml version="1.0" encoding="UTF-8"?>
<svg id="Layer_1" data-name="Layer 1" xmlns="http://www.w3.org/2000/svg" viewBox="0 0 125.05 131.38">
  <defs>
    <style>
      .cls-1 {
        fill: none;
        stroke: #000;
        stroke-linecap: round;
        stroke-linejoin: round;
        stroke-width: 3.14px;
      }

      .cls-2 {
        fill: #2e9db7;
      }
    </style>
  </defs>
  <path class="cls-2" d="M7.38,20.27c0,19.32-.02,38.64-.03,57.97,0,4.89,0,9.79,0,14.68,0,5.3.13,10.6,2.67,15.4s7.58,7.94,12.75,9.02c4.55.95,9.23.95,13.86,1.1,19.54.61,39.1.7,58.44-2.59,4.27-.73,8.67-1.67,12.4-4,2.55-1.6,4.67-3.63,6.27-6.19,1.78-2.85,2.4-6.07,2.72-9.35.44-4.53.16-9.19.18-13.73.02-4.82.03-9.64.05-14.45.03-9.72.06-19.44.1-29.15.02-5.56.67-11.58-2.13-16.62-2.54-4.58-7.49-7.33-12.43-8.59s-10.03-1.69-15.02-2.11c-4.68-.4-9.38-.55-14.08-.53-9.45.05-18.88.83-28.27,1.83-5.03.54-10.07,1.09-15.08,1.77-3.43.46-6.83,1.63-9.19,4.31-2.58,2.93-3.53,6.28-3.84,10.09-.37,4.55-.13,9.23-.09,13.8.04,4.89.15,9.78.33,14.66.34,9.61.94,19.2,1.78,28.78.51,5.8,1.19,11.91,5.86,16.03,3.84,3.38,8.5,4.75,13.45,5.46,10.01,1.44,20.05,2.06,30.15,1.44,5.25-.32,10.5-.93,15.68-1.8,5.6-.94,10.81-3.55,13.91-8.48,2.92-4.65,2.78-10.42,2.89-15.7.1-4.78.17-9.56.22-14.34.09-9.33.33-18.73-.09-28.06-.22-4.81-.97-9.59-3.29-13.87-2.63-4.83-7.61-8.37-13-9.38-4.98-.93-10.03-.72-15.07-.71-4.77,0-9.54.02-14.31.03s-9.54.02-14.31.03c-3.47,0-6.88-.06-10.06,1.6s-5.48,5.19-6.11,8.77c-1.73,9.78-2.23,19.88-1.67,29.79.3,5.27.93,10.53,1.77,15.74.72,4.45,1.36,9.51,4.03,13.28,2.27,3.21,5.13,5.36,8.9,6.54,2.64.83,5.53.93,8.28,1.17,4.73.41,9.48.7,14.23.86s9.5.2,14.26.11c6.02-.11,13.03.44,17.75-3.96s4.47-11.1,4.45-16.87c-.02-5.21-.58-10.41-1.41-15.55-.72-4.43-1.77-8.82-3.21-13.07-1.58-4.67-3.68-9.22-7.17-12.78-7.8-7.96-19.52-6.66-29.69-6.66-4.63,0-9.3-.2-13.92.01-3.87.18-7.56,1.26-10.33,4.12-2.19,2.26-3.45,5.34-4.02,8.4-.91,4.94-.86,9.82.39,14.71s3.58,8.92,6.61,12.75c5.49,6.94,14.34,10.74,22.92,11.98,4.56.66,9.1.99,13.71,1.02,2.57.02,5.14.08,7.67-.47,3.58-.78,6.79-3.56,8.31-6.86,4.55-9.89,2.1-21.5-5.31-29.34-3.53-3.73-8.14-6.3-12.97-7.92-4.08-1.37-8.74-2.01-13.04-1.61-4.51.42-9.16,1.5-12.92,4.16-4.9,3.47-8.16,8.41-8.33,14.56-.15,5.49,2.75,11.24,6.97,14.68,4.22,3.44,9.14,5.35,14.51,6.11,8.53,1.21,18.06,1.59,25.26-3.98,4.25-3.28,7.04-8.3,6.91-13.79-.14-5.92-3.38-12.19-8.87-14.84s-12.03-2.84-17.23.59c-3.63,2.39-5.93,5.77-8.54,9.16l1.4-1.81c-.88,1.13-1.79,2.23-2.92,3.12l1.81-1.4c-.49.36-.99.67-1.55.91l2.13-.9c-.4.15-.8.26-1.23.33l2.37-.32c-.46.05-.9.05-1.36,0-2.15-.21-4.84,1.14-6.31,2.62-1.55,1.55-2.72,4.09-2.62,6.31s.86,4.7,2.62,6.31,3.83,2.38,6.31,2.62c4.14.39,7.98-1.63,10.97-4.28,2.15-1.91,3.73-4.44,5.48-6.7l-1.4,1.81c.99-1.27,2.03-2.5,3.31-3.5l-1.81,1.4c.53-.39,1.08-.72,1.68-1l-2.13.9c.68-.28,1.37-.47,2.1-.58l-2.37.32c.73-.09,1.45-.09,2.18-.02l-2.37-.32c.73.1,1.42.28,2.11.54l-2.13-.9c.68.29,1.29.64,1.89,1.08l-1.81-1.4c.46.38.86.78,1.24,1.24l-1.4-1.81c.43.57.79,1.15,1.09,1.8l-.9-2.13c.32.77.54,1.54.66,2.36l-.32-2.37c.08.71.08,1.39,0,2.1l.32-2.37c-.1.67-.27,1.31-.52,1.94l.9-2.13c-.31.73-.7,1.39-1.18,2.02l1.4-1.81c-.49.6-1.03,1.11-1.64,1.59l1.81-1.4c-.8.58-1.65,1.05-2.56,1.44l2.13-.9c-1.47.59-3,.95-4.57,1.18l2.37-.32c-3.46.46-6.91.22-10.35-.24l2.37.32c-2.42-.34-4.79-.85-7.05-1.77l2.13.9c-1.26-.55-2.43-1.2-3.52-2.04l1.81,1.4c-.79-.65-1.5-1.37-2.14-2.17l1.4,1.81c-.61-.81-1.11-1.66-1.52-2.6l.9,2.13c-.27-.7-.47-1.39-.6-2.13l.32,2.37c-.1-.74-.11-1.46-.04-2.21l-.32,2.37c.11-.77.3-1.48.59-2.2l-.9,2.13c.3-.67.66-1.27,1.1-1.86l-1.4,1.81c.53-.66,1.12-1.23,1.77-1.76l-1.81,1.4c.96-.73,1.99-1.32,3.09-1.81l-2.13.9c1.57-.66,3.19-1.09,4.87-1.33l-2.37.32c2.23-.28,4.48-.21,6.7.08l-2.37-.32c2.22.32,4.37.89,6.45,1.74l-2.13-.9c1.81.77,3.49,1.73,5.06,2.92l-1.81-1.4c1.32,1.04,2.5,2.2,3.54,3.53l-1.4-1.81c.99,1.33,1.81,2.74,2.46,4.27l-.9-2.13c.62,1.53,1.04,3.1,1.27,4.73l-.32-2.37c.16,1.37.17,2.73.02,4.11l.32-2.37c-.19,1.37-.53,2.69-1.06,3.97l.9-2.13c-.21.46-.44.88-.72,1.29l1.4-1.81c-.24.3-.46.54-.75.79l1.81-1.4c-.19.15-.4.28-.63.39l2.13-.9c-.48.19-.93.3-1.44.38l2.37-.32c-2.56.23-5.21.08-7.78,0s-5.27-.25-7.89-.6l2.37.32c-3.28-.46-6.49-1.2-9.56-2.45l2.13.9c-2.06-.87-3.99-1.95-5.78-3.29l1.81,1.4c-1.56-1.21-2.94-2.59-4.15-4.14l1.4,1.81c-1.25-1.66-2.28-3.45-3.1-5.37l.9,2.13c-.79-1.93-1.33-3.93-1.63-5.99l.32,2.37c-.27-2.06-.29-4.13-.03-6.19l-.32,2.37c.19-1.37.47-2.74.98-4.03l-.9,2.13c.22-.49.47-.93.79-1.36l-1.4,1.81c.16-.2.35-.39.55-.56l-1.81,1.4c.32-.24.61-.41.97-.58l-2.13.9c.48-.19.96-.31,1.47-.4l-2.37.32c2.38-.3,4.85-.12,7.24-.12,2.7,0,5.4,0,8.09,0,4.99,0,10.12-.34,15.08.29l-2.37-.32c1.4.2,2.76.53,4.08,1.05l-2.13-.9c.98.43,1.88.95,2.74,1.6l-1.81-1.4c.87.7,1.63,1.49,2.33,2.36l-1.4-1.81c1.15,1.51,2.03,3.17,2.78,4.91l-.9-2.13c2.35,5.65,3.69,11.8,4.53,17.85l-.32-2.37c.79,5.93,1.16,12.11.5,18.08l.32-2.37c-.1.74-.25,1.43-.53,2.13l.9-2.13c-.16.33-.32.61-.53.91l1.4-1.81c-.15.19-.31.36-.49.51l1.81-1.4c-.32.24-.62.42-.98.59l2.13-.9c-.5.18-.98.3-1.51.39l2.37-.32c-3.27.4-6.65.33-9.93.38-3.52.05-7.05.04-10.57-.05-6.82-.16-13.72-.43-20.49-1.29l2.37.32c-1.06-.15-2.09-.37-3.09-.76l2.13.9c-.61-.27-1.16-.58-1.69-.98l1.81,1.4c-.38-.32-.71-.66-1.02-1.04l1.4,1.81c-.44-.6-.79-1.22-1.1-1.89l.9,2.13c-.77-1.87-1.14-3.87-1.51-5.85-.45-2.36-.82-4.73-1.14-7.11l.32,2.37c-1.5-11.45-1.49-23.04.03-34.49l-.32,2.37c.2-1.5.33-3.06.86-4.48l-.9,2.13c.15-.33.31-.61.52-.9l-1.4,1.81c.15-.18.31-.34.5-.48l-1.81,1.4c.22-.16.45-.28.7-.38l-2.13.9c.25-.09.51-.16.78-.2l-2.37.32c1.83-.23,3.74-.1,5.59-.1s3.78,0,5.68-.01c3.87,0,7.73-.01,11.6-.02s7.57-.01,11.35-.02c3.56,0,7.18-.2,10.72.23l-2.37-.32c1.33.19,2.6.49,3.85,1l-2.13-.9c.73.33,1.4.71,2.05,1.18l-1.81-1.4c.65.5,1.21,1.06,1.73,1.69l-1.4-1.81c.63.82,1.13,1.7,1.55,2.65l-.9-2.13c.64,1.55,1.01,3.16,1.25,4.81l-.32-2.37c.51,3.88.39,7.84.42,11.75.03,4.7.04,9.4.01,14.09-.02,4.62-.07,9.23-.14,13.84s.12,8.91-.43,13.27l.32-2.37c-.16,1.06-.4,2.07-.81,3.06l.9-2.13c-.28.6-.6,1.15-1,1.69l1.4-1.81c-.4.48-.82.89-1.31,1.28l1.81-1.4c-.7.51-1.44.91-2.23,1.26l2.13-.9c-2.55,1.01-5.31,1.33-8,1.7l2.37-.32c-12.02,1.6-24.2,1.62-36.22.05l2.37.32c-2.77-.37-5.59-.71-8.21-1.74l2.13.9c-.88-.37-1.7-.82-2.47-1.4l1.81,1.4c-.46-.38-.87-.78-1.25-1.24l1.4,1.81c-.4-.53-.72-1.08-1-1.68l.9,2.13c-.47-1.13-.73-2.3-.91-3.51l.32,2.37c-.67-5.1-.93-10.28-1.27-15.41-.34-5.13-.61-10.26-.81-15.39-.2-5.13-.32-10.27-.38-15.41-.03-2.65-.04-5.3-.03-7.95,0-2.37-.09-4.77.16-7.13l-.32,2.37c.1-.71.24-1.38.49-2.06l-.9,2.13c.19-.43.4-.8.68-1.18l-1.4,1.81c.25-.28.48-.51.78-.75l-1.81,1.4c.33-.22.64-.39,1-.55l-2.13.9c.74-.28,1.5-.44,2.28-.56l-2.37.32c16.09-2.14,32.48-3.89,48.73-3.35,4.62.15,9.22.52,13.8,1.13l-2.37-.32c3.09.42,6.25.82,9.15,2.03l-2.13-.9c.82.36,1.58.78,2.3,1.3l-1.81-1.4c.51.4.97.83,1.38,1.33l-1.4-1.81c.4.52.72,1.07.98,1.68l-.9-2.13c.19.54.33,1.08.43,1.64l-.32-2.37c.27,2.06.14,4.17.14,6.24,0,2.24-.01,4.49-.02,6.73-.01,4.49-.03,8.97-.04,13.46-.03,8.89-.06,17.78-.09,26.66-.02,4.76.32,9.67-.23,14.4l.32-2.37c-.15,1.1-.4,2.15-.8,3.18l.9-2.13c-.31.7-.69,1.35-1.15,1.97l1.4-1.81c-.51.63-1.07,1.18-1.71,1.68l1.81-1.4c-.95.7-1.97,1.24-3.05,1.7l2.13-.9c-4.28,1.71-9.06,2.21-13.59,2.83l2.37-.32c-10.21,1.35-20.51,1.79-30.8,1.8-5.12,0-10.24-.1-15.36-.24-4.67-.13-9.44-.04-14.08-.61l2.37.32c-1.54-.21-3.05-.53-4.5-1.1l2.13.9c-.85-.36-1.64-.8-2.38-1.35l1.81,1.4c-.55-.44-1.03-.91-1.48-1.45l1.4,1.81c-.47-.63-.86-1.28-1.18-2l.9,2.13c-.45-1.1-.72-2.23-.89-3.4l.32,2.37c-.6-4.76-.23-9.72-.23-14.51v-15.67c.01-10.45.02-20.9.02-31.35,0-5.97,0-11.94,0-17.91,0-4.67-4.11-9.15-8.93-8.93s-8.93,3.92-8.93,8.93h0Z"/>
  <g>
    <path class="cls-1" d="M5.74,10.67h93.87c10.88,0,19.7,8.83,19.7,19.7v70.42c0,10.91-8.86,19.77-19.77,19.77H25.5c-10.91,0-19.77-8.86-19.77-19.77V10.67h0Z"/>
    <g>
      <path d="M18.71,117.73c-.42-.94-.63-2.06-.64-3.11-.01-1.11.15-2.08.53-3.16.04-.12.09-.25.14-.37.02-.06.05-.12.07-.18-.04.11.02-.04.02-.05.11-.25.23-.5.36-.75.25-.47.54-.93.86-1.36.24-.33.57-.73.92-1.1.37-.39.76-.76,1.18-1.11,1.62-1.35,3.77-2.46,5.7-3.19,1.04-.39,2.11-.72,3.19-.97.53-.12,1.07-.23,1.61-.32.14-.02.27-.04.41-.06.07-.01.14-.02.2-.03-.11.02.06,0,.06,0,.29-.04.58-.07.87-.1,1.25-.12,2.5-.14,3.75-.07s2.35.22,3.62.5c.46.1,1.01-.14,1.12-.64.1-.46-.14-1.01-.64-1.12-4.7-1.03-9.67-.73-14.21.88s-8.89,4.39-10.78,8.96c-1.09,2.64-1.1,5.65.06,8.27.2.45.86.56,1.25.33.46-.27.53-.8.33-1.25h0Z"/>
      <path d="M42.82,101.85c.87-3.44,2.9-6.48,5.41-8.98,1.25-1.24,2.47-2.23,3.93-3.15s2.91-1.63,4.46-2.16c.81-.27,1.64-.5,2.48-.66.21-.04.42-.08.63-.11.1-.02.2-.03.29-.05.05,0,.1-.01.15-.02-.1.01.02,0,.05,0,.45-.05.91-.09,1.37-.12,1.99-.1,3.91.13,5.82.67,3.49,1,6.68,3.09,9.27,5.52,1.25,1.18,2.31,2.4,3.2,3.78.45.69.85,1.41,1.2,2.16.3.65.58,1.43.8,2.23.11.41.2.82.27,1.23.09.49.68.76,1.12.64.51-.14.72-.63.64-1.12-.62-3.55-2.57-6.73-5.03-9.31-2.65-2.77-5.97-5.07-9.56-6.42-3.79-1.42-8-1.6-11.91-.56-3.53.94-6.78,2.81-9.49,5.24-2.83,2.53-5.2,5.73-6.45,9.34-.16.45-.29.91-.41,1.37s.15.99.64,1.12,1-.16,1.12-.64h0Z"/>
      <path d="M83.35,102.81c2.49-.55,5.05-.71,7.67-.49,1.27.11,2.47.3,3.76.62,1.15.28,2.28.63,3.37,1.07.06.02.11.05.17.07-.13-.05.01,0,.03.01.14.06.28.12.41.18.25.11.49.23.73.35.51.26,1,.54,1.48.84.23.14.45.29.67.44.1.07.19.14.29.21.06.04.12.09.18.13.05.04.05.04,0,0,.04.03.07.05.1.08.43.34.84.7,1.22,1.09.19.19.37.38.55.58.09.1.17.2.26.3.05.06.09.11.14.17.1.12,0-.01.05.06.33.43.62.88.88,1.35.12.23.24.46.35.69.02.05.05.1.07.16.11.25-.04-.09.03.06s.12.29.17.44c.17.49.31.99.41,1.49.03.15.06.31.08.47,0,.04.03.23,0,.06.01.09.02.17.03.26.03.28.04.57.05.85s0,.59-.03.89c-.01.15-.03.31-.05.46,0-.04.03-.17,0,0-.01.08-.03.17-.04.25-.05.28-.12.55-.19.82-.04.15-.09.29-.14.44-.02.07-.05.13-.07.2-.01.04-.11.26-.03.09-.23.54-.53,1.06-.88,1.53-.28.38-.08,1.03.33,1.25.48.25.94.08,1.25-.33,1.37-1.85,1.88-4.27,1.64-6.54-.26-2.43-1.25-4.65-2.83-6.51-3.26-3.84-8.41-5.66-13.27-6.29-3.1-.4-6.26-.23-9.31.44-.47.1-.78.67-.64,1.12.16.49.62.75,1.12.64h0Z"/>
      <path d="M27.68,119.94c-.85-.39-1.48-.82-2.1-1.42-.15-.15-.3-.31-.44-.47-.07-.08-.14-.16-.21-.25-.09-.12.06.09-.02-.03-.04-.06-.09-.12-.13-.19-.12-.18-.23-.36-.34-.54-.04-.08-.09-.16-.13-.24-.03-.05-.05-.11-.08-.16,0-.02-.1-.22-.06-.14.02.04-.07-.18-.09-.23-.04-.1-.07-.2-.1-.3-.06-.22-.12-.44-.16-.66,0-.04-.02-.09-.02-.13-.02-.15.01.13,0-.03,0-.11-.02-.21-.02-.32-.01-.23,0-.47.01-.7,0-.05,0-.1.01-.15-.01.13,0-.03,0-.05.02-.11.04-.22.07-.34.05-.24.12-.47.2-.71.09-.26.09-.26.22-.51.11-.22.23-.44.36-.65.99-1.56,2.71-2.65,4.47-3.26,2.07-.73,4.25-1.03,6.44-1.03,1.12,0,2.24.09,3.32.28s2.25.51,3.4.62c1.09.11,2.22-.06,3.17-.64.75-.45,1.33-1.12,1.78-1.86.89-1.46,1.25-3.17,1.84-4.75.04-.1.07-.2.11-.3.02-.06.04-.11.07-.17,0,.02-.05.11,0,0,.09-.21.18-.41.28-.62.2-.41.42-.8.65-1.19s.47-.74.73-1.09c.06-.09.13-.17.19-.25-.08.1.09-.11.11-.14.14-.18.29-.35.44-.52,1.2-1.36,2.41-2.34,3.95-3.22.38-.22.77-.42,1.17-.6.1-.04.19-.09.29-.13.06-.02.11-.05.17-.07-.02,0-.11.04,0,0,.21-.09.42-.17.63-.25.84-.3,1.7-.54,2.57-.69.1-.02.21-.04.31-.05.04,0,.09-.01.13-.02.15-.02-.13.02.03,0,.22-.03.45-.05.68-.07.44-.03.88-.05,1.31-.04s.88.04,1.31.08c.06,0,.12.01.18.02,0,0,.15.02.06,0s.05,0,.06,0c.06,0,.12.02.18.03.22.04.45.08.67.12.86.18,1.7.43,2.51.75.1.04.2.08.29.12-.12-.05.12.05.16.07.21.09.41.19.61.29.41.2.8.42,1.19.66s.74.47,1.09.73c.09.06.17.13.26.19,0,0,.12.09.05.04-.08-.06.07.06.09.07.18.14.35.29.52.43.66.57,1.28,1.2,1.84,1.88.07.08.13.16.2.25.03.04.06.07.08.11-.08-.11.01.02.02.03.13.18.27.36.4.55.25.36.48.73.69,1.11s.41.77.59,1.17c.02.03.12.28.07.16.04.1.08.2.12.29.09.23.17.46.25.69.34,1.01.64,2.05,1.16,3s1.22,1.66,2.08,2.24c1.74,1.16,3.9,1.47,5.95,1.46,1.21,0,2.42-.1,3.64-.13,1.09-.02,2.24.03,3.28.17,1.12.15,2.23.4,3.3.72.99.3,1.71.56,2.56,1.01s1.37.81,1.99,1.47c.08.09.16.17.23.26.03.03.15.2.07.09.13.19.26.38.37.58.04.08.08.15.12.23.08.16.03.06.01.02.02.05.04.11.06.16.07.21.13.42.17.63,0,.04.02.09.02.13,0-.04-.01-.15,0,.04,0,.11.02.22.02.32s0,.21,0,.32c0,.05-.04.36-.02.21-.03.21-.08.41-.14.62-.03.1-.06.2-.1.3-.02.04-.03.09-.05.13l-.03.09c.03-.06.03-.06,0,0-.41.87-.89,1.51-1.49,2.17s-1.33,1.32-2.04,1.92c-.38.32-.33.96,0,1.29.37.37.91.32,1.29,0,1.49-1.26,3.03-2.69,3.84-4.5s.75-3.98-.5-5.64-2.99-2.59-4.84-3.25c-2.23-.8-4.61-1.23-6.98-1.3-1.22-.03-2.45.06-3.67.1-.62.02-1.23.04-1.85.01-.56-.02-1.06-.06-1.49-.14-.48-.08-.94-.2-1.4-.36-.41-.14-.73-.28-1.17-.55s-.63-.41-.99-.79c-.08-.08-.15-.16-.22-.25-.12-.14-.06-.07-.03-.04-.04-.06-.08-.11-.12-.17-.15-.21-.28-.44-.39-.67-.22-.43-.36-.83-.53-1.33s-.32-.99-.5-1.49c-.33-.9-.73-1.77-1.22-2.59-.95-1.61-2.2-3.06-3.64-4.25-2.91-2.41-6.58-3.9-10.38-3.93s-7.49,1.42-10.42,3.8c-1.44,1.17-2.69,2.59-3.67,4.17-.5.81-.92,1.67-1.26,2.56-.31.81-.55,1.64-.83,2.46-.07.21-.14.41-.22.61-.04.09-.07.19-.11.28-.02.05-.04.11-.06.16.04-.09.02-.04,0,.02-.17.38-.35.75-.57,1.1-.06.09-.12.18-.18.27-.02.03-.05.06-.07.1-.08.11.09-.1,0,0-.13.15-.26.29-.4.43-.03.03-.27.22-.12.11-.07.06-.15.11-.23.16s-.16.1-.24.14c-.05.03-.3.14-.15.08-.99.4-2.04.23-3.08,0-1.19-.25-2.38-.49-3.6-.61-2.4-.23-4.86-.05-7.21.51-2.12.5-4.22,1.38-5.83,2.88-1.52,1.42-2.59,3.46-2.55,5.58.04,1.99,1.02,3.86,2.45,5.21.69.66,1.5,1.21,2.37,1.61.45.2.98.13,1.25-.33.23-.39.12-1.04-.33-1.25h0Z"/>
      <path d="M25.94,119.37c.43-1.22,1.2-2.62,2.05-3.6.23-.26.46-.51.71-.75.11-.11.23-.21.35-.31.07-.06.14-.12.21-.18.05-.04.1-.08.15-.12-.06.05-.05.04.04-.03.55-.39,1.24-.8,1.77-1.01,3.17-1.2,6.58-.47,9.92-.32,2.97.13,6.2-.24,8.53-2.27,1.22-1.06,1.95-2.52,2.54-4s.98-2.78,1.69-4.09,1.54-2.41,2.73-3.4c.13-.11.19-.16.26-.21.15-.11.31-.22.47-.33.32-.21.65-.4,1-.56.65-.31,1.45-.54,2.22-.67.68-.11,1.58-.14,2.36-.09s1.53.17,2.35.37c1.51.38,2.95.93,4,2.06.27.28.35.39.56.71s.42.68.6,1.03c.17.33.32.67.47,1.01-.02-.04-.05-.12.02.05.04.09.07.18.11.27.09.21.17.42.26.64.57,1.42,1.16,2.82,2.07,4.06,1.84,2.5,4.46,4.35,7.47,5.15,1.8.48,3.68.6,5.53.67,1.67.06,3.48.07,5.07.3s3.16.64,4.51,1.5c.6.38,1.02.73,1.53,1.29.12.14.25.28.36.42-.08-.11.03.05.05.07.04.06.09.13.13.19.2.3.38.62.53.96-.07-.16.04.11.05.12.03.08.06.17.09.26.05.14.09.29.12.44.02.09.04.18.06.27,0,.01.04.3.02.12.02.18.03.37.03.55,0,.49.41.91.91.91s.92-.42.91-.91c-.06-3.35-2.67-5.93-5.62-7.11-3.4-1.36-7.16-1.01-10.74-1.29-.86-.07-1.66-.17-2.51-.36-.44-.1-.87-.21-1.3-.36-.15-.05-.3-.1-.45-.16-.09-.03-.18-.07-.27-.1-.1-.04-.12-.05-.04-.02-.06-.02-.12-.05-.17-.08-.69-.31-1.36-.68-1.98-1.11-.31-.21-.49-.35-.72-.54-.29-.24-.57-.5-.84-.76s-.53-.55-.77-.83c-.27-.32-.36-.44-.61-.79-.43-.63-.8-1.3-1.12-2-.58-1.27-1.08-2.86-1.83-4.19-.83-1.47-2.04-2.63-3.57-3.33-1.64-.76-3.46-1.17-5.26-1.28s-3.59.16-5.23.89c-1.41.62-2.65,1.62-3.65,2.78-1.08,1.25-1.89,2.67-2.52,4.19s-1,2.91-1.74,4.24c-.39.71-.75,1.19-1.34,1.72-.05.04-.09.08-.14.12,0,0-.23.19-.1.08-.14.11-.29.21-.44.31-.3.19-.62.36-.95.51-.26.12.16-.06-.12.05-.08.03-.17.07-.25.1-.17.06-.35.12-.52.17-.35.11-.71.19-1.08.26-.18.03-.37.07-.55.09.04,0,.15-.02-.04,0-.09.01-.19.02-.28.03-.39.04-.79.07-1.18.08-3.43.11-6.84-.75-10.26-.13s-5.88,2.78-7.43,5.65c-.37.68-.67,1.39-.93,2.12-.16.46.19,1,.64,1.12.5.14.96-.17,1.12-.64h0Z"/>
      <path d="M29.4,113.61c1.94,2.02,4.36,3.54,7.01,4.45s5.69,1.13,8.55.64,5.72-1.75,7.95-3.66c1.11-.96,1.98-2.15,2.64-3.45s1.15-2.63,1.71-3.88c.27-.59.55-1.17.89-1.73.16-.27.33-.53.52-.79.1-.14.15-.2.2-.27.1-.12.2-.24.3-.36.2-.23.42-.45.65-.66.25-.22.29-.26.61-.47.25-.16.51-.31.79-.43-.13.06,0,0,.03-.01.08-.03.17-.06.25-.09.14-.05.29-.09.44-.12.09-.02.18-.04.27-.05-.04,0-.15.01.03,0,.15-.01.31-.02.46-.02s.31.01.46.03c.03,0,.18.03.03,0,.09.01.18.03.27.05.65.14,1.01.3,1.57.65.98.63,1.68,1.58,2.13,2.76.51,1.32.9,2.66,1.57,3.92.6,1.12,1.35,2.17,2.2,3.11,1.7,1.91,3.86,3.38,6.23,4.32,4.94,1.95,10.85,1.09,15.12-2.04.56-.41,1.1-.85,1.6-1.33.36-.34.34-.95,0-1.29s-.93-.34-1.29,0c-.24.22-.48.44-.73.65s-.38.3-.67.51c-.53.38-1.08.72-1.66,1.02-1.09.58-2.15.98-3.42,1.29-.3.07-.6.14-.91.19-.39.07-.55.09-.87.13-.63.07-1.26.1-1.9.08-1.29-.02-2.33-.18-3.59-.55-1.18-.35-2.06-.74-3.14-1.38s-1.89-1.26-2.8-2.15-1.51-1.64-2.15-2.68c-.32-.52-.61-1.06-.87-1.62-.14-.3-.14-.31-.26-.63-.14-.37-.27-.75-.4-1.12-.48-1.39-1.03-2.74-2.09-3.79-.92-.92-2.15-1.62-3.44-1.84-1.36-.23-2.71,0-3.91.68-1.13.64-2.03,1.61-2.78,2.66-1.59,2.26-2.15,4.91-3.57,7.23s-3.9,3.83-6.4,4.69c-1.3.45-2.65.73-3.95.83-1.4.1-2.79.03-4.07-.22-2.54-.5-4.96-1.62-6.91-3.22-.51-.42-.99-.87-1.45-1.34-.34-.36-.95-.34-1.29,0s-.34.93,0,1.29h0Z"/>
      <path d="M8.5,47.31c.15-.08.31-.16.47-.23.01,0,.27-.12.1-.05.08-.03.16-.06.24-.1.35-.13.71-.24,1.07-.33.31-.07.62-.13.93-.18.28-.04-.18.02.1-.01.09,0,.17-.02.26-.03.2-.02.41-.03.61-.04.71-.03,1.42-.01,2.12.04.33.03.65.06.98.1.09.01.18.02.27.03-.19-.02.1.01.11.02.21.03.41.06.62.09,1.48.24,2.96.53,4.41.88s2.78.79,4.03,1.48c.34.19.67.39.98.61.07.05.14.09.2.14.03.02.29.22.14.11.13.1.26.21.38.32.29.25.56.52.81.81.05.06.11.12.16.19.03.04.07.08.1.13-.06-.08-.06-.07,0,.01.11.16.22.31.33.47.26.4.82.6,1.25.33.4-.26.6-.82.33-1.25-1.69-2.64-4.59-4.1-7.53-4.91-1.53-.42-3.11-.72-4.67-.99s-3.08-.47-4.64-.44c-1.78.04-3.53.39-5.11,1.23-.42.22-.59.85-.33,1.25.28.43.8.57,1.25.33h0Z"/>
      <path d="M8.19,31.81c.27-.07.53-.12.8-.16.16-.02-.12.01.04,0,.06,0,.13-.01.19-.02.14-.01.29-.02.43-.03.56-.03,1.12,0,1.67.05.06,0,.13.01.19.02.16.02-.12-.02.04,0,.13.02.26.04.38.06.29.05.57.11.86.17.54.12,1.07.28,1.6.45s1.08.37,1.61.58c.23.09.46.18.68.28.02,0,.16.07.04.01.06.02.11.05.17.07.14.06.28.12.42.19.94.43,1.86.92,2.7,1.52.1.07.2.14.29.22-.1-.08.02.01.03.03.05.04.09.08.14.12.22.18.42.37.62.56.4.39.76.8,1.11,1.23.37.45.58.73.93,1.2.31.41.61.83.91,1.26.6.86,1.17,1.75,1.7,2.67.26.45.5.9.73,1.37.11.22.21.44.31.66.05.11.1.22.15.33.02.06.05.11.07.17-.06-.15.05.11.05.11.43,1.05.77,2.13.98,3.24.03.14.05.29.08.44,0,.06.02.12.03.18,0,.01.04.29.02.11.03.28.06.56.08.84.04.58.04,1.16,0,1.74-.03.48.44.93.91.91.52-.02.88-.4.91-.91.28-4.43-1.65-8.64-4.08-12.23-.63-.94-1.31-1.85-2-2.74s-1.46-1.79-2.36-2.52c-1.79-1.43-3.9-2.36-6.05-3.13-2.51-.89-5.24-1.42-7.87-.77-.46.11-.79.66-.64,1.12s.62.76,1.12.64h0Z"/>
      <path d="M48.74,36.1c.01,2.54.05,5.08.07,7.62.02,1.94,0,3.87-.04,5.81-.04,1.53-.09,3.06-.14,4.58-.02.48.43.93.91.91.51-.02.89-.4.91-.91.09-2.41.16-4.82.18-7.24.02-1.97-.01-3.94-.03-5.91-.02-1.62-.03-3.24-.04-4.86,0-.48-.42-.93-.91-.91s-.91.4-.91.91h0Z"/>
      <path d="M49.64,54.95c6.57.19,13.15.3,19.73.34,1.87.01,3.75.02,5.62.02.49,0,.91-.42.91-.91s-.42-.91-.91-.91c-6.58,0-13.15-.07-19.73-.21-1.87-.04-3.75-.09-5.62-.14-.49-.01-.91.43-.91.91s.42.9.91.91h0Z"/>
      <path d="M74.55,35.6c0,2.6,0,5.21-.07,7.81-.05,1.63-.13,3.25-.18,4.88-.06,1.91-.09,3.81-.13,5.72,0,.48.43.93.91.91s.9-.4.91-.91c.05-2.75.1-5.49.21-8.24.06-1.59.12-3.17.14-4.76.02-1.8.02-3.61.02-5.41,0-.48-.42-.93-.91-.91s-.91.4-.91.91h0Z"/>
      <path d="M53.46,35.7c0,1.89-.01,3.78-.05,5.67-.03,1.46-.07,2.92-.09,4.38-.01,1.21-.02,2.41-.02,3.62,0,.48.42.93.91.91s.91-.4.91-.91c0-1.89.01-3.78.05-5.67.03-1.46.07-2.92.09-4.38.01-1.21.02-2.41.02-3.62,0-.48-.42-.93-.91-.91s-.91.4-.91.91h0Z"/>
      <path d="M54.26,50.52c4.16-.03,8.33-.06,12.49-.1,1.17,0,2.33-.02,3.5-.03.48,0,.93-.42.91-.91s-.4-.92-.91-.91c-4.16.03-8.33.06-12.49.1-1.17,0-2.33.02-3.5.03-.48,0-.93.42-.91.91s.4.92.91.91h0Z"/>
      <path d="M71.21,49.58c.09-1.67.23-3.34.34-5s.16-3.19.16-4.79c0-1.39-.03-2.79-.06-4.18-.01-.48-.41-.93-.91-.91s-.92.4-.91.91c.06,2.17.09,4.34.03,6.52-.05,1.46-.16,2.91-.26,4.37-.07,1.03-.14,2.06-.2,3.09-.03.48.44.93.91.91.52-.02.88-.4.91-.91h0Z"/>
      <path d="M59.71,45.05c.02-.47.04-.95.05-1.42,0-.25,0-.5,0-.75,0-.31-.01-.62-.02-.93,0-.65,0-1.31,0-1.96,0-1.28.02-2.56.03-3.84,0-.22,0-.43,0-.65,0-.48-.42-.93-.91-.91s-.91.4-.91.91c-.02,1.38-.03,2.76-.04,4.13,0,.72,0,1.43,0,2.15,0,.34.01.67.02,1.01,0,.24,0,.48,0,.73,0,.43-.03.86-.05,1.29,0,.08,0,.16-.01.24-.02.48.43.93.91.91.51-.02.89-.4.91-.91h0Z"/>
      <path d="M58.84,45.97c1.83-.02,3.67-.04,5.5-.06.51,0,1.03-.01,1.54-.02.24,0,.48-.1.64-.27.16-.16.28-.42.27-.64s-.09-.48-.27-.64-.4-.27-.64-.27c-1.83.02-3.67.04-5.5.06-.51,0-1.03.01-1.54.02-.24,0-.48.1-.64.27-.16.16-.28.42-.27.64s.09.48.27.64.4.27.64.27h0Z"/>
      <path d="M66.77,45c.02-1.16.06-2.32.1-3.48.05-1.35.1-2.7.14-4.05.02-.59.04-1.18.04-1.77,0-.48-.42-.93-.91-.91s-.9.4-.91.91c-.02,1.16-.06,2.32-.1,3.48-.05,1.35-.1,2.7-.14,4.05-.02.59-.04,1.18-.04,1.77,0,.48.42.93.91.91s.9-.4.91-.91h0Z"/>
      <path d="M97.29,51.68c-.07-1.06-.06-2.12.03-3.18.02-.25.05-.5.08-.75.02-.17-.03.22,0-.06,0-.06.02-.12.03-.17.02-.15.05-.29.07-.44.09-.52.2-1.04.33-1.55s.28-.99.44-1.48c.08-.24.17-.47.26-.7.05-.12.1-.25.15-.37.06-.16-.09.19.03-.07.03-.07.06-.13.09-.2.42-.95.93-1.86,1.51-2.72.15-.22.3-.43.46-.64.04-.05.07-.09.11-.14-.09.11,0,0,.02-.02.09-.11.18-.23.28-.34.39-.47.8-.92,1.23-1.35.76-.76,1.56-1.48,2.41-2.15.05-.04.09-.07.14-.11-.11.09,0,0,.03-.02.11-.08.21-.16.32-.24.23-.17.45-.33.69-.49.43-.29.86-.57,1.31-.83s.92-.52,1.39-.76c.22-.11.45-.22.67-.32.12-.05.24-.11.36-.16.14-.06-.11.05.02-.01.08-.03.16-.07.24-.1,1.08-.43,2.2-.77,3.34-.99.28-.06.57-.1.86-.14.15-.02-.13.01.02,0,.09,0,.17-.02.26-.03.14-.02.29-.03.43-.04.6-.05,1.19-.06,1.79-.04.48.02.93-.43.91-.91-.02-.51-.4-.89-.91-.91-4.45-.15-8.79,1.58-12.34,4.19-1.91,1.41-3.67,3.03-5.1,4.93-1.34,1.77-2.32,3.81-2.96,5.93-.72,2.38-.99,4.92-.82,7.4.03.47.4.93.91.91.47-.02.95-.4.91-.91h0Z"/>
      <path d="M97.1,52.27c.27-.23.54-.46.81-.69.11-.09.23-.19.35-.28,0,0,.23-.18.1-.08.09-.07.19-.14.28-.21.54-.41,1.1-.8,1.67-1.16,1.14-.74,2.34-1.39,3.57-1.96.16-.07.32-.15.49-.22.05-.02.11-.05.16-.07.27-.12-.16.06.11-.05.33-.13.66-.27.99-.39.65-.24,1.32-.46,1.99-.66,1.5-.43,2.88-.7,4.35-.78,1.75-.09,3.24.1,4.9.62.45.14,1.01-.17,1.12-.64.11-.5-.15-.97-.64-1.12-3.12-.99-6.42-.84-9.56-.03-2.82.73-5.55,1.92-8.02,3.46-1.39.87-2.72,1.86-3.95,2.94-.36.32-.35.97,0,1.29.38.35.91.34,1.29,0h0Z"/>
      <path d="M50.56,36.1c.27-6.53.34-13.07.22-19.61-.04-1.85-.09-3.69-.15-5.54-.02-.49-.41-.91-.91-.91s-.93.42-.91.91c.24,6.53.28,13.07.12,19.61-.05,1.85-.11,3.69-.18,5.54-.02.49.43.91.91.91.51,0,.89-.42.91-.91h0Z"/>
      <path d="M49.82,11.94c6.57-.19,13.15-.3,19.73-.34,1.87-.01,3.75-.02,5.62-.02.49,0,.91-.42.91-.91s-.42-.91-.91-.91c-6.58,0-13.15.07-19.73.21-1.87.04-3.75.09-5.62.14-.49.01-.91.41-.91.91s.42.93.91.91h0Z"/>
      <path d="M76.38,35.6c0-3.3,0-6.59-.01-9.89-.01-2.72-.04-5.43-.08-8.14-.03-2.17-.07-4.34-.1-6.51,0-.49-.41-.91-.91-.91s-.92.42-.91.91c.06,3.44.12,6.88.15,10.32.03,2.67.04,5.35.04,8.02,0,2.07,0,4.14,0,6.2,0,.49.42.91.91.91s.91-.42.91-.91h0Z"/>
      <path d="M55.29,35.7c0-5.21.01-10.42.02-15.64,0-1.46,0-2.92,0-4.38,0-.48-.42-.93-.91-.91s-.91.4-.91.91c0,5.21-.01,10.42-.02,15.64,0,1.46,0,2.92,0,4.38,0,.48.42.93.91.91s.91-.4.91-.91h0Z"/>
      <path d="M54.44,16.37c4.16.03,8.33.06,12.49.1,1.17,0,2.33.02,3.5.03.48,0,.93-.42.91-.91s-.4-.91-.91-.91c-4.16-.03-8.33-.06-12.49-.1-1.17,0-2.33-.02-3.5-.03-.48,0-.93.42-.91.91s.4.91.91.91h0Z"/>
      <path d="M69.57,15.49c.18,5.11.36,10.22.33,15.34,0,1.59-.03,3.18-.07,4.78-.01.48.43.93.91.91s.9-.4.91-.91c.14-5.29.06-10.57-.11-15.86-.05-1.42-.1-2.84-.15-4.26-.02-.48-.41-.93-.91-.91s-.93.4-.91.91h0Z"/>
      <path d="M58.06,20.01c.06,1.39.03,2.78,0,4.17-.05,2.03-.1,4.05-.12,6.08-.01,1.74,0,3.49.02,5.23,0,.48.42.93.91.91s.92-.4.91-.91c-.03-2.76-.03-5.52.03-8.28.03-1.65.1-3.29.11-4.94,0-.76,0-1.51-.03-2.27-.02-.48-.4-.93-.91-.91-.48.02-.93.4-.91.91h0Z"/>
      <path d="M59.02,20.92c1.83.02,3.67.04,5.5.06l1.54.02c.23,0,.48-.1.64-.27s.28-.42.27-.64-.09-.48-.27-.64-.4-.26-.64-.27c-1.83-.02-3.67-.04-5.5-.06-.51,0-1.03-.01-1.54-.02-.23,0-.48.1-.64.27s-.28.42-.27.64.09.48.27.64.4.26.64.27h0Z"/>
      <path d="M65.13,20.06c.05,4.07.13,8.14.14,12.21,0,1.14,0,2.28-.02,3.43,0,.48.42.93.91.91s.9-.4.91-.91c.07-4.07-.02-8.15-.07-12.22l-.04-3.42c0-.48-.41-.93-.91-.91s-.92.4-.91.91h0Z"/>
    </g>
  </g>
</svg>