<?xml version="1.0" encoding="UTF-8"?>
<svg id="Layer_1" data-name="Layer 1" xmlns="http://www.w3.org/2000/svg" viewBox="0 0 125.05 131.38">
  <defs>
    <style>
      .cls-1 {
        fill: none;
        stroke: #000;
        stroke-linecap: round;
        stroke-linejoin: round;
        stroke-width: 3.14px;
      }

      .cls-2 {
        fill: #fec766;
      }
    </style>
  </defs>
  <path class="cls-2" d="M25.33,109.82c.02-20.29.04-40.58.06-60.87,0-2.91,0-5.82,0-8.73,0-2.61-.11-5.25.19-7.84l-.32,2.37c.15-1.07.39-2.1.8-3.11l-.9,2.13c.27-.6.59-1.15.98-1.69l-1.4,1.81c.43-.54.9-1.01,1.44-1.45l-1.81,1.4c.74-.55,1.52-.99,2.36-1.35l-2.13.9c1.56-.62,3.19-.97,4.85-1.2l-2.37.32c4.56-.58,9.2-.73,13.79-.99,4.97-.28,9.94-.51,14.91-.68,9.95-.34,19.9-.46,29.85-.35,2.82.03,5.64.08,8.46.14s5.42-.02,8.09.28l-2.37-.32c.39.07.7.16,1.07.3l-2.13-.9c.19.09.37.21.54.34l-1.81-1.4c.16.13.31.27.44.43l-1.4-1.81c.19.26.34.51.49.8l-.9-2.13c.26.62.41,1.25.51,1.92l-.32-2.37c.29,2.52.18,5.12.23,7.66s.1,5.31.16,7.97c.11,5.48.21,10.96.32,16.44.22,11.04.43,22.08.65,33.12.06,3.07.12,6.14.18,9.21.06,2.88.34,5.86.08,8.74l.32-2.37c-.08.58-.2,1.12-.42,1.66l.9-2.13c-.09.2-.2.39-.33.56l1.4-1.81c-.13.18-.28.34-.44.48l1.81-1.4c-.18.16-.38.28-.6.38l2.13-.9c-.37.15-.7.23-1.1.29l2.37-.32c-2.75.22-5.66-.3-8.38-.66l2.37.32c-10.25-1.39-20.42-3.13-30.74-3.95-9.66-.76-19.35-.98-29.03-.65-5.53.18-11.06.55-16.56,1.09l8.61,11.3c2.86-17.79,4.96-35.72,6.15-53.71.33-4.91.58-9.83.78-14.75h-17.86c1.97,20.88,3.95,41.77,5.92,62.65.23,2.42.84,4.54,2.62,6.31,1.55,1.55,4.09,2.72,6.31,2.62,5.03-.23,8.69-3.92,8.93-8.93.86-17.56,1.72-35.12,2.57-52.68.24-4.97.49-9.94.73-14.91-5.85.79-11.69,1.58-17.54,2.37,3.42,16.61,6.85,33.23,10.27,49.84.97,4.72,1.95,9.45,2.92,14.17.42,2.02,2.29,4.38,4.1,5.34s3.66,1.33,5.69,1.06c4.34-.58,7.74-4.29,7.74-8.77,0-19.76-1.83-39.5-5.25-58.96-.35-2-2.35-4.41-4.1-5.34s-3.66-1.33-5.69-1.06c-4.13.55-8.04,4.32-7.74,8.77,1.33,19.71,5.62,39.17,13.14,57.45.88,2.14,1.93,4.19,4.1,5.34,1.8.95,3.66,1.33,5.69,1.06,4.2-.56,7.94-4.31,7.74-8.77-.95-21.23-3.2-42.39-6.59-63.37-5.74,1.58-11.48,3.17-17.22,4.75,5.28,18.62,11.26,37.04,17.93,55.21.78,2.12,2.01,4.23,4.1,5.34,1.8.95,3.66,1.33,5.69,1.06,4.39-.59,7.68-4.29,7.74-8.77.24-18.51-1.51-37.03-5-55.21-5.74,1.58-11.48,3.17-17.22,4.75,4.61,19.58,9.77,39.03,15.48,58.32,1.27,4.28,5.39,6.99,9.8,6.4s7.88-4.3,7.74-8.77c-.51-16.83-2.24-33.61-5.02-50.22-.33-1.99-2.36-4.42-4.1-5.34s-3.66-1.33-5.69-1.06c-4.1.55-8.09,4.33-7.74,8.77,1.36,17.5,4.93,34.79,11,51.28.78,2.13,2.01,4.23,4.1,5.34,1.8.95,3.66,1.33,5.69,1.06,4.47-.6,7.56-4.28,7.74-8.77.68-16.64.66-33.31-.08-49.94-.21-4.72-.48-9.43-.8-14.14-5.85.79-11.69,1.58-17.54,2.37,2.83,14.51,5.67,29.02,8.5,43.53.36,1.86,1.77,3.53,3.2,4.64,1.51,1.16,3.45,2,5.41,1.92,1.59-.07,3.1-.48,4.51-1.22,1.74-.92,3.77-3.35,4.1-5.34,1.53-9.18,2.8-18.78.32-27.92-1.32-4.86-3.82-9.46-7.36-13.06s-7.9-5.8-12.5-7.72c-3.83-1.6-7.83-2.75-11.66-4.36l2.13.9c-2.22-.95-4.36-2.06-6.29-3.53l1.81,1.4c-1.12-.88-2.13-1.87-3.03-2.98l-3.94,14.92c.92-.16,1.84-.3,2.76-.42l-2.37.32c6.02-.77,12.09-.75,18.11.03l-2.37-.32c4.36.6,8.91,1.45,12.99,3.14l-2.13-.9c.82.36,1.57.78,2.3,1.31l-1.81-1.4c.49.4.92.82,1.32,1.32l-1.4-1.81c.31.43.56.87.78,1.35l-.9-2.13c.3.74.49,1.47.62,2.26l-.32-2.37c.28,2.1.09,4.21-.05,6.32-.15,2.31-.31,4.63-.47,6.94-.34,4.87-.69,9.74-1.06,14.61-.73,9.66-1.53,19.31-2.38,28.96-.19,2.16,1.13,4.83,2.62,6.31s4.09,2.72,6.31,2.62,4.7-.86,6.31-2.62,2.4-3.84,2.62-6.31c1.25-14.18,2.38-28.38,3.38-42.58.25-3.54.55-7.08.71-10.62.18-4.02-.43-8.35-2.74-11.75-4.6-6.72-13.43-8.61-21.02-9.74-4.33-.64-8.67-1.1-13.05-1.06s-9.04.56-13.49,1.32c-2.98.51-5.47,3.47-6.24,6.24-.92,3.33.24,6.14,2.3,8.69,6.22,7.7,16.41,9.59,25.08,13.23l-2.13-.9c2.26.97,4.43,2.1,6.39,3.58l-1.81-1.4c1.28,1,2.42,2.12,3.43,3.39l-1.4-1.81c1.07,1.4,1.93,2.9,2.63,4.52l-.9-2.13c.9,2.2,1.46,4.49,1.78,6.84l-.32-2.37c.61,4.84.27,9.72-.36,14.54l.32-2.37c-.21,1.6-.46,3.19-.73,4.78h17.22c-2.83-14.51-5.67-29.02-8.5-43.53-.39-2.01-2.31-4.39-4.1-5.34s-3.66-1.33-5.69-1.06c-4.13.55-8.05,4.32-7.74,8.77,1.14,16.62,1.57,33.28,1.29,49.93-.08,4.72-.22,9.44-.41,14.16,5.85-.79,11.69-1.58,17.54-2.37-4.6-12.49-7.81-25.45-9.6-38.64l.32,2.37c-.45-3.41-.81-6.83-1.08-10.27-5.85.79-11.69,1.58-17.54,2.37.65,3.87,1.23,7.76,1.76,11.65l-.32-2.37c1.6,12.01,2.58,24.09,2.94,36.19,5.85-.79,11.69-1.58,17.54-2.37-5.71-19.29-10.87-38.74-15.48-58.32-1.07-4.55-6.51-7.68-10.98-6.24-4.9,1.59-7.18,6.06-6.24,10.98s1.71,9.6,2.37,14.43l-.32-2.37c1.71,12.73,2.48,25.56,2.31,38.4,5.85-.79,11.69-1.58,17.54-2.37-6.67-18.17-12.65-36.59-17.93-55.21-1.27-4.49-6.37-7.73-10.98-6.24-2.16.7-4.25,2.04-5.34,4.1-1.19,2.25-1.3,4.38-.9,6.88.76,4.68,1.45,9.38,2.09,14.08l-.32-2.37c2.09,15.57,3.48,31.22,4.19,46.91l17.54-2.37c-5.73-13.93-9.65-28.56-11.67-43.49l.32,2.37c-.51-3.85-.89-7.71-1.15-11.58-5.85.79-11.69,1.58-17.54,2.37.76,4.35,1.44,8.71,2.04,13.08l-.32-2.37c1.93,14.42,2.9,28.96,2.9,43.51,5.85-.79,11.69-1.58,17.54-2.37-3.42-16.61-6.85-33.23-10.27-49.84-.97-4.72-1.95-9.45-2.92-14.17-.42-2.02-2.29-4.38-4.1-5.34s-3.66-1.33-5.69-1.06c-4.5.6-7.52,4.28-7.74,8.77-.86,17.56-1.72,35.12-2.57,52.68-.24,4.97-.49,9.94-.73,14.91h17.86c-1.97-20.88-3.95-41.77-5.92-62.65-.23-2.42-.84-4.54-2.62-6.31-1.55-1.55-4.09-2.72-6.31-2.62-5,.22-8.73,3.92-8.93,8.93-.69,17.22-2.17,34.39-4.46,51.47l.32-2.37c-.66,4.88-1.38,9.75-2.16,14.61-.47,2.93-.26,5.38,1.6,7.78,1.58,2.05,4.28,3.78,7.01,3.52,19.94-1.93,40.06-1.56,59.92,1.09l-2.37-.32c5.48.74,10.93,1.7,16.42,2.42,2.45.32,4.94.66,7.41.69,4.46.06,8.87-2.04,11.08-6.03,1.59-2.89,1.82-6.1,1.75-9.32-.05-2.49-.1-4.98-.15-7.47-.1-4.98-.2-9.96-.29-14.94-.2-10.04-.39-20.09-.59-30.13-.1-4.98-.2-9.96-.29-14.94-.05-2.49-.1-4.98-.15-7.47-.05-2.76-.04-5.5-.61-8.22-.91-4.33-4.12-7.73-8.26-9.13-2.65-.9-5.84-.68-8.62-.76-4.97-.13-9.95-.21-14.93-.24-10.04-.05-20.07.13-30.1.53-4.97.2-9.94.45-14.91.76s-9.93.39-14.68,1.52c-2.28.54-4.66,1.45-6.58,2.8-3.23,2.27-5.33,5.01-6.79,8.68-1.87,4.7-1.31,10.35-1.31,15.32-.02,20.04-.04,40.08-.06,60.13v7.48c-.01,4.67,4.1,9.15,8.92,8.93s8.92-3.92,8.93-8.93h0Z"/>
  <g>
    <path class="cls-1" d="M25.48,10.12h74.17c10.88,0,19.7,8.83,19.7,19.7v90.19H5.78V29.82c0-10.88,8.83-19.7,19.7-19.7Z"/>
    <path d="M7.16,100.68c6.19-.06,12.39-.1,18.58-.19,3.01-.04,6.03-.13,9.02-.46s5.71-.81,8.51-1.54c3.16-.82,6.24-1.92,9.2-3.3.45-.21.57-.86.33-1.27-.27-.47-.81-.55-1.27-.33-4.99,2.33-10.54,3.82-15.97,4.49-2.97.37-5.96.49-8.96.55s-6.06.07-9.09.1c-3.45.03-6.91.07-10.36.1-.5,0-.93.42-.93.93s.42.93.93.93h0Z"/>
    <path d="M6.62,91.21c2.56.09,5.11.12,7.67.1.72,0,1.43-.02,2.15-.03.48-.01.95-.42.93-.93s-.41-.94-.93-.93c-2.56.05-5.11.05-7.67,0-.72-.02-1.43-.04-2.15-.06-.49-.02-.95.44-.93.93.02.52.41.91.93.93h0Z"/>
    <path d="M37.78,71.15c-.12.83-.22,1.7-.14,2.53s.27,1.55.59,2.3c.57,1.34,1.54,2.47,2.72,3.31,2.5,1.77,5.93,1.69,8.55.25.67-.37,1.3-.84,1.85-1.38.66-.66,1.14-1.44,1.44-2.32.52-1.52.55-3.23.19-4.78s-1.14-3.02-2.31-4.1-2.74-1.79-4.37-1.95c-.91-.09-1.85.03-2.72.29-.74.22-1.48.49-2.15.88-.71.42-1.35.97-1.9,1.58-.59.66-1.13,1.4-1.46,2.23-.15.37-.24.76-.3,1.15-.04.25-.04.48.09.71.11.19.33.38.55.43.44.1,1.06-.14,1.14-.65.06-.38.15-.74.28-1.1.06-.19-.07.15-.02.04.02-.04.04-.09.06-.13.03-.07.07-.13.11-.2.1-.17.2-.33.31-.49.05-.08.11-.16.17-.24.02-.03.05-.06.07-.09.1-.13-.03.05-.04.05.03,0,.16-.2.18-.23.06-.07.13-.15.19-.22.25-.27.51-.53.8-.77.03-.02.06-.05.09-.07.02-.01.17-.13.04-.04s.03-.02.05-.03c.03-.02.06-.05.09-.07.15-.11.3-.21.46-.3.14-.08.27-.15.41-.22.08-.04.16-.07.23-.11.05-.02.16-.06-.08.03.05-.02.1-.04.14-.06.32-.12.65-.23.98-.33.18-.05.36-.1.54-.14.09-.02.19-.04.28-.05.04,0,.12-.03.16-.02l-.12.02s.08,0,.13-.01c.4-.04.81-.04,1.21,0,.04,0,.08,0,.13.01.16.02-.07-.01-.09-.01.09,0,.18.03.27.04.18.03.35.07.52.12.15.04.31.09.46.15.08.03.15.06.22.09.12.05-.22-.1-.05-.02.05.02.1.04.15.07.31.14.6.31.88.5.06.04.12.08.18.12.02.02.16.13.03.02s.01.01.03.03c.14.11.27.23.4.35.12.11.23.23.34.35.05.05.1.11.14.16.03.03.06.07.09.1.13.16-.06-.09-.01-.02.2.28.39.57.56.87.08.15.16.31.23.46.02.03.03.07.04.1.06.14-.03-.06-.03-.07.02.09.08.19.11.28.12.32.22.66.29,1,.04.16.07.32.09.48,0,.04.02.09.02.14,0-.01-.03-.24-.01-.08.01.1.02.2.03.3.03.34.04.68.02,1.01,0,.17-.02.35-.04.52,0,.07-.05.36,0,.05-.01.09-.03.18-.04.27-.06.36-.15.73-.27,1.08-.01.03-.12.25-.1.28,0,0,.09-.21.02-.06-.02.04-.03.07-.05.11-.08.18-.18.35-.28.51-.01.02-.15.25-.17.24,0,0,.15-.18.03-.05-.03.03-.05.06-.08.09-.13.15-.27.3-.41.44-.12.11-.23.22-.36.32-.06.05-.14.1-.2.16,0,0,.19-.14.06-.05-.04.03-.08.06-.12.09-.27.19-.54.37-.83.52-.14.07-.28.14-.42.21-.08.04-.16.07-.24.11.01,0,.22-.09.08-.03-.05.02-.1.04-.14.06-.31.12-.62.21-.94.29-.15.04-.3.07-.46.1-.08.01-.15.03-.23.04-.07.01-.2,0,.07,0-.05,0-.1.01-.15.02-.32.03-.65.05-.98.04-.15,0-.31-.01-.46-.03-.08,0-.15-.02-.23-.02-.13-.01.25.04.07,0-.05,0-.1-.02-.15-.02-.32-.06-.64-.13-.95-.24-.14-.05-.3-.09-.43-.16,0,0,.22.1.08.04-.04-.02-.08-.03-.11-.05-.08-.04-.16-.08-.24-.12-.28-.14-.55-.31-.8-.49-.05-.04-.11-.08-.16-.12-.14-.11.15.12.05.04-.03-.03-.06-.05-.1-.08-.12-.1-.24-.2-.35-.31-.23-.22-.44-.45-.64-.69-.03-.03-.05-.06-.08-.1,0,0,.14.19.05.07-.05-.07-.1-.13-.14-.2-.09-.13-.17-.26-.25-.4-.08-.13-.15-.26-.22-.39-.03-.07-.07-.13-.1-.2-.02-.04-.03-.07-.05-.11-.01-.03-.09-.2-.02-.05s-.03-.08-.04-.12c-.03-.07-.05-.14-.07-.21-.05-.16-.1-.31-.14-.47-.04-.14-.07-.29-.09-.43-.01-.07-.02-.15-.04-.22.05.32,0,.04,0-.05-.03-.33-.03-.65-.01-.98,0-.2.02-.4.04-.6,0-.1.02-.19.03-.29,0-.03,0-.1.02-.13l-.02.12s.01-.09.02-.13c.04-.26.04-.48-.09-.71-.11-.19-.33-.38-.55-.43-.24-.05-.5-.04-.71.09-.19.12-.39.32-.43.55Z"/>
    <path d="M78.52,52.57c-.61-7.01.94-14.07,4.25-20.25,3.07-5.74,7.63-10.63,12.95-14.27,1.5-1.02,3.06-1.96,4.67-2.79,1.8-.93,3.6-1.75,5.59-2.19.49-.11.78-.68.65-1.14-.14-.5-.65-.75-1.14-.65-1.89.41-3.68,1.19-5.41,2.05-1.5.75-2.97,1.58-4.38,2.49-2.83,1.83-5.47,3.97-7.81,6.39-4.91,5.07-8.52,11.35-10.23,18.21-.99,3.95-1.35,8.07-1,12.13.04.5.4.93.93.93.47,0,.97-.43.93-.93h0Z"/>
    <path d="M78.15,53.05c4.11-3.55,8.99-6.21,13.93-8.52,2.6-1.21,5.21-2.37,8-3.09s5.38-1.03,8.18-1.11c3.16-.09,6.36.17,9.43.66.49.08,1-.13,1.14-.65.12-.44-.15-1.06-.65-1.14-5.79-.94-11.74-1.1-17.49.18-2.95.65-5.7,1.78-8.44,3.03-2.56,1.17-5.09,2.41-7.53,3.8-2.79,1.6-5.46,3.41-7.89,5.52-.38.33-.34.98,0,1.31.38.38.93.33,1.31,0h0Z"/>
  </g>
</svg>