<?xml version="1.0" encoding="UTF-8"?>
<svg id="Layer_1" data-name="Layer 1" xmlns="http://www.w3.org/2000/svg" viewBox="0 0 125.05 131.38">
  <defs>
    <style>
      .cls-1 {
        fill: none;
        stroke: #000;
        stroke-linecap: round;
        stroke-linejoin: round;
        stroke-width: 3.14px;
      }

      .cls-2 {
        fill: #e9604d;
      }
    </style>
  </defs>
  <path class="cls-2" d="M2.6,24.99c2.93,14.22,5.37,28.53,7.31,42.92l-.32-2.37c1.88,14.06,3.29,28.19,4.21,42.35l8.93-8.93c-3.35-.35-7.25.73-10.06,2.56-3.63,2.36-5.98,5.5-7.46,9.55,5.85.79,11.69,1.58,17.54,2.37.19-22.25.99-44.49,2.41-66.69.4-6.18.67-12.42,1.35-18.58l-.32,2.37c.07-.46.17-.89.34-1.33l-.9,2.13c.09-.2.21-.39.35-.57l-1.4,1.81.23-.24-1.81,1.4c.19-.16.39-.29.62-.38l-2.13.9c1.22-.45,2.58-.55,3.86-.76,1.54-.25,3.08-.51,4.61-.76,3-.49,5.99-.98,8.99-1.45,6-.95,12.01-1.85,18.03-2.66l-2.37.32c8.93-1.19,17.9-2.18,26.89-2.79,4.41-.3,8.82-.5,13.24-.59,2.29-.05,4.58-.06,6.88-.05,2.08.01,4.22-.06,6.28.21l-2.37-.32c.49.08.95.2,1.42.36l-2.13-.9c.34.15.62.31.92.51l-1.81-1.4c.19.14.36.31.52.49l-1.4-1.81c.24.31.4.6.56.96l-.9-2.13c.17.48.27.96.35,1.46l-.32-2.37c.27,2.81.18,5.68.24,8.5.07,3.07.14,6.14.21,9.21.13,5.97.27,11.95.4,17.92.27,12.03.54,24.06.81,36.09.07,3.32.15,6.64.22,9.96s.4,6.76.17,10.08l.32-2.37c-.06.39-.13.69-.28,1.05l.9-2.13-.19.31,1.4-1.81c-.13.18-.29.33-.47.45l1.81-1.4-.28.16,2.13-.9c-.32.13-.6.21-.94.26l2.37-.32c-.48.04-.93.02-1.41-.03l2.37.32c-2.73-.4-5.44-1.12-8.15-1.64-2.85-.55-5.71-1.06-8.58-1.53-6.28-1.03-12.59-1.88-18.92-2.57-11.39-1.23-22.84-1.83-34.3-1.79-6.53.02-13.07.26-19.58.69-4.47.3-8.16,3.17-8.77,7.74s2.13,8.37,6.4,9.8c10.36,3.46,21.54,3.29,32.3,2.45,10.98-.86,21.94-1.94,32.89-3.11,6.26-.67,12.51-1.38,18.76-2.13-1.5-5.55-3-11.09-4.51-16.64-2.56,1.96-5.35,3.55-8.31,4.83l2.13-.9c-4.88,2.05-10.05,3.23-15.28,3.94l2.37-.32c-8.89,1.17-17.97,1.25-26.92,1.07-9.75-.2-19.48-.95-29.15-2.24l2.37.32c-1.46-.2-2.92-.41-4.38-.63,2.19,2.87,4.37,5.74,6.56,8.61,1.45-19.94,2.9-39.89,4.34-59.83.41-5.65.82-11.3,1.23-16.95l-17.54,2.37c3.3,17.02,6.6,34.05,9.9,51.07.93,4.81,1.86,9.61,2.79,14.42,5.74-1.58,11.48-3.17,17.22-4.75-2.33-8.66-4.1-17.45-5.31-26.33l.32,2.37c-1.63-12.22-2.18-24.56-1.63-36.88-5.55,1.5-11.09,3-16.64,4.51,7.34,10.89,13.6,22.47,18.73,34.55l-.9-2.13c3.13,7.42,5.82,15.02,8.05,22.76,5.44-2.29,10.88-4.59,16.32-6.88-7.31-14.11-14.62-28.24-20.8-42.89l.9,2.13c-1.6-3.81-3.13-7.64-4.56-11.52l-14.92,8.69c9.82,9.3,18.92,19.35,27.19,30.06l-1.4-1.81c3.58,4.64,7,9.4,10.27,14.27,1.3,1.94,3.03,3.47,5.34,4.1,2.14.59,4.98.32,6.88-.9s3.59-3.06,4.1-5.34c.56-2.47.15-4.58-.9-6.88-7.15-15.69-15.34-30.9-24.5-45.52-4.67,3.61-9.35,7.21-14.02,10.82,6.18,7.5,12.35,15,18.29,22.68l-1.4-1.81c8.09,10.48,15.74,21.31,22.27,32.83l7.71-13.44c-4.5-.09-8.98-.43-13.43-1.03l2.37.32c-10.15-1.39-20.07-4.09-29.51-8.05l2.13.9c-.29-.12-.57-.24-.86-.36l-6.88,16.32c18.55,3.49,37.4,4.94,56.24,5.8,5.21.24,10.41.44,15.62.64,4.7.18,9.1-4.24,8.93-8.93-.59-16.63-1.18-33.26-1.78-49.9-.07-1.95-.09-3.92-.21-5.87-.31-4.97-2.89-9.47-7.93-10.92-2.11-.61-4.4-.59-6.59-.68s-4.33-.16-6.49-.25c-8.32-.32-16.64-.63-24.96-.95-9.32-.35-18.64-.71-27.95-1.06.79,5.85,1.58,11.69,2.37,17.54.88-.15,1.76-.28,2.64-.4l-2.37.32c6.49-.85,13.04-.82,19.52.04l-2.37-.32c6.33.89,12.51,2.56,18.4,5.03l-2.13-.9c.96.41,1.9.83,2.84,1.27v-15.42c-1.19.64-2.4,1.22-3.64,1.74l2.13-.9c-3.05,1.25-6.22,2.11-9.49,2.58l2.37-.32c-.59.08-1.19.15-1.78.2-2.31.22-4.66.82-6.31,2.62-1.35,1.48-2.19,3.13-2.46,5.13-.56,4.14,2.03,8.88,6.4,9.8,6.43,1.34,12.7,3.29,18.76,5.82l-2.13-.9c2.53,1.07,5.01,2.24,7.45,3.5,1.5-5.55,3-11.09,4.51-16.64-6.34-.03-12.67-.47-18.95-1.31l2.37.32c-12.72-1.75-25.17-5.14-37.01-10.13l2.13.9-.43-.18-6.88,16.32c7.55,2.9,15.09,5.81,22.64,8.71s14.95,5.55,22.3,8.6l-2.13-.9c.81.35,1.57.75,2.28,1.28l-1.81-1.4c.29.24.53.48.78.76l-1.4-1.81c.24.32.42.61.6.97l-.9-2.13c.15.39.26.74.35,1.15l-.32-2.37c.11.83.08,1.63-.03,2.47l.32-2.37c-.49,2.99-1.38,5.95-2.1,8.9s-1.5,6.13-2.25,9.19h17.22c-2.68-6.82-5.35-13.65-8.03-20.47-.84-2.14-1.97-4.21-4.1-5.34-1.8-.95-3.66-1.33-5.69-1.06-1.87.25-3.81,1.02-5.13,2.46-1.49,1.62-2.9,4.03-2.62,6.31.66,5.23,1.64,10.29,3.57,15.21,1.91,4.87,4.19,9.5,7.25,13.76,4.67-3.61,9.35-7.21,14.02-10.82-.36-.45-.72-.9-1.07-1.35l1.4,1.81c-4.57-5.93-8.37-12.41-11.31-19.3l.9,2.13c-1.28-3.05-2.4-6.16-3.34-9.34l-14.92,8.69c3.71,4.32,7.31,8.73,10.79,13.23l-1.4-1.81c3.38,4.38,6.64,8.85,9.79,13.4,2.08,3.01,5.14,4.77,8.9,4.26,1.61-.22,2.94-.77,4.22-1.76,1.38-1.07,2.94-2.84,3.2-4.64,1.24-8.74,1.6-17.4.46-26.17-5.85.79-11.69,1.58-17.54,2.37,1.43,7.6,4.23,14.98,7.98,21.75,2.62,4.72,10.31,6.18,14.02,1.81,2.32-2.74,3.83-5.84,3.77-9.52s-1.46-6.8-3.87-9.48c-3.14-3.48-9.48-3.43-12.63,0-3.41,3.72-3.35,8.92,0,12.63l.22.25-1.4-1.81c.28.36.49.72.68,1.13l-.9-2.13c.16.43.26.84.33,1.29l-.32-2.37c.04.45.03.88-.02,1.33l.32-2.37c-.08.44-.2.85-.38,1.27l.9-2.13c-.15.31-.31.57-.51.85l1.4-1.81-.22.25,14.02,1.81c-1.18-2.13-2.24-4.31-3.19-6.55l.9,2.13c-1.75-4.22-3.05-8.58-3.89-13.07-.38-2.01-2.32-4.4-4.1-5.34s-3.66-1.33-5.69-1.06c-1.87.25-3.81,1.02-5.13,2.46-1.48,1.61-2.91,4.03-2.62,6.31.98,7.58.98,15.25,0,22.83l.32-2.37c-.04.32-.09.64-.13.97,5.44-.71,10.88-1.42,16.32-2.13-6.82-9.85-14.17-19.35-21.98-28.44-1.25-1.46-3.3-2.21-5.13-2.46s-4.03-.01-5.69,1.06c-3.29,2.12-5.26,6.18-4.1,10.08,3.7,12.48,9.87,23.81,18.01,33.93,1.29,1.6,4.32,2.7,6.31,2.62s3.81-.68,5.41-1.92c3.24-2.5,4.91-7.89,2.3-11.52-2.34-3.26-4.29-6.75-5.86-10.43l.9,2.13c-1.76-4.23-2.98-8.64-3.62-13.18l.32,2.37c-.04-.28-.08-.57-.11-.85-5.85.79-11.69,1.58-17.54,2.37,2.68,6.82,5.35,13.65,8.03,20.47.73,1.87,1.57,3.38,3.2,4.64,1.51,1.16,3.45,2,5.41,1.92,3.86-.17,7.65-2.63,8.61-6.56,1.23-5.03,2.46-10.06,3.69-15.09.85-3.47,1.57-7.08.61-10.61-1.05-3.86-3.9-7.18-7.51-8.87-5.15-2.41-10.64-4.22-15.95-6.26-4.93-1.9-9.86-3.79-14.79-5.69-5.62-2.16-11.24-4.33-16.86-6.49-1.95-.75-5.16-.21-6.88.9s-2.88,2.44-3.65,4.27-1.06,3.93-.45,5.81c.66,2.05,2.03,4.45,4.1,5.34,9.63,4.09,19.48,7.42,29.74,9.53s20.7,3.26,31.15,3.31c3.77.02,7.75-2.77,8.61-6.56.85-3.73-.51-8.22-4.1-10.08-8.94-4.62-18.48-8.16-28.34-10.22-.79,5.85-1.58,11.69-2.37,17.54,6.89-.66,13.29-2.45,19.41-5.74,2.74-1.48,4.42-4.65,4.42-7.71s-1.65-6.41-4.42-7.71c-7.86-3.7-15.96-6.2-24.57-7.36s-17.11-.94-25.72.52c-1.99.34-4.41,2.36-5.34,4.1s-1.33,3.66-1.06,5.69c.6,4.46,4.28,7.57,8.77,7.74,10.57.4,21.13.8,31.7,1.2,5.24.2,10.48.4,15.72.6,2.66.1,5.32.2,7.99.3,2.49.09,5.07.01,7.54.34l-2.37-.32c.23.04.45.09.67.17l-2.13-.9c.21.08.4.18.58.32l-1.81-1.4.24.23-1.4-1.81c.16.19.28.4.36.64l-.9-2.13c.08.24.13.48.16.73l-.32-2.37c.39,4.55.35,9.17.51,13.73.17,4.74.34,9.48.51,14.22.33,9.4.67,18.79,1,28.19l8.93-8.93c-18.54-.71-37.11-1.44-55.52-3.88l2.37.32c-4.67-.63-9.33-1.37-13.97-2.24-2.29-.43-4.83-.42-6.88.9-1.66,1.07-2.88,2.44-3.65,4.27s-1.06,3.93-.45,5.81c.66,2.05,2.03,4.45,4.1,5.34,7.65,3.27,15.43,5.99,23.58,7.75s16.44,2.74,24.73,2.91c6.87.14,10.99-7.66,7.71-13.44-9.2-16.21-20.59-31.05-32.29-45.52-3.2-3.95-6.44-7.88-9.67-11.81-1.32-1.6-4.3-2.71-6.31-2.62s-3.81.68-5.41,1.92c-3.4,2.63-4.68,7.72-2.3,11.52,9.16,14.61,17.35,29.82,24.5,45.52l15.42-9.01c-8.79-13.1-18.68-25.51-29.59-36.91-3.01-3.15-6.11-6.22-9.27-9.22-2.78-2.63-7.45-3.57-10.82-1.4-1.29.83-2.37,1.91-3.2,3.2-1.13,1.75-1.63,4.9-.9,6.88,7.21,19.53,16.7,38.08,26.26,56.54,2.04,3.95,7.27,5.29,11.15,3.65s6.42-6.22,5.17-10.53c-4.78-16.54-11.59-32.59-20.21-47.5-2.35-4.07-4.85-8.05-7.47-11.94-2.14-3.18-6.18-5.37-10.08-4.1s-6.37,4.53-6.56,8.61c-.77,17.34.66,34.77,4.03,51.8.92,4.63,2,9.23,3.22,13.79,1.21,4.51,6.41,7.72,10.98,6.24,4.9-1.58,7.19-6.06,6.24-10.98-3.3-17.02-6.6-34.05-9.9-51.07-.93-4.81-1.86-9.61-2.79-14.42-.39-2.01-2.32-4.39-4.1-5.34s-3.66-1.33-5.69-1.06c-4.57.61-7.42,4.28-7.74,8.77-1.45,19.94-2.9,39.89-4.34,59.83-.41,5.65-.82,11.3-1.23,16.95-.14,1.93.78,3.94,1.92,5.41,1.07,1.39,2.83,2.93,4.64,3.2,12.95,1.95,26,3.12,39.1,3.23,11.46.09,23.37-.14,34.52-3.06,6.13-1.61,12.25-4.18,17.3-8.05,1.6-1.23,2.84-2.35,3.65-4.27.75-1.77,1.06-3.93.45-5.81-.48-1.47-1.25-2.8-2.3-3.94-1.34-1.46-4.29-2.86-6.31-2.62-9.7,1.17-19.42,2.23-29.15,3.2s-18.82,1.95-28.25,2.42c-5.11.25-10.24.22-15.32-.46l2.37.32c-3.01-.43-5.97-1.09-8.85-2.05-.79,5.85-1.58,11.69-2.37,17.54,20.61-1.38,41.33-.68,61.81,2.06l-2.37-.32c5.12.69,10.21,1.51,15.29,2.45,2.54.47,5.07.98,7.59,1.52,3.96.84,7.97,1.45,11.69-.64,2.5-1.41,4.2-3.74,5.11-6.43.58-1.72.58-3.58.54-5.38-.06-2.65-.12-5.31-.18-7.96-.12-5.31-.24-10.62-.36-15.93-.47-21.16-.95-42.31-1.42-63.47-.09-4.06-.75-7.93-3.63-11.01s-6.73-3.95-10.66-4.11c-5.19-.22-10.41-.11-15.59.07-10.48.37-20.92,1.34-31.32,2.64-11.06,1.38-22.07,3.07-33.06,4.86-2.59.42-5.18.85-7.77,1.28-4.57.76-8.21,3.85-9.52,8.35-.82,2.83-.74,6.19-.96,9.13-.2,2.65-.39,5.3-.57,7.95-1.44,21.12-2.31,42.28-2.63,63.44-.04,2.66-.07,5.31-.09,7.97-.04,4.45,3.43,8.19,7.74,8.77,4.6.62,8.25-2.16,9.8-6.4.08-.22.16-.44.26-.66l-.9,2.13c.26-.54.55-1.03.9-1.52l-1.4,1.81c.44-.56.93-1.06,1.48-1.52l-1.81,1.4c.67-.51,1.36-.93,2.13-1.27l-2.13.9c.67-.26,1.33-.45,2.04-.57l-2.37.32c.71-.09,1.4-.1,2.11-.02,2.05.22,4.95-1.13,6.31-2.62,1.54-1.68,2.77-3.96,2.62-6.31-1.5-23.09-4.27-46.1-8.26-68.9-1.09-6.27-2.29-12.51-3.58-18.74-.44-2.11-2.29-4.28-4.1-5.34-1.91-1.12-4.73-1.59-6.88-.9-4.85,1.57-7.25,6.08-6.24,10.98h0Z"/>
  <g>
    <rect class="cls-1" x="3.28" y="13.57" width="113.58" height="109.89"/>
    <path d="M35.21,71.95c4.31.26,8.63.36,12.94.29,1.21-.02,2.42-.05,3.63-.1.48-.02.95-.41.93-.93-.02-.49-.41-.95-.93-.93-4.31.16-8.63.15-12.95-.02-1.21-.05-2.42-.11-3.62-.18-.48-.03-.95.45-.93.93.02.53.41.9.93.93h0Z"/>
    <path d="M52.64,71.27c-.06-4.16-.09-8.32-.1-12.48-.01-3.75,0-7.5,0-11.25.01-3.54.03-7.08.05-10.61s.02-6.91.01-10.37c-.01-3.57-.04-7.14-.1-10.71,0-.45-.02-.9-.02-1.36,0-.5-.42-.93-.93-.93s-.94.42-.93.93c.07,3.59.1,7.18.12,10.78.02,3.46.01,6.92,0,10.38s-.03,7.04-.05,10.56c-.02,3.71-.02,7.42-.02,11.14,0,4.1.03,8.21.08,12.31,0,.54.01,1.07.02,1.61,0,.5.42.93.93.93s.93-.42.93-.93h0Z"/>
    <path d="M35.94,71.13c.14-4.16.23-8.33.26-12.5s.01-8-.02-12-.09-7.99-.13-11.99c-.04-4.13-.07-8.27-.07-12.4,0-2.5.05-5,.07-7.51,0-.21,0-.41,0-.62,0-.5-.43-.93-.93-.93s-.93.42-.93.93c0,2.37-.06,4.74-.08,7.11-.03,3.98.01,7.97.05,11.95s.09,8.01.13,12.02c.04,3.97.06,7.94.04,11.91s-.08,8.27-.21,12.41c-.02.54-.03,1.08-.05,1.61-.02.5.44.93.93.93.52,0,.91-.42.93-.93h0Z"/>
    <path d="M67.8,14.27c-.23,7.31-.31,14.63-.32,21.95s.04,14.65.05,21.97c0,4.31,0,8.63-.04,12.94,0,.5.43.93.93.93s.92-.42.93-.93c.06-7.58.04-15.16.01-22.74s-.05-14.5.04-21.75c.05-4.12.13-8.25.26-12.37.02-.5-.44-.93-.93-.93-.52,0-.91.42-.93.93h0Z"/>
    <path d="M68.43,72.03c4.31-.06,8.63-.11,12.94-.17,1.21-.02,2.42-.03,3.63-.05.48,0,.95-.42.93-.93s-.41-.93-.93-.93c-4.31.06-8.63.11-12.94.17-1.21.02-2.42.03-3.63.05-.48,0-.95.42-.93.93s.41.93.93.93h0Z"/>
    <path d="M85.86,70.95c.37-7.32.42-14.65.45-21.97.03-7.31.03-14.62,0-21.92-.02-4.11-.05-8.22-.09-12.33,0-.5-.42-.93-.93-.93s-.93.42-.93.93c.07,7.35.11,14.7.11,22.05,0,7.3,0,14.6-.1,21.9-.06,4.1-.16,8.19-.37,12.28-.03.5.44.93.93.93.52,0,.9-.42.93-.93h0Z"/>
    <path d="M4.15,89.08c7.27-.57,14.56-.76,21.84-.81,7.3-.05,14.6.02,21.91.05,7.32.03,14.64.06,21.95.09s14.66.06,21.99.09,14.58.06,21.86.09c.92,0,1.83,0,2.75.01.5,0,.93-.43.93-.93s-.42-.92-.93-.93c-7.33-.03-14.66-.06-21.99-.09s-14.66-.06-21.99-.09-14.64-.06-21.96-.09c-7.31-.03-14.61-.09-21.92-.07-7.25.02-14.5.14-21.73.62-.91.06-1.82.13-2.73.2-.5.04-.93.4-.93.93,0,.47.43.97.93.93h0Z"/>
    <path d="M34.06,87.38c0,4.51,0,9.02,0,13.53s0,9.02,0,13.53c0,2.54,0,5.07,0,7.61,0,.5.43.93.93.93s.93-.42.93-.93c0-4.51,0-9.02,0-13.53s0-9.02,0-13.53c0-2.54,0-5.07,0-7.61,0-.5-.43-.93-.93-.93s-.93.42-.93.93h0Z"/>
    <path d="M50.96,87.69c-.05,4.54-.06,9.07-.05,13.61s.05,9.03.12,13.55c.04,2.56.09,5.12.15,7.68.01.5.42.93.93.93s.94-.42.93-.93c-.1-4.54-.18-9.07-.22-13.61s-.06-9.03-.05-13.55c0-2.56.02-5.12.05-7.68,0-.5-.43-.93-.93-.93s-.92.42-.93.93h0Z"/>
    <path d="M67.36,87.69c-.04,4.49-.08,8.97-.08,13.46s.03,9.04.14,13.55c.06,2.5.14,5.01.25,7.51.02.5.41.93.93.93.49,0,.95-.42.93-.93-.19-4.48-.3-8.97-.35-13.46s-.05-9.04-.02-13.55c.02-2.5.04-5.01.06-7.51,0-.5-.43-.93-.93-.93s-.92.42-.93.93h0Z"/>
    <path d="M84.1,88.15c.15,4.56.2,9.12.2,13.69,0,4.11-.04,8.22-.03,12.32.01,2.68.05,5.37.11,8.05.01.5.42.93.93.93s.94-.42.93-.93c-.1-4.53-.12-9.05-.11-13.58.02-4.12.04-8.24,0-12.35-.03-2.71-.09-5.42-.18-8.13-.02-.5-.41-.93-.93-.93s-.94.42-.93.93h0Z"/>
  </g>
</svg>