<?xml version="1.0" encoding="UTF-8"?>
<svg id="Layer_1" data-name="Layer 1" xmlns="http://www.w3.org/2000/svg" viewBox="0 0 125.05 131.38">
  <defs>
    <style>
      .cls-1 {
        fill: none;
        stroke: #000;
        stroke-linecap: round;
        stroke-linejoin: round;
        stroke-width: 3.14px;
      }

      .cls-2 {
        fill: #fff;
      }
    </style>
  </defs>
  <path class="cls-2" d="M9.2,28.95c.64,20.71,1.27,41.41,1.91,62.12.18,5.9.36,11.81.54,17.71.14,4.59,3.75,8.39,8.43,8.43,11.66.11,23.31.22,34.97.34,5.83.06,11.66.11,17.48.17,5.53.05,11.08.24,16.6-.04,5.82-.3,11.78-1.07,17.21-3.27,4.05-1.64,7.56-3.9,9.33-8.1,1.43-3.38,1.14-6.73.78-10.27-1.17-11.53-2.33-23.06-3.5-34.58s-2.21-22.99-3.49-34.47c-.28-2.48-.56-4.39-1.7-6.64-.99-1.96-2.8-3.79-4.75-4.82-2.82-1.48-5.79-1.85-8.88-2.33-6.22-.95-12.47-1.75-18.74-2.34-11.36-1.07-22.79-1.46-34.19-1.17-2.77.07-5.54.18-8.31.33-3.12.17-6.69.05-9.66,1.04-5.19,1.72-8.26,6.07-8.49,11.47-.11,2.71.4,5.53.67,8.23,2.36,23.3,5.99,46.49,10.95,69.38.59,2.71,1.19,5.42,1.82,8.12s3.15,5.14,5.89,5.89c3.08.85,5.87-.17,8.21-2.17.49-.42.99-.83,1.49-1.23l-1.71,1.32c2.82-2.17,5.9-3.93,9.17-5.33l-2.01.85c4.99-2.09,10.27-3.3,15.62-4.03l-2.24.3c7.72-1.02,15.51-1.05,23.28-.96v-16.87c-10.16.29-20.37.51-30.47-.84l2.24.3c-6.1-.85-12.09-2.29-17.78-4.66l2.01.85c-1.97-.84-4.02-1.7-5.76-2.96l1.71,1.32c-.37-.3-.71-.61-1.02-.97l1.32,1.71c-.21-.29-.38-.55-.54-.87l.85,2.01c-.12-.32-.21-.61-.27-.95l.3,2.24c-.03-.28-.03-.54,0-.82l-.3,2.24c.04-.27.1-.5.19-.75l-.85,2.01c.14-.33.31-.61.53-.9l-1.32,1.71c.24-.29.5-.54.79-.78l-1.71,1.32c.57-.43,1.18-.77,1.83-1.07l-2.01.85c1.1-.46,2.24-.76,3.42-.94l-2.24.3c3.8-.5,7.71-.54,11.53-.65,4.02-.11,8.05-.12,12.08-.01,8.05.21,16.08.86,24.07,1.92l-2.24-.3c5.11.69,10.19,1.55,15.24,2.58l4.48-16.26c-7.07-1.44-13.96-3.58-20.61-6.38l2.01.85c-8.21-3.49-15.99-7.96-23.1-13.36l1.71,1.32c-.73-.57-1.41-1.15-2.01-1.85l1.32,1.71c-.32-.42-.58-.84-.8-1.31l.85,2.01c-.18-.46-.3-.9-.38-1.38l.3,2.24c-.05-.47-.05-.92,0-1.39l-.3,2.24c.11-.73.32-1.4.6-2.08l-.85,2.01c.44-.95,1-1.82,1.63-2.66l-1.32,1.71c1.25-1.57,2.69-2.97,4.26-4.22l-1.71,1.32c.97-.75,1.98-1.4,3.09-1.92l-2.01.85c.59-.24,1.18-.43,1.81-.55l-2.24.3c.48-.06.93-.07,1.42-.01l-2.24-.3c.36.07.67.16,1.02.3l-2.01-.85c.33.17.61.34.9.56l-1.71-1.32c.23.2.42.4.62.63l-1.32-1.71c.17.23.3.46.43.72l-.85-2.01c.14.35.23.69.3,1.06l-.3-2.24c.05.49.04.96-.02,1.44l.3-2.24c-.11.63-.28,1.22-.51,1.82l.85-2.01c-.45,1.05-1.03,2.01-1.73,2.92l1.32-1.71c-.84,1.04-1.8,1.88-2.86,2.7l1.71-1.32c-2.81,2.14-5.86,3.91-9.1,5.3l2.01-.85c-3.27,1.36-6.67,2.32-10.17,2.84l2.24-.3c-.75.09-1.48.13-2.24.08l2.24.3c-.46-.07-.85-.16-1.29-.32l2.01.85c-.32-.15-.6-.3-.89-.5l1.71,1.32c-.36-.28-.67-.58-.96-.93l1.32,1.71c-.42-.56-.75-1.16-1.04-1.8l.85,2.01c-.58-1.44-.87-2.96-1.09-4.49l.3,2.24c-.33-2.57-.32-5.15,0-7.72l-.3,2.24c.36-2.57,1.03-5.05,2.02-7.45l-.85,2.01c.79-1.85,1.73-3.57,2.96-5.16l-1.32,1.71c.96-1.2,2.03-2.27,3.23-3.23l-1.71,1.32c1.09-.83,2.23-1.52,3.49-2.05l-2.01.85c.88-.34,1.78-.59,2.72-.73l-2.24.3c.82-.09,1.61-.09,2.42.01l-2.24-.3c.71.12,1.39.31,2.06.57l-2.01-.85c.87.38,1.64.86,2.4,1.44l-1.71-1.32c1.05.86,1.95,1.85,2.79,2.91l-1.32-1.71c1.7,2.23,3.07,4.65,4.18,7.22l-.85-2.01c2.21,5.24,3.38,10.87,4.14,16.49l-.3-2.24c.43,3.31.62,6.64.18,9.96l.3-2.24c-.26,1.7-.67,3.36-1.33,4.96l.85-2.01c-.54,1.24-1.21,2.4-2.02,3.49l1.32-1.71c-.83,1.06-1.75,2.01-2.81,2.85l1.71-1.32c-.87.65-1.78,1.19-2.77,1.62l2.01-.85c-.89.36-1.79.61-2.73.75l2.24-.3c-.87.1-1.71.1-2.58.01l2.24.3c-1-.14-1.94-.39-2.88-.76l2.01.85c-1.05-.45-2.02-1.01-2.94-1.69l1.71,1.32c-1.12-.87-2.1-1.85-2.96-2.97l1.32,1.71c-.89-1.21-1.6-2.52-2.19-3.91l.85,2.01c-.79-1.99-1.29-4.05-1.6-6.17l.3,2.24c-.52-3.9-.52-7.87-.02-11.78l-.3,2.24c.4-2.89,1.09-5.71,2.19-8.42l-.85,2.01c.85-2.01,1.9-3.9,3.21-5.65l-1.32,1.71c1.18-1.52,2.52-2.87,4.03-4.06l-1.71,1.32c1.42-1.08,2.94-1.99,4.57-2.71l-2.01.85c1.51-.63,3.06-1.07,4.68-1.31l-2.24.3c1.38-.17,2.73-.19,4.11-.03l-2.24-.3c1.53.21,2.99.62,4.42,1.2l-2.01-.85c1.78.77,3.4,1.77,4.93,2.95l-1.71-1.32c2.37,1.88,4.41,4.1,6.26,6.49l-1.32-1.71c2.23,2.94,4.18,6.08,5.63,9.48l-.85-2.01c.91,2.22,1.58,4.51,1.91,6.89l-.3-2.24c.19,1.67.21,3.32.01,4.99l.3-2.24c-.19,1.33-.5,2.59-1,3.84l.85-2.01c-.55,1.27-1.24,2.43-2.08,3.53l1.32-1.71c-.86,1.07-1.82,2.03-2.91,2.87l1.71-1.32c-.99.73-2.04,1.35-3.17,1.83l2.01-.85c-.91.36-1.84.63-2.81.79l2.24-.3c-.96.13-1.91.14-2.88.03l2.24.3c-.88-.13-1.71-.37-2.53-.7l2.01.85c-.81-.37-1.55-.8-2.26-1.32l1.71,1.32c-1-.78-1.86-1.67-2.65-2.66l1.32,1.71c-1.16-1.54-2.08-3.21-2.84-4.98l.85,2.01c-1.19-2.83-1.97-5.79-2.38-8.83l.3,2.24c-.39-3.17-.37-6.35.04-9.52l-.3,2.24c.46-3.29,1.34-6.48,2.62-9.54l-.85,2.01c1.17-2.7,2.64-5.24,4.42-7.58l-1.32,1.71c1.49-1.92,3.16-3.69,5.07-5.2l-1.71,1.32c1.1-.83,2.24-1.53,3.5-2.08l-2.01.85c.87-.35,1.74-.59,2.67-.73l-2.24.3c.79-.08,1.55-.07,2.34.03l-2.24-.3c.69.12,1.34.3,1.98.56l-2.01-.85c.74.33,1.41.72,2.06,1.19l-1.71-1.32c.94.72,1.75,1.56,2.49,2.48l-1.32-1.71c1.19,1.55,2.12,3.26,2.89,5.05l-.85-2.01c1.21,2.92,2,5.98,2.42,9.11l-.3-2.24c.36,2.89.39,5.8,0,8.69l.3-2.24c-.31,2.12-.84,4.19-1.65,6.18l.85-2.01c-.69,1.63-1.56,3.16-2.63,4.57l1.32-1.71c-.97,1.24-2.07,2.34-3.31,3.32l1.71-1.32c-.61.45-1.24.83-1.93,1.14l2.01-.85c-.46.18-.92.32-1.4.42l2.24-.3c-.36.04-.68.06-1.04.04l2.24.3c-.36-.05-.65-.12-.98-.25l2.01.85c-.21-.1-.41-.21-.6-.36l1.71,1.32c-.2-.15-.37-.33-.53-.52l1.32,1.71c-.23-.31-.41-.61-.58-.96l.85,2.01c-.75-1.79-1.11-3.79-1.38-5.71l.3,2.24c-.4-3.04-.39-6.09.01-9.13l-.3,2.24c.42-2.89,1.19-5.68,2.32-8.38l-.85,2.01c.69-1.58,1.53-3.04,2.58-4.41l-1.32,1.71c.98-1.22,2.07-2.32,3.31-3.29l-1.71,1.32c1.01-.76,2.08-1.41,3.25-1.91l-2.01.85c.81-.32,1.62-.56,2.48-.7l-2.24.3c.73-.09,1.44-.11,2.17-.03l-2.24-.3c.63.09,1.22.25,1.82.47l-2.01-.85c.63.27,1.2.6,1.76,1.01l-1.71-1.32c.6.48,1.12,1,1.6,1.6l-1.32-1.71c.78,1.03,1.37,2.15,1.88,3.33l-.85-2.01c1.12,2.75,1.85,5.63,2.25,8.57l-.3-2.24c.37,3.02.36,6.05-.03,9.07l.3-2.24-.06.45h16.26c-.5-1.56-.86-3.14-1.09-4.76l.3,2.24c-.34-2.62-.32-5.26.02-7.88l-.3,2.24c.38-2.62,1.09-5.16,2.11-7.6l-.85,2.01c.96-2.19,2.15-4.25,3.6-6.15l-1.32,1.71c.62-.79,1.28-1.55,1.97-2.28l-14.1-3.72c.44,1.66.77,3.33,1.01,5.03l-.3-2.24c.7,5.28.46,10.59-.23,15.85l.3-2.24c-.97,7.11-2.67,14.11-4.25,21.11-.79,3.52-1.58,7.03-2.37,10.55-.39,1.76-.79,3.52-1.18,5.27s-.66,3.64-1.29,5.34l.85-2.01c-.1.24-.22.46-.36.67l1.32-1.71c-.14.2-.3.37-.49.53l1.71-1.32c-.28.21-.53.35-.85.48l2.01-.85c-.33.11-.64.17-.98.22l2.24-.3c-.59.04-1.15.02-1.73-.06l2.24.3c-1.39-.23-2.73-.64-4.03-1.18l2.01.85c-1.78-.79-3.42-1.8-4.97-2.98l1.71,1.32c-3.22-2.51-5.93-5.56-8.59-8.65-2.88-3.34-5.71-6.71-8.61-10.03-6.17-7.07-12.68-13.69-20.13-19.43-4-3.07-8.44-5.49-12.43-8.55l1.71,1.32c-1.54-1.21-2.97-2.53-4.19-4.07l1.32,1.71c-.89-1.18-1.63-2.42-2.22-3.78l.85,2.01c-.44-1.1-.75-2.22-.91-3.39l.3,2.24c-.09-.91-.09-1.79.02-2.7l-.3,2.24c.06-.39.14-.77.23-1.15,1.05-4.28-1.36-9.34-5.89-10.37s-9.25,1.31-10.37,5.89c-1.96,7.99,1.39,16.14,7.27,21.62,4.85,4.52,10.88,7.51,16.11,11.54l-1.71-1.32c6.82,5.31,12.76,11.61,18.43,18.11,2.85,3.26,5.64,6.58,8.47,9.86,2.62,3.04,5.27,6.07,8.42,8.57,4.57,3.63,9.41,6.2,15.28,6.88,3.42.39,7.22-.75,9.66-3.23s3.18-5.66,3.92-8.95c2.14-9.51,4.38-19.01,6.38-28.55,2.41-11.51,3.94-23.39.91-34.94-1.59-6.06-9.72-8.3-14.1-3.72-9.19,9.6-12.86,24.13-8.79,36.87,1.09,3.42,4.35,6.36,8.13,6.19,1.5-.07,2.93-.45,4.26-1.15,1.61-.85,3.61-3.18,3.88-5.04.99-6.94.83-13.93-1.43-20.64-1.18-3.51-2.68-6.63-5.13-9.42s-6-4.47-9.66-4.96c-6.44-.87-12.74,2.28-17.11,6.89s-6.88,10.33-8.01,16.37c-1.21,6.48-1.25,13.39.73,19.75,1.62,5.21,5.79,9.46,11.56,9.37,4.3-.07,7.93-2.16,11.04-4.96,3.93-3.53,6.65-8.53,8.04-13.59,1.52-5.57,1.44-11.19.63-16.85-.7-4.91-2.35-9.97-4.97-14.19-3.61-5.8-9.71-10.61-16.9-10.12s-12.77,4.56-17.03,9.8c-3.71,4.56-6.5,9.5-8.31,15.12-3.43,10.6-2.57,22.3,2.19,32.33,2.7,5.68,7.84,11.09,14.21,12.39,6.83,1.4,13.14-.81,18.36-5.24,4.9-4.16,7.38-10.23,7.89-16.51.54-6.5-1.76-13.17-4.84-18.79-5.76-10.48-15.65-20.59-28.33-20.93-6.7-.18-12.86,2.65-17.98,6.75-4.83,3.87-8.04,9.45-9.98,15.25-1.83,5.47-2.38,11.55-2.06,17.3.41,7.17,2.2,13.91,6.8,19.54,1.86,2.28,4.35,4.3,7.03,5.52,4.02,1.84,7.93,2.46,12.3,1.75,6.14-1,11.57-5.63,14.56-10.94,3.31-5.87,4-12.86,3.27-19.46-.65-5.91-1.63-11.92-3.62-17.55-1.05-2.97-2.3-5.94-3.91-8.66s-3.53-5.43-5.91-7.48c-3.33-2.86-7.02-4.53-11.43-4.81-3.45-.22-7.02.94-10.02,2.56-5.93,3.2-9.75,8.79-12.25,14.86s-2.99,13.04-2.02,19.66c.41,2.83,1.19,5.81,2.87,8.17,2.89,4.06,7.21,6.47,12.31,6.03,6.52-.56,12.95-2.74,18.68-5.88,5.07-2.78,10.37-6.56,12.85-11.96,1.56-3.41,2.49-7.3,1.15-10.97-1.81-4.98-6.37-8.49-11.79-8.44-4.47.04-8.21,2.3-11.58,5-2.43,1.95-4.56,4.29-6.27,6.9-2.31,3.52-3.17,7.71-2.35,11.83s4.03,7.14,7.36,9.65c9.17,6.91,19.45,12.21,30.23,16.1,4.95,1.79,10.02,3.2,15.18,4.25,2.24.46,4.48.33,6.5-.85,1.75-1.02,3.42-3.03,3.88-5.04.96-4.21-1.27-9.43-5.89-10.37-20.06-4.09-40.66-5.71-61.11-4.46-2.62.16-5.32.27-7.87.93-2.76.71-5.22,2.02-7.39,3.86-2.5,2.12-4,5.53-4,8.79,0,4.45,2.55,8.01,6.04,10.5,1.7,1.21,3.65,2.06,5.56,2.88,2.58,1.11,5.16,2.15,7.84,2.98,4.77,1.47,9.66,2.3,14.61,2.95,10.03,1.32,20.17,1.1,30.26.81,4.41-.13,8.64-3.79,8.43-8.43s-3.7-8.38-8.43-8.43c-15.07-.17-30.45.31-44.37,6.68-4.08,1.87-7.76,4.42-11.16,7.34l14.1,3.72c-4.25-18.44-7.65-37.07-10.17-55.82l.3,2.24c-.64-4.77-1.22-9.55-1.75-14.33-.26-2.35-.5-4.7-.73-7.06-.21-2.18-.64-4.46-.45-6.65l-.3,2.24c.06-.38.13-.71.25-1.07l-.85,2.01c.16-.35.31-.63.55-.93l-1.32,1.71c.16-.18.33-.34.53-.48l-1.71,1.32c.19-.14.4-.25.61-.35l-2.01.85c.58-.23,1.15-.37,1.77-.46l-2.24.3c4.88-.58,9.88-.64,14.78-.76s9.94-.11,14.92.04c10.02.28,20.03,1.1,29.97,2.42l-2.24-.3c2.1.28,4.2.59,6.29.91,1.8.28,3.69.46,5.41,1.1l-2.01-.85c.45.2.85.42,1.24.72l-1.71-1.32c.19.15.35.32.5.51l-1.32-1.71c.23.32.39.61.55.97l-.85-2.01c.22.6.34,1.21.43,1.84l-.3-2.24c1.15,9.7,1.97,19.45,2.96,29.17s1.98,19.6,2.97,29.4c.28,2.8.57,5.6.85,8.4.26,2.59.79,5.29.59,7.89l.3-2.24c-.08.56-.2,1.07-.39,1.6l.85-2.01c-.17.36-.35.66-.58.98l1.32-1.71c-.31.37-.65.69-1.03,1l1.71-1.32c-.71.51-1.46.89-2.25,1.24l2.01-.85c-3.06,1.26-6.26,2.01-9.53,2.48l2.24-.3c-4.46.59-8.96.64-13.45.61-4.86-.04-9.72-.09-14.58-.14-9.91-.1-19.82-.19-29.72-.29-5.58-.05-11.16-.11-16.73-.16,2.81,2.81,5.62,5.62,8.43,8.43-.64-20.71-1.27-41.41-1.91-62.12-.18-5.9-.36-11.81-.54-17.71-.14-4.41-3.78-8.64-8.43-8.43s-8.58,3.71-8.43,8.43h0Z"/>
  <g>
    <path class="cls-1" d="M25.35,11.89h74.11c10.91,0,19.77,8.86,19.77,19.77v70.42c0,10.88-8.83,19.7-19.7,19.7H25.41c-10.91,0-19.77-8.86-19.77-19.77V31.59c0-10.88,8.83-19.7,19.7-19.7Z"/>
    <g>
      <path d="M7.7,112.86c.84-.02,1.68-.11,2.49-.33.66-.17,1.3-.43,1.93-.69,1.49-.61,2.99-1.21,4.46-1.86,2.85-1.27,5.63-2.7,8.32-4.28,5.38-3.17,10.42-6.95,14.92-11.28s8.61-9.36,11.91-14.77c3.48-5.71,6.15-11.93,7.89-18.38,1.73-6.43,2.53-13.13,2.26-19.78-.03-.82-.08-1.64-.15-2.46-.04-.5-.4-.93-.93-.93-.47,0-.97.43-.93.93.26,3.28.27,6.58.01,9.86s-.73,6.3-1.46,9.5c-1.48,6.42-3.84,12.49-7.05,18.2-3.09,5.5-6.8,10.38-11.2,14.87s-9.01,8.15-14.2,11.42c-2.6,1.63-5.29,3.12-8.06,4.45-1.35.65-2.82,1.31-4.1,1.84s-2.69,1.2-4.09,1.57c-.32.09-.65.15-.98.2-.18.03.22-.02-.09,0-.1,0-.2.02-.31.03-.22.02-.44.03-.66.03-.5.01-.93.42-.93.93s.42.94.93.93h0Z"/>
      <path d="M60.32,39.02c-.33,7.54.34,15.13,1.98,22.5.39,1.76.83,3.51,1.4,5.22.6,1.8,1.39,3.52,2.29,5.19,1.73,3.21,3.57,6.37,5.47,9.48,3.41,5.56,7.35,10.77,12.05,15.31,4.24,4.09,9.04,7.64,14.25,10.39s10.88,4.75,16.7,5.86c.74.14,1.48.27,2.22.38.49.08,1-.13,1.14-.65.12-.44-.15-1.06-.65-1.14-2.93-.45-5.84-1.11-8.67-1.99s-5.37-1.88-7.96-3.13-5.09-2.7-7.48-4.32-4.52-3.3-6.71-5.28c-4.66-4.22-8.55-8.96-11.92-14.19-1.95-3.02-3.73-6.14-5.5-9.27-.9-1.59-1.82-3.18-2.57-4.86-.7-1.58-1.23-3.29-1.67-4.98-1.86-7.11-2.68-14.47-2.59-21.81.01-.91.04-1.82.08-2.72.02-.5-.44-.93-.93-.93-.52,0-.91.42-.93.93h0Z"/>
      <path d="M71.6,62.01c.27,4.97,3.45,9.55,8.13,11.33,2.4.91,5.12,1.02,7.59.35s4.54-2.07,6.06-4.02c1.69-2.17,2.67-4.88,2.56-7.65-.02-.48-.41-.95-.93-.93-.49.02-.95.41-.93.93.02.55,0,1.09-.06,1.64-.02.16.04-.22,0,.05,0,.06-.02.11-.03.17-.02.14-.05.28-.08.41-.06.27-.13.55-.21.82-.07.24-.15.48-.24.72-.05.13-.1.26-.15.39.01-.04.07-.15,0,.01-.03.08-.07.15-.11.23-.23.5-.5.98-.81,1.43-.07.11-.14.21-.22.31-.04.06-.08.11-.12.17-.02.03-.14.18-.03.05-.17.22-.36.44-.55.64-.36.39-.75.76-1.17,1.1-.04.04-.09.07-.13.11.15-.12-.07.05-.08.06-.09.07-.18.13-.28.2-.23.16-.47.31-.72.45-.26.15-.53.29-.8.41-.05.02-.33.14-.19.09-.17.07-.34.13-.51.19-.54.19-1.09.34-1.65.44-.13.02-.27.04-.4.07-.17.03.22-.02-.07,0-.06,0-.12.01-.18.02-.3.03-.6.05-.9.06-.59.02-1.17-.02-1.76-.08-.17-.02.22.04-.07,0-.06,0-.12-.02-.18-.03-.15-.02-.3-.05-.44-.08-.29-.06-.59-.13-.88-.22-.26-.08-.52-.16-.77-.25-.14-.05-.28-.11-.42-.16.04.02.14.06-.03-.01-.08-.04-.16-.07-.25-.11-.51-.24-1.01-.53-1.48-.85-.1-.07-.21-.14-.31-.22,0,0-.21-.16-.11-.08s-.11-.09-.1-.08c-.22-.18-.43-.36-.64-.55-.39-.37-.75-.76-1.09-1.17-.04-.04-.07-.09-.11-.13-.07-.08-.07-.09,0-.01-.03-.03-.05-.07-.08-.1-.09-.12-.18-.25-.27-.38-.17-.26-.34-.52-.49-.79s-.29-.52-.42-.78c-.07-.14-.13-.28-.2-.42-.07-.17-.02-.05,0-.01-.03-.08-.06-.16-.09-.24-.23-.58-.41-1.17-.54-1.78-.07-.3-.12-.61-.17-.91,0,.04.02.18,0,0,0-.08-.02-.17-.03-.25-.02-.17-.03-.34-.04-.51-.03-.48-.41-.95-.93-.93-.48.02-.96.41-.93.93h0Z"/>
      <path d="M25.66,61.95c.09,2.41.84,4.81,2.18,6.82s3.33,3.67,5.65,4.62,4.85,1.15,7.25.59,4.59-1.92,6.21-3.74c1.99-2.23,3.11-5.09,3.34-8.06.04-.48-.45-.95-.93-.93-.53.02-.89.41-.93.93-.01.15-.02.29-.04.44,0,.08-.02.16-.03.24,0-.04.02-.15,0,.04-.05.3-.1.61-.17.91-.13.58-.3,1.16-.51,1.72-.05.12-.09.24-.14.36.05-.12-.01.03-.02.05-.03.07-.07.15-.1.22-.13.28-.27.55-.42.82-.28.51-.6,1-.95,1.46.08-.1-.02.02-.03.03-.05.06-.1.12-.14.18-.09.1-.18.21-.27.31-.18.2-.37.4-.57.59-.43.41-.8.72-1.18.99-.46.32-.94.62-1.44.87-.11.05-.22.11-.33.16-.07.03-.14.06-.21.09-.14.06.11-.05-.03.01-.27.11-.54.21-.81.3-.52.17-1.06.28-1.6.37-.29.05.1-.01-.07,0-.08,0-.15.02-.23.02-.12.01-.24.02-.36.03-.29.02-.58.03-.86.02-.26,0-.52-.02-.77-.04-.14-.01-.27-.03-.41-.04-.17-.02.22.04-.07,0-.09-.01-.18-.03-.27-.04-.54-.09-1.07-.23-1.59-.4-.26-.08-.52-.18-.77-.28-.02,0-.16-.07-.03-.01-.06-.02-.11-.05-.17-.07-.14-.06-.28-.13-.41-.2-.5-.25-.99-.54-1.45-.87-.05-.04-.1-.07-.15-.11-.03-.02-.18-.14-.07-.05-.09-.07-.19-.15-.28-.23-.22-.18-.42-.37-.63-.57-.19-.19-.37-.38-.55-.58-.09-.1-.18-.2-.26-.3-.04-.05-.08-.09-.11-.14,0,0-.18-.23-.07-.09-.36-.47-.68-.97-.97-1.49-.15-.27-.29-.55-.42-.84-.03-.07-.06-.14-.09-.2.05.12,0-.01-.03-.07-.06-.15-.12-.3-.17-.46-.2-.56-.36-1.13-.47-1.71-.03-.15-.06-.29-.08-.44-.01-.07-.02-.15-.03-.22-.02-.11.01.11,0-.06-.03-.33-.06-.65-.07-.98-.02-.48-.41-.95-.93-.93-.49.02-.95.41-.93.93h0Z"/>
      <path d="M48.73,94.93c.06,4.96,3.29,9.57,7.95,11.28,2.39.87,5.11.95,7.55.25s4.5-2.09,6.02-4.03c1.7-2.16,2.7-4.81,2.71-7.57,0-.48-.43-.95-.93-.93s-.92.41-.93.93c0,.27-.01.53-.03.8,0,.13-.02.25-.04.38,0,0-.04.27-.01.13.02-.11-.02.14-.03.17-.09.54-.22,1.07-.38,1.59-.08.24-.16.48-.25.71,0,0-.1.25-.05.12s-.06.13-.05.12c-.06.13-.12.25-.18.38-.24.49-.51.96-.82,1.42-.07.1-.14.21-.22.31-.04.06-.08.11-.12.17-.1.13.13-.16-.03.04s-.36.43-.55.64c-.36.39-.75.76-1.16,1.09-.04.04-.09.07-.13.1.15-.12-.06.05-.08.06-.09.07-.18.13-.27.2-.23.16-.47.31-.71.45-.55.32-1.01.53-1.48.7-.53.19-1.08.35-1.64.46-.13.03-.26.05-.4.07-.07.01-.15.02-.22.03.16-.02,0,0-.02,0-.3.03-.6.06-.89.07-.58.02-1.17,0-1.75-.06-.07,0-.15-.02-.22-.03.16.02,0,0-.02,0-.15-.02-.3-.05-.44-.08-.29-.06-.59-.12-.87-.2-.26-.07-.52-.15-.77-.24-.14-.05-.28-.1-.42-.16-.02,0-.16-.07-.03-.01-.08-.04-.16-.07-.25-.11-.51-.24-1.01-.52-1.47-.83-.1-.07-.21-.14-.31-.22-.06-.04-.11-.08-.17-.13-.13-.1.16.14-.04-.04s-.43-.36-.63-.55c-.39-.36-.75-.75-1.08-1.17-.04-.04-.07-.09-.1-.13.11.15-.06-.08-.08-.11-.09-.12-.18-.25-.27-.38-.17-.26-.33-.52-.48-.79s-.28-.52-.4-.78c-.03-.06-.06-.13-.09-.19-.02-.04-.11-.26-.04-.09-.05-.13-.1-.26-.15-.39-.21-.58-.38-1.17-.49-1.78-.03-.14-.05-.28-.07-.41-.04-.27.01.12,0-.04-.01-.1-.02-.19-.03-.29-.03-.31-.04-.61-.05-.92,0-.48-.42-.95-.93-.93s-.93.41-.93.93h0Z"/>
      <path d="M79.91,23.06c-3.76-1.44-7.68-2.4-11.69-2.8s-7.9-.29-11.85-.13-7.54.61-11.14,1.71c-1.84.56-3.63,1.28-5.33,2.18-1.57.83-3.18,1.92-3.98,3.57-.39.79-.63,1.69-.56,2.58.08,1,.48,1.86,1.13,2.62.6.69,1.38,1.24,2.14,1.73s1.61.91,2.46,1.28c3.49,1.51,7.22,2.52,10.97,3.14,7.53,1.24,15.28.89,22.7-.89,3.31-.79,6.68-1.98,9.19-4.37.64-.61,1.25-1.31,1.62-2.12.44-.97.5-2,.19-3.03-.53-1.75-1.75-3.28-3.29-4.26-.8-.51-1.69-.87-2.58-1.21-.47-.18-1.02.2-1.14.65-.14.52.18.96.65,1.14.8.31,1.59.65,2.32,1.15.27.19.51.39.8.68s.49.53.68.81c.44.65.81,1.37.89,2.07.02.19.02.38,0,.56.02-.16-.03.16-.03.15-.02.1-.06.19-.08.29-.07.22-.32.65-.54.93.08-.11-.13.15-.11.13-.07.08-.13.16-.2.23-.14.15-.28.29-.42.44-.29.28-.59.55-.91.79.12-.09-.15.11-.13.1-.08.06-.16.12-.24.17-.14.1-.28.19-.42.28-.37.24-.74.45-1.13.66-1.37.72-2.79,1.21-4.34,1.63-6.82,1.87-14.06,2.35-21.11,1.49-3.44-.42-7.01-1.25-10.34-2.43-1.62-.57-3.15-1.19-4.62-2.13-.29-.19-.68-.46-.87-.61-.16-.13-.31-.26-.46-.4-.07-.07-.14-.14-.21-.22-.05-.05-.09-.1-.13-.15-.07-.09-.08-.1-.04-.05-.22-.28-.38-.6-.45-.84-.11-.37-.12-.56-.09-1.01.02-.29-.04.14.02-.14.02-.1.04-.19.07-.29s.05-.19.09-.29c0,.01.11-.29.05-.15.07-.17.16-.33.25-.49.04-.07.09-.14.13-.21.04-.06.07-.11.11-.17.07-.09.08-.11.04-.05.52-.67,1.11-1.11,1.78-1.54,1.45-.91,3-1.6,4.58-2.16,3.36-1.2,6.83-1.77,10.34-2.01,1.85-.13,3.72-.17,5.58-.21s3.74-.03,5.61.07c3.75.2,7.39.86,10.98,2.01.87.28,1.72.58,2.57.9.47.18,1.02-.2,1.14-.65.14-.52-.18-.96-.65-1.14Z"/>
      <path d="M70.15,24.66c-1.34-.24-2.65-.56-4.02-.61s-2.65-.18-3.98-.23-2.68-.03-4.01-.01-2.7-.01-4.05.09-2.7.43-4.03.78c-1.2.32-2.39.63-3.57,1.01s-2.44.86-3.6,1.43c-1.09.54-2.44,1.2-2.55,2.57-.1,1.29,1.11,2.13,2.13,2.62,1.17.56,2.4.99,3.65,1.32,2.46.65,5,1.03,7.52,1.32,5,.57,10.06.52,15.05-.23,2.45-.37,4.88-.92,7.25-1.67,1.18-.38,2.41-.76,3.53-1.3s2.05-1.63,1.51-2.89c-.25-.58-.77-.97-1.33-1.25l.46.8c-.05-.66-.54-1.01-1.09-1.27-.62-.28-1.26-.5-1.91-.71-1.07-.34-2.15-.62-3.22-.95-1.23-.37-2.47-.61-3.73-.84-.49-.09-1,.13-1.14.65-.12.45.15,1.05.65,1.14,1.29.23,2.55.49,3.8.86.6.18,1.21.34,1.82.52.79.23,1.58.47,2.36.76.09.03.18.07.27.1.03.01.07.03.1.04.18.07-.17-.08-.06-.02.13.06.27.12.4.19.05.03.09.05.14.08.18.1-.09-.08-.05-.04.12.11-.05-.07-.08-.11.05.08-.08-.26-.09-.29-.03-.19-.02-.15.02.14.04.16.12.29.24.41.12.12.28.19.43.28.07.04.13.08.2.12.14.1-.16-.13.06.05.04.04.12.06.03.01l.05.07c-.03-.08-.03-.08,0-.02v.04c0-.11,0-.11,0,0l.02-.09c-.03.1-.02.1.02,0-.02.05-.05.09-.08.14.08-.15.01,0-.03.03-.05.05-.1.1-.15.15.03-.03.13-.09-.02.02-.11.08-.23.15-.34.21-.07.04-.13.07-.2.1-.25.13.21-.08-.12.05-1.33.52-2.68.99-4.06,1.39-2.75.79-5.6,1.33-8.39,1.61-5.73.58-11.54.23-17.13-.88-1.46-.29-2.91-.64-4.3-1.17-.6-.22-1.2-.47-1.76-.82-.05-.03-.1-.07-.15-.1-.24-.15.06.06-.07-.05-.1-.09-.2-.18-.28-.29.09.12,0,0,0-.02l-.04-.07c.04.1.04.09,0,0,.02-.05-.09-.16,0,0,0-.1,0-.11,0-.05,0,.07,0,.05.02-.05-.09.07-.02.02.02-.01.19-.2-.14.09.08-.09.05-.04.09-.08.14-.12-.1.08.02-.01.03-.02.29-.19.59-.36.9-.52.62-.33,1.24-.61,1.86-.86,1.34-.53,2.73-.93,4.12-1.31s2.84-.83,4.24-.99c1.56-.18,3.15-.12,4.72-.14s3.13-.04,4.69.06c.77.05,1.53.14,2.31.16.69.02,1.45.02,2.1.12.75.12,1.49.31,2.24.45.49.09,1-.13,1.14-.65.12-.45-.15-1.05-.65-1.14Z"/>
    </g>
  </g>
</svg>