<?xml version="1.0" encoding="UTF-8"?>
<svg id="Layer_1" data-name="Layer 1" xmlns="http://www.w3.org/2000/svg" viewBox="0 0 125.05 131.38">
  <defs>
    <style>
      .cls-1 {
        fill: none;
        stroke: #000;
        stroke-linecap: round;
        stroke-linejoin: round;
        stroke-width: 3.14px;
      }

      .cls-2 {
        fill: #2e9db7;
      }
    </style>
  </defs>
  <path class="cls-2" d="M8.48,22.73c.65,23.8,1.31,47.6,1.96,71.4.08,2.91.16,5.83.24,8.74.1,3.73-.15,7.77,1.79,11.11,1.51,2.58,4.09,4.5,6.99,5.21,1.9.46,3.86.44,5.79.46,2.99.04,5.98.07,8.98.09,11.8.1,23.61.1,35.41,0,5.98-.05,11.97-.13,17.95-.23,5.92-.1,11.79-.13,17.22-2.81,2.99-1.47,5.67-4.24,7.06-7.27,1.59-3.48,2.07-7.04,2.24-10.84.26-5.9.49-11.81.74-17.72.5-11.89,1-23.79,1.49-35.68.12-2.91.24-5.82.37-8.73.05-1.28.17-2.57.1-3.85-.16-2.95-.95-5.57-2.76-7.91-2.49-3.22-5.87-4.53-9.52-6.03-2.47-1.01-4.99-1.91-7.53-2.71-20.99-6.58-43.48-6.41-65.23-5.38-2.62.12-5.24.26-7.85.4v17.86c19.26-2.31,38.77-2.16,58,.41l-2.37-.32c3.73.51,7.45,1.1,11.15,1.78,3.4.63,7.07,1.08,10.3,2.37l-2.13-.9c.61.27,1.17.58,1.72.97l-1.81-1.4c.49.39.91.82,1.3,1.31l-1.4-1.81c.35.5.64,1.01.9,1.56l-.9-2.13c.54,1.28.82,2.61,1.01,3.98l-.32-2.37c.53,4.33.66,8.73.85,13.09s.32,9.04.36,13.56c.08,9.21-.17,18.42-.75,27.6-.32,5.08-.64,10.19-1.3,15.24l.32-2.37c-.17,1.14-.41,2.25-.82,3.33l.9-2.13c-.27.61-.58,1.17-.97,1.72l1.4-1.81c-.43.55-.9,1.02-1.44,1.46l1.81-1.4c-.66.49-1.34.88-2.09,1.21l2.13-.9c-.99.4-2.01.66-3.06.81l2.37-.32c-1.13.13-2.24.11-3.37-.01l2.37.32c-4-.54-7.67-2.29-11.42-3.66s-7.62-2.55-11.51-3.53c-8.46-2.12-17.22-3.37-25.94-3.74-2.31-.1-4.63-.13-6.95-.08-1.97.04-3.94.21-5.9,0l2.37.32c-.7-.1-1.36-.25-2.01-.5l2.13.9c-.42-.18-.79-.39-1.17-.65l1.81,1.4c-.37-.3-.68-.62-.97-1l1.4,1.81c-.21-.32-.38-.63-.54-.98l.9,2.13c-.64-1.63-.81-3.41-1.08-5.13-.31-2.02-.6-4.03-.88-6.06l.32,2.37c-1-7.44-1.75-14.91-2.24-22.4-.24-3.75-.42-7.49-.53-11.25s-.48-7.34-.06-10.89l-.32,2.37c.08-.4.17-.74.33-1.12l-.9,2.13c.11-.23.24-.43.41-.62l-1.4,1.81c.15-.18.32-.34.51-.47l-1.81,1.4c.31-.2.6-.36.93-.51l-2.13.9c2.76-1.04,5.99-1.23,8.89-1.62l-2.37.32c9.21-1.22,18.51-1.62,27.8-1.2,4.44.2,8.21-3.55,8.77-7.74.62-4.59-2.16-8.27-6.4-9.8-10.51-3.79-21.97-5.43-33.13-4.81-2.37.13-4.6.91-6.31,2.62-1.55,1.55-2.72,4.09-2.62,6.31.21,4.65,3.93,9.16,8.93,8.93,20.63-.95,41.31-.06,61.78,2.66l-2.37-.32c1.95.26,3.89.54,5.84.83l-3.94-14.92c-7.67,7.78-7.23,19.76-7.36,29.92s.36,20.25,1.47,30.3c.7,6.31,1.59,12.6,2.71,18.85,5.74-1.58,11.48-3.17,17.22-4.75-3.88-16.98-7.99-33.91-12.31-50.79-1.22-4.78-2.47-9.55-3.72-14.31-.91-3.43-3.98-5.93-7.42-6.4-1.63-.22-3.11-.03-4.63.61-1.91.81-3.03,1.98-4.27,3.65-2.43,3.29-3.75,7.46-4.43,11.46-.78,4.63-1.26,9.33-1.78,13.99-.94,8.37-1.69,16.76-2.26,25.16-.33,4.86-.6,9.72-.81,14.59s4.25,9.14,8.93,8.93c2.31-.1,4.7-.86,6.31-2.62s2.42-3.84,2.62-6.31c1.55-20.03,3.1-40.05,4.65-60.08h-17.86c-.05,17.17-.09,34.34-.14,51.51-.01,4.89-.03,9.79-.04,14.68,5.85-.79,11.69-1.58,17.54-2.37-2.22-9.65-4.44-19.31-6.66-28.96-.54-2.35-1.08-4.7-1.62-7.06-.45-1.96-.84-3.91-1.61-5.78-1.12-2.73-2.37-5.35-4.68-7.32-1.56-1.33-3.16-2.43-5.18-2.95-2.36-.61-4.11-.48-6.48-.06-3.16.56-5.23,3.46-6.24,6.24-4.13,11.38-7.23,23.1-9.28,35.03,5.85.79,11.69,1.58,17.54,2.37-.12-14.14-.24-28.28-.36-42.42-.04-4.46-3.37-8.18-7.74-8.77s-8.82,2.04-9.8,6.4c-3.1,13.84-6.21,27.68-9.31,41.52h17.22c-3.75-11.74-7.5-23.47-11.25-35.21-1.36-4.26-5.31-7-9.8-6.4-1.87.25-3.81,1.02-5.13,2.46-1.69,1.84-2.36,3.83-2.62,6.31-1.44,13.91-.67,27.88,1.82,41.63,5.74-1.58,11.48-3.17,17.22-4.75-2.76-8.24-4.73-16.71-5.9-25.32l.32,2.37c-.36-2.74-.65-5.48-.85-8.24-.18-2.53-.46-5.14-.18-7.67l-.32,2.37c.1-.65.24-1.27.47-1.89l-.9,2.13c.21-.48.45-.91.76-1.33l-1.4,1.81c.32-.38.65-.72,1.03-1.04l-1.81,1.4c.71-.53,1.45-.94,2.26-1.29l-2.13.9c3.59-1.44,7.53-2.18,11.34-2.71l-2.37.32c5.61-.75,11.27-.76,16.89-.02l-2.37-.32c.62.09,1.24.18,1.86.28.79-5.85,1.58-11.69,2.37-17.54-7.51-.05-15.13,1.06-22.3,3.31-3.43,1.08-5.91,3.84-6.4,7.42-.22,1.63-.03,3.11.61,4.63.81,1.91,1.98,3.03,3.65,4.27,6.44,4.75,14.71,5.39,21.9,8.42l-2.13-.9c1.47.64,2.87,1.4,4.15,2.38l-1.81-1.4c.79.63,1.49,1.33,2.12,2.13l-1.4-1.81c.57.77,1.05,1.58,1.43,2.46l-.9-2.13c.4.99.67,2,.82,3.06l-.32-2.37c.12,1.15.1,2.28-.04,3.42l.32-2.37c-.42,2.91-1.51,5.65-2.64,8.35l.9-2.13c-1.15,2.71-2.37,5.4-3.36,8.17s-1.5,5.59-1.78,8.53c-.2,2.06,1.12,4.94,2.62,6.31l1.81,1.4c1.39.81,2.9,1.21,4.51,1.22,3.24.4,6.68-.63,9.51-2.14s5.34-4.04,6.76-6.83c1.75-3.43,1.62-8.06-1.4-10.82-1.14-1.05-2.47-1.82-3.94-2.3-2.38-.77-4.72-.07-6.88.9-3.85,1.73-7.35,4.27-10.42,7.16-3.4,3.22-3.49,9.43,0,12.63s9,3.43,12.63,0c.74-.7,1.5-1.36,2.3-1.99l-1.81,1.4c1.96-1.5,4.06-2.77,6.31-3.78-4.07-4.07-8.15-8.15-12.22-12.22-.22.43-.46.83-.74,1.22l1.4-1.81c-.44.57-.93,1.07-1.48,1.53l1.81-1.4c-.67.51-1.37.92-2.15,1.26l2.13-.9c-.67.26-1.35.44-2.06.55l2.37-.32c-.72.08-1.41.08-2.13-.01l8.93,8.93c.02-.24.05-.49.08-.73l-.32,2.37c.43-3.14,1.57-6.09,2.79-9l-.9,2.13c1.61-3.81,3.55-7.66,4.39-11.75,1.09-5.34.69-10.48-1.84-15.36-3.54-6.86-10.94-10.04-17.95-12.09-3.26-.95-6.57-1.77-9.72-3.07l2.13.9c-1.68-.71-3.28-1.55-4.75-2.63l-2.13,16.32c3.6-1.13,7.27-1.95,11.01-2.45l-2.37.32c2.96-.38,5.93-.56,8.92-.54,4.45.03,8.19-3.42,8.77-7.74.26-1.9.01-4.03-1.06-5.69-1.18-1.83-3.09-3.74-5.34-4.1-6.24-1.02-12.49-1.48-18.79-.86s-13.46,1.62-19.2,4.69c-3.64,1.95-6.56,5.57-7.47,9.63-.7,3.13-.57,6.24-.37,9.4.39,6.3,1.2,12.6,2.35,18.81s2.79,12.48,4.82,18.54c.74,2.21,2.06,4.14,4.1,5.34,1.91,1.12,4.73,1.59,6.88.9s4.25-2.04,5.34-4.1c1.18-2.23,1.35-4.4.9-6.88-.38-2.08-.71-4.16-1-6.25l.32,2.37c-1.47-10.95-1.64-22.02-.5-33.01-5.85.79-11.69,1.58-17.54,2.37,3.75,11.74,7.5,23.47,11.25,35.21,1.16,3.62,4.61,6.74,8.61,6.56s7.73-2.63,8.61-6.56c3.1-13.84,6.21-27.68,9.31-41.52-5.85-.79-11.69-1.58-17.54-2.37.12,14.14.24,28.28.36,42.42.04,4.46,3.37,8.18,7.74,8.77,4.02.54,9.04-2.01,9.8-6.4,2.05-11.93,5.15-23.65,9.28-35.03l-6.24,6.24.31-.05-2.37.32c.3-.03.57-.03.88,0l-2.37-.32c.29.05.54.11.81.21l-2.13-.9c.35.16.67.34.98.57l-1.81-1.4c.4.33.74.68,1.06,1.08l-1.4-1.81c.53.72.96,1.48,1.32,2.3l-.9-2.13c1.22,2.9,1.69,6.14,2.39,9.19.84,3.65,1.68,7.3,2.52,10.95,1.66,7.22,3.32,14.44,4.98,21.66,1,4.33,5.6,6.96,9.8,6.4s7.73-4.29,7.74-8.77c.05-17.17.09-34.34.14-51.51.01-4.89.03-9.79.04-14.68s-4.12-9.15-8.93-8.93c-2.31.1-4.7.86-6.31,2.62s-2.42,3.84-2.62,6.31c-1.55,20.03-3.1,40.05-4.65,60.08h17.86c.71-16.41,2.04-32.81,4.2-49.1l-.32,2.37c.39-2.88.91-5.73,2.03-8.42l-.9,2.13c.5-1.13,1.1-2.18,1.83-3.17l-16.32-2.13c4.45,16.84,8.68,33.74,12.68,50.7,1.13,4.8,2.25,9.6,3.35,14.41,1.04,4.56,6.54,7.68,10.98,6.24,2.16-.7,4.25-2.04,5.34-4.1,1.18-2.23,1.34-4.4.9-6.88-.63-3.54-1.19-7.08-1.67-10.64l.32,2.37c-1.14-8.49-1.85-17.04-2.1-25.61-.13-4.24-.14-8.49-.05-12.73.09-3.94.15-7.92.65-11.82l-.32,2.37c.26-1.9.67-3.76,1.4-5.55l-.9,2.13c.45-1.03.99-2,1.66-2.9l-1.4,1.81c.32-.39.65-.77,1-1.13,2.24-2.27,3.15-5.6,2.3-8.69-.75-2.72-3.27-5.79-6.24-6.24-18.14-2.73-36.42-4.23-54.76-4.19-5.08.01-10.16.14-15.23.38v17.86c4.98-.28,9.96-.08,14.91.58l-2.37-.32c5.41.76,10.71,2.06,15.84,3.91.79-5.85,1.58-11.69,2.37-17.54-9.12-.42-18.26-.04-27.32,1.14-5.65.74-12.31.9-16.75,4.92-4.75,4.3-3.86,11.34-3.72,17.11.21,9.14.81,18.26,1.8,27.35.55,5.09,1.22,10.17,1.97,15.24.3,2.02.47,4.16,1.08,6.12,1.08,3.47,3.22,6.58,6.44,8.39,4.97,2.79,10.62,1.96,16.04,2,4.87.04,9.72.39,14.55,1.03l-2.37-.32c7.19.98,14.29,2.59,21.19,4.87,3.34,1.11,6.57,2.51,9.9,3.63,4.34,1.47,8.76,1.9,13.27,1.13,3.8-.65,7.73-2.72,10.18-5.72,1.78-2.17,3.12-4.52,3.78-7.29.57-2.37.73-4.84.96-7.27.73-7.69,1.23-15.41,1.5-23.13s.3-15.12.11-22.68c-.09-3.78-.25-7.56-.45-11.33-.22-4.1-.42-8.22-1.09-12.27-.79-4.75-3.48-9.04-7.53-11.66-3.37-2.18-7.6-2.8-11.46-3.56-7.93-1.56-15.96-2.71-24-3.5-16.59-1.63-33.34-1.44-49.89.54-2.45.29-4.5.8-6.31,2.62-1.55,1.55-2.72,4.09-2.62,6.31.21,4.63,3.93,9.19,8.93,8.93,17.2-.91,34.53-1.74,51.66.53l-2.37-.32c9.4,1.28,18.65,3.52,27.41,7.19l-2.13-.9c1.16.49,2.31.97,3.32,1.74l-1.81-1.4c.27.24.5.47.73.74l-1.4-1.81c.22.31.38.6.54.95l-.9-2.13c.13.39.21.74.27,1.15l-.32-2.37c.19,2.14-.07,4.35-.16,6.5s-.19,4.49-.28,6.74c-.19,4.66-.39,9.31-.58,13.97-.38,9.15-.77,18.3-1.15,27.45-.21,4.96-.13,10.04-.73,14.97l.32-2.37c-.15,1.07-.39,2.09-.78,3.09l.9-2.13c-.27.61-.58,1.17-.97,1.72l1.4-1.81c-.43.55-.9,1.02-1.45,1.46l1.81-1.4c-.65.47-1.33.85-2.07,1.17l2.13-.9c-1.22.48-2.48.76-3.77.95l2.37-.32c-4.3.55-8.73.37-13.05.43-4.9.07-9.81.13-14.71.17-9.89.08-19.78.09-29.67.02-2.74-.02-5.49-.04-8.23-.07s-5.4.11-8.05-.14l2.37.32c-.36-.06-.67-.13-1.01-.26l2.13.9c-.21-.09-.4-.22-.58-.37l1.81,1.4-.23-.25,1.4,1.81c-.14-.18-.25-.37-.33-.58l.9,2.13c-.12-.34-.19-.65-.24-1.01l.32,2.37c-.27-2.65-.19-5.38-.26-8.04s-.15-5.49-.23-8.24c-.15-5.58-.31-11.15-.46-16.73-.31-11.15-.61-22.3-.92-33.45-.17-6.32-.35-12.65-.52-18.97-.13-4.67-4.02-9.15-8.93-8.93s-9.07,3.93-8.93,8.93h0Z"/>
  <g>
    <path class="cls-1" d="M5.81,11.32h93.87c10.88,0,19.7,8.83,19.7,19.7v70.42c0,10.91-8.86,19.77-19.77,19.77H25.58c-10.91,0-19.77-8.86-19.77-19.77V11.32h0Z"/>
    <path d="M7.24,79c1.75-1.87,3.63-3.61,5.65-5.19s4.26-2.99,6.47-4.34c1.15-.7,2.3-1.4,3.5-1.99s2.39-1.01,3.64-1.38c2.62-.77,5.28-1.45,7.94-2.04,3-.65,6-1.09,9.08-.99.5.02.93-.44.93-.93,0-.52-.42-.91-.93-.93-5.64-.18-11.21,1.35-16.6,2.83-1.38.38-2.74.81-4.05,1.38-1.23.54-2.41,1.2-3.56,1.89-2.32,1.4-4.64,2.82-6.8,4.46-2.36,1.78-4.57,3.76-6.59,5.92-.34.37-.36.95,0,1.31s.97.37,1.31,0h0Z"/>
    <path d="M6.7,63.29c4.67-.13,9.35-.23,14.02-.29s9.31-.09,13.96-.09c2.64,0,5.28.02,7.92.04.5,0,.93-.43.93-.93s-.42-.92-.93-.93c-4.68-.04-9.35-.05-14.03-.03s-9.31.08-13.96.18c-2.64.05-5.28.12-7.91.19-.5.01-.93.42-.93.93s.42.94.93.93h0Z"/>
    <path d="M6.6,36.17c4.55-.19,9.11-.26,13.66-.29s9.32-.03,13.98-.04,8.97-.07,13.46,0c3.36.05,6.72.17,10.08.24,2.72.06,5.44.08,8.15-.07.34-.02.67-.04,1.01-.06.5-.03.93-.4.93-.93,0-.48-.42-.96-.93-.93-2.7.18-5.41.2-8.12.15-3.23-.06-6.46-.18-9.69-.24-4.41-.08-8.82-.04-13.23-.03-4.64.02-9.28,0-13.92.03s-9.19.08-13.78.24c-.54.02-1.07.04-1.61.06-.5.02-.93.41-.93.93,0,.49.42.95.93.93h0Z"/>
    <path d="M43.21,33.94c-2.78.05-5.58.25-8.3.85-1.33.3-2.63.7-3.89,1.23-1.18.5-2.32,1.1-3.27,1.99-1.85,1.73-2.61,4.77-.81,6.82.86.98,2.2,1.54,3.35,2.12,1.28.66,2.59,1.27,3.96,1.72s2.75.69,4.15.88c1.32.18,2.65.33,3.98.4,2.59.15,5.19.04,7.75-.42s4.98-1.28,7.2-2.55c1.14-.65,2.21-1.45,2.95-2.55s1.06-2.57.61-3.82c-.47-1.32-1.61-2.2-2.7-3-.98-.72-2.05-1.34-3.16-1.84-2.33-1.05-4.85-1.65-7.41-1.71-.62-.01-1.24,0-1.86.06-.5.04-.93.4-.93.93,0,.47.43.97.93.93,2.34-.19,4.46.06,6.68.77,1.12.36,2.04.76,3.08,1.35.99.56,1.87,1.16,2.67,1.88.2.18.4.38.58.59.13.16.06.09.04.06.04.06.08.11.11.17s.07.12.1.18c.12.2,0-.07.07.15.04.12.07.25.1.38.04.18.01.09.01.04,0,.06.01.13.01.19,0,.13,0,.26-.01.39-.01.19-.01.09,0,.05-.02.1-.04.19-.06.29-.23.92-.95,1.72-1.72,2.27-1.9,1.36-4.04,2.16-6.3,2.71s-4.53.75-6.93.72c-1.22-.01-2.43-.08-3.64-.2s-2.29-.26-3.54-.5-2.53-.61-3.7-1.11-2.34-1.12-3.49-1.73c-.24-.13-.48-.26-.72-.4-.25-.15-.43-.27-.59-.42-.21-.19-.32-.32-.43-.48-.06-.1-.12-.21-.17-.32.06.13,0,0,0-.03-.03-.09-.06-.17-.08-.26-.03-.12-.06-.24-.07-.35.03.17,0-.17,0-.21,0-.12,0-.25,0-.37,0-.06,0-.12.02-.18-.01.13,0-.02.02-.08.05-.25.11-.49.2-.72,0-.02.08-.2.04-.11-.05.11.08-.17.07-.14.06-.12.13-.25.21-.36.24-.38.59-.75,1-1.1.16-.14.3-.23.54-.39.25-.17.51-.32.78-.46,1.04-.55,2.08-.93,3.27-1.27,2.45-.71,4.87-.99,7.41-1.11.63-.03,1.26-.05,1.89-.06.5,0,.93-.42.93-.93s-.42-.94-.93-.93h0Z"/>
    <path d="M35.55,41.67c-.06,1.89.63,3.72,1.8,5.17.56.69,1.26,1.29,2.04,1.72.99.55,2.08.81,3.19.93,2.07.23,4.3-.03,6.01-1.32,1.57-1.19,2.67-2.95,2.98-4.9s-.06-4.07-1.16-5.78c-.73-1.14-1.74-2.11-2.94-2.73-1.13-.59-2.4-.89-3.67-.9s-2.52.29-3.68.82c-1.08.5-2.08,1.26-2.82,2.19-.84,1.05-1.42,2.29-1.64,3.62-.06.39-.11.78-.12,1.18-.02.49.44.95.93.93.52-.02.91-.41.93-.93,0-.16.02-.32.03-.48,0-.08.02-.16.03-.24-.04.36,0,.06,0-.02.05-.3.12-.59.2-.88.04-.14.09-.28.14-.42.02-.06.04-.11.07-.17.03-.07.09-.21-.04.09.02-.04.04-.09.06-.13.12-.26.25-.51.4-.75.07-.11.14-.22.21-.32.04-.06.08-.11.12-.17.02-.03.04-.06.06-.08-.2.27-.09.11-.04.05.16-.2.34-.4.53-.58s.4-.36.61-.54c-.27.23-.07.05,0,0,.05-.04.11-.08.17-.12.11-.08.23-.15.34-.22.23-.14.47-.27.72-.38.06-.03.12-.06.18-.08.13-.06-.21.09-.11.05.03-.01.05-.02.08-.03.14-.05.27-.11.41-.15.26-.09.52-.16.78-.22.12-.03.24-.05.36-.07.07-.01.13-.02.2-.03.08-.01.22-.02-.11.01.03,0,.07,0,.1-.01.54-.06,1.08-.07,1.62-.01.07,0,.13.02.2.02-.37-.04-.12-.02-.03,0,.14.02.28.05.41.08.26.06.53.13.78.22.12.04.23.09.35.13-.34-.13-.08-.03,0,0,.07.03.15.07.22.1.24.12.47.25.69.4.12.08.23.16.34.24.12.09-.2-.15-.08-.06.03.02.06.04.08.07.06.05.11.09.16.14.22.19.43.4.62.62.1.11.19.22.28.33.07.09-.16-.21-.06-.08.02.03.05.06.07.09.05.07.1.15.16.22.19.28.36.58.51.89.04.09.08.17.12.26.08.19-.08-.2,0,0,.02.05.04.11.06.16.09.23.16.47.22.71.05.2.1.41.13.62,0,.06.01.12.03.17-.07-.25-.01-.1,0-.02.01.11.02.23.03.34.01.23.02.46.01.69s-.06.46-.05.69c0-.25.01-.1,0-.02,0,.06-.02.11-.03.17-.02.11-.04.23-.07.34-.05.22-.11.45-.19.66-.04.11-.08.22-.12.32-.02.06-.11.23.01-.03-.01.03-.03.06-.04.09-.09.2-.19.4-.31.6-.09.16-.2.32-.3.48-.06.08-.12.17-.18.25.15-.23.06-.08.02-.03-.04.05-.09.11-.13.16-.27.31-.56.58-.87.84-.1.08.19-.14.05-.03-.04.03-.08.06-.12.09-.08.06-.17.12-.26.17-.17.11-.35.21-.53.3-.09.05-.19.08-.28.13.23-.13.1-.04.03-.01-.05.02-.1.04-.14.05-.23.08-.47.15-.71.21-.13.03-.25.05-.38.07-.05,0-.14.04-.19.03l.12-.02s-.09.01-.13.02c-.26.03-.51.05-.77.05-.51.01-1.03,0-1.54-.05-.06,0-.13-.01-.19-.02h-.06c-.1-.02-.08-.02.06,0-.08.02-.23-.04-.31-.05-.27-.05-.54-.11-.8-.19-.1-.03-.2-.06-.3-.1s-.25-.13-.36-.13l.13.05s-.06-.03-.09-.04c-.05-.02-.09-.04-.14-.06-.1-.05-.19-.1-.29-.15-.17-.09-.33-.19-.49-.3-.08-.06-.16-.12-.24-.17.21.14.1.08.05.04-.05-.04-.09-.07-.13-.11-.3-.26-.58-.55-.84-.85-.03-.04-.06-.08-.09-.12.18.21.06.08.02.03-.06-.08-.12-.16-.17-.25-.11-.17-.22-.34-.31-.51-.09-.16-.17-.33-.25-.49-.02-.05-.04-.09-.06-.14.12.26.04.1.02.04-.04-.11-.08-.22-.12-.33-.13-.38-.22-.77-.29-1.17-.03-.18.02.2,0,.07,0-.04-.01-.08-.01-.12-.01-.1-.02-.2-.02-.3-.01-.2-.01-.4,0-.6.02-.49-.44-.95-.93-.93-.52.02-.91.41-.93.93Z"/>
    <path d="M49.7,40.6c-.15.52-.32,1.02-.52,1.52l.09-.22c-.29.69-.66,1.36-1.11,1.96l.14-.19c-.34.44-.73.84-1.18,1.19l.19-.14c-.38.29-.78.53-1.22.72l.22-.09c-.39.17-.8.28-1.22.34l.25-.03c-.39.05-.79.05-1.18,0l.25.03c-.73-.1-1.43-.34-2.11-.63l.22.09c-.45-.19-.89-.42-1.29-.72l.19.14c-.23-.18-.44-.39-.62-.62l.14.19c-.21-.28-.39-.58-.52-.91l.09.22c-.14-.35-.24-.71-.29-1.09l.03.25c-.05-.41-.05-.83,0-1.24l-.03.25c.06-.43.17-.84.34-1.24l-.09.22c.15-.36.35-.69.58-1l-.14.19c.22-.28.47-.52.74-.74l-.19.14c.3-.23.63-.42.97-.57l-.22.09c.35-.15.71-.25,1.08-.3l-.25.03c.34-.05.69-.05,1.04,0l-.25-.03c.29.04.58.12.85.23l-.22-.09c.29.12.56.28.81.48l-.19-.14c.25.19.47.42.66.67l-.14-.19c.18.24.33.5.45.77l-.09-.22c.1.25.18.51.22.78l-.03-.25c.03.25.03.49,0,.74l.03-.25c-.04.27-.11.53-.22.78l.09-.22c-.11.25-.25.49-.41.7l.14-.19c-.17.21-.36.41-.58.57l.19-.14c-.19.15-.4.27-.63.37l.22-.09c-.21.09-.43.15-.66.18l.25-.03c-.23.03-.46.03-.69,0l.25.03c-.22-.03-.43-.09-.64-.17l.22.09c-.2-.09-.39-.2-.57-.33l.19.14c-.15-.12-.29-.25-.41-.4l.14.19c-.11-.15-.2-.3-.28-.47l.09.22c-.08-.18-.13-.37-.16-.57l.03.25c-.02-.2-.03-.39,0-.59l-.03.25c.03-.18.07-.35.14-.52l-.09.22c.06-.14.14-.27.23-.39l-.14.19c.09-.12.2-.23.32-.32l-.19.14c.13-.1.27-.18.43-.25l-.22.09c.17-.07.34-.12.51-.14l-.25.03c.15-.02.3-.02.45,0l-.25-.03c.14.02.27.06.4.11l-.22-.09c.12.05.23.12.34.2l-.19-.14c.08.06.15.13.21.21l-.14-.19c.05.07.09.14.12.22l-.09-.22c.03.09.06.18.07.27l-.03-.25c.01.1,0,.21,0,.31l.03-.25c-.02.12-.05.23-.09.33l.09-.22c-.05.11-.1.21-.17.3l.14-.19c-.07.08-.14.15-.22.22l.19-.14c-.07.05-.14.09-.21.12l.22-.09c-.08.03-.16.05-.24.07l.25-.03c-.09.01-.18.01-.27,0l.25.03c-.09-.01-.17-.04-.25-.07l.22.09c-.09-.04-.18-.09-.26-.15l.19.14c-.08-.06-.15-.14-.21-.21l.14.19c-.08-.1-.14-.2-.19-.32l.09.22c-.04-.1-.07-.21-.09-.32l.03.25c0-.09,0-.17,0-.26l-.03.25c.01-.09.04-.17.07-.26l-.09.22s.02-.04.03-.06c.11-.22.16-.47.09-.71-.06-.22-.23-.45-.43-.55-.42-.22-1.04-.13-1.27.33s-.31,1.04-.13,1.55.5.94.96,1.23,1.03.37,1.53.21.9-.49,1.16-.93c.22-.37.35-.84.31-1.27-.03-.3-.09-.56-.24-.83s-.39-.5-.64-.68c-.83-.61-2.07-.54-2.91,0-.89.57-1.41,1.62-1.29,2.68.06.54.21,1.07.54,1.51s.71.79,1.19,1.03c.88.43,1.93.54,2.85.15s1.63-1.01,2.07-1.86.58-1.83.34-2.77c-.21-.85-.73-1.66-1.4-2.22-.38-.32-.77-.56-1.22-.75s-.92-.29-1.41-.33c-.94-.08-1.9.18-2.72.62-1.72.91-2.75,2.77-2.79,4.7-.02.97.23,1.96.72,2.79.53.91,1.35,1.55,2.31,1.98,1.01.45,2.07.83,3.18.87.99.04,1.99-.23,2.86-.7.82-.43,1.55-1.06,2.13-1.79.32-.41.62-.83.87-1.28s.46-.93.65-1.42c.16-.41.3-.83.42-1.25.13-.47-.16-1.03-.65-1.14s-1,.15-1.14.65h0Z"/>
    <path d="M58.88,101.58c-.11,4.6-.09,9.19.06,13.79.04,1.29.09,2.57.15,3.86.02.48.41.95.93.93.48-.02.95-.41.93-.93-.22-4.59-.31-9.19-.27-13.78.01-1.29.03-2.58.06-3.86.01-.49-.43-.95-.93-.93s-.91.41-.93.93h0Z"/>
    <path d="M69.25,81.97c.13,5.35.18,10.71.18,16.06,0,4.91-.05,9.82-.1,14.73-.03,2.78-.06,5.56-.08,8.34,0,.5.43.93.93.93s.92-.42.93-.93c.04-4.92.1-9.85.14-14.77s.06-10.06.01-15.09c-.03-3.09-.08-6.18-.15-9.27-.01-.5-.42-.93-.93-.93s-.94.42-.93.93h0Z"/>
    <path d="M79.25,81.94c.03,5,.05,10,.08,14.99s.05,9.95.08,14.93c.02,2.81.03,5.62.05,8.43,0,.5.42.93.93.93s.93-.42.93-.93c-.03-5-.05-10-.08-14.99s-.05-9.95-.08-14.93c-.02-2.81-.03-5.62-.05-8.43,0-.5-.42-.93-.93-.93s-.93.42-.93.93h0Z"/>
    <path d="M89.5,62.3c.05,3.9.09,7.8.12,11.71s.05,8.12.06,12.18.01,8.09,0,12.13c0,3.81-.01,7.61-.03,11.42-.01,3.4-.03,6.8-.05,10.2,0,.39,0,.78,0,1.17,0,.5.43.93.93.93s.92-.42.93-.93c.02-3.34.04-6.67.05-10.01.02-3.77.03-7.53.03-11.3,0-4.03,0-8.06,0-12.08s-.02-8.13-.05-12.19-.06-7.86-.11-11.8c0-.47-.01-.95-.02-1.42,0-.5-.42-.93-.93-.93s-.93.42-.93.93h0Z"/>
    <path d="M99.63,61.99c.03,7.8.04,15.61.04,23.41s-.03,15.52-.07,23.27c-.02,4.14-.05,8.29-.09,12.43,0,.5.43.93.93.93s.92-.42.93-.93c.07-7.5.11-14.99.13-22.49s.03-15.69.02-23.53c0-4.37-.02-8.73-.03-13.1,0-.5-.42-.93-.93-.93s-.93.42-.93.93h0Z"/>
  </g>
</svg>