<?xml version="1.0" encoding="UTF-8"?>
<svg id="Layer_1" data-name="Layer 1" xmlns="http://www.w3.org/2000/svg" viewBox="0 0 125.05 131.38">
  <defs>
    <style>
      .cls-1 {
        fill: none;
        stroke: #000;
        stroke-linecap: round;
        stroke-linejoin: round;
        stroke-width: 3.14px;
      }

      .cls-2 {
        fill: #fec766;
      }
    </style>
  </defs>
  <path class="cls-2" d="M24.02,105.8c.75-19.17,1.51-38.35,2.26-57.52.19-4.83.17-9.72.79-14.52l-.32,2.37c.29-2.11.76-4.18,1.57-6.16l-.9,2.13c.49-1.12,1.08-2.16,1.82-3.14l-1.4,1.81c.62-.78,1.31-1.47,2.08-2.11l-1.81,1.4c.98-.75,2.03-1.35,3.17-1.85l-2.13.9c1.75-.71,3.57-1.13,5.44-1.39l-2.37.32c4.37-.55,8.83-.36,13.23-.36,5.03,0,10.06,0,15.09,0s9.98-.01,14.96,0c3.89,0,7.79.11,11.65.62l-2.37-.32c3.04.42,6.02,1.1,8.87,2.27l-2.13-.9c1.75.75,3.4,1.67,4.93,2.82l-1.81-1.4c1.26.98,2.38,2.09,3.38,3.33l-1.4-1.81c1.15,1.49,2.07,3.1,2.81,4.84l-.9-2.13c1.01,2.47,1.62,5.06,1.99,7.7l-.32-2.37c1.06,7.92.46,16.08.36,24.04-.11,9.15-.23,18.3-.34,27.45-.03,2.5-.06,4.99-.09,7.49s.09,5.02-.13,7.5l.32-2.37c-.05.34-.12.64-.23.97l.9-2.13c-.08.2-.18.39-.31.56l1.4-1.81-.22.24,1.81-1.4c-.19.17-.4.29-.63.38l2.13-.9c-.37.12-.72.2-1.11.26l2.37-.32c-23.99,2.73-48.22,4.01-72.35,4.43-6.86.12-13.71.15-20.57.11l8.61,11.3c7.44-20.67,12.18-42.16,14.52-63.99.64-5.96,1.07-11.94,1.31-17.92h-17.86c.19,17.33.38,34.66.57,51.98.05,4.89.11,9.78.16,14.67l11.3-8.61c-1.22-.36-2.44-.71-3.66-1.07-.79,5.85-1.58,11.69-2.37,17.54,19.45-1.82,39.04-1.98,58.52-.47-.79-5.85-1.58-11.69-2.37-17.54-1.9.35-3.81.65-5.72.91l2.37-.32c-15.21,2.02-30.59,1.38-45.87.71.79,5.85,1.58,11.69,2.37,17.54,15.63-4.6,31.6-8,47.74-10.18l-2.37.32c7.6-1.02,15.23-1.76,22.88-2.24,2.38-.15,4.59-.9,6.31-2.62,1.55-1.55,2.72-4.09,2.62-6.31s-.86-4.7-2.62-6.31-3.84-2.42-6.31-2.62c-16.84-1.31-33.68-2.62-50.52-3.93-4.79-.37-9.58-.75-14.36-1.12,1.5,5.55,3,11.09,4.51,16.64.84-.38,1.67-.74,2.52-1.1l-2.13.9c9.3-3.92,19.07-6.6,29.07-7.97l-2.37.32c3.18-.42,6.37-.72,9.57-.88,2.36-.12,4.61-.91,6.31-2.62,1.55-1.55,2.72-4.09,2.62-6.31-.22-4.93-3.92-8.81-8.93-8.93-15.97-.38-31.92-1.6-47.76-3.67.79,5.85,1.58,11.69,2.37,17.54,2.28-.34,4.56-.67,6.84-.98l-2.37.32c16.31-2.18,32.74-3.38,49.2-3.59,4.67-.06,9.15-4.07,8.93-8.93-.1-2.31-.86-4.7-2.62-6.31s-3.84-2.42-6.31-2.62c-8.34-.66-16.66-1.55-24.95-2.66l2.37.32c-5.2-.7-10.39-1.49-15.56-2.37v17.22c11.86-4.37,24.16-7.43,36.68-9.13l-2.37.32c1.56-.21,3.13-.4,4.7-.56,2.44-.26,4.52-.82,6.31-2.62,1.55-1.55,2.72-4.09,2.62-6.31-.22-4.92-3.92-8.82-8.93-8.93-11.88-.25-23.75-1.17-35.53-2.74l2.37.32c-4.19-.57-8.38-1.21-12.55-1.94v17.22c5.47-1.56,11.03-2.72,16.67-3.48l-2.37.32c7.68-1,15.42-1.25,23.15-.73,2.19.15,4.8-1.1,6.31-2.62s2.72-4.09,2.62-6.31-.86-4.7-2.62-6.31-3.83-2.38-6.31-2.62c-12.62-1.2-25.27-2.04-37.93-2.52.79,5.85,1.58,11.69,2.37,17.54,4.08-.89,8.19-1.62,12.33-2.18l-2.37.32c3.82-.51,7.66-.87,11.51-1.09,2.37-.14,4.6-.9,6.31-2.62,1.55-1.55,2.72-4.09,2.62-6.31-.23-5.07-3.93-8.64-8.93-8.93-8.14-.48-16.27-.95-24.41-1.43v17.86c8.14-.25,16.28-.5,24.42-.75,4.03-.12,8.06-.25,12.09-.37,3.02-.09,6.04-.1,9.05.28l-2.37-.32c1.95.27,3.86.7,5.69,1.45l-2.13-.9c1.12.48,2.17,1.07,3.15,1.8l-1.81-1.4c.79.63,1.49,1.32,2.11,2.11l-1.4-1.81c.6.81,1.09,1.67,1.49,2.6l-.9-2.13c.37.95.63,1.91.79,2.92l-.32-2.37c.22,1.68.17,3.35-.04,5.04l.32-2.37c-.61,4.17-2.18,8.08-3.73,11.97-1.84,4.62-3.67,9.23-5.51,13.85,5.85.79,11.69,1.58,17.54,2.37-.04-10.06-.68-20.11-1.91-30.1-.3-2.46-.8-4.49-2.62-6.31-1.55-1.55-4.09-2.72-6.31-2.62-5.1.23-8.6,3.93-8.93,8.93-1.03,15.7.07,31.45,2.91,46.93l.9,2.13c.56,1.04,1.33,1.88,2.3,2.51,1.51,1.16,3.45,2,5.41,1.92,3.93-.18,7.55-2.64,8.61-6.56,2.93-10.83,4.78-21.95,5.71-33.13h-17.86c.11,5.67.22,11.35.33,17.02.05,2.8.11,5.59.16,8.39.05,2.64.39,5.46.05,8.08l.32-2.37c-.04.23-.1.45-.18.66l.9-2.13c-.08.21-.19.4-.34.57l1.4-1.81-.24.24,1.81-1.4c-.19.15-.4.27-.63.35l2.13-.9c-.78.23-1.6.28-2.38.53-2.08.67-3.47,1.57-5.12,2.93-2.03,1.68-3.34,4.21-4.16,6.67-1.38,4.14-.99,8.56-.29,12.78,4.37-3.36,8.75-6.72,13.12-10.08-14.52-10.27-28.82-20.84-42.9-31.71l1.81,1.4c-4.35-3.36-8.68-6.75-12.98-10.17l-10.82,14.02c2.09,1.02,4.17,2.04,6.26,3.06s4.48,1.56,6.88.9c2.07-.57,4.32-2.17,5.34-4.1,2.12-4.01,1.28-10.03-3.2-12.22-2.09-1.02-4.17-2.04-6.26-3.06-4.04-1.97-8.68-1.38-11.52,2.3-1.16,1.51-2,3.45-1.92,5.41.1,2.21.8,4.88,2.62,6.31,14.78,11.73,29.8,23.16,45.07,34.24,4.19,3.04,8.39,6.05,12.62,9.04,1.17.82,3.11,1.22,4.51,1.22,1.99,0,3.86-.72,5.41-1.92,1.26-.97,2.13-2.1,2.75-3.57.83-1.98.8-3.69.45-5.81-.05-.3-.09-.59-.13-.89l.32,2.37c-.21-1.66-.27-3.32-.07-4.98l-.32,2.37c.13-.88.32-1.73.65-2.55l-.9,2.13c.22-.5.47-.97.79-1.41l-1.4,1.81c.28-.35.57-.64.92-.92l-1.81,1.4c.29-.21.59-.38.92-.53l-2.13.9c.63-.25,1.26-.32,1.92-.45,1.21-.25,2.42-.8,3.48-1.43,3.55-2.08,5.06-5.98,5.25-9.9.17-3.58-.12-7.24-.19-10.82-.14-7.32-.28-14.63-.42-21.95-.09-4.67-4.04-9.15-8.93-8.93-2.31.1-4.7.86-6.31,2.62s-2.41,3.84-2.62,6.31c-.24,2.88-.55,5.75-.92,8.61l.32-2.37c-1.01,7.47-2.5,14.87-4.47,22.15h17.22c-.53-2.87-.99-5.75-1.38-8.64l.32,2.37c-1.58-11.9-1.99-23.93-1.21-35.91h-17.86c1.23,9.99,1.87,20.04,1.91,30.1.02,4.46,3.38,8.18,7.74,8.77,1.9.26,4.03.01,5.69-1.06,2.07-1.34,3.2-3.06,4.1-5.34,2.65-6.66,5.64-13.27,7.85-20.09,2.38-7.33,3.12-16.26-1.55-22.9-2.16-3.07-4.91-5.69-8.36-7.26-3.81-1.73-7.41-2.5-11.57-2.92-6.38-.64-12.94,0-19.33.19-8.39.26-16.77.51-25.16.77-4.66.14-9.15,4.01-8.93,8.93s3.93,8.64,8.93,8.93c8.14.48,16.27.95,24.41,1.43v-17.86c-8.8.51-17.6,1.71-26.21,3.59-4.34.95-6.96,5.64-6.4,9.8.6,4.46,4.28,7.57,8.77,7.74,12.67.48,25.32,1.32,37.93,2.52v-17.86c-14.14-.95-28.56.64-42.19,4.53-3.64,1.04-6.73,4.7-6.56,8.61.07,1.59.48,3.1,1.22,4.51.93,1.75,3.34,3.75,5.34,4.1,16.66,2.91,33.54,4.65,50.45,5.01v-17.86c-14.95,1.6-29.63,4.8-43.75,10.01-3.59,1.32-6.74,4.48-6.56,8.61.07,1.59.48,3.1,1.22,4.51.92,1.75,3.34,3.77,5.34,4.1,14.21,2.41,28.52,4.21,42.89,5.35v-17.86c-19.57.24-39.07,1.96-58.41,4.89-1.98.3-4.43,2.39-5.34,4.1-.95,1.8-1.33,3.66-1.06,5.69.25,1.87,1.02,3.81,2.46,5.13l1.81,1.4c1.39.81,2.9,1.21,4.51,1.22,15.84,2.07,31.79,3.29,47.76,3.67v-17.86c-15.89.82-31.18,4.65-45.67,11.18l-1.81,1.4c-.87.81-1.49,1.77-1.85,2.87-.75,1.77-1.06,3.93-.45,5.81,1.28,3.96,4.52,6.24,8.61,6.56,16.84,1.31,33.68,2.62,50.52,3.93,4.79.37,9.58.75,14.36,1.12v-17.86c-19.35,1.21-38.65,4.05-57.49,8.59-5.2,1.25-10.37,2.64-15.5,4.15-4.28,1.26-6.99,5.39-6.4,9.8s4.28,7.55,8.77,7.74c18.06.79,36.09,1.31,53.96-1.94,2-.36,4.4-2.34,5.34-4.1s1.33-3.66,1.06-5.69c-.62-4.59-4.28-7.39-8.77-7.74-19.48-1.51-39.07-1.36-58.52.47-2.31.22-4.67.82-6.31,2.62-1.35,1.48-2.19,3.13-2.46,5.13-.59,4.39,2.09,8.54,6.4,9.8,1.22.36,2.44.71,3.66,1.07,5.54,1.62,11.37-2.88,11.3-8.61-.19-17.33-.38-34.66-.57-51.98-.05-4.89-.11-9.78-.16-14.67s-4.07-9.15-8.93-8.93-8.73,3.92-8.93,8.93c-.33,8.35-1.05,16.68-2.16,24.97l.32-2.37c-2.52,18.6-6.99,36.91-13.35,54.58-2.01,5.57,3.18,11.27,8.61,11.3,25.2.17,50.41-.79,75.52-2.89,3.13-.26,6.26-.54,9.38-.84,1.48-.14,2.96-.29,4.44-.44,2.14-.22,4.43-.3,6.52-.79,2.95-.69,5.65-2.76,7.04-5.44,1.18-2.28,1.47-4.69,1.51-7.23.04-3.16.08-6.32.12-9.48.16-12.73.32-25.45.48-38.18.07-5.29.29-10.63-.31-15.9-.68-6.03-1.96-12.21-5.5-17.29-3.87-5.56-9.01-9.21-15.32-11.55-5.02-1.87-10.57-2.43-15.89-2.68-5.58-.27-11.18-.12-16.76-.12-6.27,0-12.53,0-18.8,0s-12.05-.22-17.98.99c-6.43,1.31-12.48,5.36-15.51,11.28-2.83,5.54-3.47,11.62-3.72,17.75s-.49,12.56-.74,18.84c-.49,12.56-.99,25.13-1.48,37.69-.12,3.14-.25,6.28-.37,9.42-.18,4.67,4.24,9.14,8.93,8.93,5-.22,8.73-3.92,8.93-8.93h0Z"/>
  <g>
    <path class="cls-1" d="M25.61,8.87h74.17c10.88,0,19.7,8.83,19.7,19.7v90.19H5.91V28.57c0-10.88,8.83-19.7,19.7-19.7Z"/>
    <path d="M28.94,119.49c5.6-1.92,8.97-7.39,10.21-12.93.75-3.37.87-6.83.89-10.27.02-3.63,0-7.25,0-10.88,0-7.24-.02-14.48-.03-21.73,0-3.45-.02-6.94.66-10.31.28-1.4.67-2.77,1.2-4.1.09-.22.22-.53.38-.85s.32-.64.49-.95.34-.59.52-.87c.1-.15.2-.29.3-.44.04-.05.07-.1.11-.16.04-.05.08-.1.11-.15-.05.06-.04.05.03-.04.93-1.17,1.94-1.95,3.18-2.73,1.32-.83,2.71-1.49,4.12-2.01,3.13-1.15,6.44-1.73,9.75-1.87,3.5-.14,6.97.21,10.35,1.07,1.48.37,3.12.8,4.44,1.38s2.69,1.5,3.9,2.4c1.09.81,2.26,1.91,3.01,3.07.79,1.22,1.22,2.39,1.55,3.82s.44,2.77.49,4.31,0,3.17-.02,4.75c-.12,7.22-.24,14.44-.36,21.67-.06,3.62-.16,7.24-.16,10.85s.16,7.14.79,10.65c.95,5.34,3.29,10.81,7.69,14.19,1.04.8,2.17,1.42,3.38,1.92.46.19,1.02-.2,1.14-.65.15-.53-.18-.95-.65-1.14-.28-.11.16.07-.11-.05-.08-.04-.17-.07-.25-.11-.14-.06-.27-.13-.4-.19-.29-.15-.58-.31-.86-.47s-.55-.35-.82-.53c-.12-.09-.24-.17-.36-.26-.23-.17.13.11-.09-.07-.07-.06-.14-.11-.21-.17-.5-.41-.98-.86-1.42-1.34-.21-.23-.42-.46-.62-.7-.11-.13-.21-.25-.31-.38-.11-.14-.04-.06-.02-.03-.07-.1-.14-.19-.22-.29-.79-1.08-1.46-2.25-2.03-3.46-.07-.14-.13-.28-.19-.42-.03-.07-.06-.14-.09-.21-.01-.03-.09-.21-.03-.08-.14-.33-.27-.66-.39-.99-.23-.62-.44-1.25-.62-1.89-.9-3.11-1.24-6.32-1.38-9.54-.15-3.54-.04-7.09.02-10.64.12-7.26.24-14.53.37-21.79.03-1.81.06-3.62.09-5.43.02-1.51.03-3.01-.08-4.52-.22-3-.89-6.05-2.76-8.47-1-1.3-2.23-2.35-3.56-3.29s-2.66-1.78-4.15-2.37-3.11-1.02-4.68-1.4c-1.72-.41-3.47-.7-5.23-.87-3.58-.35-7.21-.18-10.74.5-3.16.61-6.28,1.68-9.04,3.36-1.29.78-2.52,1.68-3.5,2.84s-1.71,2.38-2.3,3.72c-1.31,2.95-1.91,6.13-2.14,9.34-.25,3.54-.15,7.11-.14,10.66s0,7.28.01,10.93,0,7.28.01,10.93.09,7.05-.09,10.56c-.17,3.21-.61,6.43-1.88,9.43.07-.16-.05.12-.05.12-.03.06-.05.11-.08.17-.07.16-.14.31-.22.47-.16.32-.32.64-.5.95-.33.6-.7,1.18-1.1,1.73-.04.05-.07.1-.11.15,0,0-.18.24-.08.11-.09.12-.19.24-.29.36-.23.28-.48.56-.74.83-.45.48-.94.92-1.45,1.33-.14.11.17-.12-.07.05-.07.05-.15.11-.22.16-.12.09-.25.17-.38.26-.27.18-.54.34-.82.5s-.57.3-.86.43c0,0-.28.12-.12.05-.06.02-.11.05-.17.07-.17.07-.35.13-.52.19-.47.16-.79.64-.65,1.14.13.46.66.81,1.14.65h0Z"/>
    <path d="M39.53,52.15c-4.29.07-8.58.03-12.87-.03s-8.58-.15-12.87-.18c-2.41-.02-4.83,0-7.24.03-.5,0-.93.42-.93.93s.42.94.93.93c4.29-.07,8.58-.03,12.87.03s8.58.15,12.87.18c2.41.02,4.83,0,7.24-.03.5,0,.93-.42.93-.93s-.42-.94-.93-.93h0Z"/>
    <path d="M6.39,65.11c3.49-.26,7-.28,10.5-.27,4.47,0,8.93.08,13.4.13,2.72.03,5.45.05,8.17.05.5,0,.93-.43.93-.93s-.42-.93-.93-.93c-4.74,0-9.48-.07-14.22-.12-4.12-.05-8.25-.1-12.37-.02-1.83.03-3.66.09-5.48.23-.5.04-.93.4-.93.93,0,.47.43.97.93.93h0Z"/>
    <path d="M6.39,75.94c3.93.03,7.85.05,11.78.04s8.13-.02,12.19-.04c2.7-.01,5.4-.02,8.1-.03.5,0,.93-.42.93-.93s-.42-.93-.93-.93c-4.54.02-9.08.04-13.62.06-3.89.01-7.78.02-11.68,0-2.26,0-4.51-.02-6.77-.04-.5,0-.93.43-.93.93s.42.92.93.93h0Z"/>
    <path d="M50.84,9.78c.11,7.61.22,15.21.33,22.82.03,2.16.06,4.32.09,6.48,0,.5.42.93.93.93s.93-.42.93-.93c-.11-7.61-.22-15.21-.33-22.82-.03-2.16-.06-4.32-.09-6.48,0-.5-.42-.93-.93-.93s-.93.42-.93.93h0Z"/>
    <path d="M63.62,37.85c.09-7.34.05-14.68-.14-22.01-.05-2.07-.12-4.14-.19-6.22-.02-.5-.41-.93-.93-.93s-.95.42-.93.93c.27,7.33.39,14.67.38,22.01,0,2.07-.02,4.15-.05,6.22,0,.5.43.93.93.93s.92-.42.93-.93h0Z"/>
    <path d="M74.47,40c.02-3.27.11-6.54.17-9.81.08-3.97.11-7.94.07-11.91-.03-2.89-.09-5.77-.18-8.66-.02-.5-.41-.93-.93-.93s-.94.42-.93.93c.15,4.77.22,9.54.2,14.31-.02,3.55-.1,7.1-.17,10.65-.04,1.81-.07,3.61-.08,5.42,0,.5.43.93.93.93s.92-.42.93-.93h0Z"/>
    <path d="M85.57,54.14c4.39,0,8.77.01,13.16.03,4.05.02,8.1.03,12.16.02,2.4,0,4.81-.02,7.21-.05.5,0,.93-.42.93-.93s-.42-.93-.93-.93c-4.17.05-8.34.06-12.51.06s-8.22-.03-12.34-.05c-2.56,0-5.12-.01-7.68-.01-.5,0-.93.43-.93.93s.42.93.93.93h0Z"/>
    <path d="M85.87,64.86c4.3-.03,8.6-.05,12.9-.08s8.64-.05,12.96-.08c2.43-.01,4.86-.03,7.29-.04.5,0,.93-.42.93-.93s-.42-.93-.93-.93c-4.3.03-8.6.05-12.9.08-4.32.03-8.64.05-12.96.08-2.43.01-4.86.03-7.29.04-.5,0-.93.42-.93.93s.42.93.93.93h0Z"/>
    <path d="M85.41,75.82c4.32-.08,8.64-.11,12.96-.13s8.7-.03,13.05-.07c2.74-.03,5.49-.07,8.23-.12.5,0,.93-.42.93-.93s-.42-.94-.93-.93c-4.69.09-9.38.14-14.07.16-4.25.02-8.49.03-12.74.06-2.48.02-4.95.05-7.43.1-.5,0-.93.42-.93.93s.42.94.93.93h0Z"/>
    <path d="M63.28,88.06c-.13.09-.27.19-.4.28-.04.03-.08.05-.11.08-.11.06-.19.14-.26.24-.08.09-.14.19-.17.32-.04.12-.04.25-.02.37,0,.12.04.24.11.34l.14.19c.12.11.25.19.41.24l.25.03c.17,0,.32-.04.47-.13.13-.09.27-.19.4-.28.04-.03.08-.05.11-.08.11-.06.19-.14.26-.24.08-.09.14-.19.17-.32.04-.12.04-.25.02-.37,0-.12-.04-.24-.11-.34l-.14-.19c-.12-.11-.25-.19-.41-.24l-.25-.03c-.17,0-.32.04-.47.13h0Z"/>
    <path d="M62.6,73.03c-.06.23-.13.46-.22.68-.05.14.06-.12,0,0-.02.05-.05.1-.07.15-.06.12-.13.25-.2.37-.28.47-.38.59-.78.99-.61.6-1.42,1.08-2.21,1.33-.21.07-.43.13-.65.17-.11.02-.22.04-.33.06.18-.03.03,0,0,0-.08,0-.17.02-.25.02-.22.02-.45.02-.67,0-.13,0-.25-.02-.38-.03-.15-.01.14.02,0,0-.07-.01-.14-.02-.21-.04-.25-.05-.49-.11-.73-.19-.11-.04-.22-.08-.33-.12-.14-.05.12.05-.02,0-.08-.04-.16-.07-.24-.11-.21-.1-.41-.22-.61-.34-.11-.07-.22-.14-.33-.22-.05-.03-.1-.07-.14-.1.1.08-.01-.01-.06-.04-.4-.33-.76-.7-1.09-1.1-.02-.02-.11-.14-.02-.02-.04-.05-.07-.1-.1-.14-.07-.1-.14-.19-.2-.29-.15-.22-.28-.46-.4-.69-.05-.11-.1-.21-.15-.32-.08-.17-.03-.06-.01-.02-.02-.05-.04-.11-.07-.17-.1-.25-.18-.5-.25-.76-.06-.23-.11-.46-.15-.69-.05-.28,0,.11,0-.06,0-.06-.01-.12-.02-.18-.01-.14-.02-.28-.02-.42,0-.27,0-.54.02-.8,0-.06.01-.13.02-.19,0-.02.02-.21.01-.11-.02.13.03-.18.02-.16.01-.08.03-.15.04-.23.1-.53.26-1.04.46-1.54.06-.15-.05.1.02-.04.03-.07.06-.14.1-.22.05-.11.11-.23.17-.34.13-.25.28-.5.44-.74.07-.11.14-.21.22-.31.04-.05.07-.1.11-.15,0-.01.11-.14.03-.04.18-.22.37-.44.57-.65.77-.8,1.54-1.34,2.59-1.83.26-.12.37-.16.68-.27s.58-.19.88-.27c.28-.07.56-.13.85-.18.07-.01.13-.02.2-.03.01,0,.18-.03.06-.01.15-.02.31-.04.46-.05,1.19-.1,2.31-.03,3.38.21.55.12,1.09.28,1.61.48.29.11.42.16.64.26.25.12.5.24.74.37,1.98,1.07,3.57,2.6,4.69,4.52.64,1.09,1.08,2.18,1.43,3.39.38,1.29.62,2.56.55,3.9-.03.63-.09,1.01-.24,1.63-.14.57-.32,1.12-.54,1.66-.07.18-.04.1-.03.06-.03.06-.06.13-.08.19-.06.13-.12.25-.18.38-.14.28-.29.56-.44.83-.3.51-.62,1.01-.97,1.48-.14.19-.28.37-.47.59-.21.25-.43.49-.65.73-.44.48-.91.93-1.39,1.37-.92.84-1.87,1.59-2.85,2.31-.51.38-1.03.75-1.54,1.12-.41.29-.6.81-.33,1.27.24.4.86.62,1.27.33,4.33-3.09,9.05-6.78,10.1-12.33.55-2.92-.16-5.89-1.37-8.56-1.09-2.39-2.82-4.43-5.02-5.88-4.34-2.87-10.46-3.11-14.58.3-1.93,1.6-3.19,3.93-3.48,6.41s.57,4.79,2.18,6.56,3.86,2.74,6.17,2.46,4.43-1.55,5.56-3.57c.27-.48.48-1.01.62-1.54.12-.49-.16-1.01-.65-1.14s-1.02.16-1.14.65h0Z"/>
    <path d="M62.69,89.86c.57.53,1.21,1,1.85,1.43.59.39,1.2.76,1.79,1.15.33.22.66.45.98.7l-.19-.14c.13.1.26.2.38.31.08.09.18.15.3.19.11.06.23.08.36.08.13,0,.25-.02.36-.08.11-.04.21-.1.3-.19.16-.18.28-.41.27-.66-.01-.23-.09-.5-.27-.66-.55-.47-1.15-.89-1.75-1.28-.54-.35-1.09-.69-1.63-1.05-.3-.2-.6-.41-.89-.63l.19.14c-.25-.2-.5-.4-.74-.62-.18-.17-.41-.27-.66-.27-.13,0-.25.02-.36.08-.11.04-.21.1-.3.19-.16.18-.28.41-.27.66s.09.49.27.66h0Z"/>
    <path d="M67.46,91.85s-.05.04-.07.05l.19-.14c-1.55,1.2-3.15,2.35-4.78,3.44-.46.3-.91.61-1.37.9-.2.13-.36.32-.43.55-.06.22-.03.52.09.71s.32.37.55.43.5.04.71-.09c1.68-1.08,3.31-2.21,4.91-3.4.5-.37,1-.76,1.5-1.14.09-.08.15-.18.19-.3.06-.11.08-.23.08-.36,0-.23-.1-.5-.27-.66s-.41-.28-.66-.27l-.25.03c-.16.04-.29.12-.41.24h0Z"/>
    <path d="M61.42,97.62c.79.57,1.59,1.14,2.38,1.71l.67.48c.11.07.22.1.34.11.12.03.25.02.37-.02.12-.03.23-.08.32-.17.1-.07.18-.15.24-.26l.09-.22c.04-.16.04-.33,0-.49l-.09-.22c-.08-.14-.19-.25-.33-.33-.79-.57-1.59-1.14-2.38-1.71l-.67-.48c-.11-.07-.22-.1-.34-.11-.12-.03-.25-.02-.37.02-.12.03-.23.08-.32.17-.1.07-.18.15-.24.26l-.09.22c-.04.16-.04.33,0,.49l.09.22c.08.14.19.25.33.33h0Z"/>
    <path d="M63.94,99.23c-.27,1.51-.53,3.02-.8,4.53l-.23,1.28c-.04.12-.04.25-.02.37,0,.12.04.24.11.34.11.19.33.38.55.43.24.05.5.04.71-.09.19-.12.38-.32.43-.55.27-1.51.53-3.02.8-4.53l.23-1.28c.04-.12.04-.25.02-.37,0-.12-.04-.24-.11-.34-.11-.19-.33-.38-.55-.43-.24-.05-.5-.04-.71.09-.19.12-.38.32-.43.55h0Z"/>
  </g>
</svg>