<?xml version="1.0" encoding="UTF-8"?>
<svg id="Layer_1" data-name="Layer 1" xmlns="http://www.w3.org/2000/svg" viewBox="0 0 125.05 131.38">
  <defs>
    <style>
      .cls-1 {
        fill: none;
        stroke: #000;
        stroke-linecap: round;
        stroke-linejoin: round;
        stroke-width: 3.14px;
      }

      .cls-2 {
        fill: #e9604d;
      }
    </style>
  </defs>
  <path class="cls-2" d="M3.51,23.49c-.34,14.84-.69,29.68-1.03,44.52-.17,7.38-.34,14.76-.51,22.14-.08,3.65-.17,7.3-.25,10.94-.12,5.34-.87,11.1,3.32,15.27,2.48,2.47,6.12,3.68,9.58,3.35,2.53-.24,5-.84,7.49-1.32,3.94-.76,7.89-1.4,11.87-1.93l-2.49.34c19.38-2.58,39.05-2.57,58.43.03l-2.49-.34c6.85.93,13.65,2.18,20.38,3.76,5.99,1.4,11.75-2.78,11.87-9.04.48-24.6.96-49.2,1.43-73.8.06-3.08.12-6.15.18-9.23.03-1.78,0-3.64-.47-5.37-.82-3.09-2.83-5.96-5.61-7.59-3.55-2.09-7.42-1.91-11.34-1.68-3.07.18-6.14.37-9.21.56-12.28.75-24.57,1.53-36.85,2.35-13.77.92-27.54,1.88-41.31,2.89,2.7,4.7,5.4,9.41,8.1,14.11,1.37-2.4,2.25-5.36,1.99-8.14-.35-3.75-1.64-6.66-4.09-9.51-2.21,5.34-4.42,10.67-6.63,16.01,25.7,1.61,51.53,1.11,77.15-1.53,7.9-.81,15.78-1.83,23.63-3-3.85-3.85-7.69-7.69-11.54-11.54-5.99,24.98-10.03,50.44-12.12,76.04-.58,7.11-1,14.23-1.27,21.36,3.96-3.01,7.92-6.03,11.87-9.04-19.05-5.39-39.11-6.05-58.79-5.51-5.51.15-11.01.39-16.51.64v18.76c19.13-1.03,38.32-2.05,57.47-.69v-18.76c-18.96,1.19-37.93,1.75-56.92,1.82-5.72.02-11.44.01-17.17,0v18.76c24.91,0,49.81.43,74.71.61,7.41.06,14.81.09,22.22.08-.83-6.14-1.66-12.28-2.49-18.42-.4.16-.78.26-1.21.32l2.49-.34c-.3.02-.57.01-.87-.02l2.49.34c-.39-.07-.74-.18-1.11-.33l2.24.95c-.37-.18-.7-.38-1.03-.62l1.9,1.47c-.6-.48-1.11-1.02-1.58-1.63l1.47,1.9c-.61-.84-1.1-1.73-1.52-2.68l.95,2.24c-.98-2.43-1.4-5.14-1.91-7.7-.58-2.89-1.06-5.79-1.45-8.71l.34,2.49c-1.66-12.46-1.68-25.08-.04-37.54l-.34,2.49c.45-3.31,1-6.61,1.67-9.89.8-3.91-.48-8.63-4.31-10.59-8.15-4.17-18.04-4.78-26.63-1.51-4.69,1.78-8.77,4.14-12.48,7.57-3.15,2.91-5.86,6.57-7.75,10.42-3.89,7.91-5.82,16.97-4.04,25.71.84,4.1,3,8.38,6.15,11.2,4.42,3.97,10.01,5.6,15.87,4.81,5.11-.69,10.27-3.25,13.61-7.26,3.28-3.94,5.48-8.48,6.57-13.5,1.17-5.4,1.69-10.98.35-16.4-1.36-5.51-4.85-10.06-9.48-13.23-4.57-3.12-10.65-3.87-15.95-2.51-4.59,1.17-8.92,4.14-11.98,7.73-6.58,7.71-9.88,17.59-10.82,27.58-.47,5.02.07,9.93,2.19,14.54,2.32,5.05,7.69,8.59,13.08,9.48,4.81.79,9.76.65,14.33-1.19,4.33-1.75,8.43-4.15,11.48-7.77s5.32-7.43,6.03-11.95c.51-3.21.51-5.83-.11-9.05-.4-2.09-1.3-4.13-2.29-5.99-2.07-3.87-5.35-6.95-8.94-9.39-3.08-2.09-6.84-3.65-10.53-4.22-4.57-.71-9.21-.81-13.64.77s-8.42,3.95-11.64,7.36c-5.9,6.25-9.13,14.71-9.31,23.27-.11,4.88.96,10.35,3.91,14.34,1.98,2.68,4.23,4.94,7.2,6.54,2.23,1.21,4.69,2.19,7.18,2.71,8.46,1.78,17.56.14,24.77-4.7,3.89-2.61,6.98-5.65,9.67-9.47,2.12-3.01,3.71-6.69,4.29-10.32.73-4.62.68-9.18-.66-13.71-1.35-4.56-3.64-8.4-6.53-12.11-5.05-6.47-12.75-11.27-20.71-13.18-2.72-.65-5.66-1.11-8.48-.96-3.66.19-6.73,1.04-10.03,2.53-4.09,1.86-7.65,5.07-10.69,8.33-3.2,3.43-6.1,7.25-8.45,11.32-1.92,3.33-3.61,6.98-4.27,10.79-.73,4.21-1.01,8.7.56,12.77,1.03,2.67,2.25,4.94,4.29,7.01s4.64,3.47,7.45,4.51c4.9,1.82,10.8,1.05,15.69-.34,4.24-1.21,8.61-2.9,12.27-5.4,4.89-3.34,8.52-7.53,10.58-13.13,1.92-5.22,1.36-11.47-1.43-16.26-2.57-4.42-6.76-7.22-11.47-8.94-4.32-1.57-8.95-1.46-13.41-.8-9.12,1.34-16.23,8.04-21.31,15.29-5.45,7.78-10.52,17.62-8.25,27.34,1.17,5.02,4.7,9.76,9.17,12.31,5.95,3.39,12.7,2.8,18.68-.09,7.51-3.62,12.32-12.6,11.72-20.84-.33-4.59-1.68-8.8-4.51-12.47s-6.59-6.23-11.04-7.59c-7.8-2.39-16.8-.39-23.17,4.53-3.57,2.76-6.17,6.26-7.59,10.59-2.16,6.6.06,14.23,6.06,17.97,5.11,3.19,12.43,2.77,17.4-.52,4.41-2.92,6.98-7.15,8.99-11.9,1.11-2.62,2.25-5.25,3.14-7.96s1.39-5.48,1.76-8.35c.67-5.17-.3-10.12-2.44-14.82-4.23-9.3-14.76-14.99-24.79-12.74-5.09,1.14-9.47,4.57-12.34,8.83-3.26,4.83-3.32,11.19-.6,16.24,2.2,4.09,7.32,5.05,11.54,5.21,2.33.09,4.76-.25,7-.83,4.33-1.13,8.79-3.63,11.66-7.12,3.31-4.03,5.48-9.06,5.09-14.38s-2.35-10.25-6.08-14.17c-3.5-3.69-8.94-6.28-14.11-5.85-4.02.34-7.62,1.84-10.13,5.1s-3.39,7.28-2.33,11.23c1.81,6.73,7.79,10.55,14.39,11.43,4.48.6,9.03.45,13.52-.02,4.75-.5,9.49-1.24,14.12-2.47s9.11-2.97,13.5-4.93l1.9-1.47,1.47-1.9c1.07-1.82,1.39-3.91,1.11-5.98-.52-3.85-3.12-6.52-6.72-7.8-8.26-2.94-17.32-4.18-26.07-3.66-4.69.28-8.57,3.36-9.21,8.13-.27,2-.01,4.23,1.11,5.98,1.24,1.92,3.25,3.94,5.61,4.31,9.04,1.41,18.08,2.82,27.12,4.23,2.58.4,4.89.42,7.23-.95,1.95-1.14,3.8-3.37,4.31-5.61,1.07-4.71-1.42-10.44-6.55-11.54-6.99-1.49-14.52.75-19.14,6.38-2.17,2.65-4.04,5.62-4.65,9.05-.7,3.94-.58,7.93.65,11.77,2.04,6.4,5.96,11.77,10.09,16.96,3.26,4.11,6.94,8.54,11.66,11,2.98,1.56,6.54,2.86,9.96,2.67,4.74-.26,9.05-2.43,11.46-6.65l-17.14-2.24c.4,1.51.71,3.03.93,4.58l-.34-2.49c.39,3.1.39,6.2,0,9.29-.28,2.21,1.25,5.14,2.75,6.63,1.63,1.63,4.3,2.85,6.63,2.75s4.94-.91,6.63-2.75l1.47-1.9c.85-1.46,1.28-3.04,1.28-4.73.7-5.44.15-11.08-1.26-16.36-.96-3.6-4.18-6.23-7.8-6.72s-7.47,1.2-9.35,4.48c-.09.16-.18.32-.29.47l1.47-1.9c-.21.28-.44.51-.71.73l1.9-1.47c-.27.2-.55.35-.86.49l2.24-.95c-.32.12-.64.2-.98.26l2.49-.34c-.65.08-1.28.06-1.93-.02l2.49.34c-.92-.15-1.8-.42-2.66-.76l2.24.95c-1.29-.55-2.49-1.26-3.6-2.12l1.9,1.47c-3.06-2.47-5.64-5.77-8.03-8.86l1.47,1.9c-2.37-3.09-4.62-6.31-6.2-9.88l.95,2.24c-.68-1.61-1.19-3.26-1.45-4.99l.34,2.49c-.14-1.14-.15-2.27-.04-3.42l-.34,2.49c.13-.96.37-1.86.74-2.75l-.95,2.24c.39-.87.87-1.68,1.45-2.44l-1.47,1.9c.61-.76,1.27-1.44,2.02-2.05l-1.9,1.47c.77-.59,1.58-1.08,2.46-1.49l-2.24.95c.78-.32,1.56-.55,2.39-.7l-2.49.34c.85-.11,1.67-.12,2.52-.01l-2.49-.34c.25.04.49.08.73.14,1.66-6.03,3.32-12.06,4.99-18.09-9.04-1.41-18.08-2.82-27.12-4.23-.83,6.14-1.66,12.28-2.49,18.42,3.86-.23,7.71-.09,11.54.41l-2.49-.34c4.11.56,8.13,1.53,12.04,2.92l-2.24-17.14c-.55.24-1.1.48-1.65.72l2.24-.95c-6.15,2.56-12.6,4.27-19.2,5.16l2.49-.34c-4.68.6-9.62,1.03-14.31.43l2.49.34c-.97-.15-1.89-.36-2.81-.71l2.24.95c-.61-.26-1.18-.55-1.72-.93l1.9,1.47c-.45-.35-.83-.74-1.18-1.18l1.47,1.9c-.25-.36-.46-.73-.64-1.14l.95,2.24c-.15-.4-.26-.79-.32-1.21l.34,2.49c-.02-.31-.02-.6,0-.91l-.34,2.49c.05-.31.13-.58.24-.87l-.95,2.24c.14-.3.29-.54.49-.8l-1.47,1.9c.21-.23.41-.42.66-.62l-1.9,1.47c.26-.17.5-.31.78-.44l-2.24.95c.39-.15.77-.25,1.17-.32l-2.49.34c.65-.08,1.28-.07,1.93,0l-2.49-.34c.79.13,1.53.33,2.27.63l-2.24-.95c.72.32,1.37.7,2.01,1.16l-1.9-1.47c.82.65,1.55,1.37,2.2,2.19l-1.47-1.9c.68.91,1.24,1.87,1.68,2.92l-.95-2.24c.37.94.63,1.89.78,2.89l-.34-2.49c.14,1.1.15,2.19,0,3.3l.34-2.49c-.15.99-.42,1.94-.81,2.87l.95-2.24c-.37.82-.82,1.57-1.35,2.28l1.47-1.9c-.7.88-1.48,1.64-2.37,2.32l1.9-1.47c-1.02.75-2.1,1.36-3.27,1.85l2.24-.95c-1.31.52-2.65.87-4.04,1.06l2.49-.34c-1.29.14-2.56.14-3.84-.02l2.49.34c-.69-.11-1.37-.25-2.05-.45l5.61,4.31c-.1-.18-.19-.37-.27-.57l.95,2.24c-.18-.47-.31-.94-.4-1.44l.34,2.49c-.05-.49-.06-.96-.02-1.45l-.34,2.49c.09-.7.28-1.34.55-1.98l-.95,2.24c.31-.66.67-1.27,1.11-1.85l-1.47,1.9c.55-.68,1.16-1.28,1.83-1.83l-1.9,1.47c.81-.62,1.67-1.13,2.59-1.54l-2.24.95c.95-.39,1.92-.66,2.94-.81l-2.49.34c.81-.09,1.59-.09,2.39,0l-2.49-.34c1.08.16,2.11.43,3.13.84l-2.24-.95c1.08.47,2.08,1.05,3.02,1.76l-1.9-1.47c1.01.8,1.9,1.7,2.7,2.72l-1.47-1.9c.84,1.12,1.54,2.32,2.09,3.61l-.95-2.24c.52,1.28.89,2.59,1.09,3.95l-.34-2.49c.24,1.94.19,3.88-.07,5.82l.34-2.49c-.61,4.03-2.05,7.83-3.62,11.57l.95-2.24c-.94,2.23-1.88,4.45-3.36,6.39l1.47-1.9c-.6.73-1.24,1.37-1.98,1.95l1.9-1.47c-.57.4-1.16.73-1.8,1l2.24-.95c-.66.25-1.33.43-2.03.54l2.49-.34c-.69.08-1.37.09-2.06.01l2.49.34c-.56-.09-1.08-.23-1.6-.44l2.24.95c-.4-.19-.76-.41-1.11-.68l1.9,1.47c-.28-.24-.51-.49-.75-.78l1.47,1.9c-.22-.31-.39-.6-.56-.94l.95,2.24c-.24-.58-.38-1.14-.47-1.75l.34,2.49c-.05-.62-.04-1.23.02-1.85l-.34,2.49c.14-.93.39-1.81.75-2.68l-.95,2.24c.39-.86.87-1.65,1.43-2.39l-1.47,1.9c.72-.9,1.54-1.69,2.45-2.41l-1.9,1.47c1.12-.84,2.31-1.52,3.59-2.08l-2.24.95c1.51-.62,3.07-1.05,4.68-1.27l-2.49.34c1.51-.19,3.02-.19,4.53.01l-2.49-.34c1.19.18,2.33.49,3.45.94l-2.24-.95c1.02.44,1.96.99,2.84,1.67l-1.9-1.47c.77.63,1.46,1.32,2.07,2.11l-1.47-1.9c.58.78,1.06,1.6,1.45,2.49l-.95-2.24c.49,1.15.81,2.34.97,3.58l-.34-2.49c.13,1.15.13,2.29,0,3.44l.34-2.49c-.17,1.25-.49,2.44-.96,3.61l.95-2.24c-.43.98-.95,1.89-1.58,2.76l1.47-1.9c-.67.86-1.42,1.63-2.27,2.3l1.9-1.47c-.93.7-1.91,1.24-2.98,1.7l2.24-.95c-.96.37-1.92.63-2.94.78l2.49-.34c-.85.09-1.68.09-2.54-.02l2.49.34c-.7-.12-1.36-.31-2.02-.57l2.24.95c-.74-.33-1.41-.73-2.05-1.22l1.9,1.47c-.62-.51-1.17-1.06-1.68-1.69l1.47,1.9c-.63-.82-1.13-1.7-1.54-2.65l.95,2.24c-.33-.84-.56-1.69-.69-2.59l.34,2.49c-.13-1.09-.1-2.17.02-3.26l-.34,2.49c.27-1.91.85-3.71,1.59-5.48l-.95,2.24c1.84-4.21,4.24-8.31,7.03-11.96l-1.47,1.9c1.53-1.96,3.22-3.75,5.17-5.3l-1.9,1.47c1.52-1.17,3.15-2.17,4.92-2.92l-2.24.95c1.44-.58,2.93-.96,4.46-1.19l-2.49.34c1.66-.21,3.32-.22,4.98-.02l-2.49-.34c1.39.19,2.73.53,4.04,1.05l-2.24-.95c1.04.45,2.01,1,2.91,1.69l-1.9-1.47c.63.51,1.18,1.07,1.69,1.7l-1.47-1.9c.48.64.86,1.29,1.19,2.02l-.95-2.24c.33.82.55,1.63.68,2.5l-.34-2.49c.11,1,.09,1.97-.04,2.96l.34-2.49c-.16,1.01-.43,1.97-.81,2.92l.95-2.24c-.51,1.2-1.15,2.3-1.94,3.34l1.47-1.9c-.91,1.13-1.93,2.11-3.06,3.01l1.9-1.47c-1.93,1.48-4.05,2.62-6.29,3.57l2.24-.95c-2.83,1.17-5.78,2.11-8.8,2.56l2.49-.34c-1.53.2-3.05.24-4.58.04l2.49.34c-.95-.16-1.85-.41-2.74-.78l2.24.95c-.7-.33-1.35-.71-1.96-1.18l1.9,1.47c-.54-.44-1.01-.91-1.45-1.46l1.47,1.9c-.46-.62-.84-1.27-1.15-1.97l.95,2.24c-.37-.91-.62-1.84-.76-2.82l.34,2.49c-.19-1.44-.15-2.87.03-4.32l-.34,2.49c.27-1.91.79-3.76,1.52-5.55l-.95,2.24c1.42-3.35,3.46-6.47,5.66-9.36l-1.47,1.9c2.35-3.03,4.98-5.91,8.01-8.26l-1.9,1.47c1.32-1,2.71-1.85,4.23-2.52l-2.24.95c1.21-.5,2.44-.84,3.73-1.04l-2.49.34c1.7-.21,3.38-.17,5.07.06l-2.49-.34c2.37.36,4.66,1.04,6.88,1.96l-2.24-.95c2.38,1.03,4.6,2.34,6.66,3.91l-1.9-1.47c1.99,1.56,3.77,3.34,5.32,5.34l-1.47-1.9c1.33,1.77,2.45,3.67,3.32,5.72l-.95-2.24c.73,1.79,1.24,3.64,1.51,5.56l-.34-2.49c.21,1.69.21,3.38,0,5.07l.34-2.49c-.23,1.63-.67,3.18-1.3,4.7l.95-2.24c-.71,1.62-1.61,3.12-2.69,4.53l1.47-1.9c-1.26,1.61-2.71,3.03-4.32,4.29l1.9-1.47c-1.75,1.33-3.63,2.43-5.65,3.3l2.24-.95c-1.93.8-3.93,1.37-6,1.67l2.49-.34c-1.97.26-3.93.28-5.9.02l2.49.34c-1.67-.24-3.28-.67-4.84-1.3l2.24.95c-1.13-.49-2.19-1.07-3.19-1.79l1.9,1.47c-.75-.58-1.4-1.21-2.01-1.93l1.47,1.9c-.64-.84-1.16-1.72-1.58-2.68l.95,2.24c-.49-1.21-.8-2.46-.99-3.75l.34,2.49c-.26-2.1-.21-4.21.06-6.31l-.34,2.49c.33-2.27.93-4.47,1.8-6.59l-.95,2.24c.81-1.91,1.83-3.7,3.08-5.36l-1.47,1.9c1.13-1.46,2.41-2.76,3.87-3.89l-1.9,1.47c1.32-.99,2.72-1.8,4.24-2.44l-2.24.95c1.4-.56,2.83-.96,4.33-1.17l-2.49.34c1.56-.19,3.11-.18,4.67.01l-2.49-.34c1.78.25,3.49.71,5.15,1.39l-2.24-.95c1.63.69,3.15,1.56,4.56,2.63l-1.9-1.47c1.19.93,2.25,1.96,3.19,3.14l-1.47-1.9c.83,1.07,1.51,2.22,2.05,3.47l-.95-2.24c.42,1.06.72,2.13.88,3.26l-.34-2.49c.13,1.11.12,2.19-.02,3.3l.34-2.49c-.18,1.21-.5,2.36-.96,3.5l.95-2.24c-.58,1.36-1.33,2.61-2.23,3.78l1.47-1.9c-1.02,1.28-2.17,2.41-3.47,3.42l1.9-1.47c-1.34,1-2.77,1.82-4.3,2.48l2.24-.95c-1.45.59-2.94,1-4.5,1.23l2.49-.34c-1.49.19-2.96.19-4.45.02l2.49.34c-1.21-.17-2.37-.45-3.5-.92l2.24.95c-.72-.33-1.39-.71-2.02-1.19l1.9,1.47c-.47-.4-.89-.82-1.28-1.29l1.47,1.9c-.5-.67-.89-1.38-1.22-2.15l.95,2.24c-.39-1.01-.63-2.05-.79-3.12l.34,2.49c-.33-2.7-.14-5.45.22-8.13l-.34,2.49c.53-3.72,1.53-7.34,2.96-10.81l-.95,2.24c1.13-2.64,2.44-5.19,4.19-7.48l-1.47,1.9c1.09-1.39,2.3-2.64,3.68-3.73l-1.9,1.47c.99-.74,2.02-1.37,3.15-1.87l-2.24.95c1.02-.42,2.06-.71,3.15-.85l-2.49.34c.88-.09,1.74-.08,2.62.02l-2.49-.34c.97.15,1.89.4,2.79.78l-2.24-.95c.88.4,1.68.88,2.45,1.46l-1.9-1.47c.84.67,1.58,1.42,2.25,2.26l-1.47-1.9c.63.84,1.16,1.73,1.6,2.69l-.95-2.24c.51,1.22.84,2.48,1.05,3.79l-.34-2.49c.3,2.25.21,4.49-.09,6.74l.34-2.49c-.41,2.82-1.04,5.61-2.15,8.25l.95-2.24c-.6,1.34-1.31,2.6-2.19,3.78l1.47-1.9c-.72.91-1.51,1.73-2.42,2.46l1.9-1.47c-1.01.77-2.09,1.39-3.26,1.88l2.24-.95c-.95.37-1.91.64-2.92.8l2.49-.34c-1.01.13-1.99.15-3,.03l2.49.34c-.85-.13-1.65-.35-2.46-.67l2.24.95c-.79-.35-1.5-.77-2.18-1.3l1.9,1.47c-.64-.53-1.2-1.11-1.71-1.76l1.47,1.9c-.62-.84-1.11-1.74-1.52-2.7l.95,2.24c-.52-1.3-.85-2.64-1.06-4.02l.34,2.49c-.3-2.21-.22-4.41.06-6.62l-.34,2.49c.44-3.16,1.26-6.24,2.5-9.18l-.95,2.24c1.03-2.36,2.3-4.58,3.86-6.63l-1.47,1.9c1.45-1.86,3.11-3.53,4.97-4.99l-1.9,1.47c1.69-1.29,3.52-2.34,5.47-3.19l-2.24.95c2.23-.94,4.55-1.59,6.94-1.94l-2.49.34c2.26-.3,4.52-.32,6.79-.03l-2.49-.34c1.86.27,3.65.75,5.38,1.47l-2.24-.95c.46.2.9.41,1.35.64l-4.31-10.59c-2.33,11.4-3.5,23.09-3.19,34.72.16,6.09.78,12.13,1.62,18.16.37,2.68.82,5.35,1.34,8.01.48,2.42.87,4.98,1.71,7.31,1.18,3.27,2.85,6.54,5.51,8.87,1.84,1.61,3.85,2.89,6.24,3.5s5.13.62,7.36-.25,4.42-2.06,5.61-4.31c1-1.89,1.4-3.85,1.11-5.98-.61-4.56-4.51-8.13-9.21-8.13-24.91,0-49.81-.43-74.71-.61-7.41-.06-14.81-.09-22.22-.08-4.91,0-9.61,4.31-9.38,9.38s4.12,9.37,9.38,9.38c18.99.04,37.98-.03,56.96-.89,5.71-.26,11.42-.58,17.13-.93,2.5-.16,4.82-.94,6.63-2.75,1.63-1.63,2.85-4.3,2.75-6.63s-.91-4.94-2.75-6.63-4.04-2.56-6.63-2.75c-19.15-1.36-38.34-.34-57.47.69-2.48.13-4.84.95-6.63,2.75-1.63,1.63-2.85,4.3-2.75,6.63.22,4.89,4.13,9.61,9.38,9.38,18.17-.81,36.47-1.58,54.56.81l-2.49-.34c6.16.83,12.26,2.04,18.25,3.73,6.05,1.71,11.65-3.03,11.87-9.04.58-15.4,1.89-30.76,3.93-46.03l-.34,2.49c2.21-16.43,5.26-32.75,9.13-48.87.79-3.29.01-6.7-2.41-9.13-1.17-1.16-2.55-1.97-4.14-2.41-1.66-.45-3.32-.45-4.99,0-2.26.34-4.52.66-6.79.96l2.49-.34c-23.66,3.17-47.55,4.54-71.41,4.06-6.7-.13-13.4-.41-20.09-.83-1.52-.09-3.44.52-4.73,1.28-1.76,1.03-3.05,2.62-3.84,4.49-1.54,3.64-.57,7.32,1.94,10.25l.24.28-1.47-1.9c.29.39.53.79.73,1.23l-.95-2.24c.17.45.29.89.37,1.36l-.34-2.49c.05.48.05.93,0,1.41l.34-2.49c-.08.48-.2.91-.38,1.36l.95-2.24c-.1.22-.21.43-.33.64-1.67,2.92-1.71,6.55,0,9.47,1.58,2.69,4.87,4.88,8.1,4.65,24.22-1.77,48.44-3.41,72.68-4.91,3.32-.21,6.64-.41,9.96-.61s6.53-.74,9.69-.43l-2.49-.34c.36.06.69.13,1.04.24l-2.24-.95c.34.14.6.29.9.51l-1.9-1.47c.18.15.35.32.48.52l-1.47-1.9c.13.19.24.39.33.6l-.95-2.24c.12.34.2.66.27,1.01l-.34-2.49c.32,2.53.01,5.22-.03,7.77-.05,2.83-.11,5.65-.16,8.48-.11,5.57-.22,11.14-.32,16.71-.22,11.22-.44,22.44-.65,33.66-.12,6.32-.25,12.63-.37,18.95,3.96-3.01,7.92-6.03,11.87-9.04-25.31-5.93-51.72-7.6-77.55-4.59-4.27.5-8.53,1.08-12.77,1.78-3.45.57-6.87,1.42-10.33,1.94l2.49-.34c-.49.05-.95.07-1.44.04l2.49.34c-.35-.06-.64-.13-.97-.27l2.24.95-.28-.17,1.9,1.47c-.19-.13-.36-.29-.49-.48l1.47,1.9-.18-.3.95,2.24c-.14-.35-.21-.65-.27-1.02l.34,2.49c-.19-2.65.07-5.39.13-8.04.06-2.74.13-5.47.19-8.21.13-5.55.26-11.11.39-16.66.25-10.94.51-21.89.76-32.83.15-6.3.29-12.6.44-18.9.11-4.91-4.4-9.6-9.38-9.38S3.63,18.23,3.51,23.49h0Z"/>
  <g>
    <rect class="cls-1" x="6.01" y="12.08" width="113.58" height="109.89"/>
    <path d="M31.42,45.86c1.87-2.13,3.81-4.23,6.04-6.01s4.69-3.05,7.44-3.67c3.01-.68,6.19-.68,9.31-.76,2.58-.06,5.16-.09,7.74-.08.92,0,1.84,0,2.75.01,2.11,0,4.22.02,6.33.03,2.91.01,5.83.02,8.74.04,3.32.01,6.63.03,9.95.04s6.7.03,10.05.04c2.98.01,5.97.02,8.95.04,2.22,0,4.44.02,6.67.03h3.25s.1.01.14.01c.5,0,.93-.43.93-.93s-.42-.92-.93-.93c-.75,0-1.51,0-2.26,0-2,0-4-.02-6-.02-2.85-.01-5.71-.02-8.56-.03-3.31-.01-6.62-.03-9.93-.04s-6.75-.03-10.13-.04c-3.05-.01-6.09-.02-9.14-.04-2.32,0-4.64-.02-6.96-.03h-3.63c-1.21-.02-2.41-.02-3.62,0-3.3.03-6.62.05-9.91.3s-6.2.87-8.99,2.38c-2.52,1.36-4.73,3.27-6.73,5.31-.97.99-1.9,2.02-2.82,3.07-.33.38-.37.94,0,1.31.34.34.98.38,1.31,0h0Z"/>
    <g>
      <g>
        <path d="M44.93,63.12c-.06.26-.13.52-.23.76-.02.05-.04.11-.06.16.06-.15-.01.02-.03.06-.06.13-.13.26-.2.39-.3.53-.46.74-.9,1.18-.19.19-.39.37-.6.53.12-.09-.13.09-.17.12-.12.08-.25.16-.38.24-.54.32-.77.42-1.37.59-.26.07-.52.13-.78.17-.15.02.13-.01-.02,0-.07,0-.15.01-.22.02-.15.01-.3.02-.44.01-.12,0-.24,0-.36-.01-.08,0-.15-.01-.23-.02-.04,0-.24-.03-.07,0-.27-.04-.53-.1-.79-.17-.6-.17-.86-.28-1.4-.59-.24-.14-.46-.29-.68-.45-.02-.01-.16-.13-.09-.06.09.07-.14-.11-.12-.1-.12-.1-.23-.2-.34-.3-.2-.19-.39-.39-.56-.59-.03-.04-.22-.28-.14-.17-.09-.12-.18-.25-.26-.37-.15-.23-.29-.46-.41-.71-.03-.05-.05-.11-.08-.16,0,.02-.11-.25-.06-.14s-.06-.16-.06-.14c-.03-.09-.06-.18-.09-.27-.09-.26-.16-.52-.21-.79-.03-.14-.05-.28-.08-.42,0,.04.02.15,0-.04-.01-.1-.02-.19-.03-.29-.02-.29-.03-.57-.02-.86,0-.13.01-.26.02-.38,0-.08.01-.16.02-.24,0-.05.03-.22.01-.09.09-.6.25-1.19.46-1.76.07-.19.14-.35.28-.61s.29-.53.46-.79c.08-.12.16-.24.25-.35.09-.13-.07.08.03-.04.05-.06.1-.12.15-.19.18-.22.38-.43.59-.63s.41-.38.63-.55c-.11.08.01-.01.03-.02.06-.05.12-.09.19-.13.14-.1.28-.19.42-.28.22-.13.44-.26.67-.37.12-.06.24-.12.36-.17.17-.08.06-.03.02-.01.08-.03.17-.07.25-.1.52-.2,1.05-.35,1.59-.45.13-.03.26-.05.4-.07.06,0,.12-.02.18-.03-.16.02,0,0,.02,0,.3-.03.6-.06.9-.07.55-.02,1.09,0,1.64.05.06,0,.12.01.18.02-.02,0,.28.03.15.02s.17.02.15.02c.06,0,.12.02.18.03.29.05.57.1.86.17.53.12,1.06.27,1.57.47.06.02.33.13.16.06.11.05.23.1.34.16.24.12.47.24.7.37s.44.26.65.41c.1.06.19.13.28.2.06.04.12.08.18.13.03.03.07.05.1.08-.06-.05-.07-.05-.02-.01.85.68,1.63,1.45,2.31,2.3.04.05.08.09.11.14.18.23-.05-.07.05.06.08.11.16.22.24.33.17.23.33.47.49.72.3.47.58.96.84,1.46.12.23.23.46.33.69.03.07.06.14.09.2-.02-.04-.06-.15.01.02.06.14.11.27.16.41.19.5.35,1.01.48,1.53.06.23.11.47.15.7.03.14.05.27.07.41,0,.04.02.18,0,0,0,.08.02.16.03.24.05.53.06,1.06.04,1.59-.1,2.27-.9,4.7-2.36,6.44-.81.97-1.69,1.65-2.71,2.31s-2.18,1.3-3.26,1.97c-.52.33-1.04.67-1.53,1.04-.4.3-.61.8-.33,1.27.23.39.86.63,1.27.33,2.2-1.65,4.79-2.71,6.86-4.56s3.32-4.41,3.75-7.1c.21-1.32.25-2.63.06-3.95-.16-1.11-.48-2.19-.91-3.22-.95-2.29-2.37-4.4-4.21-6.07s-3.91-2.69-6.31-3.09-5.08-.23-7.38.89-4.18,3.33-4.9,5.87-.33,5.32,1.27,7.42,4.06,3.46,6.68,3.31,4.98-1.64,6.19-3.88c.29-.54.51-1.11.65-1.71.11-.49-.15-1-.65-1.14-.47-.13-1.03.16-1.14.65h0Z"/>
        <path d="M43.83,79.59c.59.61,1.29,1.11,2.02,1.54.67.41,1.36.77,2.03,1.17.38.23.75.47,1.1.74l-.19-.14c.07.06.14.11.21.17.07.05.14.11.19.17l-.14-.19c.07.09.12.18.21.27.04.04.08.07.13.11.12.09.17.13.34.18.51.15,1.05-.15,1.2-.67.1-.34,0-.73-.24-.98-.23-.23-.6-.35-.91-.25-.24.08-.45.22-.57.45s-.16.47-.09.71c.06.22.23.45.43.55.22.11.48.17.71.09.23-.07.44-.21.55-.43h0c-.05.05-.1.12-.14.18h0c-.06.04-.13.09-.19.14h0c-.07.03-.15.06-.22.09h0c-.16,0-.33,0-.49,0h0c-.07-.03-.15-.06-.22-.09h0c-.06-.05-.13-.09-.19-.14h0c-.05-.06-.1-.12-.14-.18h0c-.03-.07-.06-.14-.09-.22,0,0,0,.02,0,.02l-.03-.25s0,.02,0,.03l.03-.25s0,.02,0,.03l.09-.22h0c.05-.06.1-.12.14-.18h0c.06-.04.13-.09.19-.14h0c.07-.03.15-.06.22-.09h0c.08,0,.16-.02.25-.03,0,0-.01,0-.02,0l.25.03h-.02c.07.03.15.06.22.09-.01,0-.02,0-.03-.02l.19.14s-.02-.02-.03-.04l.14.19c-.09-.12-.17-.25-.28-.35-.07-.06-.14-.12-.21-.17-.2-.16-.41-.32-.62-.47-.3-.21-.61-.41-.93-.6-.64-.38-1.29-.72-1.93-1.11-.35-.22-.7-.45-1.03-.7l.19.14c-.27-.21-.53-.43-.76-.68-.16-.17-.42-.27-.66-.27s-.5.1-.66.27-.28.41-.27.66.1.47.27.66h0Z"/>
        <path d="M49.34,82.06c-.85.44-1.68.93-2.49,1.46-.86.57-1.69,1.19-2.48,1.85-.42.35-.83.71-1.22,1.08-.17.16-.27.43-.27.66s.1.5.27.66.41.28.66.27.47-.1.66-.27c.62-.59,1.27-1.14,1.95-1.66l-.19.14c.99-.76,2.03-1.46,3.11-2.07.31-.18.62-.35.94-.51.2-.1.37-.34.43-.55s.03-.52-.09-.71-.32-.37-.55-.43c-.25-.06-.48-.03-.71.09h0Z"/>
        <path d="M43.24,87.96c.81.47,1.63.94,2.44,1.41.23.13.46.27.69.4.11.07.22.1.34.11.12.03.25.02.37-.02.12-.03.23-.08.32-.17.1-.07.18-.15.24-.26l.09-.22c.04-.16.04-.33,0-.49l-.09-.22c-.08-.14-.19-.25-.33-.33-.81-.47-1.63-.94-2.44-1.41-.23-.13-.46-.27-.69-.4-.11-.07-.22-.1-.34-.11-.12-.03-.25-.02-.37.02-.12.03-.23.08-.32.17-.1.07-.18.15-.24.26l-.09.22c-.04.16-.04.33,0,.49l.09.22c.08.14.19.25.33.33h0Z"/>
        <path d="M45.87,89c-.2.56-.42,1.12-.65,1.66l.09-.22c-.49,1.16-1.04,2.3-1.66,3.4-.17.31-.35.62-.54.93-.12.21-.16.48-.09.71.06.22.23.45.43.55.22.11.48.17.71.09s.43-.21.55-.43c.93-1.55,1.72-3.17,2.41-4.84.19-.46.37-.92.53-1.38.04-.12.04-.25.02-.37,0-.12-.04-.24-.11-.34-.11-.19-.33-.38-.55-.43-.24-.05-.5-.04-.71.09l-.19.14c-.11.12-.19.25-.24.41h0Z"/>
      </g>
      <g>
        <path d="M79.2,44.98c-4.68,1-8.19,5.31-9.03,9.91-.51,2.81-.17,5.82,1.32,8.3,1.32,2.2,3.4,3.85,5.76,4.83,2.5,1.03,5.34,1.2,7.93.44,2.33-.69,4.5-2.07,6.06-3.94s2.58-4.33,2.74-6.88-.44-5-1.7-7.12c-2.57-4.36-7.86-6.52-12.78-5.61-.56.1-1.11.26-1.65.45-.46.16-.81.64-.65,1.14.15.45.65.82,1.14.65.54-.19,1.09-.34,1.65-.45.12-.02.24-.04.36-.06.05,0,.23-.03.04,0,.05,0,.11-.01.16-.02.3-.03.6-.05.89-.06.54-.02,1.09,0,1.63.07.03,0,.3.04.08,0,.05,0,.11.02.16.02.13.02.27.04.4.07.28.05.56.12.84.19.25.07.5.14.74.22.13.04.26.09.38.14.08.03.15.06.23.09.04.02.26.11.08.03.5.22.98.47,1.44.75.23.14.46.29.68.45.04.03.09.06.13.1.22.16-.14-.11.07.05.12.09.23.19.34.29.42.37.82.77,1.18,1.2.04.04.07.08.1.13.01.02.18.23.06.07.08.11.16.22.24.33.16.23.31.46.45.69s.27.48.39.72c.06.12.12.25.18.37.02.05.04.1.07.15-.08-.18.03.09.05.12.21.53.38,1.07.5,1.62.06.25.11.51.15.77.01.07.02.14.03.2.04.26-.01-.12,0,.04.02.15.03.3.05.45.05.56.05,1.13.02,1.69-.02.26-.04.52-.07.78.03-.22,0,.05-.01.08,0,.05-.02.11-.03.16-.03.16-.06.32-.1.49-.12.54-.28,1.06-.48,1.58,0,0-.1.24-.05.12s-.05.12-.05.12c-.06.12-.11.25-.17.37-.12.24-.25.48-.39.72s-.29.46-.44.68c-.08.11-.16.22-.24.33.11-.14,0,0-.03.04-.06.07-.12.15-.18.22-.35.41-.73.8-1.14,1.16-.1.09-.21.18-.31.26-.04.03-.08.07-.13.1-.02.01-.23.18-.07.06-.22.16-.44.32-.67.47-.48.31-.98.59-1.5.83-.05.02-.1.05-.15.07,0,0-.24.1-.11.05s-.12.05-.12.05c-.06.03-.13.05-.19.07-.27.1-.54.19-.81.27-.52.15-1.05.27-1.59.34.22-.03-.05,0-.08,0-.05,0-.11.01-.16.02-.14.01-.27.02-.41.03-.3.02-.6.02-.9.01-.73-.02-1.19-.08-1.89-.24-.63-.14-1.25-.34-1.85-.58-.26-.1.16.08-.09-.04-.05-.02-.1-.05-.15-.07-.13-.06-.25-.12-.38-.18-.26-.13-.52-.27-.77-.42-.23-.14-.45-.28-.67-.43-.11-.08-.23-.16-.34-.25.16.12-.06-.05-.08-.06-.07-.05-.13-.11-.19-.16-.43-.36-.82-.75-1.19-1.17-.09-.1-.18-.21-.27-.32-.17-.21.06.09-.03-.04-.04-.06-.08-.11-.12-.17-.17-.24-.33-.48-.48-.73-.32-.53-.53-.99-.71-1.5-.22-.62-.37-1.27-.47-1.93.02.14,0-.07-.01-.1,0-.08-.02-.16-.03-.25-.02-.17-.03-.33-.04-.5-.02-.35-.02-.7,0-1.05.01-.32.03-.63.07-.94,0-.03.04-.35.01-.11,0-.05.01-.1.02-.16.02-.16.05-.31.08-.47.1-.52.24-1.03.4-1.53.08-.25.18-.5.28-.74.07-.16.01-.03,0,0,.03-.07.06-.15.1-.22.06-.13.12-.26.19-.4.24-.49.51-.96.81-1.41.07-.11.15-.22.23-.33.03-.04.06-.09.09-.13,0,0,.15-.2.07-.1s.08-.1.07-.09c.03-.04.07-.08.1-.12.1-.12.2-.24.31-.36.35-.39.72-.76,1.12-1.1.1-.08.2-.17.3-.25.2-.16-.15.11.06-.05.04-.03.08-.06.13-.09.23-.17.47-.33.71-.47.21-.13.43-.25.65-.36.1-.05.21-.1.31-.15.07-.03.14-.06.21-.1-.15.07,0,0,.07-.03.49-.19.99-.34,1.5-.45.47-.1.8-.68.65-1.14-.16-.5-.63-.76-1.14-.65h0Z"/>
        <path d="M61.56,104.46s-.05.07-.07.11l.14-.19c-.06.08-.13.14-.2.2l.19-.14c-.08.06-.17.11-.26.15l.22-.09c-.11.05-.22.07-.33.09l.25-.03c-.13.02-.26.02-.39,0l.25.03c-.13-.02-.25-.05-.37-.1l.22.09c-.1-.04-.2-.1-.29-.17l.19.14c-.08-.06-.15-.13-.21-.21l.14.19c-.06-.08-.11-.16-.14-.25l.09.22c-.04-.09-.06-.18-.08-.28l.03.25c-.01-.09-.01-.18,0-.26l-.03.25c.01-.1.04-.2.08-.3l-.09.22c.05-.11.11-.22.19-.31l-.14.19c.08-.11.18-.2.28-.28l-.19.14c.1-.08.21-.14.33-.19l-.22.09c.1-.04.21-.07.31-.09l-.25.03c.09-.01.18-.01.28,0l-.25-.03c.09.01.17.04.26.07l-.22-.09c.09.04.18.09.25.15l-.19-.14c.09.07.16.14.23.23l-.14-.19c.07.1.14.2.18.31l-.09-.22c.05.12.08.24.1.36l-.03-.25c.01.11.02.23,0,.34l.03-.25c-.01.1-.04.2-.08.29l.09-.22s-.04.09-.07.13c-.07.11-.1.22-.11.34-.03.12-.02.25.02.37.03.12.08.23.17.32.07.1.15.18.26.24l.22.09c.16.04.33.04.49,0l.22-.09c.14-.08.25-.19.33-.33.02-.03.03-.06.05-.09.05-.1.09-.2.13-.31.02-.06.04-.13.05-.19.02-.11.03-.22.05-.34,0-.03,0-.07,0-.1,0-.07,0-.13-.01-.2-.02-.15-.03-.29-.07-.43s-.1-.27-.16-.41c-.03-.06-.06-.12-.09-.18-.02-.03-.04-.06-.06-.08-.06-.09-.13-.18-.2-.26-.04-.05-.09-.1-.14-.14-.08-.07-.17-.14-.26-.2-.03-.02-.06-.04-.08-.06-.12-.08-.26-.13-.39-.18-.06-.03-.13-.04-.19-.06-.02,0-.03,0-.05,0-.1-.01-.2-.03-.29-.04-.03,0-.07,0-.1,0s-.07,0-.11,0c-.11.01-.23.03-.34.05-.07.01-.14.03-.2.06-.14.05-.28.11-.41.18-.1.06-.18.12-.27.19s-.18.14-.26.22c-.1.11-.19.23-.28.35-.04.06-.08.12-.12.18-.02.03-.03.07-.05.1-.04.1-.09.21-.13.31-.02.07-.04.13-.05.2-.02.15-.05.3-.04.45,0,.11.03.23.04.34,0,.04.01.07.02.1.04.13.1.26.15.39.02.05.05.11.08.15.02.03.03.05.05.07.06.08.13.17.2.25.04.04.08.08.12.12.15.12.3.25.47.33.1.05.2.09.29.13.03.01.06.02.08.03.06.02.11.03.17.04.03,0,.06.01.08.01.11.02.22.03.33.04.06,0,.12,0,.18,0,.14,0,.28-.03.41-.05.06,0,.11-.02.17-.04.13-.04.26-.1.38-.15.05-.02.1-.05.15-.08.02-.02.05-.03.07-.05.09-.06.17-.13.25-.2.04-.04.09-.08.12-.13.07-.08.13-.17.2-.25.02-.02.03-.05.05-.08.07-.11.1-.22.11-.34.03-.12.02-.25-.02-.37-.03-.12-.08-.23-.17-.32-.07-.1-.15-.18-.26-.24l-.22-.09c-.16-.04-.33-.04-.49,0l-.22.09c-.14.08-.25.19-.33.33Z"/>
        <path d="M65.8,96.57s0,.03,0,.04l.03-.25c-.02.16-.06.32-.12.47l.09-.22c-.05.12-.11.23-.19.33l.14-.19c-.07.09-.15.17-.24.24l.19-.14c-.1.08-.21.14-.32.19l.22-.09c-.14.06-.29.1-.44.12l.25-.03c-.19.03-.38.02-.57,0l.25.03c-.22-.03-.44-.09-.65-.18l.22.09c-.19-.08-.37-.19-.54-.31l.19.14c-.14-.11-.27-.23-.37-.37l.14.19c-.09-.12-.17-.25-.23-.39l.09.22c-.05-.13-.09-.26-.11-.4l.03.25c-.02-.15-.02-.3,0-.44l-.03.25c.02-.14.06-.28.11-.42l-.09.22c.06-.14.13-.27.23-.38l-.14.19c.1-.13.22-.24.34-.34l-.19.14c.14-.11.29-.2.46-.26l-.22.09c.16-.07.33-.11.5-.14l-.25.03c.16-.02.32-.02.47,0l-.25-.03c.15.02.3.06.45.12l-.22-.09c.15.06.29.15.41.24l-.19-.14c.14.11.27.24.38.38l-.14-.19c.12.15.22.32.29.5l-.09-.22c.07.17.12.35.15.53l-.03-.25c.02.16.02.32,0,.49,0,.13.02.25.08.36.04.11.1.21.19.3.08.09.18.15.3.19.11.06.23.08.36.08l.25-.03c.16-.04.29-.12.41-.24l.14-.19c.08-.14.13-.3.13-.47.01-.13.02-.26,0-.39-.02-.21-.05-.42-.1-.62s-.14-.39-.23-.58c-.06-.12-.13-.23-.2-.34-.12-.17-.25-.33-.4-.47-.05-.05-.1-.09-.15-.13-.11-.09-.22-.18-.34-.25-.17-.11-.37-.19-.56-.27-.12-.05-.25-.08-.37-.1-.2-.03-.4-.06-.61-.05s-.41.04-.61.09-.38.13-.56.22c-.11.05-.22.11-.32.19-.16.11-.32.24-.46.38-.04.04-.08.09-.12.14-.08.11-.17.21-.25.33-.11.17-.19.36-.25.54-.04.1-.06.21-.08.31-.03.16-.05.33-.05.5s.02.32.05.48c.03.24.12.45.22.67s.24.4.39.57c.1.12.21.23.34.32.19.15.37.29.59.39.14.07.29.13.44.19.08.03.15.05.23.08.23.06.47.1.71.12s.46-.01.7-.04c.15-.02.29-.06.43-.11s.28-.11.41-.19.25-.17.36-.27c.06-.05.11-.1.16-.16.1-.11.2-.24.28-.37s.14-.28.2-.43c.03-.08.06-.16.08-.25.04-.17.06-.34.08-.51,0-.13-.02-.25-.08-.36-.04-.11-.1-.21-.19-.3-.08-.09-.18-.15-.3-.19-.11-.06-.23-.08-.36-.08l-.25.03c-.16.04-.29.12-.41.24l-.14.19c-.08.14-.13.3-.13.47Z"/>
        <path d="M70.77,86.89c-.02.08-.05.16-.08.23l.09-.22c-.07.16-.15.3-.25.44l.14-.19c-.09.12-.2.23-.32.32l.19-.14c-.13.1-.26.18-.41.24l.22-.09c-.18.07-.36.12-.55.15l.25-.03c-.23.03-.47.03-.7,0l.25.03c-.28-.04-.54-.11-.8-.22l.22.09c-.25-.1-.48-.24-.7-.4l.19.14c-.18-.14-.35-.31-.49-.49l.14.19c-.12-.16-.22-.33-.3-.51l.09.22c-.07-.17-.12-.35-.15-.54l.03.25c-.02-.19-.02-.38,0-.56l-.03.25c.02-.18.07-.36.14-.53l-.09.22c.08-.18.17-.34.29-.5l-.14.19c.13-.16.28-.31.44-.44l-.19.14c.18-.14.38-.25.59-.34l-.22.09c.21-.09.43-.15.65-.18l-.25.03c.21-.03.42-.03.63,0l-.25-.03c.19.03.37.08.55.15l-.22-.09c.18.08.35.18.51.3l-.19-.14c.18.14.33.3.47.47l-.14-.19c.15.19.27.4.36.62l-.09-.22c.1.23.16.48.2.73l-.03-.25c.03.23.03.46,0,.69l.03-.25c-.02.12-.04.25-.08.37-.04.12-.04.25-.02.37,0,.12.04.24.11.34.06.11.14.19.24.26.09.08.19.14.32.17.24.05.5.04.71-.09s.35-.32.43-.55c.07-.22.1-.45.12-.68.02-.15.02-.31,0-.46-.03-.38-.1-.77-.24-1.12-.09-.21-.17-.42-.29-.61s-.26-.37-.4-.54c-.1-.11-.21-.22-.32-.32-.17-.14-.36-.28-.55-.39-.07-.04-.13-.07-.2-.1-.14-.06-.28-.12-.42-.17-.22-.07-.44-.1-.67-.12-.15-.02-.3-.02-.45,0-.22.02-.45.05-.67.11s-.42.15-.63.24c-.14.06-.27.14-.4.22-.18.12-.36.26-.52.42s-.3.33-.42.51c-.09.12-.16.25-.22.39-.09.2-.18.41-.22.63-.04.19-.07.39-.08.59,0,.11,0,.22,0,.34.02.18.04.37.09.55s.12.34.19.51c.11.27.28.49.46.72.13.17.28.31.45.44.23.18.46.35.72.48s.53.24.81.32.57.12.86.13.57-.02.85-.07.53-.15.78-.28c.09-.04.17-.1.25-.15.14-.1.28-.21.41-.33s.24-.27.34-.42c.06-.09.12-.18.16-.28.08-.17.16-.35.21-.53.04-.12.04-.25.02-.37,0-.12-.04-.24-.11-.34-.06-.11-.14-.19-.24-.26-.09-.08-.19-.14-.32-.17-.24-.05-.5-.04-.71.09s-.35.32-.43.55Z"/>
        <path d="M72.71,71.41c-.37.06-.74.22-1.06.42-.19.12-.37.26-.53.42s-.3.33-.43.51c-.47.62-.72,1.4-.75,2.17s.22,1.63.65,2.29,1.07,1.28,1.79,1.7c.36.21.76.38,1.16.52.21.07.42.12.63.16.29.05.58.09.88.08,1-.04,1.91-.51,2.63-1.2.64-.61,1.14-1.41,1.37-2.27.25-.92.17-1.92-.31-2.75-.21-.37-.49-.71-.82-.98s-.67-.51-1.06-.68c-.45-.2-.91-.34-1.39-.42s-1.01-.11-1.52-.1c-.22,0-.43.01-.65.03-.25.02-.48.09-.66.27-.16.16-.28.42-.27.66s.09.49.27.66.41.29.66.27c.62-.04,1.24-.05,1.86.03l-.25-.03c.42.06.82.16,1.21.32l-.22-.09c.29.13.57.28.82.48l-.19-.14c.2.16.39.34.55.55l-.14-.19c.14.18.25.37.34.57l-.09-.22c.09.21.14.42.17.64l-.03-.25c.03.24.03.48,0,.72l.03-.25c-.04.31-.13.61-.25.9l.09-.22c-.14.32-.31.61-.52.89l.14-.19c-.22.28-.47.53-.75.75l.19-.14c-.24.18-.49.34-.76.45l.22-.09c-.22.09-.45.16-.68.19l.25-.03c-.24.03-.49.03-.73,0l.25.03c-.39-.05-.76-.17-1.12-.32l.22.09c-.38-.16-.74-.37-1.07-.62l.19.14c-.29-.23-.55-.48-.78-.77l.14.19c-.19-.25-.35-.51-.47-.8l.09.22c-.1-.25-.18-.51-.22-.78l.03.25c-.03-.25-.03-.51,0-.76l-.03.25c.04-.27.11-.53.22-.78l-.09.22c.1-.24.23-.47.39-.67l-.14.19c.14-.18.3-.34.48-.48l-.19.14c.16-.12.33-.22.52-.3l-.22.09c.15-.06.31-.11.47-.14.22-.04.45-.24.55-.43.12-.2.17-.49.09-.71s-.21-.44-.43-.55l-.22-.09c-.16-.04-.33-.04-.49,0h0Z"/>
      </g>
    </g>
  </g>
</svg>