<?xml version="1.0" encoding="UTF-8"?>
<svg id="Layer_1" data-name="Layer 1" xmlns="http://www.w3.org/2000/svg" viewBox="0 0 125.05 131.38">
  <defs>
    <style>
      .cls-1 {
        fill: none;
        stroke: #000;
        stroke-linecap: round;
        stroke-linejoin: round;
        stroke-width: 3.14px;
      }

      .cls-2 {
        fill: #fff;
      }
    </style>
  </defs>
  <path class="cls-2" d="M10.16,17.91c-4.96,21.75-6.38,44.36-3.81,66.53.69,5.96,1.58,11.91,2.77,17.8s3.9,12.04,9.74,15.05c4.84,2.49,10.21,2.99,15.57,3.01,5.73.02,11.47.02,17.2.04,11.3.02,22.6.05,33.9.07,5.38.01,10.79.21,16.16,0,6.27-.24,12.68-2.14,16.09-7.87s1.97-12.31,1.6-18.32c-.35-5.64-.7-11.27-1.05-16.91-.7-11.27-1.4-22.54-2.09-33.81-.35-5.64-.7-11.27-1.05-16.91-.1-1.56-.19-3.1-.4-4.65-.34-2.56-1.3-4.77-3.05-6.72-3-3.35-7.46-3.46-11.58-3.28-11.25.49-22.5.97-33.74,1.46s-22.5.97-33.74,1.46c-3.49.15-6.79.45-9.95,2.06-3.5,1.79-5.88,5.59-6.49,9.4-.96,5.91-1.25,12-1.53,17.98-.52,11.06-.34,22.15.54,33.19.49,6.11,1.21,12.19,2.07,18.26.43,3.03.9,5.88,2.43,8.61,1.9,3.38,5.19,5.71,8.85,6.83,5.11,1.55,10.78.48,15.96.03,5.62-.49,11.23-.98,16.85-1.48,11.23-.98,22.47-1.95,33.7-2.95,2.42-.22,4.5-.53,6.66-1.68,2.49-1.32,4.28-4.08,4.83-6.79.65-3.22.44-6.71.5-9.98.1-5.71.15-11.42.13-17.14-.03-11.26-.3-22.52-.81-33.76-.13-2.98-.17-5.99-.57-8.95-.66-4.92-3.57-8.88-8.44-10.39-3.39-1.05-6.84-.3-10.23.23-2.88.45-5.75.91-8.63,1.36-11.18,1.76-22.36,3.52-33.53,5.28-5.42.85-10.85,1.71-16.27,2.56l-2.01.85c-.98.53-1.77,1.25-2.37,2.17-1.15,1.49-1.78,3.19-1.81,5.11-.24,13.12.27,26.26,1.56,39.32.36,3.6.55,7.4,1.32,10.93.5,2.3,1.78,4.56,3.49,6.17,2.33,2.19,5.15,2.99,8.24,3.31s6.2.09,9.25.09c3.31,0,6.61,0,9.92,0,7.44,0,14.88,0,22.32,0,2.07,0,4.54-.92,5.96-2.47,1.6-1.74,2.23-3.62,2.47-5.96.98-9.66,1.26-19.38.78-29.07-.26-5.25-.6-10.58-1.47-15.77-1.01-6.03-5.28-10.99-11.25-12.57-4.93-1.3-9.86-.35-14.78.41s-9.5,1.31-14.19,2.23c-3.24.64-6.28,2.31-8.31,4.93-2.19,2.83-2.93,6.04-3.01,9.57-.1,4.01.21,7.97.78,11.94,1.12,7.9,4.99,16.34,12.54,19.98,5.11,2.47,10.56,2.8,16.15,2.7,4.85-.08,9.69-.43,14.52-.9,2.46-.24,4.91-.51,7.36-.79,2.64-.3,5.62-.3,8.12-1.16,4.66-1.6,7.89-5.96,7.56-10.98-.17-2.54-.68-5.17-1.38-7.62-1.43-4.98-3.78-9.42-7-13.45s-7.42-6.72-12.12-8.57c-9.25-3.65-20.33-1.1-26.89,6.41-3.23,3.71-5.36,7.78-7.12,12.35-.67,1.75-1.31,3.56-1.7,5.4-.95,4.39-.11,8.92,3.3,12.07,3.94,3.65,9.96,5.34,15.26,4.93,4.96-.38,9.92-1.88,13.98-4.84,4.68-3.4,8.04-7.64,10.11-13.06s1.5-11.16-1.06-16c-2.32-4.39-6.98-8.12-11.88-9.11-5.9-1.19-12.14.69-16.01,5.44-3.59,4.42-5.62,9.65-6.26,15.3-.68,6,2.36,12.3,7.86,15,5.29,2.6,11.48,2.37,16.61-.53,4.42-2.5,7.66-6.75,10.06-11.13,1.3-2.39,2.55-4.97,3.03-7.67.68-3.91.32-7.38-1.43-10.95-3.28-6.68-11.7-9.06-18.12-5.61-4.47,2.4-7.32,7.14-9.49,11.56s-3.89,8.97-4.92,13.73-1.57,9.57-1.44,14.38c.16,6.05.94,12.48,6.42,16.13,6.17,4.1,14.06.55,17.13-5.62,2.21-4.45,3.04-9.53,4.02-14.36,1.05-5.22,1.86-10.47,2.56-15.75.58-4.44,1.19-8.96,1.28-13.45.11-5.34-1.23-10.82-5.15-14.66-3.33-3.27-8.57-3.14-11.93,0-5.34,5-8.17,12.07-9.56,19.12-.7,3.56-1.2,7.19-1.59,10.79-.29,2.65-.39,5.33-.07,7.98.45,3.82,1.29,7.66,3.61,10.83,2.6,3.55,6.22,6.47,10.67,7.24,8.57,1.49,16.52-2.61,21.44-9.57,2.81-3.98,3.83-8.86,4.35-13.61.42-3.84.13-7.71-.19-11.55-.16-1.92-.61-3.56-1.81-5.11-1.08-1.39-2.61-2.62-4.38-3.02-3.53-.8-7.76.48-9.52,3.88-3.74,7.17-6.5,14.9-7.83,22.88-.71,4.27-1.2,8.58-1.25,12.91s.4,8.78,1.04,13.14c.28,1.94,2.26,4.1,3.88,5.04,1.81,1.06,4.47,1.51,6.5.85s4.01-1.92,5.04-3.88l.85-2.01c.4-1.49.4-2.99,0-4.48-.04-.29-.08-.58-.12-.87l.3,2.24c-.83-6.23-.81-12.53.03-18.76l-.3,2.24c.85-6.08,2.47-12.01,4.84-17.67l-.85,2.01c.74-1.75,1.55-3.46,2.43-5.14-5.24-1.42-10.48-2.84-15.72-4.26.34,4.12.63,8.27.09,12.39l.3-2.24c-.29,1.95-.76,3.83-1.52,5.66l.85-2.01c-.49,1.11-1.06,2.15-1.78,3.12l1.32-1.71c-.77.99-1.63,1.86-2.61,2.64l1.71-1.32c-.98.76-2.03,1.39-3.16,1.89l2.01-.85c-1.01.42-2.04.73-3.12.89l2.24-.3c-.84.11-1.67.12-2.52.04l2.24.3c-.85-.11-1.64-.33-2.43-.65l2.01.85c-.7-.32-1.34-.71-1.95-1.18l1.71,1.32c-.58-.48-1.09-.99-1.56-1.57l1.32,1.71c-.57-.76-1.03-1.57-1.41-2.44l.85,2.01c-.54-1.33-.86-2.71-1.05-4.13l.3,2.24c-.41-3.35-.12-6.72.33-10.05l-.3,2.24c.67-4.94,1.46-9.92,3.4-14.55l-.85,2.01c.8-1.83,1.77-3.55,2.99-5.13l-1.32,1.71c.63-.78,1.3-1.51,2.04-2.2h-11.93c.26.25.49.51.73.79l-1.32-1.71c.43.57.77,1.16,1.06,1.81l-.85-2.01c.36.9.58,1.81.73,2.76l-.3-2.24c.34,2.57.1,5.14-.12,7.71-.27,3.11-.61,6.22-1.02,9.32l.3-2.24c-.59,4.37-1.31,8.72-2.18,13.04-.43,2.12-.89,4.23-1.38,6.34-.44,1.89-.81,3.82-1.55,5.62l.85-2.01c-.32.72-.69,1.4-1.15,2.05l1.32-1.71c-.32.41-.66.78-1.07,1.11l1.71-1.32c-.24.17-.47.31-.73.44l2.01-.85c-.27.11-.51.17-.8.22l2.24-.3c-.19.02-.38.03-.57.01l2.24.3c-.32-.04-.59-.11-.9-.22l2.01.85c-.29-.14-.53-.29-.79-.49l1.71,1.32c-.16-.13-.3-.28-.43-.44l1.32,1.71c-.26-.35-.47-.7-.66-1.1l.85,2.01c-.35-.84-.55-1.71-.69-2.61l.3,2.24c-.53-4.23-.45-8.51.1-12.73l-.3,2.24c.63-4.54,1.84-8.96,3.61-13.2l-.85,2.01c1.25-2.91,2.7-5.85,4.61-8.39l-1.32,1.71c.55-.69,1.13-1.33,1.81-1.9l-1.71,1.32c.48-.37.97-.68,1.52-.93l-2.01.85c.45-.17.87-.29,1.35-.36l-2.24.3c.36-.03.69-.02,1.05,0l-2.24-.3c.33.06.63.13.95.24l-2.01-.85c.41.17.77.38,1.14.63l-1.71-1.32c.44.35.82.74,1.17,1.19l-1.32-1.71c.33.47.6.96.83,1.49l-.85-2.01c.2.54.34,1.08.43,1.65l-.3-2.24c.07.71.05,1.4-.03,2.12l.3-2.24c-.19,1.2-.54,2.32-1,3.44l.85-2.01c-1.05,2.37-2.37,4.66-3.96,6.72l1.32-1.71c-.81,1.01-1.69,1.94-2.69,2.76l1.71-1.32c-.8.62-1.64,1.14-2.57,1.56l2.01-.85c-.82.33-1.65.55-2.52.67l2.24-.3c-.77.08-1.52.08-2.29,0l2.24.3c-.75-.11-1.46-.29-2.17-.57l2.01.85c-.58-.26-1.11-.57-1.61-.95l1.71,1.32c-.41-.34-.76-.71-1.08-1.13l1.32,1.71c-.28-.41-.5-.82-.71-1.27l.85,2.01c-.19-.51-.33-1.02-.43-1.55l.3,2.24c-.13-.97-.11-1.91,0-2.88l-.3,2.24c.27-1.84.82-3.62,1.52-5.35l-.85,2.01c.58-1.36,1.27-2.65,2.16-3.84l-1.32,1.71c.6-.75,1.25-1.42,2.01-2l-1.71,1.32c.58-.42,1.19-.76,1.85-1.04l-2.01.85c.54-.2,1.06-.34,1.63-.44l-2.24.3c.65-.08,1.29-.08,1.95-.01l-2.24-.3c.77.11,1.48.31,2.2.59l-2.01-.85c.83.36,1.58.81,2.3,1.35l-1.71-1.32c.71.58,1.34,1.21,1.9,1.93l-1.32-1.71c.54.74.99,1.51,1.35,2.35l-.85-2.01c.3.78.49,1.55.61,2.38l-.3-2.24c.11,1.02.1,2.03-.01,3.05l.3-2.24c-.19,1.28-.54,2.5-1.03,3.69l.85-2.01c-.58,1.32-1.31,2.55-2.18,3.71l1.32-1.71c-1.04,1.33-2.21,2.51-3.54,3.54l1.71-1.32c-1.32.99-2.72,1.81-4.23,2.47l2.01-.85c-1.51.63-3.07,1.07-4.69,1.32l2.24-.3c-1.48.2-2.94.22-4.42.04l2.24.3c-1.22-.18-2.39-.49-3.54-.95l2.01.85c-.82-.36-1.58-.76-2.3-1.3l1.71,1.32c-.29-.26-.54-.5-.79-.81l1.32,1.71c-.15-.2-.27-.41-.38-.64l.85,2.01c-.11-.25-.19-.51-.23-.78l.3,2.24c-.04-.46-.03-.86.03-1.32l-.3,2.24c.47-2.46,1.37-4.9,2.34-7.21l-.85,2.01c.97-2.23,2.13-4.36,3.6-6.3l-1.32,1.71c1.02-1.3,2.17-2.47,3.48-3.49l-1.71,1.32c1.06-.79,2.18-1.43,3.4-1.96l-2.01.85c1.18-.47,2.39-.79,3.64-.97l-2.24.3c1.51-.19,3.01-.17,4.53.03l-2.24-.3c1.65.25,3.24.7,4.78,1.34l-2.01-.85c1.54.67,2.97,1.5,4.31,2.52l-1.71-1.32c1.45,1.14,2.72,2.45,3.86,3.89l-1.32-1.71c1.37,1.8,2.48,3.74,3.38,5.81l-.85-2.01c1.14,2.71,1.9,5.54,2.33,8.45l-.3-2.24c.08.59.12,1.15.06,1.75l.3-2.24c-.03.22-.09.44-.17.65l.85-2.01c-.09.21-.2.4-.35.57l1.32-1.71-.25.24,1.71-1.32c-.18.14-.37.26-.58.34l2.01-.85c-.45.16-.89.26-1.36.33l2.24-.3c-5.66.7-11.35,1.33-17.04,1.76s-11.13.89-16.57.22l2.24.3c-1.43-.2-2.8-.53-4.13-1.07l2.01.85c-1.01-.45-1.94-.99-2.81-1.66l1.71,1.32c-.88-.71-1.66-1.5-2.35-2.39l1.32,1.71c-.88-1.17-1.57-2.44-2.15-3.78l.85,2.01c-.97-2.36-1.53-4.84-1.89-7.36l.3,2.24c-.49-3.7-.8-7.7-.35-11.42l-.3,2.24c.1-.63.25-1.21.49-1.8l-.85,2.01c.18-.34.36-.63.59-.94l-1.32,1.71c.26-.28.5-.51.81-.74l-1.71,1.32c.31-.21.62-.37.95-.54l-2.01.85c1.36-.56,2.81-.75,4.25-.98,1.78-.28,3.55-.55,5.33-.83,3.41-.53,6.82-1.12,10.24-1.59l-2.24.3c1.89-.24,3.78-.37,5.67-.12l-2.24-.3c.78.13,1.52.31,2.26.6l-2.01-.85c.5.22.97.48,1.42.79l-1.71-1.32c.45.35.83.72,1.2,1.16l-1.32-1.71c.39.53.7,1.08.96,1.69l-.85-2.01c.37,1,.59,2.02.75,3.07l-.3-2.24c1.87,13.92,1.76,28.25.34,42.2,2.81-2.81,5.62-5.62,8.43-8.43-7.03,0-14.06,0-21.08,0-3.47,0-6.95,0-10.42,0s-6.71.25-10-.09l2.24.3c-.48-.07-.92-.17-1.38-.33l2.01.85c-.33-.15-.6-.3-.9-.51l1.71,1.32c-.19-.15-.36-.33-.51-.52l1.32,1.71c-.23-.33-.39-.63-.54-1l.85,2.01c-.21-.62-.33-1.25-.43-1.9l.3,2.24c-1.97-15.58-2.71-31.34-2.42-47.04l-6.19,8.13c10.19-1.61,20.38-3.21,30.57-4.82s20.17-3.39,30.29-4.76l-2.24.3c.84-.1,1.65-.14,2.49-.05l-2.24-.3c.45.08.87.19,1.29.37l-2.01-.85c.2.09.39.21.56.34l-1.71-1.32c.18.14.34.29.49.46l-1.32-1.71c.23.31.39.59.55.95l-.85-2.01c.16.48.26.95.33,1.45l-.3-2.24c.43,4.23.46,8.54.62,12.79s.3,8.6.4,12.91c.2,8.69.26,17.38.17,26.08-.05,4.87.09,9.84-.3,14.69l.3-2.24c-.03.26-.08.51-.16.76l.85-2.01c-.08.24-.21.46-.38.66l1.32-1.71-.26.24,1.71-1.32c-.19.14-.4.25-.62.32l2.01-.85c-.23.08-.47.13-.71.17l2.24-.3c-4.17.55-8.43.76-12.62,1.13-4.3.38-8.59.75-12.89,1.13-8.51.74-17.02,1.49-25.52,2.23-4.17.36-8.57,1.18-12.75.7l2.24.3c-.82-.12-1.59-.3-2.36-.58l2.01.85c-.53-.22-1.01-.48-1.48-.81l1.71,1.32c-.48-.37-.88-.77-1.26-1.25l1.32,1.71c-.31-.45-.56-.9-.78-1.39l.85,2.01c-.97-2.45-1.15-5.22-1.5-7.81l.3,2.24c-2.16-16.23-2.83-32.64-1.96-48.99.24-4.56.56-9.12,1.09-13.65l-.3,2.24c.12-.88.29-1.72.62-2.55l-.85,2.01c.16-.34.33-.64.55-.95l-1.32,1.71c.24-.29.47-.53.76-.77l-1.71,1.32c.39-.28.78-.5,1.23-.69l-2.01.85c.7-.25,1.39-.4,2.13-.5l-2.24.3c4.62-.51,9.36-.46,14-.66,4.88-.21,9.76-.42,14.64-.63,9.84-.43,19.68-.85,29.53-1.28,2.73-.12,5.46-.24,8.19-.35s5.34-.47,7.94-.26l-2.24-.3c.38.06.69.13,1.05.27l-2.01-.85c.22.1.42.22.6.38l-1.71-1.32.24.24-1.32-1.71c.14.17.26.36.36.56l-.85-2.01c.18.43.29.86.37,1.32l-.3-2.24c.31,2.56.35,5.18.51,7.76.17,2.73.34,5.47.51,8.2.34,5.47.68,10.94,1.02,16.41.68,10.94,1.35,21.88,2.03,32.82.18,2.98.37,5.97.55,8.95.17,2.79.59,5.7.24,8.49l.3-2.24c-.11.66-.27,1.27-.51,1.89l.85-2.01c-.21.44-.44.85-.72,1.25l1.32-1.71c-.34.42-.7.79-1.12,1.13l1.71-1.32c-.52.38-1.06.69-1.65.96l2.01-.85c-1.05.43-2.13.68-3.25.85l2.24-.3c-4.46.58-9.11.22-13.6.21-5.24-.01-10.47-.02-15.71-.03-10.3-.02-20.61-.04-30.91-.07-5.15-.01-10.43.33-15.55-.35l2.24.3c-1.53-.22-3.03-.57-4.46-1.16l2.01.85c-.84-.37-1.62-.82-2.36-1.37l1.71,1.32c-.64-.51-1.19-1.07-1.69-1.72l1.32,1.71c-.49-.68-.88-1.39-1.21-2.16l.85,2.01c-1.04-2.6-1.46-5.44-1.97-8.18-.55-2.97-1.02-5.96-1.43-8.96l.3,2.24c-2.27-16.89-2.27-34.04-.01-50.93l-.3,2.24c.77-5.68,1.8-11.32,3.07-16.91.98-4.29-1.31-9.33-5.89-10.37-4.29-.98-9.33,1.29-10.37,5.89h0Z"/>
  <g>
    <path class="cls-1" d="M26,10.74h74.11c10.91,0,19.77,8.86,19.77,19.77v70.42c0,10.88-8.83,19.7-19.7,19.7H26.06c-10.91,0-19.77-8.86-19.77-19.77V30.45c0-10.88,8.83-19.7,19.7-19.7Z"/>
    <path d="M8.15,108.59c3.37.03,6.74.07,10.1.11.95,0,1.89.02,2.84.03.49,0,.95-.43.93-.93s-.41-.92-.93-.93c-3.37-.03-6.74-.07-10.1-.11-.95,0-1.89-.02-2.84-.03-.49,0-.95.43-.93.93s.41.92.93.93h0Z"/>
    <path d="M22.12,107.75c-.04-3.68-.02-7.35.05-11.03.02-1.03.05-2.06.08-3.09.01-.49-.44-.95-.93-.93s-.91.41-.93.93c-.11,3.67-.16,7.35-.15,11.03,0,1.03,0,2.06.02,3.09,0,.48.42.95.93.93s.93-.41.93-.93h0Z"/>
    <path d="M21.5,94.5c3.64,0,7.27,0,10.91-.01,1.02,0,2.04,0,3.06,0,.48,0,.95-.43.93-.93s-.41-.93-.93-.93c-3.64,0-7.27,0-10.91.01-1.02,0-2.04,0-3.06,0-.48,0-.95.43-.93.93s.41.93.93.93h0Z"/>
    <path d="M34.52,79.62c.05,3.58.07,7.16.07,10.75,0,1,0,2.01,0,3.01,0,.48.43.95.93.93s.92-.41.93-.93c.02-3.58,0-7.16-.03-10.75,0-1-.02-2.01-.04-3.01,0-.48-.42-.95-.93-.93s-.93.41-.93.93h0Z"/>
    <path d="M35.52,80.53c3.46-.11,6.92-.15,10.39-.12.97,0,1.94.02,2.91.04.49,0,.95-.43.93-.93s-.41-.92-.93-.93c-3.46-.07-6.92-.06-10.39,0-.97.02-1.94.05-2.91.08-.48.02-.95.42-.93.93s.41.94.93.93h0Z"/>
    <path d="M47.99,52c.07,7.14.07,14.28.02,21.42-.02,2.03-.04,4.07-.06,6.1,0,.5.43.93.93.93s.92-.42.93-.93c.09-7.14.12-14.28.08-21.42,0-2.03-.02-4.07-.04-6.1,0-.5-.42-.93-.93-.93s-.93.42-.93.93h0Z"/>
    <path d="M8.2,24.64c3.41.04,6.82.03,10.23-.02.96-.01,1.91-.03,2.87-.05.48-.01.95-.42.93-.93s-.41-.94-.93-.93c-3.41.07-6.82.1-10.23.09-.96,0-1.91-.01-2.87-.02-.49,0-.95.43-.93.93s.41.92.93.93h0Z"/>
    <path d="M20.41,23.66c.1,3.65.1,7.3,0,10.95-.03,1.02-.07,2.04-.12,3.07-.02.49.44.95.93.93.52-.02.9-.41.93-.93.17-3.65.23-7.3.18-10.94-.01-1.02-.03-2.05-.06-3.07-.01-.48-.42-.95-.93-.93s-.94.41-.93.93h0Z"/>
    <path d="M21.3,38.54c3.71.05,7.41.1,11.12.15,1.05.01,2.1.03,3.15.04.49,0,.95-.43.93-.93s-.41-.92-.93-.93c-3.71-.05-7.41-.1-11.12-.15-1.05-.01-2.1-.03-3.15-.04-.49,0-.95.43-.93.93s.41.92.93.93h0Z"/>
    <path d="M34.55,37.88c.05,3.6.06,7.19.03,10.79,0,1.01-.02,2.02-.04,3.02,0,.49.43.95.93.93s.92-.41.93-.93c.06-3.6.07-7.19.04-10.79,0-1.01-.02-2.02-.03-3.02,0-.48-.42-.95-.93-.93s-.93.41-.93.93h0Z"/>
    <path d="M35.52,52.47c3.44.08,6.87.15,10.31.23.96.02,1.93.04,2.89.06.49.01.95-.43.93-.93s-.41-.92-.93-.93c-3.44-.08-6.87-.15-10.31-.23-.96-.02-1.93-.04-2.89-.06-.49-.01-.95.43-.93.93s.41.92.93.93h0Z"/>
    <path d="M49.07,67.04c7.22-.06,14.45-.12,21.67-.18,2.03-.02,4.07-.03,6.1-.05.5,0,.93-.42.93-.93s-.42-.93-.93-.93c-7.22.06-14.45.12-21.67.18-2.03.02-4.07.03-6.1.05-.5,0-.93.42-.93.93s.42.93.93.93h0Z"/>
    <path d="M76.33,51.95c-.05,7.17-.22,14.35-.18,21.52.01,2.02.04,4.03.1,6.05.01.5.42.93.93.93s.94-.42.93-.93c-.19-7.17-.07-14.35.02-21.52.03-2.02.05-4.03.06-6.05,0-.5-.43-.93-.93-.93s-.92.42-.93.93h0Z"/>
    <path d="M77.35,80.43c3.48.02,6.95.04,10.43.06.97,0,1.95.01,2.92.02.48,0,.95-.43.93-.93s-.41-.92-.93-.93c-3.48-.02-6.95-.04-10.43-.06-.97,0-1.95-.01-2.92-.02-.48,0-.95.43-.93.93s.41.92.93.93h0Z"/>
    <path d="M77.41,52.79c3.38.09,6.77.1,10.15.03.95-.02,1.9-.04,2.84-.08.48-.02.95-.42.93-.93s-.41-.94-.93-.93c-3.38.11-6.76.14-10.15.1-.95-.01-1.9-.03-2.84-.06-.49-.01-.95.44-.93.93s.41.91.93.93h0Z"/>
    <path d="M91.61,51.79c.01-3.65-.09-7.3-.03-10.96.01-1.02.04-2.05.09-3.07.02-.49-.44-.95-.93-.93-.52.02-.9.41-.93.93-.16,3.65-.09,7.3-.06,10.95,0,1.02.01,2.05,0,3.07,0,.48.43.95.93.93s.93-.41.93-.93h0Z"/>
    <path d="M90.75,38.76c3.67-.1,7.35-.14,11.03-.13,1.03,0,2.06,0,3.09.02.49,0,.95-.43.93-.93s-.41-.92-.93-.93c-3.68-.04-7.35-.03-11.03.04-1.03.02-2.06.04-3.09.07-.48.01-.95.42-.93.93s.41.94.93.93h0Z"/>
    <path d="M103.93,23.61c.05,3.66.05,7.32-.01,10.99-.02,1.03-.04,2.05-.06,3.08-.01.49.43.95.93.93s.91-.41.93-.93c.09-3.66.12-7.32.1-10.99,0-1.03-.02-2.05-.03-3.08,0-.48-.42-.95-.93-.93s-.93.41-.93.93h0Z"/>
    <path d="M104.92,24.59c3.29.08,6.58.08,9.87,0,.92-.02,1.84-.06,2.76-.09.48-.02.95-.41.93-.93-.02-.49-.41-.95-.93-.93-3.29.13-6.58.18-9.87.15-.92,0-1.84-.03-2.77-.05-.49-.01-.95.44-.93.93s.41.91.93.93h0Z"/>
    <path d="M91.75,93.58c.06-3.62.08-7.24.07-10.87,0-1.02-.01-2.03-.03-3.05,0-.48-.42-.95-.93-.93s-.93.41-.93.93c.04,3.62.04,7.25,0,10.87-.01,1.02-.03,2.03-.04,3.05,0,.49.43.95.93.93s.92-.41.93-.93h0Z"/>
    <path d="M90.96,94.49c3.61-.08,7.22-.15,10.82-.21,1.01-.02,2.02-.03,3.03-.04.48,0,.95-.42.93-.93s-.41-.93-.93-.93c-3.61.05-7.22.11-10.83.18-1.01.02-2.02.04-3.03.07-.48.01-.95.42-.93.93s.41.94.93.93h0Z"/>
    <path d="M105.91,107.7c.12-3.71.13-7.43.02-11.15-.03-1.04-.07-2.08-.12-3.12-.02-.48-.41-.95-.93-.93-.48.02-.95.41-.93.93.18,3.71.24,7.43.18,11.15-.02,1.04-.04,2.08-.08,3.12-.02.49.44.95.93.93.52-.02.91-.41.93-.93h0Z"/>
    <path d="M105.13,108.61c3.18-.04,6.37-.08,9.55-.11.89-.01,1.78-.02,2.68-.03.48,0,.95-.42.93-.93s-.41-.93-.93-.93c-3.18.04-6.37.08-9.55.11-.89.01-1.78.02-2.68.03-.48,0-.95.42-.93.93s.41.93.93.93h0Z"/>
  </g>
</svg>