<?xml version="1.0" encoding="UTF-8"?>
<svg id="Layer_1" data-name="Layer 1" xmlns="http://www.w3.org/2000/svg" viewBox="0 0 125.05 131.38">
  <defs>
    <style>
      .cls-1 {
        fill: none;
        stroke: #000;
        stroke-linecap: round;
        stroke-linejoin: round;
        stroke-width: 3.14px;
      }

      .cls-2 {
        fill: #2e9db7;
      }
    </style>
  </defs>
  <path class="cls-2" d="M8.16,20.35c-.73,15.33-.8,30.7-.17,46.03.31,7.59.79,15.17,1.44,22.73.35,4.12.44,8.52,1.42,12.54,1.38,5.68,5.62,9.36,10.97,11.15,3.28,1.1,6.83,1.66,10.22,2.33,3.64.72,7.29,1.36,10.96,1.91,7.97,1.2,15.97,2.1,24.02,2.57,6.8.4,13.71.71,20.51.23s13.11-1.62,18.79-4.95c3.3-1.93,5.92-4.5,8.09-7.62,2.54-3.64,3.43-8.02,3.88-12.35.36-3.54.19-7.14.18-10.69,0-3.81-.02-7.62-.03-11.43-.04-15.4,0-30.8-.12-46.2-.02-2.75-.38-5.58-1.81-7.99-1.74-2.94-4.29-4.71-7.41-5.92-3.39-1.31-7.32-1.12-10.9-1.2-7.6-.16-15.2-.21-22.8-.14s-15.2.26-22.8.56-15.12.59-22.64,1.26c-2.75.25-5.21.61-7.58,2.13-2.87,1.84-4.92,4.88-5.46,8.25-.68,4.24-.7,8.62-.87,12.9-.3,7.59-.44,15.19-.43,22.79s.19,15.2.52,22.79c.17,3.8.37,7.59.62,11.38.31,4.82.64,9.73,4.42,13.26,2.54,2.37,5.99,3.49,9.43,3.11,2.53-.28,5.05-.74,7.57-1.08l-2.37.32c16.88-2.23,34.01-2.21,50.89.04l-2.37-.32c4.45.61,8.88,1.36,13.29,2.27,2.87.59,5.45.21,7.78-1.6,2.37-1.83,3.22-4.1,3.52-7.01,2.04-19.87,4.09-39.85,3.23-59.86-.23-5.36-.5-10.85-1.44-16.14-.65-3.68-2.91-7.04-6.12-8.96-3.67-2.19-7.62-1.67-11.61-1.06-10.02,1.53-20.03,3.05-30.05,4.58-11.25,1.71-22.49,3.43-33.74,5.14l-2.13.9c-1.04.56-1.88,1.33-2.51,2.3-1.21,1.56-1.91,3.4-1.92,5.41-.03,8.09.08,16.18.32,24.26s.46,16.13,1.12,24.15c.3,3.59,1.08,6.93,3.73,9.59,1.9,1.91,4.48,3.18,7.13,3.63,4.56.76,9.24.99,13.84,1.43,7.92.75,15.85,1.5,23.77,2.25,1.98.19,3.96.37,5.94.56s4.08.55,6.1.54c3.39-.02,6.56-1.2,8.93-3.67,2.65-2.76,3.2-6.21,3.51-9.85.68-8.12,1.34-16.24,2.01-24.35.33-3.98.66-7.95.99-11.93.39-4.7,1.35-9.67-1.19-13.98-1.71-2.9-4.77-4.94-8.08-5.48-2.69-.44-5.43-.7-8.14-1.03-3.94-.49-7.87-.97-11.81-1.46-8.04-.99-16.07-1.98-24.11-2.97-1.8-.22-3.61-.46-5.41-.67-3.55-.4-7.4.56-9.98,3.14-3.98,3.97-3.96,9.47-4.2,14.72-.36,8.05-.07,16.13.88,24.14.26,2.21.41,4.53,1.12,6.66,1.12,3.35,3.02,6,5.94,8.01,3.88,2.67,8.8,2.74,13.33,2.99,7.85.43,15.72.58,23.59.43,1.96-.04,3.93-.07,5.9-.17,4.25-.21,8.16-1.67,10.46-5.47,1.45-2.4,1.64-5.15,1.92-7.86.18-1.76.27-3.53.16-5.3-.25-4.4-1.21-9.06-3.74-12.76-2.37-3.47-5.5-6.35-9.36-8.08s-7.8-2.59-12.12-3.12c-2.79-.34-5.69-.59-8.5-.45-5.53.28-10.54,2.08-13.81,6.77-3.23,4.63-2.67,11.16.37,15.73,4.75,7.12,13.29,11.68,21.29,14.16,3.83,1.18,7.9,1.81,11.9,2.02,5.35.28,11.64-.63,14.55-5.79,6.08-10.78-5.67-20.64-15.05-23.46-4.29-1.29-8.54-1.24-12.91-.55-2.07.32-4.33,2.38-5.34,4.1-1.12,1.91-1.59,4.73-.9,6.88s2.04,4.25,4.1,5.34c2.26,1.19,4.38,1.29,6.88.9l.37-.06-2.37.32c1.62-.22,3.23-.22,4.86-.02l-2.37-.32c1.62.23,3.18.65,4.7,1.26l-2.13-.9c1.51.64,2.91,1.44,4.21,2.43l-1.81-1.4c1.09.85,2.08,1.8,2.95,2.88l-1.4-1.81c.39.53.71,1.07.97,1.67l-.9-2.13c.09.23.16.47.21.72l-.32-2.37c.05.38.06.69.01,1.07l.32-2.37-.09.35.9-2.13c-.08.22-.18.42-.32.61l1.4-1.81c-.12.17-.27.32-.43.46l1.81-1.4c-.27.2-.52.35-.82.49l2.13-.9c-.54.2-1.07.32-1.63.4l2.37-.32c-2.29.22-4.63.04-6.9-.24l2.37.32c-3.5-.47-6.89-1.39-10.16-2.73l2.13.9c-3.12-1.32-6.04-3-8.74-5.05l1.81,1.4c-1.18-.91-2.25-1.89-3.18-3.06l1.4,1.81c-.55-.74-1.01-1.5-1.38-2.34l.9,2.13c-.17-.46-.3-.92-.39-1.41l.32,2.37c-.06-.48-.06-.93-.01-1.42l-.32,2.37c.07-.37.16-.69.28-1.05l-.9,2.13c.19-.41.39-.78.66-1.14l-1.4,1.81c.27-.32.55-.59.87-.85l-1.81,1.4c.43-.3.86-.54,1.34-.75l-2.13.9c.82-.32,1.66-.51,2.53-.63l-2.37.32c3.35-.4,6.89-.05,10.22.38l-2.37-.32c2.49.34,4.93.88,7.25,1.85l-2.13-.9c1.26.56,2.44,1.23,3.53,2.07l-1.81-1.4c.81.66,1.53,1.38,2.18,2.19l-1.4-1.81c.71.95,1.28,1.95,1.75,3.04l-.9-2.13c.53,1.36.87,2.76,1.07,4.21l-.32-2.37c.34,2.84.16,5.69-.21,8.51l.32-2.37c-.07.5-.16.96-.34,1.43l.9-2.13-.17.32,1.4-1.81c-.13.2-.29.36-.48.5l1.81-1.4c-.18.13-.38.23-.59.3l2.13-.9c-.21.07-.43.13-.66.16l2.37-.32c-2.84.35-5.79.24-8.65.28-3.03.04-6.06.04-9.1,0-5.82-.09-11.77-.11-17.56-.79l2.37.32c-.97-.14-1.91-.34-2.82-.71l2.13.9c-.43-.2-.83-.43-1.22-.71l1.81,1.4c-.38-.32-.7-.65-1.01-1.04l1.4,1.81c-.28-.41-.5-.83-.7-1.28l.9,2.13c-.4-1.06-.61-2.16-.77-3.28l.32,2.37c-1.32-10.22-1.77-20.85-.67-31.12l-.32,2.37c.08-.59.2-1.14.42-1.7l-.9,2.13c.09-.21.2-.4.33-.59l-1.4,1.81c.13-.18.29-.35.47-.49l-1.81,1.4c.2-.16.41-.28.64-.38l-2.13.9c.23-.09.47-.16.72-.2l-2.37.32c1.89-.23,3.89.24,5.76.47,2.05.25,4.1.51,6.15.76,4.18.52,8.36,1.03,12.55,1.55,8.32,1.03,16.64,2.01,24.96,3.08l-2.37-.32c.48.07.93.17,1.39.32l-2.13-.9c.22.08.43.19.62.31l-1.81-1.4c.2.13.37.29.52.47l-1.4-1.81c.15.18.27.37.37.58l-.9-2.13c.14.34.22.65.29,1.01l-.32-2.37c.21,1.71-.09,3.47-.23,5.18-.16,1.91-.31,3.81-.47,5.72-.32,3.89-.64,7.79-.97,11.68-.64,7.69-1.08,15.42-1.92,23.08l.32-2.37c-.08.6-.21,1.17-.43,1.73l.9-2.13c-.09.21-.21.41-.35.59l1.4-1.81c-.14.18-.3.35-.49.49l1.81-1.4c-.2.15-.42.26-.65.35l2.13-.9c-.23.08-.47.14-.72.17l2.37-.32c-1.85.17-3.78-.2-5.62-.38-2.06-.2-4.13-.39-6.19-.59-4.04-.38-8.09-.77-12.13-1.15-8.02-.76-16.12-1.25-24.1-2.3l2.37.32c-.72-.11-1.39-.27-2.06-.55l2.13.9c-.32-.16-.59-.33-.87-.54l1.81,1.4c-.18-.15-.34-.31-.48-.5l1.4,1.81c-.16-.21-.29-.43-.4-.67l.9,2.13c-.2-.5-.32-1-.4-1.53l.32,2.37c-.46-3.99-.51-8.07-.7-12.08s-.36-8.25-.48-12.37c-.25-8.25-.36-16.51-.33-24.76l-6.56,8.61c16.83-2.57,33.66-5.13,50.49-7.7,4.81-.73,9.61-1.49,14.43-2.2l-2.37.32c.79-.1,1.55-.16,2.35-.08l-2.37-.32c.39.07.72.17,1.09.32l-2.13-.9c.22.1.42.23.61.39l-1.81-1.4c.17.14.33.3.47.47l-1.4-1.81c.27.37.48.74.66,1.16l-.9-2.13c.28.78.43,1.57.55,2.39l-.32-2.37c2.23,18.84,1.12,37.93-.61,56.76-.5,5.39-1.05,10.78-1.6,16.17,3.77-2.87,7.54-5.74,11.3-8.61-18.62-3.84-37.78-5.22-56.74-3.68-5.82.47-11.61,1.24-17.39,2.13l2.37-.32c-.59.08-1.15.11-1.75.07l2.37.32c-.29-.04-.56-.11-.83-.23l2.13.9c-.19-.09-.37-.2-.54-.33l1.81,1.4c-.16-.13-.31-.27-.44-.43l1.4,1.81c-.26-.34-.46-.69-.63-1.09l.9,2.13c-.23-.64-.37-1.28-.47-1.96l.32,2.37c-.51-4.42-.6-8.93-.81-13.37-.22-4.7-.38-9.41-.47-14.12-.19-9.33-.15-18.67.14-28,.16-5.14.18-10.37.72-15.48l-.32,2.37c.09-.63.22-1.2.47-1.79l-.9,2.13c.1-.22.23-.42.38-.61l-1.4,1.81c.15-.19.32-.36.51-.51l-1.81,1.4c.31-.21.58-.36.93-.51l-2.13.9c.47-.16.93-.26,1.41-.33l-2.37.32c4.78-.56,9.65-.67,14.46-.92s9.9-.47,14.86-.63c9.91-.32,19.83-.44,29.74-.36,2.81.02,5.62.06,8.43.12,2.48.05,4.99-.01,7.46.26l-2.37-.32c.88.12,1.73.31,2.56.65l-2.13-.9c.38.18.73.38,1.07.63l-1.81-1.4c.24.21.45.41.65.65l-1.4-1.81c.21.29.36.56.52.89l-.9-2.13c.14.38.23.74.31,1.14l-.32-2.37c.27,2.12.12,4.33.12,6.46,0,2.4.01,4.8.02,7.2.01,4.72.02,9.44.04,14.16.02,9.36.05,18.71.07,28.07.01,5.06.37,10.26-.27,15.29l.32-2.37c-.23,1.59-.61,3.12-1.23,4.61l.9-2.13c-.47,1.03-1.03,1.98-1.7,2.88l1.4-1.81c-.79,1-1.67,1.87-2.67,2.66l1.81-1.4c-1.29.98-2.68,1.76-4.16,2.4l2.13-.9c-2.72,1.15-5.6,1.81-8.52,2.22l2.37-.32c-6.39.85-12.95.59-19.37.34-7.49-.29-14.97-.94-22.4-1.93l2.37.32c-4.47-.6-8.93-1.32-13.37-2.17-2.22-.43-4.43-.88-6.63-1.37-1.92-.42-3.88-.79-5.72-1.49l2.13.9c-.69-.29-1.32-.63-1.92-1.08l1.81,1.4c-.39-.33-.72-.67-1.03-1.08l1.4,1.81c-.22-.33-.4-.65-.58-1.01l.9,2.13c-.41-.99-.63-2.01-.78-3.07l.32,2.37c-1.21-9.88-1.75-19.9-2.19-29.83-.44-10.06-.59-20.13-.44-30.2.08-5.78.27-11.55.54-17.32.22-4.67-4.27-9.14-8.93-8.93-5.03.23-8.69,3.92-8.93,8.93h0Z"/>
  <g>
    <path class="cls-1" d="M5.74,10.74h93.81c10.91,0,19.77,8.86,19.77,19.77v70.36c0,10.91-8.86,19.77-19.77,19.77H25.5c-10.91,0-19.77-8.86-19.77-19.77V10.74h0Z"/>
    <path d="M46.95,91.34c-1.1-3.97-5-7.1-9.17-6.97-3.84.12-7.42,2.74-8.72,6.34s-.18,7.66,2.52,10.13c2.9,2.65,7.44,3.12,10.87,1.24,3.24-1.77,5.17-5.66,4.76-9.31-.06-.48-.13-.96-.26-1.43s-.67-.8-1.14-.65-.78.64-.65,1.14c.05.19.1.39.14.59.02.1.04.21.05.31.01.07,0,.15,0-.08,0,.08.02.15.03.23.04.4.05.8.03,1.2,0,.19-.02.38-.04.57,0,.07-.05.25,0-.02,0,.04-.01.08-.02.11-.02.11-.04.23-.06.34-.08.4-.18.79-.31,1.17-.06.19-.14.38-.21.57-.05.12.1-.22.01-.04-.02.05-.05.11-.07.16-.04.1-.09.19-.14.29-.19.37-.4.72-.63,1.06-.05.08-.11.16-.17.23-.01.02-.12.17-.03.04s-.02.02-.03.04c-.13.16-.27.32-.41.48-.13.14-.27.27-.41.4-.07.06-.14.13-.21.19s-.22.14-.27.22l.1-.07s-.06.05-.09.07c-.03.02-.06.05-.09.07-.09.06-.17.12-.26.18-.18.12-.37.23-.57.34s-.37.19-.56.28c-.15.07.05-.03.06-.02-.02,0-.14.06-.17.07-.11.04-.22.08-.34.12-.4.14-.8.24-1.21.32-.1.02-.2.03-.29.05-.21.03.22-.02,0,0-.04,0-.08,0-.12.01-.22.02-.44.04-.66.05-.43.01-.86,0-1.29-.05-.04,0-.11-.02-.15-.02l.13.02s-.08-.01-.12-.02c-.1-.02-.2-.03-.29-.05-.22-.04-.43-.09-.64-.15-.19-.05-.38-.11-.57-.17-.09-.03-.19-.07-.28-.1-.06-.02-.11-.04-.17-.07-.17-.07.18.08,0,0-.38-.18-.75-.37-1.1-.59-.08-.05-.17-.11-.25-.17-.05-.03-.1-.07-.15-.1-.02-.01-.18-.13-.05-.04s-.03-.02-.04-.04c-.04-.03-.07-.06-.11-.09-.09-.07-.17-.15-.26-.23-.3-.28-.58-.58-.84-.9-.1-.12.03.04.04.05-.02-.04-.07-.1-.1-.14-.06-.08-.11-.16-.16-.23-.12-.17-.23-.35-.33-.53-.1-.17-.19-.33-.27-.51-.04-.09-.08-.17-.12-.26-.02-.05-.04-.11-.07-.16.12.19.04.09,0,0-.15-.38-.28-.78-.38-1.18-.05-.2-.09-.39-.13-.59-.02-.09-.03-.19-.05-.28-.02-.16.01.06,0,.08,0-.07-.02-.16-.03-.23-.04-.4-.05-.8-.04-1.21,0-.19.02-.38.04-.57,0-.05.02-.12.02-.17,0,.02-.03.24,0,.08.02-.11.04-.23.06-.34.08-.4.18-.8.32-1.19.03-.09.07-.18.1-.27.05-.11.09-.07-.01.03.03-.03.05-.12.07-.16.09-.2.19-.39.29-.58.09-.17.19-.34.3-.5.05-.08.11-.16.16-.24.06-.09.16-.18.21-.28-.08.18-.08.1-.02.03.03-.04.06-.07.09-.11.06-.07.12-.15.19-.22.14-.16.29-.31.44-.46.14-.13.28-.26.43-.39.08-.07.16-.13.25-.2.1-.08-.19.14-.03.02.05-.03.09-.07.14-.1.35-.25.71-.47,1.08-.67.17-.09.35-.18.52-.25.04-.02.07-.03.11-.05.19-.09-.2.08,0,0,.11-.04.22-.09.33-.13.39-.14.78-.25,1.18-.34.1-.02.2-.04.3-.06.06-.01.12-.02.19-.03.18-.03-.06,0-.06,0,.02-.04.29-.03.34-.04.11,0,.23-.02.34-.02.23,0,.45,0,.68.01.1,0,.2.01.31.03.04,0,.08,0,.12.01.1.01.08,0-.06,0,.04,0,.08.01.12.02.42.07.84.17,1.25.31.1.03.19.07.29.1.05.02.1.04.14.06.1.04.14,0-.02-.01.08,0,.2.09.28.13.11.05.22.11.33.17.38.2.75.43,1.1.69.05.04.1.07.15.11-.17-.15-.06-.05-.02-.01.08.07.16.13.24.2.18.16.36.32.53.49.15.15.29.3.43.46.07.08.14.16.2.24,0,.01.14.17.05.06s.08.1.09.13c.28.39.53.81.75,1.24.05.1.1.21.15.31.1.22-.07-.19.01.03.02.04.03.09.05.13.09.24.17.48.24.72.13.47.66.8,1.14.65s.79-.64.65-1.14Z"/>
    <path d="M41.11,90.16c-.19-.15-.37-.29-.58-.41s-.42-.21-.64-.3c-.32-.13-.65-.22-.98-.27-.42-.06-.84-.11-1.26-.08s-.84.09-1.25.21-.78.28-1.13.5-.67.47-.92.78c-.36.43-.61.89-.8,1.42-.17.49-.25,1.03-.26,1.55s.06,1.07.21,1.57c.08.29.19.57.31.84.1.22.22.44.36.64.17.23.35.46.57.65s.46.37.72.52c.44.25.93.44,1.43.56.56.14,1.16.23,1.74.19.29-.02.59-.06.88-.14.25-.07.5-.17.73-.29.42-.2.8-.48,1.13-.8s.63-.7.85-1.11c.47-.83.7-1.82.58-2.77-.03-.28-.07-.56-.15-.84s-.18-.53-.29-.79c-.2-.45-.48-.86-.81-1.22-.14-.15-.29-.3-.45-.42-.08-.09-.18-.15-.3-.19-.11-.06-.23-.08-.36-.08-.23,0-.5.1-.66.27s-.28.41-.27.66c.01.23.08.51.27.66.23.19.44.4.63.64l-.14-.19c.2.27.37.56.51.87l-.09-.22c.14.34.24.69.29,1.06l-.03-.25c.04.34.04.67,0,1.01l.03-.25c-.04.33-.14.66-.27.97l.09-.22c-.13.31-.3.6-.51.87l.14-.19c-.2.26-.43.49-.69.69l.19-.14c-.24.18-.49.33-.76.45l.22-.09c-.26.11-.53.19-.82.22l.25-.03c-.35.04-.7.04-1.05,0l.25.03c-.49-.07-.98-.19-1.43-.38l.22.09c-.3-.13-.58-.29-.84-.49l.19.14c-.19-.15-.36-.31-.5-.5l.14.19c-.18-.23-.32-.48-.43-.75l.09.22c-.16-.38-.27-.78-.33-1.19l.03.25c-.05-.4-.06-.81,0-1.21l-.03.25c.05-.34.13-.67.26-.99l-.09.22c.11-.26.25-.51.42-.73l-.14.19c.16-.21.34-.39.55-.55l-.19.14c.24-.18.5-.33.78-.45l-.22.09c.35-.14.71-.24,1.09-.29l-.25.03c.41-.05.82-.05,1.23,0l-.25-.03c.38.05.74.15,1.09.29l-.22-.09c.27.11.52.26.76.44l-.19-.14s.02.02.03.03c.08.09.18.15.3.19.11.06.23.08.36.08.23,0,.5-.1.66-.27s.28-.41.27-.66c-.01-.23-.08-.51-.27-.66Z"/>
    <path d="M67.3,30.39c-2.25-.71-4.53-1.34-6.88-1.65s-4.82-.19-7.2-.12c-1.23.04-2.46.1-3.7.17s-2.44.17-3.64.41c-2.32.46-4.53,1.36-6.66,2.36-3.85,1.79-7.62,4.14-9.71,7.97-1.01,1.85-1.63,3.97-1.58,6.09.04,2.15.8,4.17,2.1,5.87s3.02,3.09,4.81,4.29,3.87,2.3,5.95,3.17c4.11,1.72,8.55,2.63,13,2.74s9.34-.67,13.73-2.2c2.21-.77,4.36-1.72,6.42-2.85,1.93-1.07,3.81-2.33,5.32-3.96s2.68-3.64,3.04-5.84-.09-4.43-1.16-6.4-2.71-3.6-4.51-4.97c-.94-.71-1.92-1.37-2.89-2.03s-1.99-1.3-3.07-1.79-2.21-.91-3.34-1.27c-.48-.15-1.01.18-1.14.65-.14.5.17.99.65,1.14,1.05.33,2.08.69,3.06,1.16,1.04.49,2.01,1.11,2.97,1.75,1.81,1.22,3.63,2.42,5.11,4.05,1.26,1.39,2.21,3.08,2.54,4.98.03.19.05.28.07.54s.03.54.02.81c0,.24-.02.48-.05.72,0,.01-.03.18,0,.06,0,.05-.02.1-.02.15-.02.14-.05.27-.08.41-.22,1.02-.56,1.82-1.08,2.7-1.01,1.71-2.54,3.11-4.18,4.22-1.79,1.21-3.74,2.2-5.72,3.05-3.94,1.69-8.33,2.75-12.6,3s-8.45-.24-12.56-1.52c-2.03-.64-3.86-1.4-5.73-2.41s-3.57-2.11-5.04-3.39c-.38-.33-.75-.67-1.1-1.04-.16-.17-.32-.34-.47-.52-.08-.09-.15-.18-.23-.27-.03-.04-.06-.08-.09-.12-.2-.25.04.06-.07-.09-.3-.4-.57-.81-.81-1.25-.25-.46-.38-.74-.53-1.18s-.27-.94-.35-1.42c0,0-.02-.16-.01-.07.01.1-.01-.1-.01-.12-.01-.11-.02-.23-.03-.34-.02-.24-.02-.49-.02-.73,0-.98.13-1.72.43-2.7.54-1.79,1.56-3.46,2.85-4.82,1.39-1.45,2.94-2.5,4.73-3.47s3.77-1.89,5.76-2.57c1.05-.36,2.12-.66,3.22-.85s2.18-.24,3.3-.3c2.38-.14,4.77-.2,7.15-.2.57,0,1.14,0,1.71.03.26.01.51.04.77.06.13.01.26.03.39.04s.25.03.31.04c1.11.16,2.21.4,3.3.68s2.08.58,3.11.9c.48.15,1.01-.18,1.14-.65.14-.5-.17-.99-.65-1.14Z"/>
    <path d="M39.28,34.19c.99,1.63,2.85,2.53,4.73,2.57s3.74-.89,5.01-2.29c.76-.83,1.33-1.79,1.75-2.83.08-.21.01-.53-.09-.71s-.33-.38-.55-.43c-.24-.05-.5-.04-.71.09l-.19.14c-.11.12-.19.25-.24.41-.02.05-.04.09-.06.14l.09-.22c-.27.64-.62,1.25-1.05,1.81l.14-.19c-.37.48-.8.92-1.28,1.29l.19-.14c-.41.32-.86.58-1.34.79l.22-.09c-.43.18-.88.31-1.34.37l.25-.03c-.46.06-.93.06-1.39,0l.25.03c-.45-.06-.88-.18-1.3-.35l.22.09c-.37-.16-.72-.36-1.04-.6l.19.14c-.27-.21-.52-.45-.73-.72l.14.19c-.1-.12-.18-.25-.27-.39-.12-.2-.33-.36-.55-.43s-.52-.03-.71.09c-.42.27-.6.82-.33,1.27h0Z"/>
    <path d="M48.98,32.1c.71,2.13,2.48,3.8,4.63,4.43,1.06.32,2.19.34,3.28.12,1-.2,1.93-.68,2.71-1.34.89-.76,1.5-1.8,1.86-2.91.15-.46-.17-1.03-.65-1.14-.51-.12-.98.15-1.14.65-.05.17-.12.34-.18.5l.09-.22c-.19.44-.43.86-.72,1.25l.14-.19c-.26.34-.56.64-.9.9l.19-.14c-.34.26-.71.47-1.1.64l.22-.09c-.45.19-.93.31-1.41.38l.25-.03c-.51.07-1.02.07-1.52,0l.25.03c-.51-.07-1.01-.21-1.48-.41l.22.09c-.49-.21-.94-.47-1.36-.8l.19.14c-.42-.32-.79-.7-1.12-1.11l.14.19c-.3-.39-.55-.81-.74-1.26l.09.22c-.05-.13-.1-.26-.15-.4-.08-.23-.21-.43-.43-.55-.2-.12-.49-.17-.71-.09-.46.15-.81.65-.65,1.14h0Z"/>
    <path d="M60.38,31.92c.05.43.13.84.29,1.25s.34.76.59,1.11c.5.69,1.13,1.28,1.87,1.71,1.63.93,3.6,1,5.39.53,1.02-.27,2.01-.72,2.89-1.3.2-.13.36-.32.43-.55.06-.22.03-.52-.09-.71-.26-.4-.84-.62-1.27-.33-.48.31-.98.58-1.5.8l.22-.09c-.69.29-1.41.5-2.15.6l.25-.03c-.58.08-1.17.08-1.75,0l.25.03c-.47-.06-.92-.18-1.36-.36l.22.09c-.41-.17-.8-.4-1.15-.67l.19.14c-.32-.25-.61-.54-.86-.86l.14.19c-.23-.3-.43-.63-.57-.98l.09.22c-.13-.31-.22-.63-.26-.96l.03.25s0-.05,0-.07c-.03-.25-.08-.47-.27-.66-.16-.16-.42-.28-.66-.27s-.49.09-.66.27c-.16.17-.3.42-.27.66h0Z"/>
    <path d="M65.38,36.29c.06,2.15,1.54,3.98,3.38,4.98.93.5,1.96.81,3.02.83s2.03-.24,2.94-.7c1.04-.53,1.9-1.37,2.53-2.33.27-.41.09-1.04-.33-1.27-.46-.25-.98-.1-1.27.33-.09.13-.18.26-.27.38l.14-.19c-.31.41-.67.77-1.08,1.08l.19-.14c-.37.28-.78.52-1.21.7l.22-.09c-.43.18-.87.3-1.33.36l.25-.03c-.45.06-.91.06-1.36,0l.25.03c-.48-.07-.95-.2-1.4-.39l.22.09c-.52-.22-1.01-.51-1.46-.85l.19.14c-.41-.31-.77-.67-1.09-1.08l.14.19c-.25-.33-.47-.69-.63-1.07l.09.22c-.13-.33-.23-.66-.28-1.01l.03.25c-.02-.15-.03-.29-.04-.44-.01-.48-.42-.95-.93-.93s-.94.41-.93.93h0Z"/>
    <path d="M54.77,36.21c-.1.66-.08,1.31.13,1.95s.53,1.2.97,1.7c.77.9,1.89,1.49,3.01,1.81,2.32.66,4.96.2,6.73-1.5.87-.84,1.52-1.97,1.7-3.17.04-.26.04-.48-.09-.71-.11-.19-.33-.38-.55-.43-.24-.05-.5-.04-.71.09-.19.12-.39.32-.43.55-.06.37-.16.73-.3,1.08l.09-.22c-.17.4-.39.77-.65,1.11l.14-.19c-.27.35-.59.67-.94.94l.19-.14c-.37.28-.77.51-1.19.69l.22-.09c-.48.2-.98.33-1.5.4l.25-.03c-.58.07-1.16.07-1.74,0l.25.03c-.6-.08-1.18-.24-1.73-.47l.22.09c-.43-.18-.84-.41-1.21-.7l.19.14c-.29-.23-.55-.48-.77-.77l.14.19c-.19-.26-.36-.54-.48-.83l.09.22c-.12-.28-.2-.58-.24-.88l.03.25c-.04-.27-.04-.55,0-.82l-.03.25v-.04c.04-.26.05-.48-.09-.71-.11-.19-.33-.38-.55-.43-.24-.05-.5-.04-.71.09-.19.12-.39.32-.43.55h0Z"/>
    <path d="M43.58,35.83c-.11.68-.09,1.36.1,2.02s.53,1.24.96,1.78c.77.95,1.85,1.58,2.97,2.03,1.22.48,2.54.62,3.82.32,1.16-.27,2.27-.91,3.08-1.78.9-.96,1.53-2.19,1.76-3.49.04-.25.04-.49-.09-.71-.11-.19-.33-.38-.55-.43-.24-.05-.5-.04-.71.09-.19.12-.39.32-.43.55-.08.46-.21.91-.39,1.34l.09-.22c-.2.47-.45.91-.76,1.32l.14-.19c-.29.37-.62.7-.98.99l.19-.14c-.37.28-.77.52-1.2.7l.22-.09c-.43.18-.88.3-1.34.37l.25-.03c-.45.06-.89.06-1.34,0l.25.03c-.58-.08-1.14-.26-1.68-.48l.22.09c-.54-.23-1.05-.51-1.52-.87l.19.14c-.33-.26-.63-.55-.89-.88l.14.19c-.22-.29-.41-.6-.55-.93l.09.22c-.13-.31-.22-.62-.26-.95l.03.25c-.04-.28-.04-.56,0-.85l-.03.25s.01-.09.02-.13c.04-.25.04-.49-.09-.71-.11-.19-.33-.38-.55-.43-.24-.05-.5-.04-.71.09-.19.12-.39.32-.43.55h0Z"/>
    <path d="M32.48,38.08c.1.6.5,1.13.92,1.55.38.38.78.74,1.2,1.07.27.21.53.41.82.58.27.16.56.29.85.41.46.19.93.32,1.42.39,1.11.16,2.26.08,3.31-.35.97-.39,1.84-.99,2.51-1.79.73-.88,1.28-1.94,1.45-3.08.04-.25.04-.48-.09-.71-.11-.19-.33-.38-.55-.43-.24-.05-.5-.04-.71.09-.19.12-.39.32-.43.55-.07.43-.19.85-.35,1.25l.09-.22c-.19.45-.44.87-.74,1.26l.14-.19c-.29.38-.63.71-1.01,1.01l.19-.14c-.35.27-.73.49-1.14.67l.22-.09c-.44.19-.9.31-1.38.38l.25-.03c-.5.07-1.01.07-1.52,0l.25.03c-.49-.07-.97-.2-1.42-.39l.22.09c-.45-.19-.87-.45-1.26-.75l.19.14c-.29-.22-.56-.46-.82-.71-.24-.23-.48-.45-.69-.71l.14.19c-.1-.13-.19-.27-.26-.43l.09.22c-.05-.12-.08-.23-.1-.36-.03-.21-.25-.45-.43-.55-.2-.12-.49-.17-.71-.09s-.44.21-.55.43c-.12.23-.13.45-.09.71h0Z"/>
    <path d="M45.62,40.36c-.24,2.04.27,4.17,1.3,5.94,1.09,1.88,2.75,3.32,4.76,4.13s4.3.88,6.36.3,3.86-1.9,5.13-3.66,2.02-4.21,1.82-6.48c-.04-.48-.4-.95-.93-.93-.47.02-.97.41-.93.93.04.46.05.93.01,1.4,0,.11-.02.22-.03.32,0,.07.01.2,0-.02,0,.05-.02.11-.02.16-.04.24-.08.47-.14.7s-.12.44-.19.66-.13.47-.25.67c.01-.02.09-.19.02-.04-.03.06-.05.12-.08.18-.05.1-.09.2-.14.29-.11.21-.22.42-.35.63-.11.19-.23.37-.36.54-.06.09-.12.18-.19.26.14-.17.04-.05,0,0-.05.06-.1.12-.15.18-.29.35-.62.67-.96.97-.08.07-.17.14-.25.21-.17.14.12-.09,0,0-.04.03-.09.06-.13.1-.19.14-.4.27-.6.4s-.4.23-.6.33c-.1.05-.21.1-.31.14-.21.1.19-.07-.03.01-.06.02-.13.05-.19.07-.45.17-.91.3-1.39.39-.11.02-.23.04-.34.06h-.07c-.1.03-.09.02.04,0-.04,0-.1.01-.14.02-.25.03-.5.04-.75.05s-.48,0-.72,0c-.11,0-.23-.01-.34-.02-.06,0-.11-.01-.17-.02-.03,0-.3-.04-.15-.02s-.07-.01-.08-.01c-.06,0-.11-.02-.17-.03-.12-.02-.25-.05-.37-.07-.23-.05-.47-.11-.7-.18s-.45-.15-.68-.24c-.04-.02-.17-.06.03.01-.06-.02-.13-.06-.19-.08-.12-.06-.25-.12-.37-.18-.4-.21-.85-.45-1.19-.75.19.17-.07-.06-.12-.1-.08-.07-.16-.14-.24-.21-.18-.16-.35-.33-.51-.5-.15-.16-.29-.32-.43-.49,0-.01-.14-.18-.05-.06s-.04-.05-.05-.06c-.08-.1-.15-.21-.22-.32-.29-.43-.54-.89-.76-1.36-.02-.04-.03-.09-.05-.12.13.2,0,.02-.02-.05-.04-.11-.09-.22-.13-.34-.09-.25-.16-.49-.23-.75s-.12-.51-.16-.76c0-.05-.04-.14-.03-.19l.02.12s-.01-.09-.02-.13c-.01-.13-.03-.26-.04-.39-.04-.52-.02-1.04.04-1.56.06-.48-.47-.95-.93-.93-.55.02-.87.41-.93.93h0Z"/>
    <path d="M48.76,41.35c.08,1.26.48,2.5,1.2,3.54.36.52.77,1,1.26,1.4.56.45,1.14.8,1.81,1.06,2.39.95,5.36.3,6.98-1.74.48-.6.85-1.25,1.09-1.98.22-.65.32-1.36.27-2.05-.02-.25-.09-.48-.27-.66-.16-.16-.42-.28-.66-.27-.48.02-.96.41-.93.93.02.31,0,.62-.03.92l.03-.25c-.06.43-.18.84-.34,1.24l.09-.22c-.17.41-.4.79-.67,1.15l.14-.19c-.27.35-.59.67-.94.94l.19-.14c-.33.25-.69.46-1.07.62l.22-.09c-.42.17-.86.29-1.31.36l.25-.03c-.5.07-1,.06-1.49,0l.25.03c-.5-.07-.98-.2-1.44-.39l.22.09c-.43-.18-.82-.42-1.19-.7l.19.14c-.39-.3-.73-.65-1.03-1.04l.14.19c-.31-.41-.58-.86-.78-1.34l.09.22c-.21-.5-.36-1.03-.43-1.58l.03.25c-.02-.14-.03-.27-.04-.41-.02-.25-.09-.48-.27-.66-.16-.16-.42-.28-.66-.27-.48.02-.96.41-.93.93h0Z"/>
    <path d="M51.32,41.13c0,.24.03.48.07.72.03.16.07.32.12.47.13.37.3.73.54,1.04.14.18.28.36.45.52s.36.31.55.44c.14.09.28.17.43.23.21.09.43.18.66.24.39.09.8.13,1.2.09.24-.02.48-.06.72-.12s.45-.15.66-.25c.36-.16.7-.41.98-.69.16-.16.3-.34.44-.53.1-.13.18-.27.25-.42.11-.22.21-.46.28-.7s.11-.51.13-.77c.02-.18.02-.35,0-.53-.02-.26-.06-.52-.13-.77-.07-.23-.22-.43-.43-.55-.11-.07-.22-.1-.34-.11-.12-.03-.25-.02-.37.02-.22.07-.44.21-.55.43s-.16.47-.09.71c.04.13.07.26.08.4l-.03-.25c.03.25.03.5,0,.75l.03-.25c-.04.26-.11.51-.21.75l.09-.22c-.1.23-.23.45-.38.65l.14-.19c-.14.18-.3.34-.48.48l.19-.14c-.19.14-.39.26-.61.35l.22-.09c-.24.1-.49.17-.74.2l.25-.03c-.26.03-.53.04-.79,0l.25.03c-.24-.03-.48-.1-.7-.19l.22.09c-.21-.09-.4-.2-.58-.34l.19.14c-.19-.15-.37-.33-.52-.52l.14.19c-.16-.21-.29-.43-.39-.67l.09.22c-.1-.23-.16-.48-.2-.73l.03.25c-.02-.12-.02-.24-.02-.37,0-.24-.1-.49-.27-.66s-.42-.28-.66-.27-.49.09-.66.27-.27.4-.27.66h0Z"/>
    <path d="M50.35,103.38c6.05-.02,12.11-.05,18.16-.07,3.02-.01,6.03-.02,9.05-.04s5.87.16,8.66-.63c4.46-1.27,8.09-4.82,9.69-9.14.97-2.63,1.1-5.51,1.12-8.29.02-2.99,0-5.98,0-8.97,0-6.06,0-12.12-.01-18.18,0-3.02,0-6.04,0-9.06,0-2.76.11-5.56-.16-8.31-.24-2.55-.86-5.13-2.42-7.21s-3.65-3.44-6-4.35c-2.58-1.01-5.4-1.31-8.15-1.4-2.96-.1-5.92-.04-8.88-.03s-6.07,0-9.1,0-6.01-.05-9,.04c-2.79.08-5.57.41-8.27,1.14s-5.06,1.72-7.38,3.03c-1.09.62-2.15,1.3-3.16,2.05-.4.3-.6.8-.33,1.27.23.4.86.63,1.27.33,4.13-3.04,8.9-5.01,14-5.69-.04,0-.12.02.07,0,.07,0,.14-.02.21-.03.15-.02.3-.03.44-.05.39-.04.78-.07,1.17-.1.72-.05,1.44-.08,2.16-.1,1.48-.04,2.97-.03,4.46-.03,2.95,0,5.9,0,8.85,0s5.94,0,8.92,0c2.8,0,5.69-.07,8.42.37,1.25.2,2.49.5,3.68.95.47.18.9.37,1.43.65s1.02.57,1.5.91c.26.19.31.22.54.41s.46.4.68.61c.2.19.38.39.56.59.08.1.17.2.25.3.02.02.14.18.06.08.05.06.1.13.14.2.72,1.01,1.16,1.99,1.49,3.15.35,1.24.5,2.33.59,3.57s.1,2.5.1,3.75c0,2.97,0,5.95,0,8.92,0,5.91,0,11.83.01,17.74,0,2.98,0,5.96,0,8.93,0,2.85.12,5.73-.19,8.56-.26,2.37-.95,4.5-2.27,6.46-.35.51-.52.74-.91,1.19-.36.41-.74.81-1.15,1.18-.18.16-.36.32-.55.48-.05.04-.09.08-.14.12.02-.01-.22.17-.12.1.08-.06-.07.05-.09.07-.07.05-.15.11-.22.16-.43.31-.88.59-1.35.85-.24.13-.48.26-.73.37-.11.05-.22.1-.33.15-.17.08-.07.03-.03.01-.08.04-.17.07-.25.1-.51.2-1.03.36-1.56.5-1.3.32-2.63.4-3.98.43-2.95.06-5.91.03-8.86.04-5.91.02-11.82.05-17.72.07-1.46,0-2.91.01-4.37.02-.5,0-.93.42-.93.93s.42.93.93.93h0Z"/>
  </g>
</svg>