<?xml version="1.0" encoding="UTF-8"?>
<svg id="Layer_1" data-name="Layer 1" xmlns="http://www.w3.org/2000/svg" viewBox="0 0 125.05 131.38">
  <defs>
    <style>
      .cls-1 {
        fill: none;
        stroke: #000;
        stroke-linecap: round;
        stroke-linejoin: round;
        stroke-width: 3.14px;
      }

      .cls-2 {
        fill: #fff;
      }
    </style>
  </defs>
  <g>
    <path class="cls-2" d="M21.26,29.92c-1.65,22.49.09,45.22,5.15,67.19.31,1.37.69,2.82,1.73,3.76,1.23,1.12,3.04,1.22,4.7,1.26,24.94.6,49.91-.31,74.74-2.72.53-24.31,1.07-48.62,1.6-72.93.03-1.59-.03-3.42-1.26-4.43-.88-.72-2.09-.8-3.23-.84-27.95-1.12-55.97-.69-83.88,1.31-1.68.12-3.55.35-4.61,1.66-.84,1.05-.9,2.51-.92,3.85-.32,25.43,2.16,50.89,7.37,75.78.41,1.95.9,4.02,2.31,5.42,1.64,1.63,4.12,1.98,6.42,2.22,25.5,2.61,51.4,1.2,76.46-4.15-19.98-5.64-42.5-2.87-60.47-13.26-7.99-4.62-14.39-11.51-20.54-18.39,6.11,6.34,13.54,11.42,21.67,14.81-3.25-13.15-8.48-25.81-15.44-37.44,11.28,11.34,22.56,22.68,33.85,34.03-12.31-15.17-24.62-30.34-36.93-45.52,15.02,16.07,30.34,31.85,45.95,47.34-12.11-15.01-22.57-31.34-31.13-48.62,13.27,11.83,26.53,23.67,39.8,35.5-7.38-11.92-14.75-23.85-22.13-35.77,9.42,9.31,18.84,18.62,28.26,27.94-2.15-11.92-4.3-23.84-6.45-35.76,4.27-.04,7.88,3.54,9.31,7.56,1.43,4.02,1.18,8.41.99,12.68-.52,11.74-.42,23.52.33,35.25-3.86.96-7.72,1.92-11.58,2.89,2.61.63,5.23,1.25,7.84,1.88-6.33.9-12.76,1.11-19.14.61,2.23-16.14,5.65-32.12,10.22-47.76.38-1.29.77-2.63.57-3.97-.58-3.94-5.47-5.34-9.43-5.81-12.15-1.42-24.36-2.21-36.59-2.37"/>
    <path class="cls-2" d="M11.84,29.92c-1.5,20.77-.09,41.7,3.88,62.13,1.22,6.3,2.09,13.63,8.11,17.3,3.05,1.85,6.52,2.15,10,2.23,2.64.06,5.29.1,7.93.13,10.32.1,20.65-.06,30.97-.47,11.64-.47,23.26-1.27,34.85-2.39,2.44-.24,4.92-.86,6.67-2.76s2.7-4.09,2.76-6.67c.52-23.81,1.05-47.62,1.57-71.43.1-4.41-.37-8.71-3.53-12.11s-7.61-3.98-12.09-4.15c-5.87-.22-11.75-.38-17.62-.46-11.84-.17-23.67-.06-35.5.33-5.87.19-11.75.45-17.61.78-2.98.17-5.95.35-8.92.55-3.79.26-7.71.36-11.06,2.41-4.48,2.74-6.26,7.47-6.37,12.51-.06,2.91-.04,5.83,0,8.74.07,5.79.28,11.57.64,17.35.76,12.31,2.19,24.58,4.17,36.76.91,5.58,1.82,11.23,3.15,16.73,1.03,4.28,3.3,7.96,6.98,10.45,3.19,2.15,6.89,2.62,10.6,3.01,23.53,2.48,47.39,1.27,70.67-2.86,2.78-.49,5.55-1.04,8.3-1.62,1.97-.42,3.71-1.84,4.9-3.38s2.12-3.65,2.02-5.71c-.19-4.17-2.8-7.94-6.92-9.09-11.52-3.22-23.56-3.85-35.37-5.43l2.51.34c-7.52-1.02-15.02-2.46-22.05-5.4l2.25.95c-4.04-1.73-7.79-3.94-11.28-6.61l1.91,1.47c-5.49-4.26-10.21-9.37-14.83-14.54-4.44,4.44-8.89,8.89-13.33,13.33,3.62,3.73,7.69,7.05,11.99,9.98s9,5.21,13.84,7.25c2.99,1.26,7.03-.28,9.17-2.42,2.42-2.42,3.24-5.88,2.42-9.17-3.46-13.9-9.05-27.39-16.39-39.69l-14.8,11.42c11.28,11.34,22.56,22.68,33.85,34.03,3.48,3.5,9.89,3.74,13.33,0,1.65-1.8,2.87-4.15,2.76-6.67-.12-2.64-1.1-4.62-2.76-6.67-12.31-15.17-24.62-30.34-36.93-45.52-4.44,4.44-8.89,8.89-13.33,13.33,11.68,12.49,23.54,24.82,35.58,36.97,3.44,3.47,6.9,6.93,10.37,10.37s9.88,3.76,13.33,0c1.65-1.8,2.87-4.15,2.76-6.67l-.34-2.51c-.45-1.6-1.26-2.98-2.42-4.16-1.14-1.42-2.27-2.85-3.39-4.29l1.47,1.91c-10.67-13.83-19.97-28.69-27.74-44.33l-14.8,11.42c13.27,11.83,26.53,23.67,39.8,35.5,3.53,3.15,8.54,3.7,12.38.74,3.61-2.79,4.92-8.13,2.43-12.16-7.38-11.92-14.75-23.85-22.13-35.77l-14.8,11.42c9.42,9.31,18.84,18.62,28.26,27.94,2.87,2.83,7.92,3.73,11.42,1.47,1.36-.88,2.5-2.02,3.38-3.38,1.41-2.18,1.39-4.83.95-7.26-2.15-11.92-4.3-23.84-6.45-35.76-3.03,3.98-6.06,7.95-9.09,11.93.36,0,.7.03,1.05.06l-2.51-.34c.69.11,1.35.28,2,.53l-2.25-.95c.76.33,1.45.73,2.11,1.21l-1.91-1.47c.85.67,1.6,1.42,2.26,2.28l-1.47-1.91c.65.88,1.18,1.81,1.62,2.81l-.95-2.25c.61,1.49.96,3.05,1.17,4.64l-.34-2.51c.4,3.47.13,6.96,0,10.44-.15,3.72-.23,7.45-.25,11.17-.04,7.45.18,14.9.65,22.34l6.92-9.09c-3.86.96-7.72,1.92-11.58,2.89-3.85.96-7.1,5.06-6.92,9.09.18,4.06,2.78,8.1,6.92,9.09,2.61.63,5.23,1.25,7.84,1.88v-18.18l-.49.07,2.51-.34c-6.19.83-12.43,1.01-18.65.55,3.03,3.98,6.06,7.95,9.09,11.93,1.99-14.3,4.88-28.47,8.71-42.4,1.3-4.74,3.08-9.34,2.09-14.33-.83-4.17-4.02-7.94-7.78-9.84s-7.18-2.47-11.23-2.94c-3.78-.44-7.56-.81-11.35-1.13-8.23-.68-16.49-1.08-24.75-1.19-4.93-.07-9.65,4.38-9.43,9.43.23,5.17,4.14,9.35,9.43,9.43,12.41.17,24.92.81,37.22,2.46l-2.51-.34c1.64.24,3.24.61,4.77,1.25l-2.25-.95c.67.3,1.3.65,1.89,1.08l-1.91-1.47c.47.37.88.76,1.24,1.24l-1.47-1.91c.22.32.41.65.57,1l-.95-2.25c.15.38.25.76.32,1.16l-.34-2.51c.06.61.04,1.17-.03,1.78l.34-2.51c-.38,2.08-1.1,4.11-1.67,6.15s-1.15,4.2-1.69,6.31c-1.05,4.06-2.02,8.14-2.91,12.24-1.82,8.36-3.31,16.78-4.49,25.25-.45,1.67-.45,3.34,0,5.01.29,1.23.85,2.3,1.69,3.21,1.89,2.45,4.35,3.49,7.4,3.71,7.28.54,14.43.05,21.65-.95l2.25-.95c1.1-.59,1.98-1.4,2.64-2.43,1.23-1.59,2.12-3.65,2.02-5.71-.18-4.06-2.78-8.1-6.92-9.09-2.61-.63-5.23-1.25-7.84-1.88v18.18c3.86-.96,7.72-1.92,11.58-2.89s7.17-5.07,6.92-9.09c-.57-9.09-.77-18.2-.58-27.31s2.04-20.08-3.47-28.26c-3.68-5.46-9.24-9.26-15.99-9.34-2.98-.04-5.62,1.41-7.4,3.71-1.94,2.51-2.24,5.15-1.69,8.22,2.15,11.92,4.3,23.84,6.45,35.76,5.25-3.06,10.5-6.11,15.75-9.17-9.42-9.31-18.84-18.62-28.26-27.94-3.35-3.31-8.68-3.59-12.38-.74-3.61,2.79-4.92,8.13-2.43,12.16,7.38,11.92,14.75,23.85,22.13,35.77,4.93-3.81,9.87-7.61,14.8-11.42-13.27-11.83-26.53-23.67-39.8-35.5-3.53-3.15-8.54-3.7-12.38-.74-3.86,2.98-4.55,7.89-2.43,12.16,8.95,18.03,19.98,34.86,32.6,50.53,4.44-4.44,8.89-8.89,13.33-13.33-12.14-12.05-24.11-24.27-35.89-36.67-3.37-3.54-6.72-7.1-10.06-10.67-3.38-3.61-9.97-3.67-13.33,0-1.65,1.8-2.87,4.15-2.76,6.67.12,2.64,1.1,4.62,2.76,6.67,12.31,15.17,24.62,30.34,36.93,45.52,4.44-4.44,8.89-8.89,13.33-13.33-11.28-11.34-22.56-22.68-33.85-34.03-3.32-3.34-8.71-3.57-12.38-.74s-4.86,8.09-2.43,12.16c3.32,5.56,6.25,11.34,8.77,17.31l-.95-2.25c2.73,6.53,4.97,13.26,6.68,20.13l11.59-11.59-.39-.17,2.25.95c-5.1-2.19-9.9-5-14.3-8.39l1.91,1.47c-2.47-1.92-4.8-4.01-6.98-6.25-3.44-3.54-9.92-3.71-13.33,0-3.61,3.94-3.52,9.4,0,13.33,7.1,7.95,14.72,15.88,24.28,20.87,9.91,5.17,20.62,7.16,31.58,8.58,5.52.72,11.06,1.24,16.58,1.98l-2.51-.34c5.14.69,10.25,1.58,15.24,2.98v-18.18c-6.15,1.31-12.35,2.38-18.58,3.22l2.51-.34c-9.83,1.31-19.73,2.05-29.64,2.18s-19.69-.17-29.41-1.38l2.51.34c-1.16-.16-2.29-.4-3.38-.84l2.25.95c-.46-.22-.89-.46-1.31-.75l1.91,1.47c-.4-.32-.74-.66-1.07-1.05l1.47,1.91c-.37-.51-.65-1.03-.91-1.6l.95,2.25c-.77-1.96-1.09-4.08-1.51-6.14-.5-2.48-.97-4.96-1.41-7.45-.87-4.9-1.64-9.81-2.3-14.74l.34,2.51c-1.18-8.81-2.03-17.66-2.53-26.53-.25-4.39-.42-8.79-.5-13.19-.04-2.2-.06-4.4-.06-6.6,0-2.07-.12-4.2.15-6.26l-.34,2.51c.07-.37.15-.7.27-1.06l-.95,2.25c.15-.35.31-.63.53-.94l-1.47,1.91c.15-.18.31-.35.5-.5l-1.91,1.47c.29-.21.57-.38.9-.54l-2.25.95c.69-.27,1.38-.42,2.11-.52l-2.51.34c5.45-.6,10.99-.76,16.46-1.04,5.62-.29,11.25-.51,16.87-.67,11.34-.32,22.68-.39,34.02-.2,3.14.05,6.29.12,9.43.22s6.25.06,9.33.36l-2.51-.34c.51.07.97.18,1.45.37l-2.25-.95c.23.1.44.23.63.39l-1.91-1.47c.17.14.33.3.46.48l-1.47-1.91c.13.18.24.36.34.56l-.95-2.25c.18.43.29.84.37,1.29l-.34-2.51c.28,2.16.04,4.42,0,6.59-.05,2.41-.11,4.83-.16,7.24-.11,4.91-.22,9.82-.32,14.74-.22,9.91-.44,19.81-.65,29.72-.12,5.58-.25,11.16-.37,16.73,3.14-3.14,6.28-6.28,9.43-9.43-19.98,1.93-40.05,2.9-60.12,2.89-2.81,0-5.62-.02-8.43-.06-2.69-.04-5.46.07-8.14-.25l2.51.34c-.51-.08-.99-.19-1.48-.36l2.25.95c-.36-.15-.66-.32-.99-.53l1.91,1.47c-.31-.25-.55-.49-.8-.8l1.47,1.91c-.22-.32-.39-.63-.56-.98l.95,2.25c-.65-1.6-.93-3.36-1.3-5.04-.43-1.97-.83-3.94-1.2-5.92-.73-3.88-1.36-7.77-1.89-11.68l.34,2.51c-2.07-15.49-2.56-31.17-1.43-46.76.17-2.31-1.17-5.07-2.76-6.67s-4.32-2.87-6.67-2.76-4.97.91-6.67,2.76-2.57,4.06-2.76,6.67h0Z"/>
  </g>
  <rect class="cls-1" x="5.77" y="9.22" width="113.51" height="109.83" rx="19.69" ry="19.69"/>
  <path d="M27.79,67.85c.56.08,1.1.11,1.66.04s1.09-.18,1.61-.38c1.02-.39,1.96-.98,2.7-1.8s1.28-1.82,1.5-2.9.19-2.2-.1-3.26c-.32-1.17-.97-2.27-1.87-3.09-.2-.18-.45-.3-.72-.3-.25,0-.55.11-.72.3s-.31.45-.3.72.1.54.3.72c.23.21.44.44.64.69l-.16-.21c.29.38.53.79.71,1.23l-.1-.24c.21.49.35,1.01.42,1.54l-.04-.27c.07.51.07,1.02,0,1.53l.04-.27c-.06.47-.19.93-.37,1.37l.1-.24c-.17.41-.4.79-.67,1.14l.16-.21c-.3.38-.65.73-1.03,1.03l.21-.16c-.41.31-.85.57-1.32.77l.24-.1c-.47.2-.96.33-1.47.4l.27-.04c-.46.06-.92.06-1.39,0l.27.04h-.03c-.14-.05-.27-.05-.41-.02-.14,0-.26.05-.38.12-.21.12-.41.37-.47.61-.06.26-.05.55.1.79.13.21.35.43.61.47h0Z"/>
  <path d="M33.36,64.96c3.1,3.44,6.78,6.39,10.81,8.66s8.09,3.77,12.45,4.59,8.74.9,13.08.15c4-.69,7.9-2.12,11.41-4.15,3.51-2.03,6.68-4.71,9.17-7.92.34-.44.67-.88.99-1.33s.09-1.15-.37-1.39c-.52-.28-1.07-.1-1.39.37-.14.2-.28.39-.42.59-.07.09-.13.18-.2.27-.04.05-.08.1-.12.15.09-.11-.01.01-.05.06-.3.38-.6.75-.92,1.11-.64.74-1.32,1.44-2.03,2.11s-1.48,1.33-2.26,1.94c.13-.1-.1.08-.14.1-.09.07-.18.13-.27.2-.21.15-.41.3-.63.45-.39.28-.79.54-1.2.8-.84.54-1.71,1.03-2.59,1.49-.43.22-.86.43-1.3.64-.22.1-.44.2-.66.3-.1.05-.21.09-.31.13.04-.02.16-.07-.02,0-.07.03-.15.06-.22.09-1.82.74-3.71,1.33-5.63,1.74-.47.1-.95.19-1.42.28-.24.04-.48.08-.72.12-.11.02-.22.03-.33.05-.17.02.15-.02-.02,0-.08.01-.16.02-.24.03-1,.12-2.01.2-3.02.23-1.07.03-2.14.02-3.2-.04-.52-.03-1.05-.07-1.57-.13-.26-.03-.52-.06-.78-.09-.04,0-.35-.05-.2-.02-.16-.02-.31-.04-.47-.07-2.11-.32-4.2-.82-6.23-1.48-1.02-.33-2.02-.71-3.01-1.12-.19-.08-.09-.04-.05-.02-.06-.03-.13-.06-.19-.08-.11-.05-.23-.1-.34-.15-.26-.11-.51-.23-.77-.35-.49-.23-.98-.47-1.47-.72-1.91-.99-3.74-2.12-5.47-3.39-.46-.34-.74-.55-1.13-.86-.46-.36-.91-.74-1.35-1.12-.89-.77-1.74-1.57-2.56-2.41-.4-.41-.8-.83-1.18-1.26-.36-.4-1.08-.39-1.44,0-.39.42-.38,1.02,0,1.44h0Z"/>
  <path d="M91.11,56.37c-1.57,1.6-2.24,3.99-1.7,6.17.26,1.04.8,2,1.5,2.8s1.65,1.41,2.66,1.78c1.25.46,2.63.51,3.94.5.26,0,.53-.11.72-.3.18-.18.31-.47.3-.72-.02-.55-.45-1.03-1.02-1.02-.72,0-1.44,0-2.16-.1l.27.04c-.61-.08-1.21-.23-1.78-.47l.24.1c-.42-.18-.82-.42-1.18-.7l.21.16c-.38-.3-.72-.64-1.02-1.02l.16.21c-.29-.38-.54-.8-.73-1.25l.1.24c-.18-.43-.3-.88-.37-1.34l.04.27c-.07-.49-.06-.98,0-1.47l-.04.27c.07-.5.2-.99.4-1.46l-.1.24c.18-.43.42-.84.7-1.21l-.16.21c.14-.18.28-.34.44-.5.18-.19.3-.46.3-.72s-.11-.55-.3-.72c-.4-.37-1.04-.41-1.44,0h0Z"/>
  <path d="M61.26,78.41c-.06,2.47-.12,4.95-.17,7.42-.02.69-.03,1.39-.05,2.08-.01.53.48,1.04,1.02,1.02s1.01-.45,1.02-1.02c.06-2.47.12-4.95.17-7.42.02-.69.03-1.39.05-2.08.01-.53-.48-1.04-1.02-1.02s-1.01.45-1.02,1.02h0Z"/>
  <path d="M49.58,76.11c-.16,2.12.1,4.25.43,6.34.29,1.83.62,3.65,1.12,5.43s1.18,3.55,2.14,5.14,2.12,2.87,3.56,3.94c1.33.99,2.92,1.73,4.57,2.01,1.77.3,3.51.09,5.15-.65,3.33-1.5,5.44-4.92,6.56-8.25.58-1.72.9-3.5,1.19-5.29.33-2.06.69-4.14.76-6.23.02-.51.01-1.02-.01-1.54s-.45-1.04-1.02-1.02c-.53.02-1.05.45-1.02,1.02.05.99.01,1.97-.08,2.96-.02.25-.05.49-.08.74-.01.11-.03.23-.04.34,0,.06-.01.11-.02.17,0,.03-.02.17,0,.07-.07.49-.14.98-.22,1.47-.27,1.76-.53,3.53-.98,5.26-.21.83-.47,1.65-.78,2.44-.02.05-.04.09-.06.14,0,0-.06.16-.03.06s-.03.06-.03.06c-.03.06-.05.12-.08.18-.09.2-.19.4-.28.6-.2.41-.42.8-.66,1.19-.21.34-.43.67-.66.98-.03.04-.05.07-.08.11.11-.15.01-.02,0,0-.06.07-.11.14-.17.21-.13.15-.26.3-.39.44-.28.3-.57.59-.87.85-.07.06-.14.12-.21.17-.05.04-.21.17-.08.06-.17.13-.34.25-.51.36-.32.21-.66.41-1.01.57-.08.04-.16.07-.24.11.16-.07-.03,0-.09.03-.2.07-.39.14-.6.2-.17.05-.34.09-.51.13-.1.02-.2.04-.3.06-.04,0-.09.01-.13.02.09-.02.12-.01.01,0-.37.04-.75.05-1.12.04-.19,0-.37-.02-.56-.04-.04,0-.09-.01-.13-.01.01,0,.18.03.06,0-.1-.02-.2-.03-.3-.05-.37-.07-.74-.16-1.1-.28-.18-.06-.36-.12-.54-.19-.04-.01-.26-.11-.16-.07.11.05-.03-.01-.04-.02-.05-.02-.11-.05-.16-.07-.35-.16-.69-.35-1.02-.54s-.65-.42-.96-.65c-.16-.12-.04-.03,0,0-.03-.03-.07-.06-.11-.08-.07-.06-.14-.11-.21-.17-.16-.14-.32-.28-.47-.42-.28-.27-.55-.55-.81-.84-.12-.13-.23-.27-.34-.41-.07-.09.01.02.02.03-.03-.04-.05-.07-.08-.11-.08-.11-.15-.21-.23-.32-.49-.71-.92-1.45-1.29-2.23-.09-.19-.18-.39-.27-.59,0,0-.07-.15-.03-.06s-.02-.06-.03-.06c-.04-.11-.09-.22-.13-.32-.16-.4-.3-.81-.43-1.22-.54-1.67-.91-3.4-1.21-5.13-.34-1.92-.61-3.64-.63-5.63,0-.49.01-.99.05-1.48.04-.53-.5-1.04-1.02-1.02-.59.03-.98.45-1.02,1.02h0Z"/>
</svg>