<?xml version="1.0" encoding="UTF-8"?>
<svg id="Layer_1" data-name="Layer 1" xmlns="http://www.w3.org/2000/svg" viewBox="0 0 125.05 131.38">
  <defs>
    <style>
      .cls-1 {
        fill: none;
        stroke: #000;
        stroke-linecap: round;
        stroke-linejoin: round;
        stroke-width: 3.14px;
      }

      .cls-2 {
        fill: #fec766;
      }
    </style>
  </defs>
  <path class="cls-2" d="M25.25,108.41c.33-23.07.65-46.14.98-69.21.09-6.47.18-12.95.27-19.42l-8.93,8.93c24.16.05,48.31-.1,72.46-.45,6.83-.1,13.66-.21,20.49-.34l-8.93-8.93c-1.1,24.28-2.21,48.57-3.31,72.85-.31,6.88-.62,13.76-.94,20.64,3.77-2.87,7.54-5.74,11.3-8.61-24.37-4.04-48.98-6.64-73.66-7.61-6.81-.27-13.63-.41-20.45-.43-1.99,0-3.86.72-5.41,1.92-1.38,1.07-2.94,2.84-3.2,4.64-.35,2.5-.57,4.73.22,7.2s1.96,4.27,3.62,6.09c2.39,2.62,6.02,4.38,9.49,4.91,6.19.94,12.59.36,18.83.04,11.59-.59,23.16-1.66,34.67-3.19,7.11-.95,14.21-2.01,21.27-3.28,2.67-.48,4.79-2.81,5.79-5.17,1.11-2.63.97-5.44-.45-7.95-2.75-4.84-7.47-7.09-12.36-9.15-4.33-1.83-8.72-3.51-13.19-4.97-8.28-2.71-16.78-4.73-25.38-6.04-5.59-.85-11.21-1.51-16.85-1.85.79,5.85,1.58,11.69,2.37,17.54,6.83-1.72,13.75-3.05,20.74-3.99l-2.37.32c8.89-1.17,17.85-1.7,26.82-1.58v-17.86c-14.85.06-29.7.11-44.55.17.79,5.85,1.58,11.69,2.37,17.54,16.74-4.89,33.82-8.52,51.1-10.86l-2.37.32c5.07-.68,10.16-1.25,15.26-1.71,2.41-.22,4.55-.85,6.31-2.62,1.55-1.55,2.72-4.09,2.62-6.31-.22-4.84-3.92-8.92-8.93-8.93-19.99-.03-39.99-.06-59.98-.09.79,5.85,1.58,11.69,2.37,17.54,11.59-4.16,23.48-7.44,35.56-9.84,2.02-.4,4.39-2.31,5.34-4.1s1.33-3.66,1.06-5.69c-.59-4.36-4.29-7.72-8.77-7.74-6.94-.04-13.87-.08-20.81-.12-3.39-.02-6.77-.04-10.16-.06s-6.92.23-10.29-.14l2.37.32c-.41-.07-.76-.16-1.15-.3l2.13.9c-.24-.1-.47-.23-.68-.39l1.81,1.4c-.19-.15-.36-.32-.51-.51l1.4,1.81c-.22-.3-.39-.59-.55-.93l.9,2.13c-.61-1.48-.91-3.1-1.31-4.65-.43-1.68-.87-3.36-1.3-5.05-.89-3.44-1.77-6.89-2.66-10.33-1.11-4.31-5.51-6.97-9.8-6.4-4.52.61-7.49,4.28-7.74,8.77-.83,14.88-1.47,30.58,4.21,44.68.75,1.87,1.56,3.37,3.2,4.64,1.51,1.16,3.45,2,5.41,1.92,3.9-.17,7.59-2.64,8.61-6.56,1.98-7.56,3.95-15.11,5.93-22.67.97-3.7,1.93-7.4,2.9-11.09l1.51-5.79c.44-1.67.79-3.41,1.43-5.02l-.9,2.13c.2-.45.43-.85.72-1.26l-1.4,1.81c.24-.29.48-.52.77-.75l-1.81,1.4c.2-.14.4-.27.62-.37l-2.13.9c.34-.14.66-.23,1.02-.31l-2.37.32c.62-.08,1.21-.07,1.83,0l-2.37-.32c1.69.27,3.28.91,4.85,1.57l-2.13-.9c3.52,1.52,6.81,3.46,9.84,5.8l-1.81-1.4c2.26,1.78,4.33,3.75,6.22,5.91,2.1-5.08,4.21-10.16,6.31-15.24-3.28-.19-6.55-.49-9.81-.92l2.37.32c-8.85-1.2-17.55-3.31-25.96-6.3-.79,5.85-1.58,11.69-2.37,17.54,16.86-1.26,33.77-1.82,50.67-1.65,4.87.05,9.73.16,14.59.32-.79-5.85-1.58-11.69-2.37-17.54-15.81,2.21-31.21,7.76-44.94,15.89-4.02,2.38-5.83,8.15-3.2,12.22,2.66,4.13,7.85,5.64,12.22,3.2,11.85-6.63,23.71-13.25,35.56-19.88-4.37-3.36-8.75-6.72-13.12-10.08-5.49,15.61-10.66,31.24-12.46,47.77-.48,4.44-.66,8.91-.48,13.38.15,3.79,2.65,7.72,6.56,8.61,1.57.36,3.18.36,4.75,0,1.91-.43,4.51-2.27,5.34-4.1,6.17-13.75,10.58-28.12,12.64-43.07l-17.54-2.37c1.52,12.12,3.04,24.24,4.56,36.35.29,2.35.77,4.62,2.62,6.31,1.48,1.35,3.13,2.19,5.13,2.46,4.04.54,9.03-2.01,9.8-6.4,1.95-11.05,2.92-22.26,2.64-33.48-.12-4.67-4.02-9.15-8.93-8.93s-8.88,3.92-8.93,8.93c-.13,13.93-1,27.84-2.59,41.68-.24,2.12,1.17,4.87,2.62,6.31,1.55,1.55,4.09,2.72,6.31,2.62s4.7-.86,6.31-2.62l1.4-1.81c.81-1.39,1.21-2.9,1.22-4.51,1.59-13.84,2.46-27.75,2.59-41.68h-17.86c.21,8.3-.24,16.6-1.34,24.84l.32-2.37c-.29,2.1-.61,4.19-.98,6.27,5.85.79,11.69,1.58,17.54,2.37-1.52-12.12-3.04-24.24-4.56-36.35-.29-2.35-.77-4.62-2.62-6.31-1.48-1.35-3.13-2.19-5.13-2.46s-4.03-.01-5.69,1.06c-1.8,1.16-3.8,3.1-4.1,5.34-1.77,12.9-5.22,25.52-10.25,37.53l.9-2.13c-.48,1.14-.98,2.28-1.48,3.41l16.64,4.51c-.21-5.33.1-10.65.8-15.94l-.32,2.37c2.01-14.74,6.92-28.86,11.83-42.83.48-1.38.38-3.36,0-4.75-.52-1.88-1.68-3.46-3.2-4.64-2.85-2.2-6.75-2.47-9.92-.7-11.85,6.63-23.71,13.25-35.56,19.88,3,5.14,6.01,10.28,9.01,15.42,4.5-2.66,9.16-5.02,13.97-7.06l-2.13.9c9.23-3.87,18.92-6.55,28.83-7.93,1.97-.28,4.44-2.41,5.34-4.1.95-1.8,1.33-3.66,1.06-5.69-.6-4.45-4.29-7.59-8.77-7.74-16.9-.58-33.81-.45-50.7.41-4.86.25-9.71.55-14.57.92-4.47.33-8.15,3.14-8.77,7.74-.62,4.58,2.15,8.29,6.4,9.8,12.26,4.36,25.17,6.81,38.15,7.54,1.45.08,3.27-.49,4.51-1.22,1.68-.98,2.91-2.5,3.65-4.27,1.45-3.45.56-6.99-1.85-9.75-3.57-4.1-7.91-7.64-12.58-10.43-2.6-1.55-5.37-2.77-8.17-3.9-3.06-1.23-6.19-1.85-9.49-1.41-5.38.72-8.91,4.52-10.69,9.43-.94,2.6-1.48,5.38-2.18,8.05-1.47,5.63-2.94,11.26-4.41,16.88-1.68,6.43-3.36,12.86-5.04,19.3h17.22c-1.85-4.58-3-9.38-3.67-14.27l.32,2.37c-1.22-9.3-.75-18.7-.23-28.03-5.85.79-11.69,1.58-17.54,2.37,1.13,4.41,2.27,8.81,3.4,13.22.54,2.08.94,4.27,1.66,6.29,1.49,4.17,4.3,7.6,8.75,8.77,2.6.68,5.39.53,8.05.54l6.94.04c4.54.03,9.08.05,13.62.08,5.2.03,10.4.06,15.61.09-.79-5.85-1.58-11.69-2.37-17.54-12.08,2.4-23.97,5.68-35.56,9.84-4.22,1.51-7.02,5.19-6.4,9.8.58,4.35,4.29,7.74,8.77,7.74,19.99.03,39.99.06,59.98.09v-17.86c-18.23,1.65-36.36,4.59-54.14,8.97-4.89,1.2-9.76,2.52-14.59,3.93-4.28,1.25-6.99,5.4-6.4,9.8.58,4.33,4.29,7.76,8.77,7.74,14.85-.06,29.7-.11,44.55-.17,4.67-.02,9.15-4.09,8.93-8.93s-3.92-8.86-8.93-8.93c-16.78-.23-33.66,1.79-49.93,5.89-4.32,1.09-6.97,5.53-6.4,9.8.61,4.54,4.28,7.47,8.77,7.74,3.85.23,7.68.6,11.5,1.11l-2.37-.32c13.91,1.87,27.54,5.57,40.49,10.99l-2.13-.9c2.06.87,4.15,1.71,5.95,3.05l-1.81-1.4c.57.46,1.08.95,1.55,1.53l-1.4-1.81c.22.3.41.6.59.92,1.78-4.37,3.56-8.75,5.34-13.12-6.12,1.1-12.25,2.06-18.41,2.89l2.37-.32c-8.59,1.15-17.21,2.05-25.85,2.68-4.24.31-8.48.55-12.73.74s-8.6.61-12.8.15l2.37.32c-1.04-.14-2.02-.37-2.99-.74l2.13.9c-.71-.31-1.35-.67-1.97-1.15l1.81,1.4c-.48-.4-.89-.83-1.28-1.33l1.4,1.81c-.28-.4-.52-.8-.72-1.25l.9,2.13c-.18-.45-.3-.88-.38-1.36l.32,2.37c-.03-.36-.04-.7-.02-1.06l-.32,2.37.05-.36c-2.87,2.19-5.74,4.37-8.61,6.56,19.3.07,38.6,1.1,57.8,3.12,5.47.57,10.94,1.23,16.39,1.96l-2.37-.32c5.86.79,11.71,1.67,17.54,2.64,2.92.48,5.39.26,7.78-1.6s3.39-4.14,3.52-7.01c1.1-24.28,2.21-48.57,3.31-72.85.31-6.88.62-13.76.94-20.64.22-4.76-4.27-9.02-8.93-8.93-24.15.46-48.31.72-72.46.78-6.83.02-13.66.02-20.49,0-4.88,0-8.86,4.1-8.93,8.93-.33,23.07-.65,46.14-.98,69.21-.09,6.47-.18,12.95-.27,19.42-.07,4.67,4.15,9.14,8.93,8.93,4.89-.22,8.86-3.92,8.93-8.93h0Z"/>
  <g>
    <path class="cls-1" d="M12.92,10.83h98.92c4.04,0,7.33,3.28,7.33,7.33v102.57H5.59V18.15c0-4.04,3.28-7.33,7.33-7.33Z"/>
    <path d="M92.71,42.67c.06-1.55-.39-3.12-1.29-4.38-.94-1.32-2.23-2.3-3.72-2.93s-3.1-.78-4.68-.54c-1.47.22-2.85.93-3.91,1.97-2.02,1.99-2.79,5.14-1.97,7.85.98,3.26,4.15,5.69,7.57,5.68,1.68,0,3.39-.55,4.75-1.55,1.52-1.12,2.62-2.7,3.05-4.56.11-.51.18-1.03.21-1.54.02-.49-.44-.95-.93-.93-.52.02-.9.41-.93.93,0,.12-.01.24-.02.36,0,.04,0,.08-.01.12v.06c-.02.1-.02.08,0-.07-.03.08-.03.21-.05.29-.02.12-.05.23-.07.35-.05.21-.11.42-.18.63-.03.09-.06.19-.1.28,0,.02-.07.15-.07.17l.05-.11s-.03.07-.05.11c-.18.39-.39.76-.63,1.1-.04.06-.24.28-.04.06-.06.06-.11.13-.16.2-.13.16-.27.3-.42.45-.12.12-.25.23-.38.34-.07.06-.14.12-.22.18-.1.08.19-.14.05-.04-.06.04-.11.08-.17.12-.3.21-.61.4-.94.56-.08.04-.17.08-.25.12-.03.01-.06.03-.09.04-.17.08.21-.08.03-.01s-.35.13-.53.19c-.36.11-.72.2-1.09.26-.07.01-.25.02.04,0-.04,0-.08.01-.13.01-.09.01-.19.02-.28.02-.19.01-.37.02-.56.02s-.36-.01-.53-.03c-.08,0-.41-.07-.08,0-.1-.02-.2-.03-.3-.05-.36-.07-.71-.17-1.05-.3-.08-.03-.15-.06-.23-.09.29.1.02,0-.05-.03-.18-.08-.36-.17-.53-.27-.14-.08-.29-.17-.42-.26-.07-.05-.14-.09-.2-.14-.04-.03-.08-.06-.12-.09-.03-.02-.05-.04-.08-.06.12.09.15.11.09.07-.28-.22-.54-.46-.79-.72-.13-.13-.25-.27-.36-.41-.03-.03-.05-.06-.08-.1-.08-.1.14.19.04.05-.06-.08-.12-.16-.17-.24-.21-.3-.39-.62-.54-.95-.04-.07-.07-.15-.1-.23.13.29,0,0-.03-.08-.07-.18-.12-.35-.17-.54-.04-.13-.07-.27-.1-.4-.02-.08-.03-.16-.05-.25-.02-.09-.05-.4-.01-.04-.07-.61-.07-1.2,0-1.81.01-.12-.04.27-.01.1,0-.04.01-.08.02-.12.01-.07.02-.14.04-.21.03-.15.06-.3.1-.45.08-.3.17-.59.29-.87.03-.06.1-.21-.03.07.01-.03.02-.05.03-.08.03-.08.07-.15.11-.23.07-.14.14-.27.21-.4.15-.27.32-.52.51-.76-.2.27-.04.05.01,0,.04-.05.09-.11.14-.16.11-.13.23-.25.35-.36.1-.1.21-.19.31-.28.03-.03.06-.05.1-.08.03-.02.14-.11,0,0s-.02.02,0,0c.05-.03.09-.07.14-.1.25-.17.51-.33.78-.46.08-.04.16-.08.24-.11.03-.01.05-.02.08-.04-.27.13-.12.05-.06.03.15-.06.31-.12.47-.16.33-.1.67-.16,1-.22-.32.06-.04,0,.04,0,.1,0,.19-.02.29-.02.18-.01.35-.02.53-.02.17,0,.34,0,.5.02.09,0,.17.01.26.02.03,0,.06,0,.09.01.25.03-.17-.03-.01,0,.34.05.68.12,1.01.22.15.04.3.09.45.14.07.03.15.05.22.08.04.02.09.03.13.05.03.01.06.02.09.04-.14-.06-.18-.08-.11-.05.3.14.6.28.89.45.14.09.29.18.43.27.06.04.13.09.19.13.04.03.07.06.11.08-.24-.17-.1-.07-.04-.03.26.21.51.43.74.67.11.12.22.24.33.37.05.06.2.28.02.02.05.07.11.14.16.22.19.27.36.56.5.85.03.07.06.14.1.2.03.06.08.22-.02-.06.01.03.02.06.03.08.07.17.13.34.18.51.04.15.08.29.11.44.02.08.03.15.04.23,0,.05.01.09.02.14.03.17-.03-.25,0-.04.04.34.05.68.04,1.02-.02.49.44.95.93.93.52-.02.91-.41.93-.93Z"/>
    <path d="M32.92,39.11c-.74,1.57-.96,3.29-.65,5,.29,1.59,1.13,3.1,2.37,4.15s2.87,1.73,4.55,1.87,3.27-.3,4.67-1.11,2.71-2.1,3.42-3.61c.43-.9.67-1.87.67-2.87,0-.91-.18-1.83-.51-2.68-.62-1.59-1.65-2.93-3.03-3.92-1.17-.84-2.58-1.32-4.02-1.41-2.82-.17-5.48,1.37-6.98,3.71-.18.28-.34.58-.49.88-.11.23-.16.46-.09.71.06.22.23.45.43.55.41.22,1.04.13,1.27-.33.21-.43.45-.85.73-1.24.03-.05.07-.1.11-.14,0,0-.15.19-.06.08.02-.02.04-.05.06-.07.07-.09.15-.18.23-.27.15-.17.31-.33.48-.49.08-.07.16-.15.24-.22.04-.03.08-.06.12-.1.02-.02.05-.04.07-.05.08-.07-.19.14-.07.05.18-.13.36-.26.55-.37s.38-.22.57-.32c.09-.05.19-.09.29-.13s-.21.08-.11.04c.02,0,.04-.02.06-.02.06-.02.12-.05.18-.07.46-.17.94-.29,1.43-.36l-.25.03c.57-.07,1.15-.07,1.71,0l-.25-.03c.51.07,1.02.2,1.5.38.03.01.27.11.1.04s.05.03.09.04c.12.06.25.12.36.18.25.13.49.28.72.44.06.04.13.09.19.14.05.04.14.13-.04-.04.03.02.05.04.08.06.12.1.24.2.35.3.23.21.44.43.64.67.05.06.1.12.15.18.04.05.11.16-.03-.05.02.03.04.06.06.08.09.12.18.25.26.38.17.26.32.53.46.81.04.08.07.15.11.23.01.03.08.19.01.03s0,0,.01.03c.06.16.12.32.17.48.12.39.21.78.27,1.19l-.03-.25c.07.52.08,1.04.01,1.56l.03-.25c-.04.32-.11.64-.21.94-.02.07-.05.14-.07.21-.01.03-.11.27-.05.13s-.04.09-.06.12c-.04.08-.07.15-.11.23-.14.28-.31.54-.49.8-.04.06-.09.12-.13.18-.14.19.11-.14-.02.03-.09.11-.19.22-.28.33-.19.21-.39.41-.6.6-.1.09-.19.17-.29.25-.03.02-.06.04-.08.06.18-.16.11-.09.07-.05-.07.05-.14.1-.21.15-.22.16-.46.3-.7.44-.12.07-.24.13-.36.19-.06.03-.12.06-.19.09-.07.03-.35.13-.06.03-.6.22-1.19.4-1.83.49l.25-.03c-.59.08-1.19.08-1.78,0l.25.03c-.54-.07-1.08-.21-1.59-.41-.06-.02-.11-.04-.16-.07.27.1.06.02-.01,0-.13-.06-.26-.12-.39-.19-.25-.13-.48-.28-.71-.44-.05-.03-.1-.07-.14-.1-.17-.13.16.13-.01,0-.11-.09-.22-.18-.33-.28-.2-.18-.39-.38-.56-.58-.04-.04-.1-.1-.13-.16,0,0,.14.19.05.07-.02-.03-.04-.05-.06-.08-.08-.11-.16-.22-.23-.34-.15-.24-.28-.49-.4-.75-.01-.02-.02-.05-.03-.07.12.25.04.09.01.03-.03-.07-.06-.14-.08-.22-.05-.15-.1-.29-.14-.44-.09-.31-.15-.62-.19-.93l.03.25c-.08-.63-.08-1.27,0-1.9l-.03.25c.05-.35.12-.7.22-1.04.05-.17.1-.33.16-.49.01-.04.03-.08.05-.12.01-.03.07-.18.01-.03s0,0,.01-.03c.02-.05.04-.09.06-.14.11-.23.16-.46.09-.71-.06-.22-.23-.45-.43-.55-.41-.22-1.05-.14-1.27.33Z"/>
    <path d="M62.33,81.36c-2.81.21-5.51,1.19-7.73,2.94-1.93,1.52-3.33,3.68-3.99,6.04s-.53,5.01.39,7.32c.49,1.23,1.15,2.35,2,3.36s1.98,1.97,3.11,2.76c2.07,1.44,4.65,2.06,7.15,1.82s4.8-1.22,6.73-2.82c1.76-1.46,3.09-3.43,3.83-5.59.78-2.28.8-4.82.15-7.13s-2.01-4.49-3.91-6-4.19-2.45-6.62-2.65c-.57-.05-1.14-.05-1.71,0-.48.04-.95.4-.93.93.02.47.41.97.93.93s1.08-.05,1.63,0c.13,0,.26.02.38.04.05,0,.23.03.05,0,.06,0,.11.02.17.03.28.04.56.1.84.17.51.12,1.02.28,1.51.48.07.03.13.05.2.08-.04-.02-.15-.07.01,0,.12.05.23.11.35.16.24.12.48.25.72.38.22.13.44.27.65.41.12.08.24.16.35.25.05.03.09.07.14.1-.14-.11.07.06.08.07.42.34.82.71,1.18,1.12.4.45.55.63.87,1.12.3.47.57.95.8,1.46.02.05.05.11.07.16.11.26-.04-.09.03.06.05.12.1.25.14.37.1.28.19.55.27.84.07.25.13.51.19.77.02.11.05.23.07.35.01.07.02.14.04.22,0,.04.01.09.02.13-.01-.09-.01-.1,0-.03.06.54.1,1.08.09,1.62,0,.26-.02.53-.04.79-.01.15-.03.29-.05.44,0-.04.03-.17,0,.01-.01.09-.03.17-.04.26-.09.53-.23,1.05-.4,1.55-.08.23-.17.46-.26.69.07-.17-.05.1-.07.16-.06.14-.13.27-.2.41-.23.45-.49.89-.77,1.31-.08.11-.16.23-.24.34-.03.05-.21.28-.1.14-.17.21-.35.43-.53.63-.35.39-.73.75-1.13,1.09-.08.07-.17.14-.25.21-.2.17.09-.06-.04.03-.06.04-.11.08-.17.12-.21.15-.43.3-.65.44-.43.27-.88.52-1.35.73-.17.08-.33.14-.62.25s-.57.19-.87.27c-.26.07-.53.13-.8.18-.12.02-.24.04-.36.06-.29.05.1,0-.07.01-.09.01-.18.02-.27.03-.56.06-1.12.07-1.67.04-.15,0-.3-.02-.45-.03-.06,0-.37-.04-.2-.02-.3-.04-.59-.1-.89-.17-.26-.06-.52-.13-.78-.22-.13-.04-.26-.09-.38-.13-.07-.03-.14-.05-.21-.08-.18-.07.08.04-.11-.05-1.12-.52-2-1.17-2.88-1.93-.49-.42-.95-.87-1.37-1.36-.33-.39-.6-.76-.91-1.29-.14-.23-.27-.47-.39-.72-.05-.11-.11-.22-.16-.33-.03-.07-.06-.14-.09-.21-.03-.06-.02-.06,0,.01-.02-.04-.03-.08-.05-.13-.2-.52-.37-1.06-.49-1.6-.06-.27-.11-.53-.15-.8-.04-.29,0,.1,0-.07,0-.08-.02-.15-.02-.23-.01-.15-.03-.3-.03-.45-.03-.57-.02-1.14.05-1.71,0-.06.01-.12.02-.17-.02.17,0,.02,0-.01.02-.14.05-.29.08-.43.05-.27.12-.54.19-.81.07-.25.15-.51.24-.75.04-.12.09-.25.14-.37.07-.17.02-.06,0-.02.03-.08.07-.16.11-.24.23-.51.5-1,.81-1.46.14-.22.3-.44.46-.65-.09.12.1-.12.13-.16.1-.12.21-.25.32-.36.82-.9,1.62-1.5,2.68-2.09.57-.31,1.06-.54,1.59-.74.58-.22,1.17-.39,1.78-.52.29-.06.59-.12.89-.16.03,0,.24-.03.1-.01.07,0,.13-.02.2-.02.17-.02.33-.03.5-.04.48-.04.95-.4.93-.93-.02-.47-.41-.97-.93-.93h0Z"/>
    <path d="M61.18,11.37c.04,4.59.05,9.19.06,13.78,0,4.56,0,9.13,0,13.69,0,4.58-.02,9.16-.03,13.74,0,4.56-.01,9.13,0,13.69,0,4.57.02,9.14.05,13.72,0,.58,0,1.17.01,1.75,0,.5.42.93.93.93s.93-.42.93-.93c-.04-4.59-.05-9.19-.06-13.78,0-4.56,0-9.13,0-13.69s.02-9.16.03-13.74c0-4.56.01-9.13,0-13.69s-.02-9.14-.05-13.72c0-.58,0-1.17-.01-1.75,0-.5-.42-.93-.93-.93s-.93.42-.93.93h0Z"/>
  </g>
</svg>