<?xml version="1.0" encoding="UTF-8"?>
<svg id="Layer_1" data-name="Layer 1" xmlns="http://www.w3.org/2000/svg" viewBox="0 0 125.05 131.38">
  <defs>
    <style>
      .cls-1 {
        fill: none;
        stroke: #000;
        stroke-linecap: round;
        stroke-linejoin: round;
        stroke-width: 3.14px;
      }

      .cls-2 {
        fill: #2e9db7;
      }
    </style>
  </defs>
  <path class="cls-2" d="M5.49,23.44c-.01,21.72-.02,43.43-.03,65.15v8.21c0,2.58-.16,5.21.1,7.77.33,3.26.87,6.3,2.72,9.1,1.7,2.58,3.8,4.75,6.54,6.27,3.66,2.04,7.58,2.69,11.72,2.93,10.68.63,21.45.59,32.14.23,5.34-.18,10.68-.46,16.01-.85,5.62-.41,11.28-.86,16.82-1.91,4.82-.91,9.86-2.61,13.93-5.36,2.39-1.61,4.77-3.42,6.58-5.68,2.84-3.53,4.8-6.85,6.17-11.24,1-3.21,1.35-6.68,1.62-10.01.19-2.33.22-4.67.27-7.01.13-5.47.26-10.94.39-16.41s.26-10.94.39-16.41c.06-2.65.13-5.3.19-7.96s.27-5.14.04-7.68c-.28-3.17-.65-5.2-1.83-8-1.05-2.49-2.34-4.68-4.36-6.59-3.01-2.85-6.73-4.83-10.73-5.91-3.23-.87-6.64-1.19-9.95-1.47-2.33-.2-4.67-.25-7-.18-10.87.32-21.58,2.73-32.25,4.61-2.34.41-4.68.79-7.03,1.11l3.69-.5c-6.4.86-12.87,1.23-19.3.4l3.69.5c-.29-.04-.58-.08-.87-.12v26.79c2.66-.94,5.4-1.6,8.19-1.99l-3.69.5c3.64-.47,7.31-.47,10.95,0l-3.69-.5c3.64.5,7.18,1.44,10.57,2.85l-3.32-1.4c3.12,1.34,6.05,3.05,8.75,5.11l-2.81-2.17c2.8,2.18,5.31,4.69,7.49,7.48l-2.17-2.81c2.16,2.82,3.96,5.87,5.36,9.13l-1.4-3.32c1.49,3.56,2.42,7.27,2.96,11.09l-.5-3.69c.53,3.98.66,7.99.66,12,0,3.59.02,7.22-.45,10.79l.5-3.69c-.26,1.82-.68,3.59-1.37,5.3l1.4-3.32c-.47,1.07-1.03,2.08-1.72,3.02l2.17-2.81c-.71.91-1.5,1.71-2.41,2.43l2.81-2.17c-.98.73-2.02,1.32-3.14,1.8l3.32-1.4c-1.47.59-2.99.97-4.56,1.2l3.69-.5c-2.72.35-5.44.25-8.15-.11l3.69.5c-3.65-.52-7.31-1.44-10.72-2.84l3.32,1.4c-1.53-.66-2.97-1.44-4.3-2.44l2.81,2.17c-1.07-.85-2-1.8-2.85-2.87l2.17,2.81c-1.33-1.74-2.35-3.65-3.22-5.66l1.4,3.32c-2.28-5.43-3.71-11.24-4.52-17.06l.5,3.69c-.65-4.92-1.04-10.12-.39-15.06l-.5,3.69c.16-1,.39-1.94.76-2.88l-1.4,3.32c.33-.75.72-1.42,1.21-2.07l-2.17,2.81c.48-.6,1.01-1.12,1.6-1.61l-2.81,2.17c.88-.68,1.82-1.22,2.84-1.65l-3.32,1.4c1.27-.51,2.59-.84,3.94-1.03l-3.69.5c1.48-.17,2.94-.17,4.42,0l-3.69-.5c1.93.26,3.8.78,5.6,1.53l-3.32-1.4c1.77.77,3.41,1.76,4.94,2.93l-2.81-2.17c1.79,1.41,3.38,3.02,4.78,4.82l-2.17-2.81c1.54,2.02,2.8,4.22,3.8,6.55l-1.4-3.32c1.03,2.47,1.74,5.03,2.11,7.68l-.5-3.69c.31,2.42.34,4.85.04,7.27l.5-3.69c-.26,1.85-.71,3.63-1.41,5.36l1.4-3.32c-.66,1.55-1.48,3-2.49,4.35l2.17-2.81c-.79,1-1.65,1.9-2.66,2.69l2.81-2.17c-.71.53-1.45.97-2.25,1.34l3.32-1.4c-.7.29-1.41.5-2.16.62l3.69-.5c-.78.1-1.53.11-2.31.02l3.69.5c-.82-.12-1.58-.33-2.34-.65l3.32,1.4c-.74-.35-1.41-.76-2.06-1.26l2.81,2.17c-.73-.6-1.38-1.27-1.97-2.02l2.17,2.81c-.73-.97-1.32-2-1.81-3.11l1.4,3.32c-.54-1.3-.9-2.64-1.1-4.04l.5,3.69c-.19-1.56-.18-3.1.02-4.65l-.5,3.69c.25-1.66.7-3.26,1.34-4.82l-1.4,3.32c.71-1.66,1.62-3.2,2.71-4.64l-2.17,2.81c1.11-1.42,2.37-2.68,3.79-3.79l-2.81,2.17c1.25-.94,2.58-1.73,4.02-2.35l-3.32,1.4c1.35-.56,2.73-.95,4.17-1.17l-3.69.5c.73-.1,1.43-.16,2.16-.06l-3.69-.5c.24.04.47.12.69.23l-3.32-1.4.31.2-2.81-2.17.26.25-2.17-2.81c.16.19.28.39.38.61l-1.4-3.32c.13.36.22.7.29,1.08l-.5-3.69c.12.98.1,1.95-.01,2.93l.5-3.69c-.17,1.1-.46,2.15-.89,3.17l1.4-3.32c-.4.9-.89,1.74-1.47,2.54l2.17-2.81c-.68.88-1.45,1.65-2.33,2.33l2.81-2.17c-.2.15-.4.29-.6.42,6.8,2.77,13.6,5.53,20.41,8.3-.04-.26-.08-.52-.12-.79l.5,3.69c-.3-2.37-.3-4.75,0-7.12l-.5,3.69c.35-2.5,1.01-4.92,1.97-7.26l-1.4,3.32c.95-2.2,2.14-4.25,3.6-6.15l-2.17,2.81c1.39-1.75,2.96-3.31,4.73-4.68l-2.81,2.17c1.88-1.42,3.9-2.59,6.06-3.53l-3.32,1.4c2.29-.95,4.67-1.61,7.13-1.97l-3.69.5c1.81-.23,3.63-.3,5.45-.18v-27.78c-.56-.01-1.12-.06-1.68-.13l3.69.5c-1.12-.18-2.18-.47-3.24-.89l3.32,1.4c-.91-.4-1.75-.86-2.57-1.42-2.84-1.96-7.48-2.29-10.7-1.4s-6.71,3.38-8.3,6.38c-1.7,3.22-2.56,7.13-1.4,10.7l1.4,3.32c1.23,2.09,2.9,3.75,4.98,4.98,4.19,2.89,9.46,4.2,14.49,4.34,3.5.09,7.37-1.61,9.82-4.07s4.22-6.36,4.07-9.82-1.34-7.32-4.07-9.82-5.99-3.82-9.82-4.07c-1.69-.11-3.38-.07-5.07.13-2.71.31-5.46.63-8.09,1.4s-5.22,1.89-7.69,3.08c-1.52.74-2.98,1.61-4.35,2.61-2.15,1.57-4.33,3.2-6.19,5.12s-3.62,4.22-5.14,6.51c-.96,1.43-1.75,2.96-2.44,4.54-1.09,2.5-2.18,4.99-2.83,7.65-.71,2.93-1.12,5.98-1.25,8.99s.34,6.18.82,9.23c.66,2.35,1.85,4.4,3.57,6.13,1.26,1.35,2.75,2.31,4.47,2.87,3.86,1.63,8.73,1.74,12.36-.7,1.96-1.32,3.98-2.79,5.52-4.63,2.56-3.07,4-5.58,5.41-9.3,2.09-5.49,1.91-12.76-1.1-17.87s-8.44-7.83-14.2-7.91c-2.45-.03-5.04.43-7.4,1.12-4.74,1.39-8.5,3.74-12.29,6.81-2.81,2.27-5.17,5.27-7.03,8.34s-3.38,6.62-4.01,10.17c-.88,4.96-1.02,9.4.18,14.35,1.14,4.69,3.73,9.25,7.1,12.69,7.45,7.63,20.16,9.45,28.99,3.04,3.94-2.86,7.32-6.31,9.53-10.71,1.07-2.13,2.04-4.36,2.72-6.66s.96-4.95,1.23-7.35c.41-3.7-.06-7.29-.62-10.96-.39-2.53-1.09-4.98-2.06-7.35-1.4-3.4-2.81-6.65-5-9.61s-4.31-5.65-7.15-7.89c-1.75-1.39-3.52-2.83-5.47-3.95-2.05-1.18-4.29-2.07-6.49-2.9-3.35-1.26-7.22-1.84-10.76-1.82-4.96.04-9.52,1.24-13.92,3.48-3.91,1.99-7.78,5.71-9.64,9.7s-2.35,6.45-2.82,10.73c-.19,1.71-.2,3.44-.19,5.15.03,4.66.6,9.28,1.28,13.88.52,3.53,1.31,7.01,2.35,10.42,1.25,4.1,2.78,8.25,4.88,11.98,2.59,4.61,6.22,8.39,10.63,11.28,3.51,2.31,7.71,3.73,11.76,4.82,7.43,1.99,15.25,2.64,22.8.95,4.71-1.06,8.74-3.42,12.4-6.48s6.17-7.68,7.79-12.28c1.34-3.81,1.68-8.06,1.86-12.08.15-3.44.16-6.91.08-10.35-.18-7.83-1.06-15.95-4.07-23.24-1.54-3.71-3.13-7.3-5.41-10.61s-4.72-6.42-7.56-9.16c-5.94-5.73-12.91-9.85-20.68-12.56-4.12-1.44-8.41-2.06-12.74-2.54-3.15-.35-6.34-.34-9.48.03-4.29.51-8.44,1.12-12.51,2.56-2.92,1.03-5.29,2.49-7.22,4.98-1.81,2.34-3.12,5.37-2.98,8.42.11,2.47.74,4.83,1.9,7.01.87,1.62,2.07,2.92,3.58,3.9,1.34,1.23,2.92,2.06,4.72,2.49,5.04.74,9.99,1.25,15.08,1.03s9.96-.91,14.89-1.66c7.87-1.2,15.63-2.97,23.52-4.04l-3.69.5c6.4-.85,12.86-1.21,19.28-.37l-3.69-.5c1.9.27,3.77.61,5.55,1.33l-3.32-1.4c.77.34,1.48.73,2.16,1.24l-2.81-2.17c.46.38.86.78,1.23,1.24l-2.17-2.81c.31.43.56.86.78,1.34l-1.4-3.32c.31.79.5,1.59.62,2.43l-.5-3.69c.23,2.29.06,4.61,0,6.9-.06,2.49-.12,4.97-.18,7.46-.12,4.97-.24,9.94-.36,14.92s-.24,9.94-.36,14.92c-.11,4.51-.03,9.08-.6,13.56l.5-3.69c-.29,2.05-.75,4.04-1.53,5.96l1.4-3.32c-.53,1.21-1.18,2.33-1.97,3.39l2.17-2.81c-.86,1.09-1.84,2.05-2.94,2.91l2.81-2.17c-1.4,1.05-2.91,1.88-4.52,2.57l3.32-1.4c-3.15,1.29-6.48,2-9.84,2.47l3.69-.5c-9.8,1.32-19.81,1.65-29.69,1.89-5.18.13-10.36.15-15.54.08-4.9-.07-9.97.06-14.84-.57l3.69.5c-.89-.13-1.75-.33-2.59-.67l3.32,1.4c-.39-.18-.75-.38-1.1-.62l2.81,2.17c-.33-.26-.62-.54-.89-.87l2.17,2.81c-.21-.3-.36-.58-.51-.91l1.4,3.32c-.14-.4-.23-.76-.31-1.18l.5,3.69c-.3-2.47-.1-5.04-.1-7.53,0-2.65,0-5.3,0-7.96,0-5.3,0-10.61,0-15.91,0-10.61.01-21.22.02-31.83v-17.9c.01-3.56-1.54-7.3-4.06-9.82s-6.36-4.22-9.82-4.07-7.32,1.34-9.82,4.07-4.07,6.06-4.07,9.82h0Z"/>
  <path class="cls-2" d="M27.3,36.51c15.86-1.25,31.82-.82,47.59,1.29l-3.69-.5c7.16.97,14.27,2.28,21.31,3.93,3.59.84,7.47.49,10.7-1.4,2.88-1.69,5.63-4.99,6.38-8.3.81-3.56.63-7.55-1.4-10.7-1.92-2.98-4.76-5.55-8.3-6.38-18.68-4.37-38.01-6.62-57.19-6.41-5.14.05-10.27.29-15.4.7-3.73.29-7.1,1.35-9.82,4.07-2.41,2.41-4.22,6.36-4.07,9.82s1.34,7.32,4.07,9.82,6.18,4.36,9.82,4.07h0Z"/>
  <path class="cls-1" d="M5.08,9.83h93.81c10.87,0,19.69,8.82,19.69,19.69v70.38c0,10.9-8.85,19.75-19.75,19.75H24.83c-10.9,0-19.75-8.85-19.75-19.75V9.83h0Z"/>
  <path d="M6.37,28.69c1.09-.05,2.18-.01,3.27.12.06,0,.11.01.17.02.28.03-.14-.02.03,0,.13.02.26.04.38.06.28.05.57.1.85.16.52.11,1.04.23,1.55.38s1.02.31,1.52.5c.24.09.48.19.72.28.26.1-.12-.06.03.01.07.03.13.06.2.09.13.06.26.12.39.18.99.46,1.94,1,2.84,1.62.21.15.43.29.63.45.09.07.18.14.28.21-.16-.12,0,0,.03.03.07.05.14.11.2.16.41.33.81.68,1.2,1.05s.78.77,1.14,1.18c.17.19.34.39.5.59.09.11.18.22.27.34.02.03.12.15,0,0,.05.07.1.14.16.21.64.86,1.22,1.78,1.72,2.73.25.48.48.98.7,1.48.07.16-.09-.22.01.03.02.05.04.11.06.16.05.12.1.24.14.36.1.26.19.51.28.77.38,1.14.67,2.32.85,3.52,0,0,.04.28.02.12-.02-.14.02.18.03.21.02.14.03.29.05.43.03.3.05.6.07.9.03.62.03,1.24,0,1.85-.02.53.48,1.04,1.02,1.02.57-.03,1-.45,1.02-1.02.18-4.58-1.18-9.23-3.78-13s-6.51-6.69-10.93-8.16c-2.44-.81-5.05-1.18-7.61-1.06-.53.02-1.04.45-1.02,1.02.02.53.45,1.04,1.02,1.02h0Z"/>
  <path d="M7.25,44.17c.15-.1.31-.19.47-.27.09-.04.17-.08.26-.13.02,0,.14-.07.03-.01s.05-.02.07-.03c.34-.13.7-.24,1.06-.32.18-.04.39-.11.57-.1-.18,0-.04,0,.06,0,.11-.01.22-.02.33-.03.38-.03.76-.03,1.14-.02s.77.04,1.15.09c.1.01.2.02.3.04.12.01-.04,0-.06,0,.04,0,.09.01.13.02.2.03.4.06.6.1.76.13,1.52.3,2.27.48,1.37.33,2.74.69,4.07,1.16.34.12.69.25,1.03.38.07.03.14.06.22.09.02,0,.14.06.02,0-.13-.05.03.01.06.02.17.07.33.15.5.22.63.29,1.24.61,1.82.98.33.21.66.43.97.66.03.02.06.05.09.07.12.09-.14-.11-.03-.02.08.06.16.13.23.19.14.12.29.24.43.37.29.26.56.54.82.83.13.14.25.29.37.44.01.02.09.12.01.02s.02.03.04.05c.07.09.14.19.2.28.3.44.91.68,1.39.37.43-.28.69-.93.37-1.39-1.79-2.58-4.47-4.2-7.36-5.3-1.38-.52-2.81-.93-4.24-1.28-1.62-.4-3.26-.76-4.92-.87-1.89-.13-3.86.15-5.49,1.16-.45.28-.67.92-.37,1.39s.91.67,1.39.37h0Z"/>
  <path d="M118.13,27.1c-4.64-.82-9.47.33-13.39,2.92s-6.88,6.66-8.49,11.16c-.91,2.53-1.39,5.21-1.51,7.9-.02.53.49,1.04,1.02,1.02.57-.03.99-.45,1.02-1.02s.07-1.15.13-1.72c.01-.12.03-.24.04-.36,0-.08.02-.15.03-.22.02-.18-.04.25,0-.04s.09-.57.14-.85c.2-1.12.47-2.22.81-3.3.16-.52.35-1.03.54-1.54.05-.14.11-.28.17-.42.01-.03.08-.18,0,0,.02-.06.05-.11.07-.17.12-.28.25-.55.38-.82.48-1,1.04-1.97,1.66-2.88.15-.22.31-.44.47-.66.04-.05.07-.1.11-.14,0,0,.17-.23.08-.11s.09-.12.09-.11c.06-.07.11-.14.17-.21.35-.43.72-.85,1.11-1.25s.77-.76,1.17-1.11c.2-.17.4-.34.6-.5.05-.04.09-.07.14-.11.22-.17-.1.07.04-.03.13-.09.26-.19.39-.29.88-.63,1.81-1.19,2.78-1.66.24-.12.47-.23.71-.33.05-.02.11-.05.16-.07-.18.08-.04.02,0,0,.15-.06.3-.12.45-.18.5-.19,1.01-.36,1.53-.51.59-.17,1.18-.3,1.78-.41.14-.02.29-.05.43-.07,0,0,.28-.04.12-.02-.14.02.14-.02.17-.02.3-.03.6-.06.91-.08.61-.04,1.21-.04,1.82,0,.29.02.58.04.86.07.06,0,.12.01.17.02.25.03-.15-.02.07,0,.17.03.34.05.52.08.52.09,1.12-.14,1.25-.71.11-.5-.15-1.15-.71-1.25h0Z"/>
  <path d="M96.67,49.85c.44-.56.92-1.08,1.44-1.57.23-.21.46-.42.7-.62.13-.11.26-.22.4-.32.22-.18-.17.12.06-.05.09-.07.18-.14.27-.2.55-.4,1.13-.76,1.73-1.1.27-.15.55-.3.84-.44.15-.08.31-.15.47-.22.08-.04.16-.07.23-.11.05-.02.1-.05.16-.07-.11.05-.11.05,0,0,1.32-.54,2.69-.94,4.1-1.2.2-.04.4-.07.6-.1.1-.02.2-.03.3-.05.33-.05-.2.02.13-.02.4-.05.81-.09,1.21-.12.81-.06,1.63-.08,2.44-.07.92.01,1.83.07,2.75.16.24.02.47.05.71.08.1.01.2.03.3.04-.1-.01-.09-.01.03,0,.07,0,.13.02.2.03.47.07.94.15,1.41.23.52.09,1.12-.14,1.25-.71.11-.5-.15-1.15-.71-1.25-6.36-1.15-13.32-.87-18.82,2.89-1.36.93-2.61,2.03-3.63,3.33-.33.42-.44,1.04,0,1.44.37.34,1.09.45,1.44,0h0Z"/>
  <path d="M60.24,10.71c-.31,4.05-.96,7.97-1.9,11.98s-2.14,7.93-3.5,11.8c-.61,1.74-1.26,3.47-1.94,5.19-.31.8-.64,1.59-.96,2.38-.08.2-.16.4-.25.59-.02.05-.04.09-.06.14,0-.02.05-.12,0-.02s-.09.21-.14.32c-.17.39-.34.79-.51,1.18-1.37,3.15-2.85,6.24-4.44,9.28s-3.31,6.05-5.13,8.98-3.73,5.75-5.76,8.51c-1.06,1.45-1.93,2.58-3.02,3.94s-2.16,2.64-3.28,3.93c-2.24,2.57-4.59,5.04-7.04,7.4s-5.01,4.61-7.67,6.73c-.33.27-.67.53-1,.79-.04.03-.08.06-.12.09,0,0-.13.1-.05.04s-.05.04-.05.04c-.04.03-.08.06-.12.09-.18.14-.36.28-.55.42-.68.51-1.36,1.02-2.05,1.52-1.38,1-2.79,1.96-4.22,2.88-.7.45-1.41.9-2.13,1.34-.45.28-.67.93-.37,1.39s.91.66,1.39.37c2.94-1.8,5.78-3.74,8.52-5.82s5.43-4.32,7.99-6.67,4.95-4.77,7.27-7.31,4.59-5.29,6.72-8.06,4.08-5.54,5.95-8.43,3.66-5.89,5.32-8.92,3.21-6.14,4.65-9.3,2.79-6.42,4.02-9.69c1.44-3.85,2.74-7.77,3.8-11.74,1.08-4.05,1.9-8.17,2.38-12.33.12-1,.21-2,.29-3,.04-.53-.5-1.04-1.02-1.02-.59.03-.98.45-1.02,1.02h0Z"/>
  <path d="M61.71,10.53c.56,7.33,1.93,14.58,4.03,21.63,2.09,7.03,4.89,13.85,8.27,20.37s7.13,12.37,11.41,18.08,9,11.11,14.05,16.16c2.48,2.49,5.05,4.89,7.68,7.22s5.5,4.88,8.62,6.79c.76.46,1.54.89,2.35,1.26.48.22,1.12.15,1.39-.37.24-.45.15-1.15-.37-1.39-3.3-1.54-5.95-3.76-8.67-6.09s-5.26-4.65-7.79-7.1c-5.04-4.89-9.77-10.11-14.09-15.64-.48-.62-1.02-1.32-1.55-2.03s-1.03-1.39-1.54-2.1c-1.01-1.41-2-2.84-2.96-4.28-1.96-2.96-3.8-5.99-5.5-9.1-3.49-6.38-6.32-12.84-8.55-19.74-1.11-3.43-2.06-6.92-2.82-10.45s-1.33-7.03-1.69-10.52c-.09-.89-.17-1.78-.24-2.67-.04-.53-.44-1.05-1.02-1.02-.52.02-1.06.45-1.02,1.02h0Z"/>
  <path d="M40.43,98.73c-5.66-.38-11.52-.68-16.81,1.73-2.24,1.02-4.26,2.52-5.76,4.48-1.42,1.86-2.23,4.12-2.31,6.47-.09,2.6.78,5.26,2.66,7.11.38.37,1.07.41,1.44,0s.41-1.04,0-1.44c-.19-.18-.36-.37-.53-.58-.03-.04-.06-.08-.1-.12.14.18.03.04,0,0-.08-.11-.16-.23-.24-.35-.13-.2-.26-.42-.37-.63-.05-.1-.1-.21-.15-.31-.03-.06-.05-.12-.08-.18-.03-.07-.02-.05.03.07-.02-.05-.04-.1-.06-.14-.18-.46-.31-.93-.41-1.42-.03-.13-.05-.26-.07-.38,0-.01-.04-.27-.02-.1s0-.09-.01-.1c-.03-.26-.05-.52-.05-.79-.01-.52,0-1.06.08-1.58-.04.25.01-.08.03-.16.02-.12.04-.24.07-.35.06-.27.12-.54.2-.81.07-.24.15-.48.24-.72.02-.05.04-.1.06-.15,0,0,.1-.25.04-.1s.04-.09.04-.1c.03-.07.07-.14.1-.22.23-.49.51-.96.82-1.4.07-.11.15-.21.22-.31.03-.04.15-.19.02-.03.04-.04.07-.09.11-.13.19-.23.38-.46.59-.67.38-.4.79-.78,1.21-1.13.05-.05.11-.09.17-.13.04-.03.19-.15.03-.02.11-.09.23-.17.34-.25.23-.17.47-.33.71-.48.47-.3.96-.57,1.47-.82.25-.12.5-.24.75-.35.18-.08.03-.01,0,0,.08-.03.16-.07.24-.1.13-.05.27-.11.4-.16.54-.2,1.09-.38,1.65-.53.59-.16,1.19-.3,1.79-.41.32-.06.64-.11.96-.16.34-.05-.1,0,.1-.01.09-.01.18-.02.27-.03.18-.02.36-.04.53-.06,3.2-.31,6.41-.1,9.61.11.53.04,1.04-.49,1.02-1.02-.03-.58-.45-.98-1.02-1.02h0Z"/>
  <path d="M41.63,99.86c.12-.41.25-.82.39-1.22.07-.2.15-.4.22-.6.04-.09.07-.18.11-.27.02-.05.04-.09.06-.14,0,0,.1-.25.06-.15s.02-.05.03-.06c.02-.05.04-.09.06-.14.04-.09.08-.18.12-.27.1-.21.19-.42.3-.62.19-.38.39-.76.6-1.13.43-.76.9-1.49,1.41-2.2.12-.16.23-.32.35-.47-.09.12.08-.11.11-.14.07-.09.14-.18.22-.27.27-.33.55-.65.84-.97.59-.64,1.21-1.25,1.87-1.82.16-.14.32-.28.49-.41.08-.06.15-.12.23-.19.04-.03.08-.06.12-.09.01-.01.16-.13.09-.07-.08.06.05-.04.05-.04.05-.04.1-.08.16-.12.08-.06.16-.12.24-.17.19-.13.37-.27.56-.4.76-.52,1.57-.98,2.39-1.39.21-.1.42-.2.63-.3.1-.04.19-.09.29-.13.05-.02.1-.04.15-.06-.1.04.02,0,.05-.02.45-.18.9-.35,1.35-.5.88-.3,1.78-.54,2.68-.73.47-.1.94-.19,1.42-.26.11-.02.21-.03.32-.05-.15.02.11-.01.15-.02.25-.03.49-.06.74-.08.91-.09,1.83-.13,2.74-.12.46,0,.91.03,1.36.08.1,0,.2.02.3.03.05,0,.1.01.15.02-.02,0-.14-.02-.02,0,.23.03.46.07.69.11.86.16,1.71.4,2.53.7.19.07.37.14.55.22-.15-.06.12.05.17.07.11.05.21.1.31.14.39.18.77.38,1.14.6s.77.47,1.13.72c.16.11.33.23.49.35.09.07,0,0,0,0,.04.03.08.06.12.09.1.08.21.17.31.25.69.58,1.33,1.22,1.94,1.88,2.52,2.69,4.57,5.75,6.14,9.18.09.19.18.39.26.58.12.28.11.26.23.54.2.49.69.9,1.25.71.47-.15.93-.73.71-1.25-1.51-3.7-3.58-7.11-6.19-10.14-1.27-1.47-2.63-2.85-4.23-3.97s-3.23-1.86-5.01-2.35-3.78-.67-5.69-.59-3.95.37-5.85.89c-3.78,1.02-7.22,2.97-10.03,5.7-2.64,2.58-4.67,5.76-5.91,9.24-.15.42-.28.84-.41,1.27-.15.51.18,1.13.71,1.25s1.09-.16,1.25-.71h0Z"/>
  <path d="M82.51,100.72c.7-.11,1.23-.18,1.86-.26.67-.08,1.35-.15,2.02-.21,1.33-.11,2.66-.16,4-.12,2.41.07,4.67.42,6.98,1.27.24.09.47.18.71.28-.17-.07.19.08.24.1.13.06.26.12.39.18.51.24,1.01.51,1.5.8.46.28.9.57,1.33.89.16.12.05.04.02.01.05.04.1.08.15.12.11.09.22.18.33.27.21.18.42.37.63.56.4.38.77.78,1.12,1.2.04.05.08.1.12.15.02.02.12.15.01.02.07.1.15.2.22.3.16.23.32.46.46.7.28.47.52.95.75,1.45.07.15-.05-.14,0,.01.02.06.05.12.07.17.05.13.1.26.15.39.09.26.18.53.25.8.08.28.15.57.2.86.03.15.06.3.08.46,0,.03.03.22.01.09s.01.12.02.14c.07.6.08,1.2.05,1.8,0,.15-.02.31-.04.46,0,.06-.01.12-.02.18,0,.08,0,.06,0-.04,0,.05-.01.09-.02.14-.05.29-.1.57-.18.85-.08.3-.17.59-.27.88-.02.06-.04.12-.06.17,0,.02-.1.25-.05.13.06-.13-.06.14-.06.13-.04.08-.08.17-.12.25-.23.48-.15,1.12.37,1.39.46.24,1.14.15,1.39-.37,2.18-4.44.94-9.81-2.28-13.4s-8.35-5.44-13.23-5.79c-3.22-.23-6.45.11-9.63.59-.53.08-.87.77-.71,1.25.19.58.69.8,1.25.71h0Z"/>
  <path d="M25.64,117.26c-.11-.04-.22-.07-.32-.12.18.07-.04-.02-.11-.06-.19-.1-.37-.21-.55-.33-.05-.03-.09-.07-.14-.1.03.02.15.13,0,0-.08-.07-.15-.13-.22-.2-.16-.15-.3-.3-.44-.47-.12-.14-.02-.03,0,0-.03-.05-.07-.09-.1-.14-.06-.08-.11-.17-.17-.25-.12-.2-.24-.4-.33-.61-.03-.06-.13-.3-.05-.11-.04-.09-.07-.19-.11-.29-.08-.22-.14-.44-.19-.67-.02-.1-.04-.2-.06-.3-.03-.2,0-.03,0,.01,0-.06-.01-.12-.02-.17-.02-.22-.03-.43-.02-.65,0-.1,0-.2.02-.3,0-.06.01-.12.02-.18,0,.04-.03.19,0,0,.04-.23.09-.45.15-.68s.14-.44.22-.65c.01-.03.08-.17,0-.01.02-.04.04-.08.06-.13.06-.13.12-.25.19-.37.1-.19.21-.38.33-.56.06-.09.12-.18.19-.27.02-.02.13-.18.06-.08s.1-.12.09-.12c.3-.36.63-.7.98-1,.08-.07.17-.14.25-.21.13-.1-.11.08.02-.01.04-.03.08-.06.11-.08.2-.15.41-.28.63-.41.91-.54,1.72-.84,2.81-1.08,1.02-.22,1.98-.3,3.13-.27,1.03.03,2.05.16,3.07.29.17.02-.14-.02.03,0,.05,0,.1.01.15.02.19.03.38.05.57.08.25.03.5.07.76.1.52.06,1.04.12,1.56.16,1.03.07,2.06.05,3.08-.11,2.08-.32,3.82-1.49,5-3.23.55-.82.95-1.73,1.33-2.64.18-.44.35-.88.53-1.33.09-.22.17-.44.26-.66.04-.1.08-.2.13-.31.05-.11,0,0-.01.03.04-.09.07-.17.11-.26.36-.82.79-1.62,1.29-2.37.11-.17.23-.34.35-.51.07-.09.14-.19.21-.28,0-.01.1-.13.03-.03-.08.1.07-.08.08-.1.27-.34.55-.66.85-.97s.6-.6.92-.88c.16-.14.32-.28.48-.41.08-.06.15-.12.23-.18-.17.13.07-.05.13-.09.68-.5,1.41-.95,2.17-1.33.17-.09.35-.17.52-.25.04-.02.33-.14.22-.1-.11.05.01,0,.03-.01.06-.03.13-.05.19-.08.39-.15.78-.29,1.18-.41s.83-.23,1.25-.32c.19-.04.38-.08.57-.11.1-.02.19-.03.29-.05.03,0,.21-.03.07-.01-.15.02.11-.01.11-.01.84-.1,1.69-.13,2.53-.09.43.02.86.06,1.28.11-.23-.03.09.01.16.02.1.02.2.03.3.05.21.04.43.08.64.13.89.2,1.77.47,2.61.81.04.02.09.03.13.05-.17-.07-.02,0,0,0,.1.04.19.09.29.13.22.1.43.21.64.32.39.2.77.42,1.13.66.18.12.36.24.53.36.08.06.16.12.24.18.03.03.07.05.1.08-.17-.13,0,0,.03.02.34.27.67.56.98.86s.59.59.86.91c.13.15.25.3.37.45.03.04.07.09.1.13-.02-.03-.12-.16,0,0,.07.09.13.18.2.27.5.69.94,1.42,1.33,2.18.2.39.38.78.56,1.18.08.18.02.04,0,0,.02.05.05.11.07.16.04.1.08.19.12.29.08.21.16.42.24.63.33.91.56,1.86.91,2.77.43,1.08,1.01,2.01,1.96,2.71,1.61,1.18,3.81,1.15,5.71,1.05,2.33-.13,4.67-.22,7-.01.27.02.54.05.81.08.08,0,.15.02.23.03.12.02.04,0,.02,0,.17.02.34.05.52.08.57.09,1.14.21,1.7.35s1.07.29,1.6.47c.23.08.47.17.7.26-.16-.06.13.06.17.07.14.06.27.13.4.19.44.22.87.47,1.28.76.04.03.08.06.12.09.02.01.18.14.09.07s.07.06.09.07c.04.03.08.06.11.09.2.17.39.35.56.54.08.08.15.17.23.26.01.02.14.18.07.09-.06-.08.04.05.04.05.16.22.3.44.43.68.06.1.11.21.16.32,0,.02.09.21.05.11s.03.09.04.11c.09.24.16.48.22.72.03.13.06.26.08.4,0,0,.03.17.01.06-.02-.12,0,.09.01.11.02.25.03.5.03.76,0,.13,0,.27-.02.4,0,.05,0,.1-.01.15-.02.17.02-.14,0,.03-.04.27-.1.53-.18.79-.03.11-.07.21-.11.32-.02.06-.04.12-.07.17,0-.02.06-.14.01-.03-.11.22-.22.44-.34.66-.06.09-.11.18-.17.27-.03.05-.07.1-.11.15,0,0-.1.13-.03.05.07-.09-.05.06-.06.08-.03.04-.06.07-.09.11-.09.11-.19.21-.28.31-.16.17-.34.32-.51.47,0,0-.13.1-.04.03.09-.07-.06.04-.08.06-.09.06-.18.12-.27.18-.18.12-.37.22-.56.32-.04.02-.36.16-.18.09-.12.05-.23.09-.35.13-.5.17-.89.71-.71,1.25.16.5.71.9,1.25.71,2.08-.71,3.72-2.29,4.52-4.33s.51-4.65-.74-6.5-3.27-3.01-5.38-3.72c-2.33-.78-4.81-1.07-7.25-1.13-1.23-.03-2.45,0-3.68.06-1.06.05-2.12.14-3.17.1-.22,0-.44-.02-.66-.04-.06,0-.12-.01-.19-.02.19.02.04,0,0,0-.14-.02-.27-.05-.41-.08-.22-.05-.44-.11-.65-.18-.06-.02-.11-.04-.17-.06-.01,0-.15-.06-.04-.02.11.05-.05-.03-.08-.04-.07-.03-.13-.07-.2-.1-.1-.06-.2-.12-.3-.19-.01,0-.13-.09-.04-.03.1.07-.05-.04-.07-.06-.08-.07-.16-.14-.23-.22-.05-.05-.09-.1-.13-.14,0,0-.16-.2-.11-.13.07.09-.05-.08-.06-.1-.04-.05-.07-.11-.11-.16-.06-.1-.12-.2-.17-.3-.06-.12-.12-.24-.17-.36.07.15-.07-.17-.09-.22-.35-.93-.59-1.9-.93-2.84s-.73-1.82-1.18-2.69c-.83-1.59-1.91-3.07-3.22-4.3-2.79-2.64-6.57-4.09-10.39-4.27-3.61-.17-7.3.91-10.2,3.07-1.54,1.14-2.85,2.51-3.92,4.1s-1.77,3.53-2.52,5.37c-.02.04-.04.09-.05.13.07-.16,0-.01,0,.02-.05.12-.1.23-.15.35-.1.23-.21.45-.32.68-.22.42-.46.84-.73,1.22-.04.05-.07.1-.11.15-.09.13.09-.11,0,0-.07.08-.13.16-.2.24-.16.18-.33.36-.51.52-.03.03-.3.25-.15.13-.1.08-.21.15-.32.22-.21.14-.43.26-.66.37-.06.03-.11.05-.17.08.02,0,.14-.06.03-.01-.11.05-.23.09-.35.13-.24.08-.47.15-.72.2-.11.02-.21.05-.32.06-.05,0-.41.06-.2.03-.25.03-.51.05-.76.06-1.04.05-2.09-.04-3.12-.17-1.1-.13-1.93-.27-3.11-.4-1.11-.12-2.23-.17-3.35-.07-2.34.2-4.59.92-6.44,2.4-1.58,1.26-2.8,3.14-3.08,5.16s.33,4.16,1.76,5.68c.68.72,1.53,1.26,2.47,1.56.51.16,1.14-.19,1.25-.71.13-.56-.17-1.08-.71-1.25h0Z"/>
  <path d="M25.35,118.02c.38-1.62.95-3.08,2.02-4.19.14-.14.28-.28.43-.41.07-.06.14-.12.22-.18-.17.13.07-.05.09-.06.32-.23.66-.43,1.02-.59.08-.04.16-.08.25-.11-.21.09.07-.02.09-.03.17-.06.34-.12.51-.18.38-.12.77-.21,1.16-.29.18-.03.37-.06.55-.09.31-.05-.21.02.1-.01.09-.01.19-.02.28-.03.41-.04.83-.07,1.24-.09.81-.04,1.62-.04,2.44-.04,1.81,0,3.59-.03,5.38-.32,1.9-.31,3.77-.86,5.51-1.69,1.58-.75,3-1.85,3.89-3.38.48-.83.8-1.73,1.14-2.62.08-.2.15-.41.23-.61.04-.1.08-.2.12-.3-.08.2.04-.09.05-.1.17-.38.35-.74.55-1.11.18-.33.38-.66.59-.98.1-.16.21-.32.32-.47.06-.08.11-.15.17-.23.04-.05.08-.1.11-.15-.06.08-.06.07.02-.02.5-.61,1.03-1.19,1.62-1.72.14-.13.28-.25.43-.37.07-.06.15-.12.22-.18-.17.13.08-.06.09-.07.33-.24.67-.47,1.02-.67.32-.19.66-.37,1-.52.09-.04.17-.08.26-.12-.2.09.09-.03.11-.04.2-.08.41-.15.62-.22.35-.11.72-.21,1.08-.29.18-.04.37-.07.55-.1.3-.05-.21.02.1-.01.12-.01.25-.03.37-.04.37-.03.75-.04,1.12-.03.19,0,.37.01.56.03.09,0,.19.02.28.02.04,0,.42.06.19.02.74.11,1.46.29,2.15.56.09.03.17.07.26.1-.2-.09.07.04.09.05.17.08.33.16.5.25.35.19.69.4,1.01.64.02.01.26.2.09.06.07.06.14.12.21.18.14.12.28.24.41.37.26.25.51.52.74.8.02.03.19.25.05.05.05.07.1.13.15.2.1.13.19.27.29.41.2.3.39.61.57.93,1.39,2.44,2.17,5.2,3.78,7.52.87,1.24,1.95,2.34,3.3,3.05,1.51.8,3.2,1.1,4.9,1.16s3.39-.12,5.08-.21c.85-.05,1.7-.08,2.56-.05.4.01.81.04,1.21.09.01,0,.34.04.13.01.1.01.2.03.3.05.22.04.43.08.64.13.35.08.7.18,1.05.3.17.06.34.13.51.19.28.11-.18-.09.09.04.11.05.22.1.33.15.69.33,1.33.73,1.94,1.18.24.18-.15-.13.08.06.07.06.14.11.21.17.14.12.28.24.41.36.29.27.57.55.83.84.12.14.24.28.35.42.19.23-.11-.16.06.08.05.07.11.15.16.22.23.32.44.65.64.99.18.32.34.64.49.97.12.27-.07-.19.04.09.03.08.07.17.1.25.06.17.12.34.18.52.16.51.72.89,1.25.71.51-.16.88-.71.71-1.25-.98-3.1-3.24-5.76-6.14-7.24-1.54-.79-3.19-1.21-4.91-1.34s-3.45.03-5.17.14c-.86.06-1.72.1-2.58.1-.43,0-.86-.02-1.28-.05-.1,0-.19-.02-.29-.03-.04,0-.29-.03-.2-.02s-.15-.02-.2-.03c-.11-.02-.22-.04-.33-.06-.39-.08-.78-.17-1.16-.3-.11-.04-.21-.07-.32-.11-.05-.02-.26-.1-.11-.04-.19-.08-.38-.17-.57-.27-.34-.18-.65-.39-.96-.61.14.1.01,0-.05-.04s-.12-.1-.19-.16c-.14-.12-.28-.25-.41-.39-.24-.24-.45-.5-.67-.75-.08-.09.03.04.04.05-.02-.03-.05-.06-.07-.1-.05-.07-.1-.13-.14-.2-.1-.14-.2-.29-.3-.44-.38-.59-.72-1.21-1.03-1.84-.64-1.3-1.18-2.64-1.8-3.95s-1.39-2.63-2.39-3.73c-1.11-1.24-2.53-2.13-4.09-2.69-3.17-1.14-6.76-.72-9.66.94s-5.15,4.54-6.39,7.71c-.17.42-.32.85-.48,1.27-.04.1-.08.2-.12.3-.01.03-.11.27-.06.16-.09.21-.19.43-.3.63s-.22.41-.35.61c-.06.09-.12.18-.18.27,0,0-.1.13-.04.06.05-.07-.06.08-.07.09-.26.31-.56.6-.87.86-.03.03-.22.17-.1.08-.08.06-.16.12-.24.17-.19.13-.39.26-.59.37-.36.21-.73.4-1.11.57-.05.02-.09.04-.14.06,0,0-.15.07-.06.03s-.06.02-.06.03c-.05.02-.09.04-.14.06-.22.09-.44.17-.65.25-.48.17-.96.32-1.45.46-1.85.51-3.51.71-5.42.74-1.65.03-3.31-.04-4.96.09s-3.36.46-4.84,1.29-2.71,2.27-3.42,3.87c-.37.82-.65,1.67-.86,2.55-.12.52.16,1.13.71,1.25.52.12,1.12-.16,1.25-.71h0Z"/>
  <path d="M28.31,112.51c1.33.68,2.59,1.48,3.91,2.18s2.72,1.26,4.18,1.61c2.88.69,5.94.64,8.79-.18,2.57-.74,4.94-2.11,6.9-3.93.96-.89,1.82-1.91,2.56-3,.78-1.15,1.35-2.41,1.96-3.65.31-.64.64-1.28,1.01-1.89.17-.27.35-.54.53-.8s-.12.14.08-.1c.04-.05.08-.1.12-.15.11-.14.23-.27.36-.4.21-.22.44-.43.68-.63.15-.13.06-.05.02-.02.06-.05.13-.1.2-.14.14-.1.29-.2.44-.28.14-.08.28-.15.42-.22.03-.01.18-.08.02-.01.06-.02.12-.05.18-.07.15-.05.3-.1.45-.14.08-.02.15-.04.23-.05.05,0,.09-.02.14-.03-.1.01-.11.01-.04,0,.3-.02.59-.02.89,0-.2-.02-.04,0,0,0,.07.02.15.03.22.05.16.04.32.08.48.14.06.02.11.04.17.06-.21-.08.06.03.09.05.12.06.24.13.36.2s.23.15.35.22c-.01,0,.23.17.12.08-.08-.06.13.1.15.12.23.19.44.4.64.62.1.1.19.21.28.32.03.03.16.2.05.05.06.08.11.15.17.23.39.54.7,1.13.99,1.73.32.67.51,1.18.8,1.9s.59,1.46.92,2.17c.58,1.21,1.33,2.32,2.23,3.3,1.72,1.88,3.97,3.25,6.37,4.09,5.34,1.85,11.27.62,16.04-2.19.59-.35,1.16-.72,1.72-1.12.43-.31.68-.9.37-1.39-.28-.43-.93-.7-1.39-.37-2.31,1.64-4.68,2.79-7.39,3.44-1.37.33-2.47.47-3.92.48-.67,0-1.33-.05-1.99-.12-.18-.02.24.04-.06,0-.06,0-.12-.02-.19-.03-.16-.02-.31-.05-.46-.08-.31-.06-.62-.13-.92-.2-.58-.15-1.15-.33-1.71-.54-.15-.06-.29-.11-.44-.17.18.07-.18-.08-.23-.1-.29-.13-.57-.27-.84-.42-.54-.29-1.06-.61-1.56-.96-.11-.08-.23-.16-.34-.25-.14-.11.18.15-.05-.04-.05-.04-.1-.08-.15-.12-.24-.2-.48-.4-.7-.61-.44-.41-.86-.86-1.24-1.33-.03-.04-.15-.2-.04-.05-.04-.05-.08-.1-.11-.15-.09-.12-.18-.25-.27-.38-.18-.26-.34-.52-.5-.79-.72-1.25-1.11-2.42-1.66-3.76s-1.19-2.64-2.15-3.76c-.85-.99-1.96-1.81-3.23-2.18-2.8-.81-5.41.95-6.98,3.14-.82,1.15-1.4,2.44-2.01,3.71-.31.63-.62,1.26-.99,1.86-.15.25-.31.49-.47.74-.09.13-.18.27-.28.4-.04.05-.08.1-.11.16,0,0-.19.25-.08.1-.78.99-1.67,1.89-2.66,2.68-.05.04-.1.08-.15.12.14-.11-.03.02-.06.05-.12.09-.23.17-.35.26-.26.19-.53.37-.81.54-.54.33-1.09.63-1.66.9-.13.06-.26.12-.4.18-.19.08-.06.03-.02.01-.09.04-.18.07-.27.11-.31.12-.61.23-.93.33-.66.21-1.34.38-2.02.5-.6.11-1.19.17-1.91.2s-1.46.01-2.19-.06c-.61-.06-1.19-.15-1.89-.31s-1.34-.36-1.99-.6c-.39-.14-.48-.19-.83-.35-.36-.17-.72-.35-1.08-.54-.64-.34-1.27-.71-1.9-1.07s-1.26-.72-1.91-1.05c-.47-.24-1.13-.14-1.39.37-.25.47-.14,1.13.37,1.39h0Z"/>
</svg>