<?xml version="1.0" encoding="UTF-8"?>
<svg id="Layer_1" data-name="Layer 1" xmlns="http://www.w3.org/2000/svg" viewBox="0 0 125.05 131.38">
  <defs>
    <style>
      .cls-1 {
        fill: none;
        stroke: #000;
        stroke-linecap: round;
        stroke-linejoin: round;
        stroke-width: 3.14px;
      }

      .cls-2 {
        fill: #fec766;
      }
    </style>
  </defs>
  <path class="cls-2" d="M32.43,104.85c-.87-17.11-.49-34.3,1.78-51.3l-.5,3.69c.62-4.6,1.38-9.17,2.29-13.72.8-4,1.49-8.19,3.05-11.98l-1.4,3.32c.42-.98.92-1.9,1.55-2.76l-2.17,2.81c.43-.54.89-1.03,1.43-1.47l-2.81,2.17c.49-.37.99-.67,1.54-.94l-3.32,1.4c.78-.32,1.56-.53,2.4-.66l-3.69.5c3.95-.46,8.14.26,12.09.54,4.29.31,8.59.62,12.88.93,8.51.61,17.01,1.22,25.52,1.83,4.75.34,9.56.5,14.3,1.05l-3.69-.5c.52.08,1,.19,1.5.37l-3.32-1.4c.36.17.65.34.97.59l-2.81-2.17c.18.16.35.33.5.52l-2.17-2.81c.29.4.52.82.73,1.27l-1.4-3.32c1.24,3.18,1.69,6.81,2.32,10.16.68,3.62,1.26,7.25,1.75,10.9l-.5-3.69c2.32,17.55,2.46,35.46.13,53.02l.5-3.69c-.1.64-.23,1.23-.46,1.83l1.4-3.32c-.1.23-.22.44-.37.64l2.17-2.81c-.14.19-.31.36-.49.51l2.81-2.17c-.17.14-.36.26-.56.35l3.32-1.4c-.32.13-.61.22-.95.29l3.69-.5c-.71.09-1.4.06-2.11-.03l3.69.5c-2.07-.33-4.12-.86-6.18-1.23-3.28-.59-6.58-1.03-9.88-1.45-4.37-.56-8.78-.89-13.18-.98-9.97-.21-19.99.81-29.78,2.69-2.51.48-5,1.04-7.47,1.67s-4.83,1.54-7.29,1.99l3.69-.5c-.59.07-1.14.08-1.73,0l3.69.5c-.24-.05-.48-.11-.71-.21l3.32,1.4c-.36-.16-.68-.35-1-.59l2.81,2.17c-.22-.2-.41-.39-.6-.61l2.17,2.81c-.3-.4-.53-.82-.74-1.28l1.4,3.32c-.32-.8-.51-1.61-.64-2.45l.5,3.69c-.45-3.51-.09-7.22.12-10.74.23-3.97.62-7.92,1.15-11.86l-.5,3.69c1.76-12.98,5.09-25.7,9.93-37.87h-26.79c2.22,14.68,4.43,29.35,6.65,44.03l1.4,3.32c.87,1.62,2.07,2.92,3.58,3.9,2.34,1.81,5.37,3.12,8.42,2.98,2.47-.11,4.83-.74,7.01-1.9,2.9-1.53,5.63-5.12,6.38-8.3,3.82-16.2,7.65-32.41,11.47-48.61l3.25-13.79h-26.79c5.3,20.48,10.61,40.96,15.91,61.44,1.9,7.33,9.9,11.58,17.09,9.7,1.98-.52,3.91-1.39,5.74-2.25.9-.42,1.73-.94,2.53-1.52,1.58-1.15,3.29-2.39,4.67-3.82s2.68-3.21,3.9-4.88,2.1-3.37,2.91-5.19c1.33-3,2.56-6.01,3.47-9.16.57-1.96,1.03-3.95,1.45-5.95.82-3.92,1.62-7.95,1.67-11.96.13-9.27-4.06-17.85-11.84-22.95-.89-.59-1.88-.94-2.87-1.36s-1.94-.9-2.96-1.14c-3.74-.87-6.57-.77-10.3-.08-2.27.41-4.47,1.45-6.5,2.48-2.14,1.08-4.02,2.69-5.89,4.15-4.6,3.59-8.31,8.05-11.66,12.82s-5.69,10.01-7.79,15.38c-1.73,4.42-2.98,9.03-3.83,13.7-.34,1.89-.59,3.79-.85,5.7s-.61,3.76-.63,5.62c-.11,7.89,5.07,15.51,13.04,17.16,9.87,2.04,20.18-1.32,27.37-8.27,2.53-2.45,4.07-6.32,4.07-9.82s-1.51-7.48-4.07-9.82-6.12-4.23-9.82-4.07-7.1,1.44-9.82,4.07c-.48.47-.98.9-1.51,1.32l2.81-2.17c-1.18.89-2.44,1.62-3.8,2.2l3.32-1.4c-1.37.55-2.77.94-4.24,1.16l3.69-.5c-1.32.17-2.63.2-3.95.07l3.69.5c-.49-.07-.94-.17-1.4-.33l3.32,1.4c-.22-.09-.42-.2-.62-.34l2.81,2.17c-.19-.14-.36-.3-.51-.48l2.17,2.81c-.14-.18-.26-.37-.35-.58l1.4,3.32c-.13-.34-.21-.64-.27-1l.5,3.69c-.18-1.61.12-3.26.33-4.85l-.5,3.69c.88-6.58,2.52-13.04,5.09-19.17l-1.4,3.32c1.87-4.37,4.2-8.52,7.1-12.29l-2.17,2.81c2.37-3.04,5.07-5.79,8.13-8.16l-2.81,2.17c1.27-.96,2.59-1.8,4.05-2.43l-3.32,1.4c.79-.31,1.58-.53,2.42-.67l-3.69.5c.68-.07,1.34-.08,2.03,0l-3.69-.5c.69.11,1.34.29,1.99.56l-3.32-1.4c.63.29,1.21.64,1.77,1.06l-2.81-2.17c.65.52,1.22,1.09,1.74,1.74l-2.17-2.81c.66.86,1.2,1.78,1.63,2.78l-1.4-3.32c.45,1.12.72,2.25.89,3.44l-.5-3.69c.21,1.9.13,3.78-.1,5.68l.5-3.69c-.77,5.63-2.12,11.42-4.33,16.67l1.4-3.32c-.92,2.13-2.02,4.17-3.43,6.01l2.17-2.81c-.91,1.16-1.92,2.2-3.08,3.11l2.81-2.17c-.92.69-1.89,1.27-2.94,1.74l3.32-1.4c-.7.29-1.4.53-2.14.72,5.7,3.23,11.39,6.47,17.09,9.7-5.3-20.48-10.61-40.96-15.91-61.44l-1.4-3.32c-.87-1.62-2.07-2.92-3.58-3.9-2.34-1.81-5.37-3.12-8.42-2.98-2.47.11-4.83.74-7.01,1.9-2.9,1.53-5.63,5.12-6.38,8.3-3.82,16.2-7.65,32.41-11.47,48.61-1.08,4.6-2.17,9.19-3.25,13.79h26.79c-2.22-14.68-4.43-29.35-6.65-44.03l-1.4-3.32c-.87-1.62-2.07-2.92-3.58-3.9-2.34-1.81-5.37-3.12-8.42-2.98-2.47.11-4.83.74-7.01,1.9-1.62.87-2.92,2.07-3.9,3.58-1.23,1.34-2.06,2.92-2.49,4.72-5.33,13.41-8.53,27.29-10.42,41.57-.86,6.49-1.36,13.02-1.41,19.56-.04,4.54.76,9.03,2.95,13.04,1.47,2.69,3.92,5.1,6.53,6.66,4.23,2.52,8.97,2.78,13.67,1.86,3.59-.7,7.09-2,10.68-2.81s7.28-1.47,10.96-1.97l-3.69.5c10.9-1.44,21.95-1.45,32.86-.03l-3.69-.5c4.62.62,9.15,1.76,13.76,2.38,1.36.18,2.6.42,3.96.27,3.09-.34,5.84-.79,8.52-2.54,3-1.97,5.16-4.52,6.54-7.8.38-.9.83-1.78,1.03-2.74.33-1.52.45-3.1.65-4.63,1.13-8.71,1.66-17.5,1.64-26.28s-.6-17.44-1.73-26.08c-.7-5.36-1.47-10.7-2.49-16.01-1.16-5.98-2.21-12.13-6.56-16.75-2.1-2.23-4.63-3.56-7.48-4.54-1.89-.65-3.99-.78-5.97-.95-2.27-.2-4.55-.33-6.83-.49-4.46-.32-8.92-.64-13.38-.96-9.08-.65-18.17-1.31-27.25-1.96-4.38-.32-8.77-.71-13.16-.94-.92-.05-1.84-.07-2.76.01-2.08.18-4.33.35-6.33,1.06-1.73.61-3.59,1.3-5.11,2.4s-3.08,2.17-4.27,3.61-2.36,2.82-3.22,4.42c-.91,1.68-1.61,3.5-2.28,5.28s-1.05,3.46-1.46,5.21c-.98,4.21-1.82,8.44-2.54,12.7-3.09,18.39-4.23,37-3.63,55.63.07,2.16.16,4.32.27,6.48.19,3.67,1.42,7.18,4.07,9.82,2.41,2.41,6.36,4.22,9.82,4.07s7.32-1.34,9.82-4.07,4.26-6.13,4.07-9.82h0Z"/>
  <path class="cls-1" d="M24.68,8.43h74.12c10.87,0,19.69,8.82,19.69,19.69v90.13H4.99V28.13c0-10.87,8.82-19.69,19.69-19.69Z"/>
  <path d="M71.95,28.16c-1.34-1.96-3.14-3.63-5.33-4.59s-4.68-1.23-7.07-.71c-4.4.95-8.24,4.3-9.15,8.8s1.13,9.34,4.89,11.98,8.82,2.45,12.6.13c2.11-1.29,3.64-3.21,4.63-5.46.61-1.4,1.14-2.85,1.22-4.39.08-1.41-.28-2.79-.84-4.07-.26-.59-.58-1.15-.94-1.69-.3-.44-.91-.68-1.39-.37-.44.28-.68.92-.37,1.39.34.51.65,1.04.9,1.6,0,.02.13.3.04.1.02.06.05.11.07.17.05.14.11.29.15.43.09.29.17.58.24.88.03.15.06.3.08.45-.03-.24,0,.06,0,.09,0,.06.01.12.01.18.02.32.02.64,0,.96,0,.08-.02.17-.02.25.02-.17,0,0,0,.03-.03.16-.06.33-.09.49-.08.34-.17.68-.28,1.01-.1.3-.2.59-.31.88-.06.15-.12.3-.17.44-.08.19-.02.06,0,.02-.04.1-.09.2-.13.31-.26.58-.56,1.14-.9,1.68-.14.22-.29.5-.48.69.18-.18.01-.02-.02.03-.03.04-.06.08-.09.11-.09.11-.19.23-.29.33-.33.36-.69.7-1.07,1.01-.04.03-.08.06-.12.09-.19.15.13-.09,0,0-.09.06-.18.13-.27.2-.22.16-.45.3-.68.44-.19.11-.39.22-.58.32-.11.06-.22.11-.33.16-.06.03-.11.05-.17.08-.05.02-.31.15-.06.03-.45.21-.93.35-1.4.48-.23.06-.46.12-.69.16-.11.02-.22.04-.33.06-.07.01-.15.02-.22.04s-.29,0-.02,0c-.23,0-.47.05-.7.07-.26.02-.52.02-.78.02-.23,0-.47-.01-.7-.03-.11,0-.22-.02-.33-.03-.07,0-.15,0-.22-.03l.12.02s-.1-.01-.15-.02c-.49-.08-.97-.19-1.44-.33-.24-.07-.47-.16-.7-.25-.05-.02-.18-.07.04.02-.06-.02-.11-.05-.17-.08-.13-.06-.25-.12-.37-.18-.44-.22-.87-.48-1.28-.77-.05-.04-.1-.07-.15-.11-.16-.12-.02.01,0,0-.02.01-.27-.22-.29-.24-.19-.16-.37-.33-.55-.5s-.35-.35-.52-.54c-.08-.09-.16-.19-.24-.28-.03-.04-.06-.08-.1-.12-.07-.09-.13-.16-.03-.03-.31-.39-.58-.82-.83-1.25-.12-.22-.24-.44-.35-.66-.05-.11-.11-.23-.16-.34,0-.02-.05-.14-.06-.14.05.13.06.14.02.04l-.03-.07c-.19-.46-.34-.94-.46-1.42-.06-.24-.11-.49-.16-.73-.02-.12-.04-.25-.06-.37-.03-.19,0,.02,0,.05-.02-.08-.02-.18-.03-.26-.05-.5-.06-.99-.04-1.49.01-.22.09-.49.06-.71.03.2-.02.11,0,.01,0-.06.02-.12.03-.19.02-.14.05-.27.08-.41.11-.5.25-.99.44-1.46.02-.06.05-.12.07-.17.07-.17,0,0-.02.04.03-.11.1-.23.15-.34.12-.24.24-.48.38-.72.11-.19.23-.38.35-.56.07-.1.14-.2.21-.3,0-.01.15-.2.05-.07s.08-.1.1-.13c.31-.38.64-.73,1-1.06.16-.15.33-.29.5-.43.06-.05.11-.09.17-.14-.02.02-.18.13-.03.03.12-.09.24-.17.36-.26.41-.28.83-.53,1.27-.76.21-.11.42-.21.64-.3.18-.08.05.03,0,0,0,0,.12-.05.14-.06.14-.06.28-.11.42-.16.49-.17.99-.32,1.5-.43.13-.03.27-.06.4-.08.05,0,.11-.02.16-.03,0,0,.27-.04.11-.02s.1-.01.1-.01c.05,0,.11-.01.16-.02.16-.02.32-.03.48-.04.52-.03,1.05-.01,1.57.04.06,0,.13.02.19.02.16.02-.25-.04,0,0,.13.02.25.04.38.06.25.05.5.1.75.17s.49.14.73.23c.11.04.22.08.32.12.06.02.12.04.18.07-.23-.12,0,0,.04.02.47.21.93.45,1.36.73.22.14.44.28.65.44.04.03.08.06.13.09.21.15-.11-.09.01,0,.11.09.23.18.34.28.41.35.79.72,1.14,1.12.18.2.35.41.52.63-.13-.16-.03-.04,0-.01.05.07.1.13.15.2.08.11.16.23.24.34.3.44.91.68,1.39.37.44-.28.69-.92.37-1.39Z"/>
  <path d="M60.92,24.11c0,5.07,0,10.14,0,15.21,0,1.42,0,2.84,0,4.26,0,.53.47,1.04,1.02,1.02s1.02-.45,1.02-1.02c0-5.07,0-10.14,0-15.21,0-1.42,0-2.84,0-4.26,0-.53-.47-1.04-1.02-1.02s-1.02.45-1.02,1.02h0Z"/>
  <path d="M6.59,63.74c5.73-.27,11.47-.48,17.21-.64s11.48-.25,17.22-.28c3.24-.02,6.49-.02,9.73,0,.53,0,1.04-.47,1.02-1.02s-.45-1.02-1.02-1.02c-5.74-.03-11.48,0-17.22.08s-11.48.23-17.21.43c-3.24.12-6.48.25-9.72.4-.53.03-1.04.45-1.02,1.02.02.53.45,1.05,1.02,1.02h0Z"/>
  <path d="M49.61,62.26c.86,4.7,4.04,8.94,8.56,10.65,2.33.88,4.97,1.03,7.38.38s4.35-2.06,5.79-4.01c1.58-2.13,2.26-4.81,1.88-7.43-.08-.53-.78-.87-1.25-.71-.58.19-.79.69-.71,1.25-.04-.28.01.15.02.2.01.12.02.24.02.36.01.26,0,.53,0,.79,0,.12-.02.24-.03.35,0,.05-.01.1-.02.16-.03.27.04-.22,0,.04s-.09.52-.15.77c-.06.23-.12.46-.2.68-.04.11-.08.23-.12.34-.02.06-.05.12-.07.19-.02.05-.12.28-.02.05-.21.46-.44.91-.71,1.33-.13.2-.26.4-.41.59,0,0-.16.21-.07.09s-.07.08-.07.08c-.08.1-.17.2-.26.3-.34.39-.72.75-1.12,1.07-.04.04-.19.15-.01.01-.04.03-.08.06-.13.1-.11.08-.22.16-.33.23-.22.15-.45.29-.68.42s-.46.24-.69.35c-.18.08-.03.02,0,0-.07.03-.13.05-.2.08-.15.06-.3.11-.45.16-.52.17-1.05.31-1.59.4-.06,0-.11.02-.17.03-.29.05.22-.02-.07,0-.12.01-.23.02-.35.03-.29.02-.58.04-.87.04s-.55,0-.83-.03c-.13,0-.26-.02-.39-.03-.07,0-.14-.02-.22-.02-.08,0-.06,0,.05,0-.04,0-.09-.01-.13-.02-.56-.09-1.11-.21-1.66-.38-.25-.08-.5-.16-.74-.26-.05-.02-.11-.04-.16-.06-.26-.1.12.06-.04-.02-.15-.07-.29-.13-.44-.2-.48-.24-.95-.51-1.4-.81-.11-.08-.23-.16-.34-.24-.04-.03-.09-.07-.13-.1.17.12.05.04.01,0-.21-.17-.42-.35-.63-.53-.4-.36-.77-.74-1.12-1.15-.1-.11-.19-.23-.29-.35-.12-.15-.02-.02,0,.01-.05-.07-.1-.13-.15-.2-.18-.24-.35-.49-.51-.75-.32-.5-.61-1.02-.86-1.56-.06-.14-.13-.28-.19-.41-.08-.18,0-.02,0,.01-.03-.08-.06-.15-.09-.23-.11-.28-.21-.57-.3-.86-.18-.58-.33-1.17-.44-1.76-.1-.53-.76-.87-1.25-.71-.56.18-.81.69-.71,1.25h0Z"/>
  <path d="M72.52,62.96c5.79-.05,11.59-.05,17.38,0s11.55.15,17.32.29c3.26.08,6.52.18,9.78.29.53.02,1.04-.48,1.02-1.02-.03-.57-.45-1-1.02-1.02-5.79-.2-11.58-.35-17.38-.46s-11.55-.16-17.32-.16c-3.26,0-6.52,0-9.78.04-.53,0-1.04.47-1.02,1.02s.45,1.02,1.02,1.02h0Z"/>
  <path d="M49.33,62.6c.04,7.44.08,14.87.13,22.31s.1,14.42.18,21.63c.04,3.91.09,7.81.14,11.72,0,.53.46,1.04,1.02,1.02s1.03-.45,1.02-1.02c-.1-7.03-.17-14.07-.22-21.1s-.11-14.65-.15-21.97c-.02-4.2-.05-8.4-.07-12.59,0-.53-.47-1.04-1.02-1.02s-1.02.45-1.02,1.02h0Z"/>
  <path d="M60.65,73.02c-.01,5.79-.05,11.58-.1,17.36-.06,5.79-.13,11.57-.23,17.36-.06,3.25-.12,6.49-.19,9.74-.01.53.48,1.04,1.02,1.02s1.01-.45,1.02-1.02c.12-5.79.23-11.57.31-17.36s.14-11.57.17-17.36c.02-3.25.03-6.5.04-9.74,0-.53-.47-1.04-1.02-1.02s-1.02.45-1.02,1.02h0Z"/>
  <path d="M72.12,62.76c-.06,7.55-.12,15.09-.17,22.64-.04,7.03-.07,14.07-.05,21.1,0,4.18.03,8.35.06,12.53,0,.53.47,1.04,1.02,1.02s1.02-.45,1.02-1.02c-.06-7.29-.07-14.58-.06-21.87s.06-14.21.12-21.32c.03-4.36.07-8.72.1-13.08,0-.53-.47-1.04-1.02-1.02s-1.01.45-1.02,1.02h0Z"/>
</svg>