<?xml version="1.0" encoding="UTF-8"?>
<svg id="Layer_1" data-name="Layer 1" xmlns="http://www.w3.org/2000/svg" viewBox="0 0 125.05 131.38">
  <defs>
    <style>
      .cls-1 {
        fill: none;
        stroke: #000;
        stroke-linecap: round;
        stroke-linejoin: round;
        stroke-width: 3.14px;
      }

      .cls-2 {
        fill: #e9604d;
      }
    </style>
  </defs>
  <path class="cls-2" d="M36.09,104.36c-.49-18.52.5-37.06,2.96-55.42l-.5,3.69c.86-6.36,2.5-12.87,2.09-19.32-.29-4.61-1.15-8.39-3.15-12.52-.91-1.89-2.3-3.61-3.71-5.14-.7-.76-1.57-1.36-2.39-1.99-.91-.7-1.72-1.38-2.71-1.91-4.44-2.35-9.59-2.59-14.02,0-2.09,1.23-3.75,2.9-4.98,4.98-1.26,2.17-1.89,4.5-1.9,7.01.37,2.83.51,5.13,2.07,7.69.73,1.19,1.68,2.45,2.64,3.46,2.04,2.14,5.3,3.85,8.14,4.52,3.46.82,7.17.84,10.72,1.02,5.81.31,11.62.56,17.43.74,11.62.37,23.26.5,34.89.38,3.32-.03,6.65-.09,9.97-.17,1.66-.04,3.32-.08,4.98-.13,1.43-.04,2.88-.19,4.3-.01l-3.69-.5c.36.07.67.16,1.01.3l-3.32-1.4c.21.1.41.23.59.38l-2.81-2.17.25.25-2.17-2.81c.22.29.37.55.52.89l-1.4-3.32c.11.35.19.68.24,1.04l-.5-3.69c.22,2.24-.08,4.56-.17,6.8-.11,2.57-.22,5.13-.32,7.7-.21,5.05-.43,10.1-.64,15.14-.42,10.01-.85,20.03-1.27,30.04-.24,5.71-.48,11.42-.72,17.13l17.58-13.39c-21.93-2.99-43.95-4.21-66.07-2.92-5.96.35-11.9.87-17.83,1.55,4.63,4.63,9.26,9.26,13.89,13.89.52-20.13.12-40.27-1.24-60.36-.38-5.7-.85-11.4-1.38-17.09-5.86,4.46-11.72,8.93-17.58,13.39,4.95,1.85,10.02,2.65,15.24,3.32,4.1.53,8.24.68,12.37.62,8.5-.12,16.96-1.06,25.46-1.28,4.72-.12,9.45,0,14.14.61l-3.69-.5c3.06.42,6.07,1.05,9.03,1.96-3.4-4.46-6.8-8.93-10.2-13.39.02,9.03.04,18.07.06,27.1.01,4.48.02,8.95.03,13.43l.02,6.71c0,2.16.19,4.4-.04,6.55l.5-3.69c-.03.23-.09.46-.18.67l1.4-3.32-.16.3,2.17-2.81c-.12.19-.28.35-.47.48l2.81-2.17-.29.16,3.32-1.4c-1.03.4-2.18.46-3.26.62-1.29.19-2.59.37-3.89.54l3.69-.5c-7.13.95-14.29,1.71-21.47,2.26-3.59.28-7.18.5-10.77.67-1.72.08-3.43.15-5.15.21s-3.44.24-5.12.06l3.69.5c-.23-.03-.46-.09-.68-.16l3.32,1.4c-.22-.07-.42-.18-.61-.31l2.81,2.17c-.2-.14-.36-.31-.5-.51l2.17,2.81-.18-.31,1.4,3.32c-.15-.36-.23-.69-.3-1.07l.5,3.69c-.41-3.97-.15-8.1-.13-12.08.02-4.23.09-8.46.21-12.68s.28-8.29.5-12.43.32-8.31.81-12.42l-.5,3.69c.07-.39.16-.71.3-1.07l-1.4,3.32.18-.31-2.17,2.81.24-.27-2.81,2.17c.17-.15.36-.27.57-.36l-3.32,1.4c.21-.09.43-.15.66-.18l-3.69.5c2.24-.25,4.64.12,6.89.23,2.49.12,4.98.24,7.47.36,4.77.23,9.63.22,14.38.74l-3.69-.5c.71.1,1.38.25,2.04.53l-3.32-1.4c.31.16.58.32.86.54l-2.81-2.17c.18.15.33.31.48.49l-2.17-2.81c.15.2.28.41.39.64l-1.4-3.32c.19.48.31.94.38,1.45l-.5-3.69c.3,3.24-.09,6.64-.2,9.88-.12,3.48-.25,6.95-.4,10.43-.29,6.95-.64,13.9-1.04,20.84,5.86-4.46,11.72-8.93,17.58-13.39-2.24-.62-4.48-1.25-6.72-1.87-2.03-.56-4.15-1.01-6.1-1.82l3.32,1.4c-.48-.23-.92-.48-1.35-.79l2.81,2.17c-.29-.25-.54-.49-.79-.78l2.17,2.81c-.29-.39-.52-.78-.73-1.22l1.4,3.32c-.43-1.03-.65-2.1-.8-3.2l.5,3.69c-.75-6.19-1.26-12.43-1.88-18.63.07-1.91-.33-3.7-1.2-5.35-.56-1.72-1.52-3.21-2.87-4.47-2.41-2.41-6.36-4.22-9.82-4.07s-7.32,1.34-9.82,4.07c-2.35,2.56-4.43,6.22-4.07,9.82s.75,7.47,1.12,11.2c.19,1.87.37,3.73.56,5.6.26,2.56.39,5.23,1.12,7.7.98,3.34,2.7,6.42,5.16,8.9,2.64,2.66,6.12,4.23,9.66,5.26s7.29,2.03,10.94,3.04c4.29,1.19,8.65.19,12.11-2.49,3.57-2.76,5.22-6.43,5.47-10.91.48-8.43.89-16.87,1.22-25.31.16-4.22.31-8.44.43-12.66.03-.93.08-1.86.02-2.79-.17-2.75-.59-4.75-1.62-7.19-2.11-4.99-6.24-8.36-11.37-9.96-1.79-.55-3.79-.67-5.63-.83-.96-.08-1.92-.11-2.88-.15-2.16-.11-4.32-.21-6.47-.32-4.23-.21-8.47-.41-12.7-.62-1.91-.09-3.88-.34-5.79-.23-3,.16-5.87.74-8.45,2.37-3.42,2.16-5.93,5.44-7.08,9.33-.53,1.81-.63,3.79-.77,5.67-.08,1.07-.15,2.15-.23,3.23-.14,2.15-.28,4.3-.39,6.45-.46,8.44-.72,16.9-.78,25.35-.03,4.18-.13,8.39.07,12.56.12,2.62.55,4.82,1.55,7.19,1.35,3.2,3.61,5.9,6.66,7.64,3.44,1.97,7.31,2.32,11.17,2.2,8.42-.25,16.83-.78,25.21-1.59,4.15-.4,8.3-.87,12.43-1.4,3.1-.4,6.19-.81,9.28-1.26,3.82-.55,7.46-1.86,10.15-4.84,1.72-1.9,2.97-3.97,3.73-6.43.43-1.39.54-2.93.67-4.37.1-1.02.05-2.04.05-3.06v-6.22c-.02-4.23-.03-8.45-.04-12.68-.02-8.45-.04-16.91-.06-25.36,0-2.16,0-4.31-.01-6.47-.01-6.25-4.33-11.59-10.2-13.39-16.8-5.16-34.1-2.18-51.26-1.8-4.56.1-9.12-.03-13.64-.63l3.69.5c-3.87-.54-7.67-1.43-11.34-2.8-4.06-1.51-8.87-.02-12.11,2.49s-5.87,6.66-5.47,10.91c1.88,20.04,2.84,40.17,2.84,60.3,0,5.72-.08,11.43-.22,17.15-.09,3.35,1.58,7.53,4.07,9.82s6.24,4.48,9.82,4.07c20.46-2.34,41.14-2.73,61.68-1.12,5.87.46,11.72,1.08,17.55,1.86l-3.69-.5c.32.04.65.09.97.13,2.46.66,4.92.66,7.39,0,1.81-.43,3.38-1.26,4.72-2.49,3.54-2.73,5.29-6.44,5.47-10.91.9-21.43,1.81-42.87,2.71-64.3.12-2.73.23-5.46.35-8.19.18-4.36.08-8.79-2.21-12.69-3.3-5.61-9.28-8.53-15.67-8.45-2.61.03-5.22.15-7.83.21-10.8.24-21.6.28-32.4.09-5.98-.1-11.96-.27-17.94-.5s-12.07-.29-18.03-.92l3.69.5c-.63-.09-1.24-.22-1.84-.44l3.32,1.4c-.37-.16-.69-.34-1.01-.58l2.81,2.17c-.14-.12-.26-.25-.37-.39l2.17,2.81c-.11-.14-.19-.3-.25-.47l1.4,3.32-.08-.27.5,3.69-.04-.29c-6.97,4-13.93,8-20.9,11.99.46.24.89.51,1.31.82l-2.81-2.17c.55.44,1.02.92,1.46,1.46l-2.17-2.81c.47.64.86,1.31,1.18,2.04l-1.4-3.32c.48,1.16.78,2.36.97,3.61l-.5-3.69c.39,2.88.2,5.8-.18,8.67l.5-3.69c-1.28,9.3-2.66,18.56-3.48,27.91-.74,8.41-1.18,16.84-1.3,25.28-.07,4.83-.04,9.67.09,14.5.1,3.62,1.48,7.24,4.07,9.82,2.41,2.41,6.36,4.22,9.82,4.07s7.32-1.34,9.82-4.07,4.17-6.09,4.07-9.82h0Z"/>
  <g>
    <path d="M90.07,119.79c.06-.24.14-.47.24-.7l-.1.24c.19-.45.44-.88.74-1.26l-.16.21c.31-.4.67-.75,1.07-1.06l-.21.16c.4-.31.84-.56,1.3-.76l-.24.1c.45-.19.93-.32,1.41-.39l-.27.04c.47-.06.93-.06,1.4,0l-.27-.04c.49.07.97.2,1.43.39l-.24-.1c.48.21.93.47,1.35.79l-.21-.16c.39.31.74.66,1.05,1.05l-.16-.21c.29.37.53.78.71,1.21l-.1-.24c.05.11.09.22.13.33.09.25.23.47.47.61.22.13.54.18.79.1.5-.16.9-.71.71-1.25-.74-2.13-2.56-3.8-4.74-4.36-1.08-.28-2.23-.28-3.31.03s-2.05.87-2.85,1.63c-.89.83-1.57,1.93-1.88,3.11-.14.51.17,1.13.71,1.25s1.11-.16,1.25-.71h0Z"/>
    <path d="M100.74,119.19c.04-.13.08-.26.14-.38l-.1.24c.12-.28.28-.54.47-.79l-.16.21c.22-.28.47-.52.75-.73l-.21.16c.39-.3.82-.53,1.27-.73l-.24.1c.68-.29,1.4-.47,2.14-.57l-.27.04c.77-.1,1.57-.13,2.34-.03l-.27-.04c.42.06.83.16,1.22.32l-.24-.1c.29.13.57.29.82.48l-.21-.16c.21.16.4.35.56.56l-.16-.21c.15.19.27.39.36.61l-.1-.24c.04.09.07.19.1.28.07.25.24.48.47.61s.54.18.79.1c.52-.17.87-.7.71-1.25-.3-1.03-1.06-1.89-2-2.39-1.02-.55-2.2-.7-3.35-.67-.9.03-1.81.15-2.67.41-.8.24-1.6.59-2.27,1.1-.22.17-.44.34-.64.54s-.38.42-.54.65c-.29.4-.5.86-.64,1.33-.15.51.18,1.13.71,1.25s1.09-.16,1.25-.71h0Z"/>
    <path d="M94.53,114.85c.12-1.15-.5-2.26-1.26-3.06-.6-.63-1.35-1.15-2.15-1.5-.44-.19-.87-.35-1.34-.46s-.93-.17-1.39-.2c-.86-.06-1.74.04-2.57.28-1.01.29-1.93.79-2.74,1.47-.19.16-.3.48-.3.72s.11.55.3.72.45.31.72.3.5-.12.72-.3c.07-.06.14-.12.21-.17l-.21.16c.4-.31.84-.56,1.31-.76l-.24.1c.54-.23,1.11-.38,1.69-.46l-.27.04c.62-.08,1.24-.08,1.86,0l-.27-.04c.58.08,1.15.23,1.69.46l-.24-.1c.48.2.93.46,1.34.78l-.21-.16c.34.26.65.56.92.91l-.16-.21c.19.25.36.52.48.81l-.1-.24c.09.21.15.43.19.66l-.04-.27c.02.18.03.36,0,.54-.03.24.13.55.3.72.18.18.47.31.72.3s.54-.1.72-.3l.16-.21c.09-.16.14-.33.14-.51h0Z"/>
    <path d="M95.33,114.85v-.04c0,.09-.02.18-.03.27.06-.42.17-.83.33-1.22l-.1.24c.18-.44.42-.84.71-1.22l-.16.21c.3-.38.65-.73,1.03-1.03l-.21.16c.39-.3.81-.54,1.25-.74l-.24.1c.42-.18.87-.3,1.32-.37l-.27.04c.42-.06.84-.06,1.26,0l-.27-.04c.44.06.87.18,1.28.35l-.24-.1c.45.19.86.44,1.24.73l-.21-.16c.38.3.73.64,1.02,1.02l-.16-.21c.3.38.54.8.73,1.24l-.1-.24c.17.41.29.84.35,1.28l-.04-.27c.02.12.03.25.03.37.01.27.1.53.3.72.18.18.47.31.72.3s.54-.1.72-.3.31-.45.3-.72c-.07-1.2-.48-2.39-1.21-3.35-.36-.48-.75-.92-1.23-1.29-.26-.21-.53-.41-.82-.58s-.6-.3-.91-.43c-1.12-.46-2.37-.52-3.54-.24s-2.25.92-3.09,1.77c-.46.46-.87,1-1.17,1.59-.17.33-.32.68-.43,1.03s-.17.73-.22,1.11c-.03.24.14.56.3.72.18.18.47.31.72.3s.54-.1.72-.3l.16-.21c.09-.16.14-.33.14-.51h0Z"/>
    <path d="M110.81,119.79c.06-.24.14-.48.24-.71l-.1.24c.19-.45.44-.87.74-1.25l-.16.21c.31-.39.66-.75,1.06-1.05l-.21.16c.4-.31.85-.57,1.32-.77l-.24.1c.45-.19.92-.32,1.4-.39l-.27.04c.42-.06.85-.06,1.27-.06.35,0,.7.01,1.05.06l-.27-.04c.29.04.57.1.83.22l-.24-.1c.17.08.34.17.49.29l-.21-.16c.16.13.31.28.43.44l-.16-.21c.21.28.37.59.51.91l-.1-.24c.07.16.13.32.18.49.09.25.23.47.47.61.22.13.54.18.79.1s.48-.23.61-.47.19-.53.1-.79c-.28-.83-.67-1.72-1.38-2.28-.37-.3-.75-.51-1.21-.65-.4-.12-.83-.17-1.25-.2s-.84-.02-1.26,0c-.55.02-1.11.09-1.65.24-1.06.3-2.04.87-2.85,1.63-.89.83-1.57,1.93-1.88,3.11-.07.26-.03.55.1.79.12.21.37.41.61.47.26.06.55.05.79-.1s.4-.35.47-.61h0Z"/>
    <path d="M105.87,114.85v-.04c0,.09-.02.18-.03.27.06-.42.17-.83.33-1.22l-.1.24c.18-.44.42-.84.71-1.22l-.16.21c.3-.38.65-.73,1.03-1.03l-.21.16c.39-.3.81-.54,1.25-.74l-.24.1c.42-.18.87-.3,1.32-.37l-.27.04c.42-.06.84-.06,1.26,0l-.27-.04c.44.06.87.18,1.28.35l-.24-.1c.45.19.86.44,1.24.73l-.21-.16c.38.3.73.64,1.02,1.02l-.16-.21c.3.38.54.8.73,1.24l-.1-.24c.17.41.29.84.35,1.28l-.04-.27c.02.12.03.25.03.37.01.27.1.53.3.72.18.18.47.31.72.3s.54-.1.72-.3.31-.45.3-.72c-.07-1.2-.48-2.39-1.21-3.35-.36-.48-.75-.92-1.23-1.29-.26-.21-.53-.41-.82-.58s-.6-.3-.91-.43c-1.12-.46-2.37-.52-3.54-.24s-2.25.92-3.09,1.77c-.46.46-.87,1-1.17,1.59-.17.33-.32.68-.43,1.03s-.17.73-.22,1.11c-.03.24.14.56.3.72.18.18.47.31.72.3s.54-.1.72-.3l.16-.21c.09-.16.14-.33.14-.51h0Z"/>
    <g>
      <rect class="cls-1" x="5.41" y="10.95" width="113.51" height="109.83"/>
      <path d="M6.97,95.56s-.02-.17-.01-.07c.01.12,0-.09,0-.12,0-.1,0-.2,0-.3,0-.12.01-.23.02-.35-.01.17.02-.11.03-.17.04-.21.1-.42.17-.63.02-.05.03-.1.05-.14,0-.02.08-.22.04-.11-.04.09.03-.06.03-.07.03-.06.06-.12.09-.19.21-.42.45-.83.72-1.22.13-.19.27-.38.41-.56-.07.09.11-.14.14-.17.08-.1.16-.19.23-.29,1.22-1.46,2.51-2.88,3.91-4.17.35-.32.71-.63,1.07-.94.09-.08.19-.15.29-.23,0,0,.13-.1.06-.05s.07-.05.06-.05c.2-.15.39-.29.59-.43.77-.54,1.59-1.02,2.45-1.41.21-.09.31-.14.59-.24.24-.09.49-.18.74-.26.48-.15.96-.29,1.45-.4,1.02-.24,1.88-.36,2.84-.46,2.09-.21,4.19-.24,6.29-.3,2.24-.06,4.49-.11,6.73-.15,4.49-.08,8.98-.11,13.47-.09,2.25,0,4.49.03,6.74.06s4.43.02,6.64.16c1.06.07,1.9.18,2.95.46.47.13.93.28,1.38.46.05.02.1.04.15.06-.02,0-.11-.05,0,0,.11.05.23.1.34.15.22.11.44.22.66.34.42.23.83.48,1.23.74.19.13.38.26.57.4.09.06.17.13.26.19.01,0,.15.11.05.04.06.04.11.09.17.13.73.58,1.43,1.22,2.08,1.89.32.34.63.68.93,1.04.15.17.29.35.43.53,0,0,.1.13.05.06s.05.07.05.06c.08.11.17.22.25.34.56.77,1.07,1.57,1.53,2.4.23.42.44.84.65,1.27.1.21.19.41.28.62-.05-.12.04.11.06.14.05.13.1.26.15.39.31.82.57,1.65.78,2.5.1.4.19.8.26,1.21.04.19.07.38.1.58.02.1.03.21.05.31,0,.04.01.09.02.13-.01-.1-.01-.11,0,0,.1.78.15,1.57.16,2.36s-.03,1.54-.11,2.31c-.01.1-.02.2-.03.29,0,.04-.01.08-.02.13,0-.01.03-.18,0-.06-.03.19-.06.39-.09.58-.06.37-.14.74-.22,1.11-.17.74-.39,1.48-.65,2.19-.06.17-.12.34-.19.5-.03.08-.06.15-.09.23-.02.04-.03.08-.05.11-.06.14.1-.22,0,.02-.15.34-.3.68-.47,1.01-.33.67-.7,1.31-1.11,1.94-.2.31-.42.62-.64.92-.05.07-.1.13-.15.2-.03.04-.07.09-.1.13,0,0,.1-.13.03-.04-.12.15-.24.3-.37.45-.97,1.17-2.07,2.23-3.27,3.17-.09.07.03-.02.04-.03-.03.03-.07.05-.1.08-.08.06-.16.12-.24.18-.16.12-.33.24-.49.35-.32.22-.65.44-.98.64-.68.42-1.38.8-2.09,1.14-.17.08-.35.17-.53.25-.1.04-.19.09-.29.13-.04.02-.08.04-.12.05.01,0,.14-.06.04-.02-.38.15-.76.3-1.15.44-.5.18-.89.7-.71,1.25.16.49.72.9,1.25.71,3.19-1.15,6.15-2.9,8.59-5.27,2.31-2.24,4.08-4.99,5.17-8.02s1.42-6.35,1.01-9.55c-.49-3.8-1.9-7.43-4.17-10.53s-5.67-6.16-9.6-7.28c-2.15-.61-4.41-.63-6.62-.68-2.33-.05-4.66-.08-6.99-.1-4.64-.04-9.27-.03-13.91.03s-9.18.11-13.76.34c-2.13.1-4.28.3-6.34.87s-3.86,1.47-5.52,2.71-3.07,2.64-4.43,4.15-2.79,3.06-3.57,4.97c-.39.98-.49,2.01-.32,3.04.09.53.77.87,1.25.71.57-.19.8-.69.71-1.25h0Z"/>
      <path d="M59.56,100.1c-7.03.12-14.06.08-21.09,0s-13.97-.19-20.96-.22c-3.96-.01-7.92,0-11.88.07-.53,0-1.04.46-1.02,1.02s.45,1.03,1.02,1.02c7.03-.12,14.06-.08,21.09,0s13.97.19,20.96.22c3.96.01,7.92,0,11.88-.07.53,0,1.04-.46,1.02-1.02s-.45-1.03-1.02-1.02h0Z"/>
      <path d="M26.1,55.17c-.03.22.02-.14.03-.19.02-.12.04-.24.06-.36.05-.24.1-.48.16-.72.12-.48.26-.95.42-1.41.08-.22.16-.43.24-.65.01-.03.08-.2.04-.09s.03-.06.04-.09c.06-.13.11-.25.17-.38.21-.44.44-.88.69-1.3s.5-.81.78-1.2c.07-.1.14-.2.22-.3.03-.04.21-.27.09-.12.16-.21.33-.41.5-.61.64-.74,1.34-1.42,2.09-2.05.1-.08.19-.16.29-.23.02-.02.15-.12.01-.01.05-.04.1-.08.15-.11.2-.15.4-.29.6-.43.41-.28.83-.54,1.26-.79.98-.55,1.75-.89,2.78-1.24s2.17-.62,3.28-.79c.02,0,.24-.03.13-.02s.11-.01.13-.02c.12-.02.25-.03.37-.04.3-.03.61-.06.91-.07.57-.03,1.15-.04,1.72-.03,2.51.06,4.92.56,7.36,1.51.5.19,1.14-.21,1.25-.71.13-.58-.18-1.05-.71-1.25-4.53-1.76-9.7-2.13-14.38-.74-4.21,1.25-7.89,3.98-10.27,7.68-1.32,2.05-2.15,4.36-2.47,6.77-.07.53.52,1.04,1.02,1.02.61-.03.94-.45,1.02-1.02h0Z"/>
      <path d="M24.84,56.63c4.52,1.46,9.54,1.64,14.09.19,4.11-1.31,7.7-3.94,10.12-7.52,1.29-1.91,2.21-4.09,2.61-6.36.09-.52-.14-1.12-.71-1.25-.5-.11-1.15.15-1.25.71-.17.94-.42,1.87-.76,2.76-.04.12-.09.23-.14.34-.01.03-.08.18,0,.01-.02.04-.04.08-.06.13-.11.24-.22.48-.33.71-.21.41-.43.82-.67,1.21-.26.42-.53.83-.82,1.23-.06.09-.13.17-.19.26-.1.13.09-.11-.01.01-.04.05-.08.1-.12.15-.16.19-.31.38-.48.57-.63.72-1.33,1.4-2.07,2.01-.08.07-.17.14-.25.21-.05.04-.1.08-.15.12.14-.11.01,0-.02.01-.2.15-.4.3-.6.44-.4.27-.8.53-1.22.77s-.84.47-1.27.67c-.54.25-.83.37-1.39.58-1.07.39-2.16.68-3.28.88-1.01.18-2.03.28-3.17.3-.61.01-1.23,0-1.84-.04-.33-.02-.65-.05-.97-.08-.16-.02-.32-.04-.49-.06-.12-.02-.02,0,0,0-.09-.01-.18-.03-.27-.04-1.27-.19-2.52-.49-3.75-.89-.51-.16-1.13.19-1.25.71-.13.56.17,1.08.71,1.25h0Z"/>
      <path d="M26.02,56.42c6.35-3.2,12.69-6.41,19.04-9.61,1.79-.9,3.58-1.81,5.37-2.71.48-.24.65-.95.37-1.39-.31-.49-.88-.62-1.39-.37-6.35,3.2-12.69,6.41-19.04,9.61-1.79.9-3.58,1.81-5.37,2.71-.48.24-.65.95-.37,1.39.31.49.88.62,1.39.37h0Z"/>
      <path d="M90.19,119.35c-.92-.72-1.77-1.51-2.54-2.38-.19-.21-.37-.43-.55-.65-.08-.1-.17-.21-.25-.31-.18-.23.07.1-.03-.04-.05-.07-.11-.14-.16-.22-.35-.47-.67-.95-.98-1.45s-.59-1.01-.85-1.53c-.13-.25-.25-.51-.37-.77-.06-.12-.11-.25-.16-.37-.02-.05-.1-.23-.02-.05-.03-.08-.07-.17-.1-.25-.43-1.08-.78-2.2-1.03-3.33-.06-.26-.11-.53-.16-.79-.03-.15-.05-.29-.07-.44,0-.06-.02-.12-.03-.18-.01-.08-.04-.27-.01-.08-.08-.59-.13-1.18-.15-1.78-.02-.56-.02-1.13,0-1.69.01-.28.03-.56.06-.84.01-.13.03-.27.04-.4,0-.07.02-.15.03-.22,0-.04.01-.09.02-.13-.01.11-.02.13,0,.05.19-1.15.44-2.27.82-3.37.09-.27.2-.53.3-.79.01-.04.07-.18,0,0,.03-.07.06-.13.09-.2.06-.15.13-.29.2-.44.23-.49.49-.98.77-1.45s.61-.96.95-1.42c.03-.05.07-.09.1-.14.16-.22-.08.1.02-.03.08-.1.16-.2.24-.3.18-.22.36-.43.55-.64.38-.42.78-.81,1.19-1.19.19-.17.38-.34.57-.5.11-.09.22-.18.33-.27.04-.03.09-.07.13-.1-.18.14.04-.03.06-.05.88-.66,1.83-1.24,2.82-1.73.23-.11.46-.22.7-.33.07-.03.13-.06.2-.09.05-.02.23-.1.03-.02.13-.06.27-.11.4-.16.54-.21,1.09-.4,1.64-.56s1.08-.29,1.62-.4c.28-.06.55-.11.83-.15.13-.02.26-.04.4-.06.29-.04-.14.02.04,0,.1-.01.21-.03.31-.04,1.17-.13,2.34-.17,3.51-.11.58.03,1.18.04,1.75.15-.35-.07-.01,0,.07.01.08.01.15.03.23.04.21.04.41.08.62.12.81.18,1.61.44,2.38.75.06.03.13.05.19.08-.02,0-.22-.09-.05-.02.11.05.22.09.32.14.22.1.44.2.65.31.42.21.84.44,1.25.69.45.27.89.56,1.32.87.2.14.4.29.59.44-.16-.12-.04-.03,0,0,.07.05.13.1.2.16.11.09.22.18.33.27.9.75,1.74,1.57,2.51,2.45.19.22.38.43.56.66.1.13.21.25.31.38.04.05.08.1.12.15.07.09.08.1.02.03.03.04.06.08.09.12.4.53.79,1.08,1.15,1.64s.72,1.17,1.06,1.77c.26.47.94.66,1.39.37s.64-.9.37-1.39c-2.4-4.32-5.89-8.21-10.37-10.42-1.68-.83-3.45-1.41-5.31-1.65-2.47-.32-4.99-.21-7.42.3-4.68.97-8.94,3.58-11.79,7.43-2.91,3.92-4.01,8.98-3.38,13.79.65,4.91,2.92,9.61,6.54,13.02.43.41.89.8,1.36,1.16.42.33,1.04.44,1.44,0,.34-.37.45-1.09,0-1.44h0Z"/>
      <path d="M116.55,114.73c0-.17.02-.33.04-.5l-.04.27c.06-.46.19-.91.37-1.35l-.1.24c.19-.45.44-.88.74-1.27l-.16.21c.29-.38.63-.72,1.01-1.01l-.21.16c.36-.27.75-.5,1.16-.68l-.24.1c.06-.03.12-.05.18-.07.13-.03.25-.09.35-.18.11-.07.2-.17.26-.29.07-.12.11-.24.12-.38.03-.14.02-.27-.02-.41-.08-.25-.23-.48-.47-.61l-.24-.1c-.18-.05-.36-.05-.54,0-.47.18-.93.39-1.34.68s-.8.6-1.14.97c-.68.74-1.19,1.61-1.5,2.56-.17.53-.26,1.09-.28,1.65,0,.14.02.27.09.39.04.13.11.24.21.33.09.1.2.17.33.21.12.06.25.09.39.09.26-.01.54-.1.72-.3s.29-.44.3-.72h0Z"/>
      <path d="M111.6,109.79c.06-.31.15-.61.27-.9l-.1.24c.17-.4.39-.77.66-1.11l-.16.21c.31-.4.67-.76,1.08-1.07l-.21.16c.44-.34.93-.62,1.44-.84l-.24.1c.42-.18.85-.31,1.3-.37l-.27.04c.3-.04.6-.05.91,0l-.27-.04c.21.03.41.08.6.16l-.24-.1c.06.03.12.06.18.09.24.13.52.18.79.1.24-.07.49-.25.61-.47.12-.24.19-.52.1-.79-.08-.25-.23-.48-.47-.61-1.39-.75-3.05-.37-4.39.3-.58.29-1.12.67-1.61,1.1s-.87.9-1.2,1.42c-.2.32-.36.66-.5,1.01-.11.27-.19.55-.24.83s-.04.54.1.79c.12.21.37.41.61.47.26.06.55.05.79-.1.21-.14.42-.35.47-.61h0Z"/>
      <path d="M100.41,109.54c-.02-.27-.02-.54.02-.81l-.04.27c.05-.35.14-.7.28-1.03l-.1.24c.16-.37.36-.71.61-1.03l-.16.21c.27-.34.57-.64.91-.91l-.21.16c.33-.25.7-.47,1.08-.63l-.24.1c.41-.17.85-.29,1.29-.35l-.27.04c.54-.07,1.08-.07,1.62,0l-.27-.04c.65.09,1.28.27,1.88.52l-.24-.1c.61.26,1.2.59,1.73.99l-.21-.16c.32.25.62.53.87.85l-.16-.21c.17.23.32.47.44.73l-.1-.24c.08.19.14.38.17.58l-.04-.27c.02.16.02.32,0,.48l.04-.27c-.02.12-.05.24-.09.36-.17.51.2,1.14.71,1.25.56.13,1.07-.17,1.25-.71.46-1.37-.32-2.8-1.32-3.71s-2.16-1.49-3.39-1.84-2.59-.41-3.85-.07c-1.12.3-2.18.97-2.92,1.86-.87,1.04-1.44,2.36-1.32,3.74.02.28.1.52.3.72.18.18.47.31.72.3s.54-.1.72-.3c.17-.19.32-.45.3-.72h0Z"/>
      <path d="M89.49,109.41c-.07-.2-.12-.4-.15-.6l.04.27c-.03-.26-.03-.52,0-.78l-.04.27c.04-.31.12-.6.24-.89l-.1.24c.13-.3.29-.58.48-.84l-.16.21c.21-.28.46-.52.74-.73l-.21.16c.34-.26.72-.47,1.12-.65l-.24.1c.57-.24,1.17-.39,1.78-.48l-.27.04c.69-.09,1.38-.1,2.07-.01l-.27-.04c.57.08,1.13.22,1.67.45l-.24-.1c.42.18.82.41,1.18.68l-.21-.16c.35.27.67.59.94.94l-.16-.21c.24.32.45.66.6,1.03l-.1-.24c.14.34.25.7.3,1.07l-.04-.27c.01.08.02.16.03.25.02.27.1.52.3.72.18.18.47.31.72.3s.54-.1.72-.3.32-.45.3-.72c-.06-.7-.23-1.33-.52-1.96-.25-.55-.62-1.05-1.03-1.48-.87-.92-2.04-1.55-3.26-1.84-1.31-.3-2.68-.28-3.99.03-.63.15-1.25.38-1.82.7s-1.07.7-1.46,1.18c-.48.58-.85,1.24-1.02,1.98s-.16,1.51.1,2.21c.09.25.23.47.47.61.22.13.54.18.79.1s.48-.23.61-.47.2-.53.1-.79h0Z"/>
      <path d="M88.84,109.33c-.02-.34-.07-.69-.15-1.02s-.21-.65-.34-.96c-.23-.55-.57-1.04-.95-1.5s-.85-.86-1.35-1.2c-.21-.15-.44-.28-.67-.39-.3-.15-.62-.28-.94-.39-.27-.09-.56-.15-.84-.19-.38-.05-.75-.09-1.14-.07-.14,0-.27.02-.39.09-.13.04-.24.11-.33.21-.1.09-.17.2-.21.33-.06.12-.09.25-.09.39.01.26.1.54.3.72s.45.31.72.3c.29-.02.58,0,.87.03l-.27-.04c.43.06.86.18,1.26.35l-.24-.1c.43.18.83.42,1.2.7l-.21-.16c.37.29.71.63,1,1l-.16-.21c.27.35.5.74.67,1.15l-.1-.24c.16.38.27.78.33,1.19l-.04-.27c.01.09.02.19.03.28,0,.14.02.27.09.39.04.13.11.24.21.33.09.1.2.17.33.21.12.06.25.09.39.09.26-.01.54-.1.72-.3s.32-.45.3-.72h0Z"/>
      <path d="M83.77,104.03v-.04c0,.09-.02.18-.03.27.06-.46.19-.91.37-1.35l-.1.24c.2-.46.45-.88.75-1.27l-.16.21c.31-.39.66-.74,1.05-1.05l-.21.16c.39-.3.82-.56,1.28-.75l-.24.1c.45-.19.93-.32,1.41-.38l-.27.04c.53-.07,1.06-.07,1.59,0l-.27-.04c.54.08,1.07.22,1.58.43l-.24-.1c.48.2.93.46,1.34.78l-.21-.16c.35.28.67.59.95.94l-.16-.21c.24.31.44.64.59,1l-.1-.24c.12.29.2.58.25.89l-.04-.27c.03.24.04.49,0,.73l.04-.27c-.02.14-.05.29-.09.43-.15.51.18,1.13.71,1.25s1.09-.17,1.25-.71c.45-1.49-.17-3.03-1.13-4.18-.81-.97-1.97-1.67-3.17-2.05s-2.52-.42-3.74-.13-2.34.96-3.2,1.86c-.48.49-.89,1.06-1.2,1.67-.17.34-.32.7-.43,1.06s-.17.75-.22,1.13c-.03.24.14.56.3.72.18.18.47.31.72.3s.54-.1.72-.3l.16-.21c.09-.16.14-.33.14-.51h0Z"/>
      <path d="M95.09,103.83c-.02-.31-.01-.63.03-.94l-.04.27c.06-.43.18-.85.35-1.26l-.1.24c.17-.4.39-.78.66-1.13l-.16.21c.27-.35.58-.66.92-.93l-.21.16c.33-.26.7-.47,1.09-.63l-.24.1c.43-.18.89-.3,1.36-.36l-.27.04c.5-.06,1-.06,1.5,0l-.27-.04c.51.07,1.01.21,1.49.41l-.24-.1c.44.19.85.43,1.23.72l-.21-.16c.41.32.77.68,1.09,1.09l-.16-.21c.35.46.64.95.86,1.48l-.1-.24c.22.53.37,1.09.45,1.66l-.04-.27s0,.06.01.08c.03.28.09.51.3.72.18.18.47.31.72.3s.54-.1.72-.3c.17-.18.33-.46.3-.72-.08-.65-.21-1.28-.45-1.89s-.51-1.16-.89-1.67-.8-1.01-1.31-1.41c-.28-.22-.56-.43-.87-.61-.32-.19-.67-.34-1.02-.48-2.47-.97-5.52-.3-7.18,1.81-.48.61-.85,1.26-1.09,1.99-.22.66-.32,1.39-.26,2.08.02.27.1.52.3.72.18.18.47.31.72.3s.54-.1.72-.3.32-.45.3-.72h0Z"/>
      <path d="M106.14,103.83c0-.12.02-.24.03-.35l-.04.27c.06-.39.16-.76.31-1.12l-.1.24c.17-.4.39-.77.65-1.11l-.16.21c.29-.37.63-.71,1-1l-.21.16c.4-.31.83-.56,1.3-.76l-.24.1c.44-.18.9-.31,1.37-.37l-.27.04c.43-.06.87-.05,1.3,0l-.27-.04c.5.07.98.2,1.45.4l-.24-.1c.49.21.94.48,1.37.8l-.21-.16c.47.36.88.78,1.24,1.24l-.16-.21c.35.46.64.96.87,1.49l-.1-.24c.13.32.24.65.32.99.12.52.74.88,1.25.71.54-.17.84-.7.71-1.25-.58-2.42-2.41-4.45-4.73-5.32-1.15-.43-2.42-.5-3.62-.21s-2.3.94-3.15,1.8c-1,1.03-1.63,2.36-1.72,3.79-.03.53.49,1.04,1.02,1.02.58-.03.99-.45,1.02-1.02h0Z"/>
      <path d="M111.73,98.49c0-.21.02-.42.05-.62l-.04.27c.07-.5.21-1,.4-1.46l-.1.24c.2-.48.47-.93.79-1.35l-.16.21c.32-.41.68-.78,1.09-1.09l-.21.16c.38-.29.8-.54,1.24-.73l-.24.1c.14-.06.29-.12.44-.16.25-.08.47-.24.61-.47.07-.12.11-.24.12-.38.03-.14.02-.27-.02-.41-.08-.25-.23-.48-.47-.61s-.52-.19-.79-.1c-.53.17-1.04.4-1.51.7s-.9.65-1.28,1.04c-.77.8-1.35,1.77-1.68,2.83-.08.25-.14.51-.19.78-.06.35-.1.7-.11,1.05,0,.26.12.54.3.72.09.1.2.17.33.21.12.06.25.09.39.09.26-.01.54-.1.72-.3s.29-.44.3-.72h0Z"/>
      <path d="M84.8,94.88c.44.19.85.44,1.23.74l-.21-.16c.42.33.8.7,1.12,1.13l-.16-.21c.32.42.6.88.8,1.37l-.1-.24c.12.28.21.56.29.86.03.13.09.25.18.35.07.11.17.2.29.26.12.07.24.11.38.12.14.03.27.02.41-.02l.24-.1c.15-.09.28-.21.37-.37l.1-.24c.05-.18.05-.36,0-.54-.11-.43-.27-.85-.46-1.25-.15-.33-.33-.65-.54-.95-.25-.36-.53-.72-.84-1.03s-.66-.6-1.02-.86c-.33-.24-.69-.44-1.06-.61-.12-.07-.24-.11-.38-.12-.14-.03-.27-.02-.41.02-.13.03-.25.09-.35.18-.11.07-.2.17-.26.29l-.1.24c-.05.18-.05.36,0,.54l.1.24c.09.15.21.28.37.37h0Z"/>
      <path d="M89.83,97.79c-.03-.11-.06-.23-.07-.35l.04.27c-.03-.2-.02-.41,0-.61l-.04.27c.03-.24.1-.48.2-.7l-.1.24c.13-.3.29-.57.49-.83l-.16.21c.28-.36.61-.68.97-.97l-.21.16c.5-.38,1.06-.69,1.64-.94l-.24.1c.6-.25,1.23-.43,1.87-.52l-.27.04c.52-.07,1.05-.08,1.57,0l-.27-.04c.42.06.83.16,1.22.32l-.24-.1c.35.15.69.34.99.58l-.21-.16c.3.24.58.51.81.81l-.16-.21c.22.29.41.61.55.94l-.1-.24c.12.29.2.59.25.89l-.04-.27c.04.29.04.57,0,.86l.04-.27s-.01.08-.02.11c-.04.28-.05.53.1.79.12.21.37.41.61.47.26.06.55.05.79-.1.21-.13.43-.35.47-.61.11-.66.1-1.3-.08-1.95-.15-.55-.41-1.09-.75-1.55-.4-.54-.85-.99-1.4-1.38-.48-.34-1.05-.59-1.62-.75-1.27-.35-2.64-.27-3.89.11s-2.41,1-3.34,1.89c-1.07,1.03-1.8,2.53-1.37,4.04.07.25.24.48.47.61s.54.18.79.1c.52-.17.87-.7.71-1.25h0Z"/>
      <path d="M100.47,97.87c0-.21,0-.41.03-.61l-.04.27c.05-.38.15-.75.3-1.1l-.1.24c.15-.34.33-.66.56-.95l-.16.21c.22-.28.47-.54.76-.76l-.21.16c.34-.26.71-.46,1.09-.63l-.24.1c.59-.25,1.21-.41,1.85-.49l-.27.04c.58-.07,1.17-.08,1.75,0l-.27-.04c.49.07.97.19,1.42.38l-.24-.1c.37.16.72.36,1.04.6l-.21-.16c.3.24.57.51.81.81l-.16-.21c.23.3.42.63.57.98l-.1-.24c.13.31.22.63.27.97l-.04-.27c.04.31.04.62,0,.93l.04-.27s0,.05-.01.08c-.04.28-.05.53.1.79.12.21.37.41.61.47.26.06.55.05.79-.1.21-.13.43-.35.47-.61.05-.33.09-.65.07-.99s-.06-.65-.14-.96c-.14-.55-.38-1.1-.71-1.57-.37-.55-.81-.99-1.33-1.4-.49-.37-1.05-.64-1.63-.83-1.21-.41-2.52-.41-3.76-.18s-2.5.77-3.41,1.68c-.99.99-1.56,2.39-1.54,3.79,0,.26.11.53.3.72.18.18.47.31.72.3.55-.02,1.03-.45,1.02-1.02h0Z"/>
      <path d="M106.19,92.08c-.01-.06-.02-.12-.03-.19l.04.27c-.03-.26-.03-.52,0-.77l-.04.27c.04-.29.12-.57.23-.84l-.1.24c.12-.29.28-.56.48-.81l-.16.21c.19-.25.41-.47.66-.66l-.21.16c.23-.18.48-.33.75-.44l-.24.1c.25-.1.5-.18.77-.21l-.27.04c.12-.02.24-.02.36-.02.14,0,.27-.02.39-.09.13-.04.24-.11.33-.21.1-.09.17-.2.21-.33.06-.12.09-.25.09-.39l-.04-.27c-.05-.17-.14-.32-.26-.45-.2-.18-.45-.3-.72-.3-.1,0-.19,0-.29.02-.18.02-.36.04-.54.08s-.36.09-.53.16c-.25.1-.5.21-.74.36s-.45.31-.65.49c-.14.12-.28.26-.4.4-.18.21-.35.43-.49.67s-.25.48-.35.73c-.07.18-.13.36-.17.54s-.07.38-.09.57c-.01.11-.02.21-.02.32,0,.3.03.61.09.9.03.13.09.25.18.35.07.11.17.2.29.26.12.07.24.11.38.12.14.03.27.02.41-.02l.24-.1c.15-.09.28-.21.37-.37l.1-.24c.05-.18.05-.36,0-.54h0Z"/>
      <path d="M90.73,89.36s.09.07.14.1l-.21-.16c.45.35.86.76,1.21,1.21l-.16-.21c.36.47.67.99.9,1.54l-.1-.24c.11.26.2.53.28.81.03.13.09.25.18.35.07.11.17.2.29.26.12.07.24.11.38.12.14.03.27.02.41-.02l.24-.1c.15-.09.28-.21.37-.37l.1-.24c.05-.18.05-.36,0-.54-.1-.37-.24-.72-.39-1.07-.12-.27-.25-.54-.4-.8-.19-.33-.42-.63-.65-.93-.18-.23-.38-.46-.59-.67-.3-.29-.62-.55-.96-.8-.12-.07-.24-.11-.38-.12-.14-.03-.27-.02-.41.02-.13.03-.25.09-.35.18-.11.07-.2.17-.26.29l-.1.24c-.05.18-.05.36,0,.54l.1.24c.09.15.21.28.37.37h0Z"/>
      <path d="M95.14,91.86c-.03-.1-.05-.2-.07-.3l.04.27c-.02-.17-.02-.34,0-.52l-.04.27c.03-.24.1-.46.19-.68l-.1.24c.13-.31.31-.59.52-.86l-.16.21c.28-.35.6-.67.95-.95l-.21.16c.4-.31.83-.56,1.29-.76l-.24.1c.49-.2,1-.34,1.52-.42l-.27.04c.5-.06,1-.07,1.49,0l-.27-.04c.44.06.88.18,1.29.35l-.24-.1c.45.19.86.44,1.25.73l-.21-.16c.39.31.74.66,1.05,1.06l-.16-.21c.3.4.56.83.75,1.28l-.1-.24c.19.45.32.91.38,1.4l-.04-.27c.01.1.02.2.03.3.02.27.1.52.3.72.18.18.47.31.72.3s.54-.1.72-.3.32-.45.3-.72c-.09-1.2-.49-2.38-1.2-3.36s-1.62-1.8-2.73-2.28c-.3-.13-.61-.25-.93-.34s-.68-.14-1.03-.18c-.6-.07-1.2-.02-1.8.07-1.19.19-2.3.74-3.23,1.51-.53.43-1,.98-1.34,1.58-.44.78-.68,1.74-.4,2.62.08.25.24.47.47.61.22.13.54.18.79.1.51-.16.89-.71.71-1.25h0Z"/>
      <path d="M76.71,11.04c-.68,2.84-.53,5.77-.46,8.66s.14,5.89.21,8.83.14,5.85.21,8.77c.03,1.47.07,2.94.1,4.42.03,1.38,0,2.78.14,4.16s.54,2.59,1.47,3.59c.77.83,1.79,1.37,2.84,1.74s2.12.54,3.21.65c1.41.14,2.82.18,4.24.16,5.69-.06,11.37-1.02,17.06-.5,2.79.26,5.67.9,8.44.13,2.2-.61,4.3-2.21,5.01-4.45.17-.54.24-1.12.22-1.68-.02-.53-.45-1.04-1.02-1.02-.53.02-1.04.45-1.02,1.02,0,.12,0,.23,0,.35,0,.06,0,.12-.01.17,0,.27.03-.13,0,.03-.05.24-.1.47-.18.7-.02.05-.04.11-.06.16.07-.19.02-.05,0,0-.06.12-.11.23-.18.34-.06.1-.12.2-.18.29-.03.05-.07.09-.1.14-.06.1.09-.11-.03.04-.16.19-.33.38-.51.55-.09.08-.18.16-.27.24-.05.04-.09.08-.14.11-.09.07.11-.07-.05.03-.21.15-.42.29-.65.42-.11.06-.21.12-.32.17-.05.03-.11.05-.16.08-.03.01-.27.12-.17.08.11-.05-.06.02-.09.03-.06.02-.11.04-.17.06-.11.04-.23.08-.34.11-.29.09-.59.15-.89.2s-.44.07-.79.09-.71.03-1.06.03c-1.36-.01-2.7-.2-4.05-.36-2.74-.32-5.48-.33-8.23-.19s-5.47.4-8.21.51c-1.36.05-2.73.07-4.1.02-.67-.03-1.34-.07-2.01-.13-.12-.01-.23-.02-.35-.04-.06,0-.12-.01-.17-.02.21.03.05,0,0,0-.26-.04-.53-.08-.79-.14-.49-.1-.98-.23-1.45-.4-.11-.04-.22-.08-.33-.13.21.09-.15-.07-.19-.09-.22-.11-.43-.22-.63-.35-.05-.03-.09-.06-.14-.09,0,0-.22-.16-.1-.07.1.08-.04-.03-.06-.05-.04-.04-.08-.07-.13-.11-.18-.16-.34-.33-.49-.51.15.18-.08-.12-.11-.17-.06-.1-.12-.19-.17-.29-.03-.05-.06-.11-.08-.16-.08-.16.04.11-.02-.05s-.12-.34-.16-.51c-.04-.14-.07-.28-.09-.42,0-.02-.04-.24-.02-.13s-.01-.11-.02-.13c-.03-.33-.05-.65-.06-.98-.02-.68-.03-1.36-.05-2.05-.03-1.41-.07-2.82-.1-4.23-.07-2.84-.13-5.68-.2-8.52s-.13-5.64-.2-8.46-.27-5.53.02-8.26c.06-.56.17-1.21.32-1.84.12-.52-.16-1.13-.71-1.25s-1.12.16-1.25.71h0Z"/>
    </g>
    <path d="M78.08,47.21c.39.06.77.17,1.13.33l-.24-.1c.34.15.67.33.97.56l-.21-.16c.23.18.44.38.61.61l-.16-.21c.13.17.25.36.33.57l-.1-.24c.07.16.11.32.14.49.03.13.09.25.18.35.07.11.17.2.29.26.12.07.24.11.38.12.14.03.27.02.41-.02l.24-.1c.15-.09.28-.21.37-.37l.1-.24c.05-.18.05-.36,0-.54-.02-.12-.05-.24-.09-.35-.05-.14-.11-.27-.17-.41-.03-.06-.05-.12-.08-.17-.06-.11-.13-.22-.2-.32-.13-.17-.26-.35-.41-.5-.1-.1-.2-.19-.3-.28-.18-.15-.36-.29-.55-.41-.33-.22-.68-.37-1.04-.52-.34-.14-.69-.23-1.05-.29-.14-.04-.27-.05-.41-.02-.14,0-.26.05-.38.12-.12.06-.21.15-.29.26-.09.1-.15.21-.18.35l-.04.27c0,.18.05.36.14.51l.16.21c.13.13.28.21.45.26h0Z"/>
    <path d="M93.42,50.62c.07-.43.19-.84.35-1.24l-.1.24c.2-.46.45-.88.75-1.28l-.16.21c.31-.4.68-.76,1.08-1.08l-.21.16c.4-.31.84-.57,1.31-.77l-.24.1c.45-.19.91-.32,1.39-.39l-.27.04c.46-.06.92-.06,1.38,0l-.27-.04c.5.07.98.2,1.44.39l-.24-.1c.49.21.94.47,1.36.8l-.21-.16c.4.31.75.66,1.06,1.06l-.16-.21c.29.38.53.78.72,1.22l-.1-.24c.09.21.16.42.22.63.14.51.73.88,1.25.71s.87-.7.71-1.25c-.64-2.28-2.59-4.1-4.87-4.69-1.14-.3-2.37-.28-3.49.08s-2.13,1-2.93,1.85c-.88.94-1.55,2.13-1.75,3.41-.04.28-.05.53.1.79.12.21.37.41.61.47.26.06.55.05.79-.1.21-.13.43-.35.47-.61h0Z"/>
    <path d="M110.35,45.13c0-.16.01-.32.03-.48l-.04.27c.05-.38.15-.74.3-1.09l-.1.24c.21-.51.5-.97.84-1.41l-.16.21c.43-.56.93-1.09,1.49-1.52l-.21.16c.25-.19.51-.35.79-.47l-.24.1c.28-.12.57-.19.88-.23l-.27.04c.32-.04.65-.06.98-.06.23,0,.45,0,.68.03l-.27-.04c.56.08,1.11.26,1.64.48l-.24-.1c.39.17.78.36,1.11.62l-.21-.16c.13.1.25.21.35.33l-.16-.21s.03.04.05.06c.15.22.34.4.61.47.24.07.57.04.79-.1s.41-.35.47-.61.05-.56-.1-.79c-.51-.75-1.33-1.16-2.15-1.5-.69-.28-1.45-.51-2.19-.53-.58,0-1.16.02-1.74.11s-1.09.31-1.55.62c-.89.6-1.64,1.42-2.26,2.28-.68.95-1.14,2.08-1.14,3.26,0,.26.11.54.3.72s.47.31.72.3c.55-.02,1.02-.45,1.02-1.02h0Z"/>
    <path d="M99.08,45.03c0-.08.01-.16.02-.24l-.04.27c.05-.32.14-.63.26-.93l-.1.24c.21-.49.5-.95.83-1.37l-.16.21c.43-.56.92-1.06,1.47-1.5l-.21.16c.4-.3.82-.56,1.28-.76l-.24.1c.39-.17.8-.28,1.22-.34l-.27.04c.44-.06.88-.05,1.33,0l-.27-.04c.47.07.93.2,1.37.38l-.24-.1c.44.19.85.43,1.24.72l-.21-.16c.41.32.77.69,1.09,1.1l-.16-.21c.36.47.66.99.89,1.53l-.1-.24c.23.55.4,1.12.49,1.71.04.24.27.49.47.61.22.13.54.18.79.1s.48-.23.61-.47c.14-.26.15-.5.1-.79-.2-1.17-.66-2.34-1.35-3.31-.37-.52-.78-1-1.28-1.4-.57-.46-1.16-.81-1.84-1.08-1.18-.48-2.55-.58-3.78-.25s-2.31,1.07-3.18,1.98c-1.06,1.1-1.97,2.46-2.07,4.02-.03.53.49,1.04,1.02,1.02.58-.03.98-.45,1.02-1.02h0Z"/>
    <path d="M87.71,44.64c.05-1.59-.76-3.16-1.96-4.18-.67-.56-1.41-.98-2.24-1.24-.46-.15-.94-.22-1.43-.28-.41-.04-.82-.05-1.22-.02-1,.07-1.99.28-2.93.66-.13.03-.25.09-.35.18-.11.07-.2.17-.26.29-.13.22-.18.54-.1.79s.23.48.47.61.54.2.79.1c.69-.27,1.4-.47,2.13-.57l-.27.04c.63-.08,1.26-.09,1.89-.01l-.27-.04c.51.07,1.01.2,1.49.4l-.24-.1c.4.17.78.39,1.13.66l-.21-.16c.35.27.66.58.93.93l-.16-.21c.24.32.45.67.61,1.04l-.1-.24c.14.33.23.68.28,1.03l-.04-.27c.03.2.04.41.03.62,0,.26.12.54.3.72s.47.31.72.3c.57-.03,1-.45,1.02-1.02h0Z"/>
    <path d="M77.85,35.79c.07,0,.15,0,.22.01l-.27-.04c.14.02.28.06.42.12l-.24-.1c.18.08.34.18.49.29l-.21-.16c.29.23.55.51.77.8l-.16-.21c.33.43.6.9.81,1.39l-.1-.24c.21.51.36,1.04.44,1.59l-.04-.27c.02.14.03.28.04.42,0,.14.02.27.09.39.04.13.11.24.21.33.09.1.2.17.33.21.12.06.25.09.39.09.26-.01.54-.1.72-.3s.32-.45.3-.72c-.03-.49-.1-.97-.23-1.45s-.31-.93-.52-1.37c-.18-.36-.39-.71-.63-1.03-.29-.38-.59-.77-.97-1.07-.15-.12-.3-.24-.46-.33s-.34-.17-.51-.24c-.1-.04-.2-.07-.31-.09-.19-.04-.39-.07-.58-.06-.27,0-.53.11-.72.3-.1.09-.17.2-.21.33-.06.12-.09.25-.09.39.01.26.1.54.3.72s.45.31.72.3h0Z"/>
    <path d="M82.04,39.51c0-.1.01-.2.02-.29l-.04.27c.04-.31.13-.61.25-.9l-.1.24c.2-.46.46-.89.76-1.29l-.16.21c.33-.43.72-.81,1.14-1.14l-.21.16c.44-.34.92-.62,1.42-.83l-.24.1c.48-.2.98-.34,1.5-.41l-.27.04c.47-.06.95-.07,1.43,0l-.27-.04c.44.06.87.18,1.28.35l-.24-.1c.45.19.87.44,1.25.73l-.21-.16c.37.29.71.62,1,1l-.16-.21c.27.35.49.73.67,1.14l-.1-.24c.15.37.26.76.32,1.16l-.04-.27c0,.06.02.13.02.19.03.28.1.52.3.72.18.18.47.31.72.3s.54-.1.72-.3c.17-.19.32-.46.3-.72-.03-.34-.08-.67-.16-1s-.2-.61-.33-.9c-.23-.54-.56-1.01-.93-1.46-.75-.9-1.77-1.56-2.87-1.95-2.34-.82-4.97,0-6.75,1.62-.5.46-.94,1-1.29,1.58-.44.73-.75,1.55-.78,2.42-.02.53.48,1.04,1.02,1.02.57-.03,1-.45,1.02-1.02h0Z"/>
    <path d="M93.55,39.34c.06-.2.13-.39.21-.58l-.1.24c.2-.48.47-.93.79-1.34l-.16.21c.32-.41.69-.78,1.1-1.1l-.21.16c.4-.31.84-.57,1.31-.77l-.24.1c.48-.2.97-.33,1.48-.4l-.27.04c.53-.07,1.07-.07,1.61,0l-.27-.04c.53.07,1.05.21,1.55.42l-.24-.1c.45.19.87.43,1.26.73l-.21-.16c.34.26.64.57.91.9l-.16-.21c.23.3.43.63.58.98l-.1-.24c.13.31.22.64.27.97l-.04-.27c0,.07.02.14.02.21.02.27.1.52.3.72.18.18.47.31.72.3s.54-.1.72-.3.32-.45.3-.72c-.09-1.25-.65-2.39-1.52-3.29-.82-.85-1.91-1.46-3.05-1.76s-2.44-.33-3.62-.02c-1.1.29-2.11.87-2.95,1.64-.91.84-1.59,1.94-1.95,3.13-.15.51.18,1.13.71,1.25s1.09-.17,1.25-.71h0Z"/>
    <path d="M104.64,38.89c-.01-.18,0-.35.02-.52l-.04.27c.04-.26.11-.51.21-.76l-.1.24c.12-.29.28-.55.46-.8l-.16.21c.23-.29.49-.55.79-.78l-.21.16c.5-.39,1.06-.68,1.64-.92l-.24.1c.56-.24,1.14-.42,1.75-.51l-.27.04c.45-.06.91-.05,1.36,0l-.27-.04c.47.07.92.19,1.35.37l-.24-.1c.4.17.79.39,1.13.66l-.21-.16c.34.27.65.57.91.92l-.16-.21c.28.37.51.77.69,1.19l-.1-.24c.17.41.29.84.35,1.29l-.04-.27c0,.06.01.11.02.17.03.28.09.52.3.72.18.18.47.31.72.3s.54-.1.72-.3c.17-.19.33-.46.3-.72-.12-1.13-.5-2.23-1.19-3.14-.19-.25-.39-.5-.61-.73s-.47-.42-.73-.61c-.47-.36-1-.61-1.55-.82-1.13-.42-2.38-.47-3.55-.19-.62.15-1.23.39-1.81.66-.54.25-1.04.57-1.51.94-1.07.84-1.86,2.19-1.77,3.58.02.27.1.52.3.72.18.18.47.31.72.3s.54-.1.72-.3.31-.45.3-.72h0Z"/>
    <path d="M116.03,39.47c.07-.3.16-.59.28-.88l-.1.24c.18-.43.42-.84.71-1.21l-.16.21c.28-.37.61-.7.98-.98l-.21.16c.22-.17.44-.32.68-.45.12-.06.21-.15.29-.26.09-.1.15-.21.18-.35.04-.14.05-.27.02-.41,0-.14-.05-.26-.12-.38l-.16-.21c-.13-.13-.28-.21-.45-.26l-.27-.04c-.18,0-.36.05-.51.14-.34.18-.64.41-.94.65-.23.18-.45.39-.65.61-.25.28-.49.58-.69.9-.16.25-.31.51-.43.79-.17.38-.32.77-.41,1.18-.04.14-.05.27-.02.41,0,.14.05.26.12.38.06.12.15.21.26.29.1.09.21.15.35.18l.27.04c.18,0,.36-.05.51-.14l.21-.16c.13-.13.21-.28.26-.45h0Z"/>
    <path d="M78.26,30.93c.34-.24.71-.44,1.1-.6l-.24.1c.52-.22,1.07-.37,1.63-.44l-.27.04c.54-.07,1.08-.07,1.62,0l-.27-.04c.51.07,1.01.2,1.48.4l-.24-.1c.44.19.84.43,1.22.72l-.21-.16c.39.3.74.66,1.05,1.05l-.16-.21c.3.39.56.82.75,1.28l-.1-.24c.18.44.31.89.37,1.36l-.04-.27s0,.07.01.1c0,.14.02.27.09.39.04.13.11.24.21.33.18.18.47.31.72.3s.54-.1.72-.3c.17-.19.33-.46.3-.72-.05-.46-.13-.91-.28-1.35s-.33-.86-.56-1.25c-.42-.72-.98-1.38-1.64-1.9-.36-.28-.74-.54-1.15-.75s-.88-.39-1.35-.51c-.98-.24-1.97-.25-2.96-.1-.47.07-.93.2-1.37.37-.51.2-1.01.44-1.46.76-.22.15-.39.34-.47.61-.07.24-.04.57.1.79s.35.41.61.47.56.05.79-.1h0Z"/>
    <path d="M87.94,33.78v-.05c0,.09-.02.18-.03.27.04-.28.12-.55.23-.81l-.1.24c.29-.68.74-1.29,1.19-1.88l-.16.21c.31-.4.65-.78,1.05-1.09l-.21.16c.28-.22.59-.39.92-.53l-.24.1c.4-.16.81-.27,1.24-.33l-.27.04c.53-.07,1.07-.06,1.61,0l-.27-.04c.57.08,1.12.23,1.65.45l-.24-.1c.46.2.89.45,1.29.75l-.21-.16c.33.26.63.56.89.89l-.16-.21c.24.32.45.67.61,1.04l-.1-.24c.15.36.25.73.31,1.12l-.04-.27c.03.21.04.41.03.62-.01.53.48,1.04,1.02,1.02s1.01-.45,1.02-1.02c.01-.61-.09-1.23-.29-1.8-.24-.65-.56-1.21-.99-1.75-.75-.95-1.85-1.61-2.98-2s-2.41-.49-3.62-.27-2.29.86-3.1,1.77c-.46.53-.89,1.1-1.26,1.69-.19.29-.34.6-.48.91-.07.18-.15.35-.2.54-.07.23-.09.47-.13.71s.14.56.3.72c.18.18.47.31.72.3s.54-.1.72-.3l.16-.21c.09-.16.14-.33.14-.51h0Z"/>
    <path d="M99.09,34.09s0-.07.01-.1l-.04.27c.06-.39.17-.77.32-1.14l-.1.24c.21-.49.48-.95.8-1.37l-.16.21c.34-.44.73-.83,1.17-1.17l-.21.16c.44-.34.92-.62,1.42-.84l-.24.1c.49-.21,1.01-.35,1.54-.42l-.27.04c.46-.06.93-.06,1.39,0l-.27-.04c.43.06.85.18,1.25.34l-.24-.1c.44.18.85.43,1.22.71l-.21-.16c.36.28.69.61.97.97l-.16-.21c.26.34.48.71.65,1.1l-.1-.24c.16.37.27.76.32,1.15l-.04-.27c.02.18.04.36.04.55,0,.53.46,1.04,1.02,1.02s1.03-.45,1.02-1.02c-.01-1.19-.43-2.37-1.15-3.32-.42-.55-.88-1-1.43-1.41-.48-.36-1.03-.63-1.59-.83-2.37-.87-5.06,0-6.85,1.67-.5.47-.95,1.03-1.3,1.62-.21.36-.39.75-.54,1.14-.16.43-.24.87-.3,1.32-.03.24.13.56.3.72.18.18.47.31.72.3s.54-.1.72-.3l.16-.21c.09-.16.14-.33.14-.51h0Z"/>
    <path d="M110.35,33.68c0-.15.02-.31.04-.46l-.04.27c.06-.41.17-.82.33-1.2l-.1.24c.16-.37.36-.72.61-1.04l-.16.21c.24-.31.53-.59.84-.83l-.21.16c.45-.35.96-.63,1.48-.85l-.24.1c.52-.22,1.07-.38,1.64-.46l-.27.04c.44-.06.89-.06,1.33,0l-.27-.04c.41.06.82.16,1.2.32l-.24-.1c.34.14.66.33.95.55l-.21-.16c.17.13.32.28.47.43.36.39,1.08.39,1.44,0,.39-.42.39-1.02,0-1.44-.62-.67-1.43-1.14-2.3-1.4-.92-.28-1.89-.29-2.84-.13s-1.79.51-2.57.98c-.82.49-1.53,1.14-2.05,1.95-.54.85-.84,1.86-.87,2.87,0,.26.12.54.3.72s.47.31.72.3c.57-.03,1-.45,1.02-1.02h0Z"/>
    <path d="M76.81,24.17c.63.3,1.25.65,1.8,1.08l-.21-.16c.45.35.86.74,1.2,1.19l-.16-.21c.29.37.53.78.71,1.21l-.1-.24c.16.37.27.77.32,1.17l-.04-.27c.01.08.02.16.03.24,0,.14.02.27.09.39.04.13.11.24.21.33.09.1.2.17.33.21.12.06.25.09.39.09.26-.01.54-.1.72-.3s.32-.45.3-.72c-.04-.52-.14-1.03-.32-1.51s-.41-.95-.7-1.37-.63-.83-1-1.18-.8-.68-1.24-.97-.86-.52-1.31-.73c-.12-.07-.24-.11-.38-.12-.14-.03-.27-.02-.41.02-.13.03-.25.09-.35.18-.11.07-.2.17-.26.29-.12.24-.19.52-.1.79.08.24.23.5.47.61h0Z"/>
    <path d="M82.43,27.95c0-.13.02-.25.03-.38l-.04.27c.05-.38.16-.75.31-1.1l-.1.24c.16-.38.37-.74.62-1.06l-.16.21c.27-.34.57-.64.91-.91l-.21.16c.4-.3.83-.55,1.29-.75l-.24.1c.55-.23,1.12-.38,1.7-.46l-.27.04c.39-.05.77-.07,1.16-.02l-.27-.04c.34.05.66.15.98.28l-.24-.1c.47.2.92.47,1.33.78l-.21-.16c.43.33.81.72,1.14,1.14l-.16-.21c.34.44.62.92.84,1.43l-.1-.24c.16.38.28.77.36,1.17.05.24.26.49.47.61.22.13.54.18.79.1s.48-.23.61-.47c.13-.25.16-.5.1-.79-.42-2.1-1.89-4.03-3.81-4.99-.66-.33-1.33-.56-2.07-.6-.65-.03-1.33.07-1.96.23-1.17.3-2.3.89-3.15,1.75-1,1-1.62,2.34-1.68,3.75-.03.53.49,1.04,1.02,1.02.57-.03.99-.45,1.02-1.02h0Z"/>
    <path d="M82.71,49.11c0-.05,0-.1.02-.16l-.04.27c.04-.31.12-.61.24-.9l-.1.24c.13-.3.29-.59.5-.85l-.16.21c.2-.25.42-.48.67-.68l-.21.16c.29-.22.61-.4.95-.55l-.24.1c.53-.22,1.09-.36,1.65-.44l-.27.04c.6-.08,1.2-.08,1.8,0l-.27-.04c.54.07,1.06.21,1.56.42l-.24-.1c.42.18.82.41,1.19.69l-.21-.16c.35.27.66.58.93.93l-.16-.21c.25.32.45.67.61,1.04l-.1-.24c.15.36.26.73.31,1.11l-.04-.27c.02.15.03.31.03.46,0,.26.11.53.3.72.18.18.47.31.72.3.54-.02,1.03-.45,1.02-1.02-.02-1.08-.38-2.17-1.02-3.04-.33-.45-.69-.86-1.13-1.2-.25-.2-.5-.38-.77-.54-.29-.17-.59-.3-.9-.43-.49-.2-.99-.34-1.51-.41-.6-.09-1.2-.13-1.81-.07s-1.21.16-1.79.35-1.15.44-1.63.81c-.54.42-1.01.91-1.35,1.51s-.53,1.27-.59,1.96c-.02.25.13.55.3.72s.47.31.72.3.54-.1.72-.3.27-.44.3-.72h0Z"/>
    <path d="M104.83,49.35s-.01-.06-.02-.08l.04.27c-.02-.13-.02-.25,0-.38l-.04.27c.02-.15.07-.3.13-.45l-.1.24c.1-.22.22-.41.37-.6l-.16.21c.34-.42.75-.79,1.17-1.12l-.21.16c.5-.38,1.04-.71,1.61-.96l-.24.1c.49-.21,1.01-.36,1.54-.43l-.27.04c.48-.06.96-.06,1.44,0l-.27-.04c.43.06.86.17,1.26.34l-.24-.1c.36.15.71.35,1.02.59l-.21-.16c.31.25.59.53.84.85l-.16-.21c.42.55.74,1.16,1.01,1.8l-.1-.24c.09.21.17.43.25.64.09.25.23.47.47.61.22.13.54.18.79.1s.48-.23.61-.47.2-.53.1-.79c-.2-.54-.41-1.07-.67-1.58s-.57-.97-.93-1.42c-.71-.87-1.69-1.48-2.76-1.79s-2.26-.3-3.35-.03-2.12.85-3.02,1.56c-.5.4-.95.84-1.33,1.36-.21.28-.37.6-.48.93-.14.42-.14.86-.05,1.29.05.24.26.49.47.61.22.13.54.18.79.1s.48-.23.61-.47c.13-.25.16-.5.1-.79h0Z"/>
    <path d="M77.85,19.61c.66-.4,1.32-.8,2.04-1.1l-.24.1c.46-.19.94-.34,1.44-.41l-.27.04c.43-.06.86-.06,1.29,0l-.27-.04c.46.06.9.19,1.33.36l-.24-.1c.42.18.82.41,1.19.69l-.21-.16c.37.29.71.63,1,1l-.16-.21c.31.41.57.85.77,1.32l-.1-.24c.22.52.37,1.07.45,1.62l-.04-.27c.02.14.03.28.04.42.02.27.1.52.3.72.18.18.47.31.72.3s.54-.1.72-.3.32-.45.3-.72c-.07-1.01-.33-1.96-.77-2.87-.22-.45-.5-.85-.81-1.24-.26-.33-.54-.63-.87-.89-.77-.62-1.65-1.1-2.62-1.32s-2.03-.21-3.02.07c-1.07.31-2.04.88-2.99,1.46-.22.13-.4.36-.47.61s-.04.57.1.79c.29.46.91.66,1.39.37h0Z"/>
    <path d="M87.76,22.49c.06-.36.17-.71.31-1.05l-.1.24c.19-.45.44-.87.74-1.25l-.16.21c.33-.42.71-.8,1.13-1.12l-.21.16c.47-.36.98-.66,1.53-.89l-.24.1c.51-.21,1.04-.37,1.59-.45l-.27.04c.39-.05.78-.06,1.17,0l-.27-.04c.39.06.76.16,1.12.31l-.24-.1c.43.18.83.42,1.21.71l-.21-.16c.39.3.73.66,1.03,1.04l-.16-.21c.41.54.74,1.13,1.01,1.76l-.1-.24c.17.41.31.83.43,1.25.14.51.73.88,1.25.71s.87-.7.71-1.25c-.18-.63-.41-1.25-.69-1.84s-.62-1.11-1.01-1.62c-.77-.99-1.83-1.75-3.03-2.14-1.26-.42-2.64-.29-3.86.18-1.08.41-2.07,1.02-2.88,1.85-.87.89-1.54,2.04-1.76,3.27-.05.28-.04.54.1.79.12.21.37.41.61.47.26.06.55.05.79-.1.21-.14.42-.35.47-.61h0Z"/>
    <path d="M93.47,27.96c-.01-.18,0-.36.02-.54l-.04.27c.04-.29.12-.56.23-.83l-.1.24c.16-.37.37-.71.61-1.03l-.16.21c.36-.46.77-.87,1.23-1.23l-.21.16c.43-.33.9-.62,1.41-.83l-.24.1c.47-.2.96-.33,1.46-.4l-.27.04c.49-.06.99-.06,1.49,0l-.27-.04c.49.07.97.2,1.43.39l-.24-.1c.43.18.84.42,1.21.71l-.21-.16c.35.27.67.59.94.94l-.16-.21c.26.34.47.7.64,1.09l-.1-.24c.17.41.29.83.35,1.27l-.04-.27c.04.29.05.57.04.86-.01.53.48,1.04,1.02,1.02s1-.45,1.02-1.02c.03-1.19-.29-2.41-.94-3.41-.62-.95-1.49-1.74-2.51-2.23s-2.22-.77-3.38-.67c-.62.05-1.23.17-1.81.39-.77.29-1.44.69-2.09,1.2s-1.2,1.11-1.63,1.8c-.47.74-.79,1.64-.73,2.53.02.27.1.52.3.72.18.18.47.31.72.3.52-.02,1.06-.45,1.02-1.02h0Z"/>
    <path d="M104.52,27.78s-.02-.09-.02-.13l.04.27c-.04-.28-.03-.57,0-.85l-.04.27c.05-.32.13-.62.26-.91l-.1.24c.14-.32.32-.63.53-.91l-.16.21c.25-.32.53-.6.85-.85l-.21.16c.46-.35.96-.63,1.49-.86l-.24.1c.61-.26,1.26-.48,1.93-.57l-.27.04c.33-.04.65-.04.98,0l-.27-.04c.38.05.74.16,1.09.3l-.24-.1c.5.21.96.5,1.39.83l-.21-.16c.56.44,1.07.95,1.51,1.52l-.16-.21c.46.6.85,1.26,1.15,1.96l-.1-.24c.05.11.09.23.14.35.1.25.23.47.47.61.22.13.54.18.79.1s.48-.23.61-.47.2-.53.1-.79c-.87-2.32-2.58-4.41-4.9-5.37-.58-.24-1.22-.37-1.85-.37-.69,0-1.38.17-2.03.39-1.17.39-2.32.98-3.17,1.89-.52.55-.9,1.19-1.16,1.9s-.29,1.48-.16,2.23c.04.24.27.49.47.61.22.13.54.18.79.1s.48-.23.61-.47c.13-.25.15-.5.1-.79h0Z"/>
    <path d="M115.75,27.95c0-.11.01-.21.03-.32l-.04.27c.04-.33.13-.65.26-.96l-.1.24c.13-.32.31-.62.52-.89l-.16.21c.2-.26.44-.5.7-.7l-.21.16c.25-.19.52-.35.81-.48l-.24.1s.04-.02.06-.02c.13-.03.25-.09.35-.18.11-.07.2-.17.26-.29.07-.12.11-.24.12-.38.03-.14.02-.27-.02-.41l-.1-.24c-.09-.15-.21-.28-.37-.37l-.24-.1c-.18-.05-.36-.05-.54,0-.35.14-.68.29-.99.51s-.59.45-.84.72c-.15.17-.29.35-.42.53-.08.12-.16.24-.24.36s-.14.25-.19.38c-.09.21-.18.42-.25.63-.05.15-.09.31-.12.46-.04.25-.08.5-.09.75,0,.14.02.27.09.39.04.13.11.24.21.33.09.1.2.17.33.21.12.06.25.09.39.09l.27-.04c.17-.05.32-.14.45-.26l.16-.21c.09-.16.14-.33.14-.51h0Z"/>
    <path d="M99.62,22.44c0-.19.01-.39.04-.58l-.04.27c.06-.41.17-.8.33-1.18l-.1.24c.17-.4.4-.78.66-1.13l-.16.21c.3-.38.64-.72,1.02-1.01l-.21.16c.37-.28.78-.52,1.21-.71l-.24.1c.44-.18.89-.3,1.36-.37l-.27.04c.53-.07,1.06-.07,1.59,0l-.27-.04c.5.07.98.2,1.45.4l-.24-.1c.41.18.8.4,1.16.68l-.21-.16c.35.27.66.59.94.94l-.16-.21c.29.37.53.78.71,1.22l-.1-.24c.17.41.29.84.35,1.28l-.04-.27c.02.15.03.3.04.46.01.27.11.53.3.72.18.18.47.31.72.3.53-.02,1.04-.45,1.02-1.02-.03-.63-.14-1.26-.36-1.85-.26-.67-.59-1.26-1.03-1.82-.8-1.02-1.94-1.74-3.17-2.1s-2.67-.36-3.91.04c-1.12.37-2.17,1.04-2.93,1.95-.9,1.07-1.47,2.37-1.47,3.78,0,.53.47,1.04,1.02,1.02s1.02-.45,1.02-1.02h0Z"/>
    <path d="M115.5,49.99c0-.05.01-.1.02-.15l-.04.27c.06-.45.18-.89.36-1.31l-.1.24c.19-.44.43-.85.72-1.23l-.16.21c.3-.39.64-.73,1.03-1.03l-.21.16c.37-.28.77-.52,1.2-.7l-.24.1c.3-.13.62-.23.94-.29.13-.03.25-.09.35-.18.11-.07.2-.17.26-.29.07-.12.11-.24.12-.38.03-.14.02-.27-.02-.41-.08-.25-.23-.48-.47-.61l-.24-.1c-.18-.05-.36-.05-.54,0-.52.11-1.02.3-1.49.53s-.91.55-1.31.89-.74.74-1.06,1.17c-.13.18-.25.36-.36.56-.15.27-.27.55-.39.83-.23.55-.35,1.12-.41,1.71,0,.14.02.27.09.39.04.13.11.24.21.33.09.1.2.17.33.21.12.06.25.09.39.09.26-.01.54-.1.72-.3l.16-.21c.09-.16.14-.33.14-.51h0Z"/>
    <path d="M77.51,13.54c.39.26.77.51,1.14.8l-.21-.16c.41.32.8.67,1.12,1.08l-.16-.21c.21.27.39.56.52.88l-.1-.24c.1.25.18.51.22.77l-.04-.27s0,.08.01.12c0,.14.02.27.09.39.04.13.11.24.21.33.09.1.2.17.33.21.12.06.25.09.39.09l.27-.04c.17-.05.32-.14.45-.26l.16-.21c.09-.16.14-.33.14-.51-.04-.4-.11-.78-.26-1.15-.09-.22-.18-.44-.3-.65-.08-.14-.16-.27-.26-.39-.24-.32-.49-.63-.78-.9s-.63-.54-.97-.79c-.31-.23-.63-.44-.94-.65-.12-.07-.24-.11-.38-.12-.14-.03-.27-.02-.41.02-.13.03-.25.09-.35.18-.11.07-.2.17-.26.29l-.1.24c-.05.18-.05.36,0,.54l.1.24c.09.15.21.28.37.37h0Z"/>
    <path d="M82.22,16.2c0-.06,0-.12.02-.18l-.04.27c.03-.2.08-.39.16-.57l-.1.24c.13-.3.31-.58.51-.84l-.16.21c.42-.54.91-1.02,1.45-1.43l-.21.16c.46-.36.97-.66,1.5-.89l-.24.1c.47-.2.96-.34,1.47-.41l-.27.04c.47-.06.94-.07,1.4,0l-.27-.04c.42.06.82.16,1.21.33l-.24-.1c.37.16.71.36,1.03.61l-.21-.16c.39.3.73.66,1.03,1.05l-.16-.21c.51.66.9,1.4,1.23,2.17l-.1-.24c.07.16.13.32.19.48.1.25.22.47.47.61.22.13.54.18.79.1s.48-.23.61-.47.2-.53.1-.79c-.38-.99-.82-1.96-1.46-2.81-.34-.45-.69-.88-1.12-1.23-.5-.41-1.01-.73-1.61-.98-1.16-.48-2.49-.51-3.7-.22s-2.24.91-3.16,1.69c-.51.43-.95.92-1.35,1.44-.46.61-.75,1.31-.79,2.08-.03.53.49,1.04,1.02,1.02.57-.03.99-.45,1.02-1.02h0Z"/>
    <path d="M110.96,22.49c.07-.37.17-.73.32-1.07l-.1.24c.19-.44.43-.84.72-1.22l-.16.21c.33-.42.71-.8,1.14-1.13l-.21.16c.47-.37.99-.67,1.54-.9l-.24.1c.51-.21,1.05-.37,1.6-.45l-.27.04c.38-.05.76-.05,1.15,0l-.27-.04c.4.06.79.17,1.16.32l-.24-.1c.42.18.81.41,1.17.69l-.21-.16c.23.18.45.37.65.59.37.39,1.08.4,1.44,0s.39-1.03,0-1.44c-.69-.73-1.54-1.28-2.48-1.62-1-.37-2.08-.38-3.11-.15-.85.19-1.69.55-2.43,1.02-.38.25-.74.52-1.08.83s-.63.66-.91,1.02c-.56.73-.97,1.61-1.13,2.52-.05.28-.04.54.1.79.12.21.37.41.61.47.26.06.55.05.79-.1.21-.14.42-.35.47-.61h0Z"/>
    <path d="M105.42,16.2c0-.07,0-.14.02-.21l-.04.27c.03-.23.1-.45.18-.67l-.1.24c.16-.38.38-.72.63-1.04l-.16.21c.39-.51.84-.97,1.34-1.36l-.21.16c.39-.3.8-.55,1.25-.74l-.24.1c.37-.16.76-.26,1.16-.32l-.27.04c.36-.05.72-.05,1.08,0l-.27-.04c.33.05.66.13.96.27l-.24-.1c.3.13.58.3.84.5l-.21-.16c.34.27.63.58.9.92l-.16-.21c.45.59.8,1.24,1.09,1.92l-.1-.24c.14.34.27.69.39,1.04.09.25.23.47.47.61.22.13.54.18.79.1s.48-.23.61-.47.19-.53.1-.79c-.33-.97-.73-1.94-1.29-2.8s-1.3-1.66-2.24-2.11c-1.13-.55-2.43-.65-3.64-.3-1.07.31-2.03.94-2.81,1.72-.45.44-.86.94-1.2,1.47-.39.6-.64,1.29-.67,2.01-.02.53.48,1.04,1.02,1.02.57-.03,1-.45,1.02-1.02h0Z"/>
    <path d="M93.59,16.32c-.03-.08-.05-.17-.06-.26l.04.27c0-.1,0-.2,0-.3l-.04.27c.02-.13.06-.26.11-.39l-.1.24c.13-.29.3-.55.5-.8l-.16.21c.48-.61.98-1.23,1.6-1.71l-.21.16c.28-.21.57-.39.89-.52l-.24.1c.51-.21,1.06-.33,1.61-.41l-.27.04c.66-.09,1.33-.1,2,0l-.27-.04c.52.07,1.03.2,1.51.4l-.24-.1c.39.17.76.37,1.09.63l-.21-.16c.31.24.58.51.82.82l-.16-.21c.23.29.42.61.56.95l-.1-.24c.13.31.22.64.27.98l-.04-.27c.02.18.03.35.03.53,0,.53.48,1.04,1.02,1.02s1.01-.45,1.02-1.02c.02-1.21-.47-2.34-1.23-3.26s-1.8-1.52-2.91-1.84c-1.2-.35-2.45-.34-3.67-.15-.65.1-1.28.3-1.87.59-.55.28-1.04.68-1.47,1.12-.46.48-.9,1.01-1.29,1.56-.47.66-.8,1.54-.51,2.34.09.25.23.47.47.61.22.13.54.18.79.1s.48-.23.61-.47.2-.53.1-.79h0Z"/>
    <path d="M116.84,15.86c-.02-.05-.03-.11-.04-.16l.04.27c-.01-.09,0-.18,0-.28l-.04.27c.02-.14.06-.28.12-.41l-.1.24c.11-.26.26-.5.43-.72l-.16.21c.2-.25.42-.48.67-.67l-.21.16c.26-.2.55-.37.86-.5l-.24.1c.3-.13.62-.21.94-.26l-.27.04c.19-.03.39-.04.58-.03.14,0,.27-.02.39-.09.13-.04.24-.11.33-.21.1-.09.17-.2.21-.33.06-.12.09-.25.09-.39l-.04-.27c-.05-.17-.14-.32-.26-.45l-.21-.16c-.16-.09-.33-.14-.51-.14-.17,0-.34,0-.5.02-.25.03-.51.06-.75.12-.16.04-.32.09-.48.16-.23.09-.47.19-.69.31-.15.08-.29.17-.42.27-.2.15-.4.3-.58.48-.12.12-.23.24-.34.37-.15.2-.31.39-.43.61-.05.09-.1.18-.14.27-.08.17-.16.35-.21.54s-.08.38-.09.58c0,.14.02.29.04.42,0,.06.02.11.04.16.03.13.09.25.18.35.07.11.17.2.29.26.12.07.24.11.38.12.14.03.27.02.41-.02l.24-.1c.15-.09.28-.21.37-.37l.1-.24c.05-.18.05-.36,0-.54h0Z"/>
    <path d="M88.06,44.14s-.01-.06-.02-.09l.04.27c-.02-.14-.01-.28,0-.42l-.04.27c.03-.21.09-.4.17-.6l-.1.24c.17-.4.41-.77.67-1.11l-.16.21c.34-.43.72-.82,1.16-1.15l-.21.16c.41-.31.86-.58,1.33-.78l-.24.1c.44-.18.89-.31,1.36-.37l-.27.04c.44-.06.88-.05,1.32,0l-.27-.04c.47.07.93.19,1.37.38l-.24-.1c.44.19.85.43,1.23.72l-.21-.16c.38.3.72.64,1.02,1.02l-.16-.21c.32.42.58.87.79,1.35l-.1-.24c.2.47.34.96.42,1.47.04.24.27.49.47.61.22.13.54.18.79.1s.48-.23.61-.47c.14-.26.15-.5.1-.79-.2-1.22-.74-2.34-1.5-3.3s-1.83-1.68-2.99-2.09-2.39-.44-3.55-.13-2.14.9-2.98,1.68c-.46.43-.86.93-1.2,1.47-.21.34-.39.7-.51,1.08-.16.47-.17.95-.08,1.43.04.24.27.49.47.61.22.13.54.18.79.1s.48-.23.61-.47c.13-.25.16-.5.1-.79h0Z"/>
  </g>
</svg>