<?xml version="1.0" encoding="UTF-8"?>
<svg id="Layer_1" data-name="Layer 1" xmlns="http://www.w3.org/2000/svg" viewBox="0 0 125.05 131.38">
  <defs>
    <style>
      .cls-1 {
        fill: none;
        stroke: #000;
        stroke-linecap: round;
        stroke-linejoin: round;
        stroke-width: 3.14px;
      }

      .cls-2 {
        fill: #fff;
      }
    </style>
  </defs>
  <g>
    <path class="cls-2" d="M17.68,24.87c-.16,19.97-.33,39.94-.49,59.91-.04,5.01-.05,10.19,1.88,14.81,1.93,4.63,6.33,8.61,11.34,8.44,1.36-27.17,1.74-54.38,1.14-81.57-.05-2.32-1.22-5.52-3.45-4.87,3.18-.08,6.36-.16,9.53-.24.98-.02,2.04-.02,2.81.59,1.01.81,1.07,2.3,1.02,3.6-.8,23.34-5.19,46.4-7.4,69.65-.39,4.13-.64,8.61,1.59,12.1,2.23,3.5,7.96,4.93,10.48,1.64-3.2-27.36-3.23-55.09-.08-82.45.24-2.09.7-4.49,2.55-5.49,2.04-1.1,4.71.3,5.8,2.35,1.09,2.05,1.03,4.49.94,6.81-1.07,28.2-2.14,56.39-3.21,84.59-.06,1.55.04,3.41,1.37,4.21.84.5,1.89.39,2.86.25,6.61-.98,13.13-2.59,19.44-4.81-6.83-16.63-7.95-34.94-9.82-52.81-1.56-14.85-3.7-29.63-6.42-44.32,7.05-.11,14.1-.23,21.15-.34,1.75-.03,3.67,0,5.02,1.11,1.95,1.61,1.79,4.59,1.45,7.09-4.04,29.94-8.32,59.84-12.84,89.71,6.31-1.02,11.07-6.63,13.1-12.7s1.86-12.61,1.88-19c.09-23.8,3.14-47.48,6.18-71.08,5.7,26.8-.16,54.5-1.51,81.86-.15,3.01-.2,6.19,1.28,8.81,1.48,2.62,5.07,4.28,7.62,2.67,2.06-1.3,2.58-4.02,2.9-6.43,3-22.79,4.51-45.77,4.51-68.75,0-2.57-.06-5.28-1.4-7.47s-4.46-3.5-6.57-2.03"/>
    <path class="cls-2" d="M8.26,24.87c-.11,13.06-.21,26.13-.32,39.19l-.16,19.47c-.02,2.93-.08,5.88.19,8.8.41,4.42,1.25,8.32,3.11,12.36,3.39,7.34,11.13,12.88,19.33,12.77,5.28-.07,9.17-4.27,9.43-9.43,1.26-25.18,1.68-50.4,1.26-75.6-.06-3.54.26-7.52-.87-10.91-.78-2.35-1.91-4.61-3.77-6.3-3.07-2.78-6.83-3.63-10.85-2.72-4.58,1.03-7.34,5.93-6.75,10.34s4.54,8.29,9.26,8.17c1.91-.05,3.81-.1,5.72-.14,1.74-.04,3.56-.24,5.3-.04l-2.51-.34c.24.03.47.09.7.18l-2.25-.95c.23.09.43.2.62.35l-1.91-1.47c.18.14.33.31.46.5l-1.47-1.91c.13.19.23.39.3.61l-.95-2.25c.11.35.17.67.22,1.04l-.34-2.51c.24,3.04-.16,6.23-.36,9.27s-.46,6.18-.75,9.27c-.6,6.34-1.37,12.66-2.18,18.98s-1.67,12.64-2.45,18.96c-.75,6.07-1.74,12.26-1.87,18.39-.16,7.48,2.59,15.73,9.75,19.22,3.73,1.82,8.12,2.71,12.18,1.44,2.24-.7,4.16-1.78,5.88-3.38,1.37-1.28,2.61-2.96,3.03-4.81.35-1.54.28-2.93.11-4.46-1.42-12.71-2.15-25.5-2.2-38.28-.05-14.28.54-28.72,2.42-42.88l-.34,2.51c.13-.91.32-1.78.65-2.64l-.95,2.25c.18-.4.38-.77.63-1.13l-1.47,1.91c.21-.26.41-.47.65-.69l-1.91,1.47c.27-.2.53-.35.84-.5l-2.25.95c.32-.11.59-.18.92-.23l-2.51.34c.33-.02.62,0,.95.03l-2.51-.34c.33.07.62.15.94.27l-2.25-.95c.41.18.79.4,1.16.66l-1.91-1.47c.36.29.67.59.98.93l-1.47-1.91c.38.49.65,1,.89,1.57l-.95-2.25c.23.64.39,1.28.5,1.96l-.34-2.51c.48,3.78-.04,7.78-.18,11.58s-.3,7.96-.45,11.94c-.31,8.13-.62,16.25-.92,24.38s-.62,16.25-.92,24.38c-.15,3.98-.3,7.96-.45,11.94-.07,1.82-.25,3.68-.18,5.5.15,3.69,1.23,6.98,3.87,9.66,5.02,5.09,12.74,2.98,18.87,1.67,4.36-.93,8.65-2.15,12.86-3.62,2.23-.78,4.48-2.16,5.63-4.33s1.89-4.97.95-7.26c-3.91-9.6-5.97-19.78-7.35-30.02l.34,2.51c-1.13-8.47-1.82-16.99-2.76-25.49-1.06-9.64-2.34-19.27-3.85-28.85-.8-5.11-1.68-10.2-2.61-15.28-3.03,3.98-6.06,7.95-9.09,11.93,4.02-.06,8.04-.13,12.05-.19,3.75-.06,7.65-.44,11.39-.07l-2.51-.34c.63.09,1.21.23,1.8.46l-2.25-.95c.34.17.63.35.94.58l-1.91-1.47c.26.23.47.46.68.73l-1.47-1.91c.19.28.34.55.48.85l-.95-2.25c.21.53.33,1.06.42,1.63l-.34-2.51c.14,1.3.04,2.59-.13,3.88l.34-2.51c-3.15,23.36-6.45,46.69-9.9,70.01-.97,6.57-1.95,13.13-2.95,19.7-.45,1.67-.45,3.34,0,5.01.45,1.6,1.26,2.98,2.42,4.16,2.55,2.55,5.77,3.02,9.17,2.42,7.63-1.34,14.33-7.51,17.63-14.33,3.68-7.59,4.24-15.85,4.26-24.17.03-15.65,1.19-31.23,2.92-46.78.99-8.88,2.13-17.73,3.27-26.59l-18.51,2.51c.53,2.51.96,5.04,1.31,7.59l-.34-2.51c1.77,13.24,1.17,26.63.06,39.9-.57,6.79-1.28,13.56-1.87,20.34-.3,3.38-.57,6.77-.79,10.16-.19,2.93-.46,5.9-.14,8.82.51,4.66,1.97,9.45,5.76,12.54,4.01,3.27,9.28,5.16,14.41,3.38,5.07-1.75,8.54-6.02,9.71-11.22.82-3.65,1.07-7.49,1.52-11.21,1.61-13.53,2.69-27.12,3.25-40.74.31-7.53.59-15.1.43-22.64-.1-5.04-1.25-10.31-5-13.96-4.48-4.36-11.66-5.88-17.15-2.45-2.05,1.28-3.68,3.28-4.33,5.63s-.34,5.26.95,7.26c2.7,4.19,8.42,6.18,12.9,3.38.18-.13.37-.23.57-.32l-2.25.95c.31-.12.59-.2.92-.26l-2.51.34c.44-.04.85-.04,1.28.02l-2.51-.34c.44.09.85.22,1.27.39l-2.25-.95c.41.2.79.43,1.17.7l-1.91-1.47c.36.29.67.6.98.95l-1.47-1.91c.39.51.68,1.04.94,1.62l-.95-2.25c.34.89.55,1.78.69,2.72l-.34-2.51c.52,4.44.16,9.07.07,13.53-.09,4.76-.24,9.52-.46,14.27-.44,9.51-1.13,19.01-2.08,28.48-.54,5.39-1.17,10.77-1.87,16.14l.34-2.51c-.19,1.41-.44,2.8-.99,4.11l.95-2.25c-.2.41-.42.8-.68,1.17l1.47-1.91c-.29.36-.59.66-.94.95l1.91-1.47c-.28.2-.55.35-.86.5l2.25-.95c-.31.12-.6.2-.92.27l2.51-.34c-.43.06-.84.07-1.27.03l2.51.34c-.55-.08-1.06-.22-1.59-.42l2.25.95c-.52-.23-1-.51-1.46-.84l1.91,1.47c-.45-.36-.85-.74-1.22-1.18l1.47,1.91c-.38-.49-.67-1-.94-1.56l.95,2.25c-.43-1.01-.68-2.04-.84-3.13l.34,2.51c-.3-2.61-.07-5.25.08-7.86.17-2.9.39-5.81.64-8.71.48-5.74,1.06-11.46,1.59-17.2,1.05-11.38,1.93-22.82,1.43-34.25-.31-7.15-1.17-14.31-2.64-21.32-.45-2.14-2.41-4.62-4.33-5.63s-3.87-1.41-6.01-1.12c-1.98.27-4.02,1.08-5.41,2.59l-1.47,1.91c-.85,1.47-1.28,3.06-1.29,4.76-2.83,21.95-5.67,43.97-6.12,66.13-.12,5.91.18,11.88-.56,17.76l.34-2.51c-.37,2.71-.97,5.37-2.03,7.9l.95-2.25c-.74,1.69-1.65,3.27-2.75,4.75l1.47-1.91c-.97,1.24-2.05,2.37-3.28,3.35l1.91-1.47c-1.04.8-2.14,1.47-3.34,2l2.25-.95c-1,.41-2.01.71-3.08.9,3.86,3.86,7.73,7.73,11.59,11.59,2.6-17.15,5.11-34.31,7.55-51.48,1.22-8.63,2.43-17.26,3.61-25.89.68-4.95,1.38-9.89,2.01-14.84.29-2.29.19-4.43-.26-6.73-.68-3.57-2.98-6.44-5.86-8.5-4.55-3.26-10.9-2.38-16.18-2.3-4.92.08-9.84.16-14.76.24-3.01.05-5.58,1.36-7.4,3.71-1.93,2.5-2.25,5.16-1.69,8.22,1.7,9.2,3.17,18.43,4.43,27.7l-.34-2.51c1.26,9.39,2.19,18.82,3.17,28.24,1,9.7,2.12,19.45,4.35,28.95,1.18,5.02,2.69,9.96,4.64,14.74,2.19-3.86,4.39-7.73,6.58-11.59-6.42,2.24-13.06,3.92-19.8,4.86l2.51-.34c-.5.06-.97.08-1.47.04l2.51.34c-.24-.03-.47-.09-.69-.18l2.25.95c-.21-.09-.41-.2-.59-.35l1.91,1.47c-.16-.13-.31-.29-.43-.46l1.47,1.91c-.12-.17-.23-.36-.31-.55l.95,2.25c-.16-.43-.26-.84-.32-1.29l.34,2.51c-.29-3.01.12-6.17.24-9.18.13-3.4.26-6.8.39-10.2.25-6.72.51-13.44.76-20.15.5-13.27,1.01-26.54,1.51-39.81.28-7.43,1.54-16.47-4.7-22-4.34-3.84-10.72-5.33-15.95-2.27-3.77,2.2-6.14,6.2-6.8,10.45-1.09,7.03-1.59,14.2-2.04,21.3-.42,6.63-.66,13.27-.71,19.91-.12,14.84.7,29.68,2.41,44.42l2.76-6.67c-.25.31-.52.58-.82.83l1.91-1.47c-.31.23-.62.41-.97.58l2.25-.95c-.45.18-.89.3-1.36.38l2.51-.34c-.59.07-1.16.07-1.75,0l2.51.34c-.71-.11-1.38-.29-2.05-.56l2.25.95c-.67-.3-1.28-.65-1.87-1.09l1.91,1.47c-.48-.39-.91-.81-1.3-1.3l1.47,1.91c-.45-.61-.8-1.26-1.12-1.95l.95,2.25c-.47-1.15-.76-2.32-.93-3.54l.34,2.51c-.33-2.86-.04-5.72.24-8.58.32-3.25.68-6.5,1.07-9.74.77-6.49,1.64-12.97,2.49-19.45,1.68-12.93,3.39-25.95,3.7-38.99.07-2.79-.49-5.41-1.85-7.85-2.09-3.74-6.21-5.48-10.29-5.74-3.51-.23-7.14.14-10.65.22.84,6.17,1.67,12.34,2.51,18.51l.27-.06-2.51.34c.17-.03.34-.03.51-.01l-2.51-.34c.16.02.32.06.47.13l-2.25-.95c.15.06.29.15.42.24l-1.91-1.47c.21.17.38.35.55.56l-1.47-1.91c.23.32.41.65.58,1l-.95-2.25c.28.69.46,1.38.57,2.12l-.34-2.51c.29,2.5.16,5.1.2,7.62.04,2.65.08,5.31.1,7.96.05,5.39.06,10.78.03,16.17-.06,10.78-.27,21.56-.63,32.33-.21,6.13-.47,12.26-.77,18.39,3.14-3.14,6.28-6.28,9.43-9.43-.49,0-.96-.01-1.45-.07l2.51.34c-.96-.14-1.86-.39-2.75-.76l2.25.95c-.89-.4-1.7-.9-2.48-1.48l1.91,1.47c-.98-.77-1.83-1.64-2.61-2.61l1.47,1.91c-.83-1.09-1.51-2.26-2.05-3.52l.95,2.25c-.77-1.92-1.24-3.9-1.53-5.94l.34,2.51c-.52-4.18-.35-8.41-.32-12.61.04-4.49.07-8.99.11-13.48.07-9.07.15-18.14.22-27.21.04-5.16.08-10.32.13-15.48.04-4.93-4.36-9.65-9.43-9.43s-9.38,4.14-9.43,9.43h0Z"/>
  </g>
  <path class="cls-1" d="M24.96,9.57h74.06c10.9,0,19.75,8.85,19.75,19.75v70.38c0,10.87-8.82,19.69-19.69,19.69H25.02c-10.9,0-19.75-8.85-19.75-19.75V29.26c0-10.87,8.82-19.69,19.69-19.69Z"/>
  <path d="M65.75,10.34c0,6.16,0,12.32,0,18.47,0,6.12,0,12.23,0,18.35,0,6.16,0,12.32,0,18.47,0,2.84.06,5.85-.42,8.53-.13.71-.29,1.42-.5,2.11-.08.27-.17.53-.26.8-.04.11-.08.23-.13.34-.03.07-.05.14-.08.21-.02.04-.03.08-.05.12.04-.09.04-.1.02-.04-.45,1-.97,1.96-1.6,2.86-.09.12-.17.24-.26.37-.04.05-.23.31-.11.15-.18.24-.38.47-.57.7-.35.41-.73.8-1.12,1.17s-.82.75-1.26,1.09c-.04.03-.2.15-.04.03-.05.04-.1.07-.14.11-.11.08-.22.16-.33.24-.23.17-.47.33-.71.48-.47.3-.95.58-1.44.83-.23.12-.46.23-.69.33-.14.06-.27.12-.41.18.04-.02.18-.07,0,0-.08.03-.17.07-.25.1-1.03.4-2.11.7-3.2.89-.12.02-.24.04-.36.06-.29.04.14-.01-.04,0-.07,0-.15.02-.22.03-.27.03-.54.05-.81.07-.53.03-1.04.45-1.02,1.02.02.53.45,1.05,1.02,1.02,4.69-.28,9.17-2.52,12.3-6.02,1.58-1.77,2.82-3.82,3.58-6.07.95-2.79,1.12-5.79,1.16-8.72.07-6.2,0-12.41,0-18.61s0-12.48,0-18.72c0-6.22,0-12.44,0-18.66v-2.31c0-.53-.47-1.04-1.02-1.02s-1.02.45-1.02,1.02h0Z"/>
  <path d="M65.71,68.04c-3.19.98-6.43,2.03-9.29,3.8-1.39.86-2.7,1.91-3.76,3.17-1.21,1.44-2.08,3.09-2.64,4.89-1.15,3.68-1.07,7.66-1.17,11.48-.11,4.34-.2,8.69-.25,13.03s-.07,8.69-.05,13.03c0,.54,0,1.08,0,1.62s.47,1.04,1.02,1.02,1.02-.45,1.02-1.02c-.02-4.26-.01-8.52.03-12.78s.11-8.52.21-12.78c.05-2.04.09-4.08.17-6.11.04-.91.09-1.81.17-2.71.02-.23.05-.46.07-.69.01-.11.03-.21.04-.32,0,0,.02-.17,0-.07-.01.08.02-.11.02-.13.07-.45.14-.9.24-1.35.18-.87.42-1.73.74-2.55.04-.1.08-.19.11-.29.07-.16-.01.02.06-.14.1-.22.2-.44.31-.66.2-.38.41-.76.65-1.12.1-.16.21-.31.32-.46.03-.04.21-.27.09-.13.07-.08.13-.17.2-.25.24-.29.5-.58.77-.85s.57-.55.87-.8c.14-.12.28-.23.42-.35-.13.1.04-.03.08-.06.1-.07.2-.15.3-.22,1.3-.93,2.71-1.66,4.17-2.29.17-.08-.07.03.11-.05.09-.04.18-.07.26-.11.21-.08.41-.17.62-.25.37-.14.74-.28,1.12-.41.76-.27,1.53-.52,2.3-.77.39-.12.78-.24,1.17-.36.51-.16.88-.72.71-1.25s-.71-.88-1.25-.71h0Z"/>
</svg>