<?xml version="1.0" encoding="UTF-8"?>
<svg id="Layer_1" data-name="Layer 1" xmlns="http://www.w3.org/2000/svg" viewBox="0 0 125.05 131.38">
  <defs>
    <style>
      .cls-1 {
        fill: none;
        stroke: #000;
        stroke-linecap: round;
        stroke-linejoin: round;
        stroke-width: 3.14px;
      }

      .cls-2 {
        fill: #2e9db7;
      }
    </style>
  </defs>
  <g>
    <path class="cls-2" d="M4.23,24.27c.92,16.63,1.83,33.26,2.75,49.89.46,8.32.92,16.63,1.37,24.95.16,2.85.15,5.85,1,8.59,1.15,3.72,3.62,7.2,7.04,9.16,2.94,1.69,5.26,2.18,8.59,2.45,3.97.32,8.02.21,12,.29,16.43.34,32.86.68,49.29,1.03,4.15.09,8.3.18,12.45.26,3.81.08,7.37-.56,10.81-2.26,4.18-2.07,7.47-6.42,8.53-10.95,1.12-4.77.86-10,1.02-14.88.13-4.16.26-8.32.38-12.49.55-18.65,1.01-37.3,1.37-55.95.15-7.53-6.48-13.85-13.89-13.89-18.7-.09-37.41-.18-56.11-.27l-6.95-.03c-2.84-.01-5.67-.14-8.49.24-2.33.31-3.54.41-5.81,1.8-1.14.7-2.36,1.62-3.33,2.54-3.03,2.88-4.31,7.09-4.54,11.14-.12,2.14.06,4.33.13,6.47.3,9.26.86,18.51,1.67,27.73,1.02,11.52,2.46,23.01,4.19,34.45l1.4,3.32c.87,1.62,2.07,2.92,3.58,3.9,2.43,1.87,5.28,2.98,8.42,2.98,8.32.01,16.63.02,24.95.03,4.16,0,8.32.01,12.47.02,2.06,0,4.13.06,6.19,0,4.33-.13,8.27-1.14,11.73-3.81,1.88-1.45,3.46-2.98,4.6-5.16,1.54-2.97,1.99-5.4,2.33-8.71.2-1.95.19-3.93.26-5.89.14-4.13.25-8.25.31-12.38.13-8.25.12-16.51-.04-24.76-.06-2.86.02-5.91-.8-8.66s-2.31-5.37-4.38-7.24c-1.94-1.76-3.96-2.92-6.45-3.75-1.44-.48-3.08-.59-4.59-.73-1.89-.17-3.86.08-5.74.19-2.04.12-4.07.27-6.11.44-5.23.45-10.42,1.1-15.62,1.81-2.02.28-4.04.57-6.06.9-1.84.3-3.8.48-5.59,1.02-2.66.8-5.32,2.24-7.26,4.26-2.49,2.59-3.87,5.74-4.34,9.25-.33,2.45-.34,4.84-.36,7.31-.05,4.06-.1,8.12-.14,12.18-.03,3.49.44,6.84,1.79,10.04,1.12,2.65,2.61,5.16,4.85,7.05,2.89,2.44,5.35,3.8,8.95,5.08,2.35.83,4.94,1.03,7.37,1.33,3.96.48,8.03.22,11.94-.56,1.79-.36,3.53-1.2,5.15-1.97.31-.15.61-.3.89-.49,1.18-.8,2.46-1.7,3.48-2.7,1.25-1.22,2.44-2.74,3.26-4.3.86-1.64,1.68-3.5,2.06-5.35.94-4.57,1.31-9.43.91-14.09s-1.13-9.53-2.7-14.04c-.95-2.73-2.1-5.41-3.35-8.01-1.23-2.09-2.9-3.75-4.98-4.98-1.59-1.02-3.32-1.56-5.16-1.65-4.5-.6-8.31.8-11.67,3.82-6.58,5.93-10.06,14.61-10.44,23.34-.15,3.46,1.66,7.41,4.07,9.82s6.36,4.22,9.82,4.07,7.32-1.34,9.82-4.07c2.56-2.78,3.9-6.01,4.07-9.82.03-.66.09-1.31.17-1.96l-.5,3.69c.24-1.57.65-3.07,1.24-4.55l-1.4,3.32c.67-1.58,1.51-3.05,2.55-4.42l-2.17,2.81c.73-.93,1.53-1.79,2.41-2.58l-21.82-2.81c.32.66.63,1.33.92,2.01l-1.4-3.32c1.49,3.54,2.49,7.24,3.02,11.05l-.5-3.69c.47,3.66.48,7.35.03,11.01l.5-3.69c-.14,1.04-.34,2.05-.72,3.03l1.4-3.32c-.22.48-.46.9-.78,1.33l2.17-2.81c-.23.27-.46.5-.73.73l2.81-2.17c-.46.35-.93.63-1.45.86l3.32-1.4c-.78.3-1.56.49-2.38.62l3.69-.5c-2.59.33-5.29.24-7.87-.1l3.69.5c-1.4-.21-2.77-.53-4.08-1.07l3.32,1.4c-.75-.33-1.44-.72-2.09-1.22l2.81,2.17c-.46-.38-.86-.79-1.23-1.27l2.17,2.81c-.3-.42-.54-.85-.75-1.32l1.4,3.32c-.26-.66-.41-1.32-.51-2.02l.5,3.69c-.33-3.36-.04-6.85,0-10.23s-.19-6.79.17-10.09l-.5,3.69c.03-.23.09-.46.17-.68l-1.4,3.32c.08-.22.2-.42.35-.6l-2.17,2.81.24-.23-2.81,2.17c.18-.14.37-.25.57-.34l-3.32,1.4c1.84-.68,3.98-.82,5.91-1.14,2.18-.35,4.36-.67,6.54-.96l-3.69.5c3.97-.53,7.94-.96,11.93-1.29,1.95-.16,3.91-.3,5.86-.42s3.83-.39,5.69-.15l-3.69-.5c.24.04.48.11.71.21l-3.32-1.4.32.18-2.81-2.17c.2.13.37.3.51.5l-2.17-2.81.17.29-1.4-3.32c.14.34.22.64.28,1l-.5-3.69c.42,3.84.22,7.85.25,11.72.04,4.04.04,8.09,0,12.13s-.1,7.92-.21,11.89.04,8.06-.48,11.98l.5-3.69c-.07.4-.17.75-.3,1.13l1.4-3.32c-.09.24-.21.47-.36.68l2.17-2.81c-.24.3-.45.52-.74.76l2.81-2.17c-.18.13-.38.24-.58.33l3.32-1.4c-.55.22-1.08.35-1.67.43l3.69-.5c-3.53.35-7.2.07-10.75.07-3.74,0-7.48-.01-11.23-.02-7.57-.01-15.13-.02-22.7-.03,4.46,3.4,8.93,6.8,13.39,10.2-.42-2.76-.81-5.51-1.18-8.28l.5,3.69c-1.27-9.51-2.28-19.04-3.01-28.61-.36-4.74-.65-9.49-.88-14.23-.11-2.37-.21-4.75-.29-7.13s-.33-4.63-.12-6.88l-.5,3.69c.03-.21.07-.42.15-.62l-1.4,3.32c.07-.19.17-.37.31-.53l-2.17,2.81.23-.21-2.81,2.17.29-.16-3.32,1.4c.21-.08.42-.13.65-.15l-3.69.5c4.41-.26,8.92.02,13.34.04s9.1.04,13.66.07c9.1.04,18.21.09,27.31.13,5.13.02,10.26.05,15.39.07-4.63-4.63-9.26-9.26-13.89-13.89-.4,20.65-.91,41.3-1.55,61.94-.09,2.83-.18,5.66-.27,8.49s-.03,5.67-.33,8.46l.5-3.69c-.07.49-.17.95-.33,1.41l1.4-3.32c-.15.34-.3.62-.51.93l2.17-2.81c-.15.19-.32.36-.5.51l2.81-2.17c-.31.22-.58.37-.93.52l3.32-1.4c-.35.12-.69.21-1.06.28l3.69-.5c-2.2.29-4.51.05-6.73,0-2.57-.05-5.14-.11-7.72-.16-5.06-.11-10.12-.21-15.19-.32-10.04-.21-20.08-.42-30.12-.63-2.82-.06-5.64-.12-8.46-.18s-5.54.04-8.27-.21l3.69.5c-.35-.05-.66-.12-1-.23l3.32,1.4c-.21-.08-.4-.19-.58-.32l2.81,2.17c-.19-.15-.35-.32-.48-.53l2.17,2.81-.18-.33,1.4,3.32c-.14-.38-.22-.72-.28-1.12l.5,3.69c-.48-5.06-.58-10.18-.86-15.25l-.84-15.22c-.56-10.23-1.13-20.46-1.69-30.68-.32-5.82-.64-11.64-.96-17.46-.2-3.68-1.41-7.16-4.07-9.82-2.41-2.41-6.36-4.22-9.82-4.07s-7.32,1.34-9.82,4.07-4.27,6.14-4.07,9.82h0Z"/>
    <path class="cls-1" d="M5.5,11.43h93.81c10.87,0,19.69,8.82,19.69,19.69v70.38c0,10.9-8.85,19.75-19.75,19.75H25.26c-10.9,0-19.75-8.85-19.75-19.75V11.43h0Z"/>
    <path d="M49.46,12.23c-.12,6.91-.2,13.81-.23,20.72-.04,6.91-.03,13.81.01,20.72.03,3.87.07,7.74.12,11.61,0,.53.46,1.04,1.02,1.02s1.03-.45,1.02-1.02c-.09-6.91-.14-13.81-.15-20.72,0-6.91.02-13.81.09-20.72.04-3.87.09-7.74.16-11.61,0-.53-.48-1.04-1.02-1.02s-1.01.45-1.02,1.02h0Z"/>
    <path d="M49.97,64.33c-.21-.03-.1-.01-.05,0-.07-.01-.14-.02-.21-.03-.12-.02-.25-.04-.37-.06-.27-.04-.53-.09-.79-.14-.55-.11-1.09-.23-1.63-.36-1.06-.27-2.1-.6-3.13-1-.55-.21-.81-.32-1.34-.56-.49-.22-.97-.46-1.45-.71-.97-.51-1.9-1.08-2.8-1.7s-1.57-1.14-2.4-1.91c-.39-.35-.76-.72-1.11-1.11-.17-.18-.33-.36-.48-.55-.09-.11-.18-.21-.26-.32-.01-.01-.12-.15-.03-.04-.04-.06-.08-.11-.13-.17-1.36-1.85-2.05-3.79-2.55-6.03-.53-2.37-.79-4.59-.93-7.02s-.13-4.87-.06-7.3c.03-1.23.09-2.46.14-3.69.03-.61.05-1.23.09-1.84,0-.05,0-.11.01-.16,0-.02.03-.24.01-.13-.02.1.02-.07.02-.07.02-.07.03-.13.05-.2,0-.03.08-.16.02-.05.02-.04.05-.08.07-.12.01-.02.12-.18.05-.09-.06.09.1-.11.1-.11.04-.05.09-.09.14-.13,0,0,.13-.09.04-.04-.1.06.07-.04.09-.05.04-.02.08-.05.12-.07.28-.15.58-.28.87-.42.53-.25,1.06-.49,1.6-.72-.1.04.07-.03.07-.03.07-.03.14-.06.21-.09.12-.05.25-.1.37-.15.28-.11.56-.22.84-.33.52-.2,1.04-.39,1.56-.58,4.23-1.51,8.56-2.73,12.57-4.78.53-.27,1.06-.56,1.58-.86.46-.26.66-.93.37-1.39s-.9-.65-1.39-.37c-2.11,1.2-4.16,2.11-6.38,2.93-2.1.77-4.24,1.44-6.36,2.17-2.29.79-4.54,1.67-6.71,2.74-.58.29-1.05.67-1.42,1.21s-.49,1.18-.53,1.82c-.08,1.23-.12,2.47-.17,3.7-.2,5.09-.2,10.21.7,15.24.43,2.37,1.05,4.75,2.28,6.84,1.14,1.93,2.73,3.56,4.48,4.93,3.63,2.83,7.92,4.81,12.45,5.65.6.11,1.21.2,1.81.28.53.07,1.04-.52,1.02-1.02-.03-.61-.45-.94-1.02-1.02h0Z"/>
    <path d="M65.37,11.87c-.11,5.35-.06,10.7.04,16.05.09,5.32.22,10.65.25,15.97.02,3.01,0,6.01-.05,9.02-.01.53.48,1.04,1.02,1.02s1.01-.45,1.02-1.02c.11-5.35.06-10.7-.04-16.05s-.22-10.65-.25-15.97c-.02-3.01,0-6.01.05-9.02.01-.53-.48-1.04-1.02-1.02s-1.01.45-1.02,1.02h0Z"/>
    <path d="M81.78,12.48c-.15,5.38-.2,10.76-.21,16.14s.03,10.26.01,15.39c0,2.96-.03,5.93-.08,8.89,0,.53.48,1.04,1.02,1.02s1.01-.45,1.02-1.02c.09-5.19.09-10.37.08-15.56s-.03-10.37.02-15.55c.03-3.1.09-6.21.17-9.31.01-.53-.48-1.04-1.02-1.02s-1,.45-1.02,1.02h0Z"/>
    <path d="M97.83,12.48c-.01,5.13-.04,10.25-.05,15.38-.01,5.08-.02,10.16,0,15.24,0,3.27.02,6.54.04,9.81,0,.53.47,1.04,1.02,1.02s1.02-.45,1.02-1.02c-.04-5.56-.05-11.13-.05-16.69,0-4.96.02-9.92.03-14.88.01-2.95.02-5.9.03-8.86,0-.53-.47-1.04-1.02-1.02s-1.02.45-1.02,1.02h0Z"/>
  </g>
  <path d="M7.32,93.8c.54-1.4,1.26-2.86,2.16-4.17.1-.15.2-.29.31-.43.04-.05.07-.1.11-.14.02-.02.2-.25.06-.08.24-.3.48-.6.74-.89.45-.51.93-1,1.43-1.46,1.07-.98,1.97-1.65,3.3-2.43.62-.36,1.25-.69,1.9-.99.14-.06.27-.12.41-.18.27-.12-.19.07.09-.04.08-.03.17-.07.25-.1.33-.13.67-.25,1-.37.68-.23,1.36-.42,2.06-.58.32-.07.64-.14.96-.19.18-.03.35-.06.53-.08.03,0,.33-.04.08-.01.12-.01.24-.03.35-.04,1.38-.15,2.78-.16,4.17,0,.09.01.18.02.27.03-.25-.03.05,0,.08.01.18.03.35.06.53.09.35.06.7.14,1.05.22.69.17,1.37.38,2.04.63.14.05.28.11.41.16.08.03.16.07.25.1-.21-.09.06.03.08.04.33.14.65.29.96.46.63.32,1.25.68,1.85,1.07.3.19.59.4.88.61.12.09.24.18.36.27-.18-.14.06.04.08.06.09.07.19.15.28.22.55.45,1.08.93,1.58,1.44s.94.99,1.37,1.53c.06.07.11.14.17.21.02.02.2.25.06.08.11.14.22.28.32.43.21.29.41.58.61.88.39.6.75,1.21,1.07,1.85.15.29.29.58.42.88.04.08.07.16.11.24.12.27-.07-.19.04.08.08.19.15.38.23.58.24.64.44,1.29.61,1.95.09.34.17.69.24,1.04.03.15.06.29.08.44.01.09.03.18.04.26,0,.04.06.42.03.17.18,1.4.19,2.81.04,4.21,0,.09-.02.18-.03.27,0,.03-.04.33,0,.09-.03.18-.05.36-.08.53-.06.35-.13.71-.21,1.06-.16.7-.36,1.39-.59,2.07-.11.31-.22.62-.34.93-.03.08-.07.17-.1.25-.11.28.08-.18-.04.09-.09.19-.17.38-.26.57-.29.63-.62,1.24-.98,1.83s-.77,1.22-1.21,1.8c-.01.02-.2.26-.06.08-.06.07-.11.14-.17.21-.1.13-.21.26-.31.38-.24.29-.49.57-.75.84-.99,1.06-2.02,1.94-3.05,2.65-.59.41-1.21.78-1.84,1.12-.29.15-.59.3-.89.44-.08.04-.16.07-.25.11-.02.01-.3.13-.09.04-.19.08-.39.16-.59.23-3.44,1.3-6.9,1.56-10.54,1.62-.88.02-1.76.02-2.65.02-.53,0-1.04.47-1.02,1.02s.45,1.02,1.02,1.02c3.83,0,7.71-.05,11.44-.99,3.15-.8,6.03-2.31,8.47-4.45,4.53-3.98,7.35-10,7.25-16.06s-3.22-11.88-7.92-15.63c-2.36-1.89-5.09-3.31-8.05-4s-6.05-.64-9.01.03c-5.84,1.34-11.2,5.21-13.97,10.57-.45.86-.83,1.76-1.18,2.67-.19.5.21,1.14.71,1.25.58.13,1.05-.18,1.25-.71h0Z"/>
  <path d="M20.92,97c-.18.31-.31.64-.41.98-.07.23-.12.47-.16.71-.05.32-.09.64-.1.96s.03.63.07.94c.03.22.08.45.16.66.1.28.23.57.4.82.33.47.74.86,1.23,1.17.15.1.31.18.48.25.24.1.47.2.72.26.41.1.85.16,1.27.13s.85-.09,1.25-.22.8-.31,1.15-.55.69-.5.97-.82.54-.67.72-1.06.34-.8.4-1.23c.04-.27.07-.53.07-.8s-.04-.54-.08-.8c-.03-.16-.07-.32-.12-.47-.08-.23-.18-.45-.3-.67s-.26-.39-.41-.58c-.1-.12-.2-.24-.32-.35-.29-.27-.62-.51-.97-.7s-.74-.35-1.14-.45c-.79-.21-1.63-.23-2.42-.03-.15.04-.31.09-.45.14-.23.09-.45.18-.66.31s-.4.27-.58.43c-.12.11-.24.22-.34.35-.16.19-.31.39-.44.6-.13.23-.17.53-.1.79.07.24.25.49.47.61.24.12.52.19.79.1s.47-.23.61-.47c.07-.11.14-.22.22-.32l-.16.21c.15-.19.32-.36.51-.51l-.21.16c.2-.15.41-.28.64-.37l-.24.1c.27-.11.56-.19.85-.23l-.27.04c.34-.05.69-.04,1.03,0l-.27-.04c.36.05.72.15,1.05.29l-.24-.1c.3.13.59.29.85.49l-.21-.16c.22.17.42.37.6.59l-.16-.21c.15.2.28.41.37.64l-.1-.24c.09.22.16.46.19.7l-.04-.27c.04.3.04.61,0,.92l.04-.27c-.04.3-.12.6-.24.88l.1-.24c-.12.29-.28.56-.48.81l.16-.21c-.2.26-.43.48-.69.68l.21-.16c-.27.2-.56.37-.87.51l.24-.1c-.31.13-.63.22-.96.26l.27-.04c-.3.04-.61.04-.91,0l.27.04c-.29-.04-.57-.11-.84-.23l.24.1c-.27-.11-.51-.26-.74-.43l.21.16c-.2-.15-.38-.32-.54-.52l.16.21c-.13-.17-.24-.36-.32-.56l.1.24c-.11-.26-.18-.54-.22-.82l.04.27c-.05-.4-.04-.8.01-1.2l-.04.27c.06-.44.16-.88.34-1.29l-.1.24c.04-.1.09-.2.15-.29.13-.23.17-.53.1-.79-.07-.24-.25-.49-.47-.61-.24-.12-.52-.19-.79-.1s-.47.23-.61.47Z"/>
  <path d="M33.17,96.48c-.74-1.58-1.88-2.94-3.31-3.94-1.31-.91-2.87-1.42-4.46-1.55s-3.2.21-4.65.89c-1.55.72-2.85,1.9-3.84,3.29-1.25,1.76-1.88,3.97-1.76,6.13s.99,4.32,2.53,5.94c1.4,1.47,3.32,2.54,5.34,2.84,2.2.33,4.46-.09,6.38-1.23s3.26-2.82,4.04-4.85c.72-1.9.82-4.07.29-6.03-.14-.51-.34-1.01-.56-1.49-.1-.22-.39-.41-.61-.47-.24-.07-.57-.04-.79.1-.5.32-.6.87-.37,1.39.02.05.05.1.07.16.09.19-.09-.23-.01-.03.04.11.08.21.12.32.08.21.14.43.2.65s.11.44.15.66c.02.09.07.49.02.12.01.11.03.22.04.34.04.45.05.91.02,1.36,0,.11-.02.23-.03.34,0,.06-.01.11-.02.17-.02.21.04-.26,0-.05-.03.22-.07.45-.12.67-.1.44-.23.88-.39,1.3-.02.05-.04.11-.06.16-.08.2.1-.23.01-.03-.04.09-.08.17-.12.26-.11.22-.22.44-.35.65-.11.18-.22.35-.34.52-.06.09-.14.18-.2.27.16-.25.07-.09.02-.03s-.1.12-.14.17c-.31.36-.64.69-1.01.99-.04.04-.1.07-.14.11.01-.01.2-.15.06-.05-.1.07-.19.14-.29.21-.21.15-.43.29-.66.41-.19.11-.39.21-.59.3-.05.03-.11.05-.16.07-.07.03-.25.07.02,0-.12.04-.24.1-.36.14-.44.16-.9.28-1.36.37-.12.02-.24.04-.35.06-.22.03.25-.03.03,0-.06,0-.12.01-.18.02-.24.02-.48.04-.72.04s-.48,0-.72-.02c-.11,0-.22-.02-.33-.03-.08,0-.21-.06.06,0-.08-.02-.16-.02-.23-.04-.45-.08-.89-.2-1.32-.35-.11-.04-.21-.08-.32-.12-.07-.03-.23-.13.03.01-.05-.03-.11-.05-.16-.07-.21-.1-.41-.2-.61-.31-.18-.1-.36-.21-.54-.33-.1-.06-.19-.13-.28-.19-.05-.03-.09-.07-.14-.1-.03-.02-.06-.05-.09-.07.13.1.15.12.07.05-.35-.29-.69-.6-1-.94-.14-.15-.27-.32-.4-.48.22.25-.03-.04-.08-.11-.08-.11-.15-.22-.22-.33-.11-.18-.22-.36-.32-.54-.05-.1-.1-.2-.15-.31-.03-.05-.05-.11-.07-.16-.02-.04-.03-.08-.05-.11.06.15.07.17.03.07-.18-.45-.32-.91-.42-1.39-.02-.11-.04-.22-.06-.33,0-.06-.01-.12-.03-.18.07.28.01.11,0,.03-.03-.25-.05-.49-.05-.74s0-.5,0-.74c0-.12.02-.25.03-.37,0-.05.01-.1.02-.15.03-.26-.03.2,0,0,.08-.49.18-.97.34-1.45.08-.24.18-.46.26-.7-.1.3.01-.02.05-.1.06-.13.13-.26.19-.39.21-.39.45-.76.71-1.12.03-.04.06-.08.09-.12-.19.26-.08.11-.04.05.06-.07.11-.14.17-.21.13-.15.26-.3.4-.45.26-.27.54-.52.83-.76.04-.03.07-.06.11-.09-.26.21-.12.09-.06.05s.12-.09.18-.13c.16-.11.32-.22.49-.32.3-.18.62-.35.94-.5.03-.01.07-.03.1-.04.12-.05-.26.11-.1.04.08-.03.16-.07.24-.1.18-.07.36-.13.54-.18.32-.09.64-.17.97-.22.08-.01.17-.03.25-.04-.4.06-.07.01.03,0,.17-.02.34-.03.51-.04.34-.01.68,0,1.02.03.09,0,.17.02.25.03s.26.04-.1-.01c.04,0,.08.01.13.02.17.03.34.06.5.1.33.08.67.17.99.29.08.03.16.06.24.09.07.03.23.1-.08-.04.03.01.07.03.1.04.17.07.33.15.49.24.31.16.61.35.9.55.07.05.14.1.22.16.12.09-.1-.08-.1-.08.03.01.08.06.11.08.15.12.3.25.44.39.27.25.53.53.76.81.05.06.1.12.15.19-.23-.29,0,0,.04.06.12.17.24.35.35.53.2.33.39.67.55,1.03.23.48.96.64,1.39.37.5-.32.61-.88.37-1.39Z"/>
</svg>