<?xml version="1.0" encoding="UTF-8"?>
<svg id="Layer_1" data-name="Layer 1" xmlns="http://www.w3.org/2000/svg" viewBox="0 0 125.05 131.38">
  <defs>
    <style>
      .cls-1 {
        fill: none;
        stroke: #000;
        stroke-linecap: round;
        stroke-linejoin: round;
        stroke-width: 3.14px;
      }

      .cls-2 {
        fill: #fec766;
      }
    </style>
  </defs>
  <g>
    <path class="cls-2" d="M31.31,103.9c.91-17.05,1.81-34.1,2.72-51.14.21-3.94.33-7.9.84-11.82l-.5,3.69c.41-3.02,1.05-6,2.2-8.83l-1.4,3.32c.62-1.47,1.38-2.86,2.33-4.14l-2.17,2.81c.77-.99,1.63-1.87,2.61-2.64l-2.81,2.17c.9-.67,1.85-1.21,2.87-1.65l-3.32,1.4c1.24-.49,2.51-.8,3.83-1l-3.69.5c4.17-.53,8.47-.15,12.66-.04,4.48.12,8.95.24,13.43.35,8.87.23,17.74.47,26.6.7,4.78.13,9.69-.05,14.45.45l-3.69-.5c.7.09,1.37.24,2.04.49l-3.32-1.4c.42.19.78.4,1.14.67l-2.81-2.17c.17.14.33.3.46.47l-2.17-2.81c.22.31.38.59.54.94l-1.4-3.32c.12.36.21.71.28,1.09l-.5-3.69c.3,2.22.28,4.51.37,6.74.1,2.41.2,4.82.28,7.22.17,4.82.3,9.64.39,14.46.18,9.64.21,19.28.09,28.92-.07,5.48-.19,10.97-.36,16.45l10.2-13.39c-9.09,1.81-18.24,3.34-27.43,4.58l3.69-.5c-17.41,2.33-34.96,3.62-52.52,3.86,4.63,4.63,9.26,9.26,13.89,13.89.12-6.41.66-12.8,1.5-19.15l-.5,3.69c2.38-17.54,7.08-34.64,11.78-51.67l-27.29-3.69c1.4,13.24,2.8,26.48,4.2,39.72.44,4.18.74,8.42,1.47,12.55,1.15,6.54,6.46,12.11,12.83,13.8,4.12,1.1,7.92.5,12.03.03,3.2-.37,6.41-.74,9.61-1.13,7.64-.93,15.27-1.93,22.89-2.96,3.28-.44,6.57-.85,9.83-1.36,4.24-.67,8.2-3.67,10.35-7.32,1.94-3.29,2.23-6.93,2.42-10.64.67-12.98.24-26.01-1.27-38.92-.58-4.98-.78-10.07-3.27-14.56-2.21-3.99-5.8-6.62-10.03-8.13-1.1-.39-2.12-.47-3.31-.63-1.33-.18-2.5-.34-3.82-.23-7.44.67-14.91,1.94-22.28,3.17-6.4,1.06-12.77,2.27-19.11,3.61-2.91.62-5.97,1.08-8.8,2.02-4.27,1.41-7.68,3.87-10.07,7.74s-2.62,8.86-1.56,13.21c.74,3.04,2.1,6.01,3.17,8.94,1.13,3.12,2.27,6.23,3.4,9.35.57,1.56,1.13,3.12,1.7,4.67,1.27,3.47,2.44,6.16,5.04,8.86,3.01,3.13,7.86,4.92,12.17,4.67,2.69-.15,5.4-.7,8.08-1.08,3.24-.45,6.49-.91,9.73-1.36s6.4-.71,9.53-1.35c7.95-1.61,13.22-9.27,13.05-17.14-.08-3.62-.68-7.49-1.96-10.91-1.69-4.48-3.9-8.74-7.47-12.05-3.36-3.1-7.61-5.74-12.13-6.7-2.25-.48-4.72-.88-7.04-.68-3.84.33-6.32,1-9.77,2.63-3.74,1.76-6.89,5.15-9.02,8.62-1.08,1.74-1.87,3.76-2.49,5.7-.67,2.1-.93,4.38-.99,6.57-.11,4.03,1.07,8.88,3.37,12.24,2.77,4.05,6.15,6.99,10.66,8.89,4.08,1.72,8.25,2.32,12.64,1.73,1.59-.21,3.02-.37,4.5-.96,3.66-1.45,5.12-2.34,8.21-4.87,2.59-2.12,4.07-6.62,4.07-9.82,0-3.41-1.51-7.48-4.07-9.82s-6.12-4.23-9.82-4.07l-3.69.5c-2.35.66-4.4,1.85-6.13,3.57l-.24.2,2.81-2.17c-.58.44-1.18.79-1.84,1.1l3.32-1.4c-.86.36-1.73.59-2.65.71l3.69-.5c-.93.1-1.85.09-2.77-.03l3.69.5c-.92-.15-1.81-.39-2.67-.74l3.32,1.4c-.76-.33-1.45-.74-2.12-1.23l2.81,2.17c-.57-.45-1.07-.93-1.53-1.49l2.17,2.81c-.45-.58-.81-1.18-1.12-1.85l1.4,3.32c-.32-.76-.53-1.54-.65-2.35l.5,3.69c-.11-.92-.09-1.83.03-2.75l-.5,3.69c.15-.92.4-1.81.76-2.67l-1.4,3.32c.38-.85.85-1.64,1.42-2.38l-2.17,2.81c.46-.56.95-1.06,1.51-1.52l-2.81,2.17c.66-.5,1.35-.91,2.11-1.24l-3.32,1.4c.69-.26,1.38-.44,2.11-.56l-3.69.5c1-.13,1.98-.12,2.98,0l-3.69-.5c1.01.16,1.96.43,2.91.8l-3.32-1.4c1.06.46,2.04,1.02,2.96,1.72l-2.81-2.17c.92.73,1.73,1.56,2.46,2.48l-2.17-2.81c.88,1.18,1.59,2.45,2.17,3.8l-1.4-3.32c.71,1.76,1.16,3.57,1.43,5.45l-.5-3.69c.13,1.01.23,2.02.16,3.04l.5-3.69c-.05.36-.12.68-.23,1.03l1.4-3.32c-.08.22-.19.42-.32.61l2.17-2.81c-.14.2-.31.37-.5.52l2.81-2.17c-.2.15-.42.28-.65.37l3.32-1.4c-1.73.64-3.72.7-5.54.95-2.03.28-4.05.57-6.08.85-4.05.57-8.11,1.13-12.16,1.7l3.69-.5c-.66.09-1.29.14-1.95.09l3.69.5c-.25-.03-.5-.09-.73-.19l3.32,1.4c-.23-.1-.45-.23-.64-.39l2.81,2.17c-.19-.16-.35-.34-.49-.55l2.17,2.81c-.21-.33-.37-.65-.53-1l1.4,3.32c-1.63-4.08-3.02-8.26-4.53-12.39-.74-2.02-1.47-4.05-2.21-6.07s-1.65-3.98-2.05-6.05l.5,3.69c-.05-.38-.07-.72-.06-1.11l-.5,3.69c.02-.24.07-.47.15-.7l-1.4,3.32c.08-.23.19-.44.34-.64l-2.17,2.81c.14-.19.3-.35.49-.49l-2.81,2.17c.3-.2.58-.35.92-.5l-3.32,1.4c3.15-1.12,6.65-1.59,9.92-2.28,3.49-.73,6.99-1.42,10.5-2.07,7.01-1.29,14.06-2.41,21.13-3.37l-3.69.5c2.31-.31,4.75-.85,7.09-.67l-3.69-.5c.52.07.98.19,1.46.38l-3.32-1.4c.23.11.45.24.65.39l-2.81-2.17c.28.24.5.47.72.76l-2.17-2.81c.2.3.35.59.5.92l-1.4-3.32c.41,1.07.57,2.18.73,3.31l-.5-3.69c1.01,7.58,1.67,15.21,1.93,22.85.13,3.78.17,7.56.12,11.35s0,7.65-.47,11.38l.5-3.69c-.04.25-.12.5-.23.73l1.4-3.32-.21.31,2.17-2.81-.26.24,2.81-2.17-.3.18,3.32-1.4c-1.75.72-3.95.72-5.81.98-2.13.3-4.26.59-6.39.87l3.69-.5c-6.07.81-12.14,1.59-18.21,2.33-2.96.36-5.91.71-8.87,1.05-2.76.32-5.75,1-8.52.67l3.69.5c-.38-.07-.72-.16-1.08-.29l3.32,1.4c-.36-.16-.65-.33-.96-.57l2.81,2.17c-.18-.15-.34-.31-.49-.48l2.17,2.81c-.28-.37-.5-.75-.69-1.17l1.4,3.32c-.29-.79-.45-1.58-.56-2.41l.5,3.69c-1.92-15.92-3.38-31.92-5.07-47.87.07-1.91-.33-3.7-1.2-5.35-.56-1.72-1.52-3.21-2.87-4.47-2.29-2.11-4.88-3.4-7.98-3.82s-6.27-.02-8.86,1.65c-3.05,1.96-5.4,4.74-6.38,8.3-5.33,19.28-10.32,38.55-12.67,58.46-.63,5.33-1.01,10.69-1.11,16.05-.14,7.43,6.48,13.99,13.89,13.89,22.15-.3,44.23-2.35,66.11-5.8,5.86-.93,11.71-1.97,17.53-3.13l3.32-1.4c1.62-.87,2.92-2.07,3.9-3.58,1.92-2.48,2.88-5.23,2.98-8.42.53-16.95.58-33.91.15-50.86-.11-4.24-.24-8.47-.41-12.71-.08-2.08-.17-4.15-.27-6.23-.04-.96-.08-1.91-.14-2.87-.13-1.97-.27-4.04-.89-5.91-.91-2.74-2.27-5.25-4.33-7.32-1.8-1.81-3.6-2.82-5.85-3.77-2.94-1.24-5.94-1.7-9.16-1.8-4.23-.13-8.45-.22-12.68-.33-8.45-.22-16.91-.45-25.36-.67-4.23-.11-8.45-.22-12.68-.33s-8.15-.39-12.21-.22c-2.97.12-6.09.41-8.93,1.32-2.39.77-4.9,1.77-6.97,3.24-3.95,2.8-7.39,6.23-9.57,10.63-3.61,7.27-4.78,15.04-5.23,23.08-.94,16.93-1.8,33.87-2.7,50.81-.11,2.08-.22,4.16-.33,6.24-.18,3.44,1.68,7.43,4.07,9.82s6.36,4.22,9.82,4.07,7.32-1.34,9.82-4.07,3.86-6,4.07-9.82h0Z"/>
    <path class="cls-1" d="M27.08,7.46h74.12c10.87,0,19.69,8.82,19.69,19.69v90.13H7.39V27.15c0-10.87,8.82-19.69,19.69-19.69Z"/>
    <path d="M9.01,61.62c2.14-.05,4.28-.06,6.42-.08,2.51-.03,5.02-.07,7.53-.17,3.12-.12,6.23-.32,9.34-.58,1.85-.16,3.7-.34,5.54-.54,1.02-.11,2.04-.23,3.06-.35s2.11-.23,3.16-.42c3.76-.69,7.22-2.72,10.16-5.11,2.62-2.13,4.68-4.93,6.18-7.94s2.56-6.46,3.18-9.86c.51-2.82.76-5.7.97-8.55.17-2.3.25-4.61.27-6.92.03-3.08-.02-6.16-.07-9.25-.02-1.02-.03-2.03-.05-3.05,0-.5-.42-.93-.93-.93s-.93.42-.93.93c.06,3.44.12,6.88.12,10.31,0,2.37-.04,4.74-.17,7.1s-.35,4.95-.65,7.41c-.01.1-.02.19-.04.29,0,.04-.04.27-.02.14-.03.23-.06.45-.1.67-.06.42-.13.84-.21,1.25-.15.83-.32,1.66-.52,2.49-.4,1.64-.89,3.26-1.51,4.83-.28.71-.58,1.39-.96,2.16s-.77,1.47-1.2,2.17c-.88,1.44-1.73,2.56-2.9,3.78s-2.51,2.27-3.97,3.23c-1.53,1.01-3.16,1.87-4.83,2.45-1.89.65-3.64.82-5.61,1.05s-3.88.44-5.82.63c-3.22.31-6.44.54-9.67.7-2.59.12-5.17.19-7.76.23-2.18.03-4.37.04-6.55.08-.5,0-.99.02-1.49.03s-.93.42-.93.93.42.94.93.93h0Z"/>
    <path d="M9.41,61.92c7.31-.17,14.62-.37,21.94-.52,3.17-.06,6.35-.07,9.51.28.4.05.68.08,1.01.13.38.06.76.12,1.14.19.77.14,1.54.31,2.3.51,1.49.39,2.9.9,4.22,1.55.67.33,1.33.7,1.96,1.11.58.37,1.15.79,1.59,1.15,1.11.9,2.13,1.92,3.05,3.03.44.53.76.95,1.19,1.57.4.58.78,1.18,1.14,1.79s.69,1.24,1.01,1.88.62,1.32.85,1.91c2.38,5.93,2.7,12.18,2.74,18.51.05,6.86.02,13.72.04,20.58,0,.85,0,1.71,0,2.56,0,.5.42.93.93.93s.93-.42.93-.93c-.03-7-.04-13.99-.04-20.99,0-6.54-.07-13.27-2.21-19.52-1.9-5.58-5.26-10.84-10.29-14.08-5.47-3.52-12.18-4.07-18.52-4.05-3.52.01-7.04.14-10.56.22-3.73.09-7.47.18-11.2.27-.91.02-1.83.04-2.74.07-.5.01-.93.42-.93.93s.42.94.93.93h0Z"/>
    <path d="M64.67,87.27c.06-4.24,1.21-8.46,3.29-12.17,1.06-1.88,2.25-3.5,3.73-5.04.71-.74,1.47-1.45,2.27-2.1.42-.34.67-.54,1.11-.86.42-.3.84-.59,1.28-.87,3.59-2.3,7.55-3.6,11.82-4.02,5.04-.49,10.12-.46,15.18-.32s10.11.38,15.16.23c.64-.02,1.28-.05,1.92-.08.5-.03.93-.41.93-.93,0-.48-.42-.95-.93-.93-5.18.26-10.37.06-15.55-.1s-10.3-.22-15.45.17c-2.41.18-4.8.5-7.12,1.2-2.05.62-4.03,1.48-5.88,2.55-3.76,2.18-6.98,5.24-9.31,8.91s-3.88,8.23-4.23,12.74c-.04.54-.06,1.08-.07,1.63,0,.5.43.93.93.93s.92-.42.93-.93h0Z"/>
    <path d="M95.28,60.09c-4.86-.25-9.8-1.26-14.15-3.53-3.94-2.06-7.35-5.1-9.8-8.75-.47-.7-.89-1.43-1.28-2.18-.2-.39-.39-.79-.57-1.19-.08-.19-.17-.37-.25-.56-.07-.16-.02-.04,0,0-.02-.05-.04-.1-.06-.15-.05-.13-.11-.26-.16-.39-.72-1.82-1.29-3.69-1.75-5.59-1.07-4.36-1.61-8.58-1.98-13.02-.39-4.72-.53-9.45-.56-14.18,0-.59,0-1.17,0-1.76,0-.5-.43-.93-.93-.93s-.93.42-.93.93c0,4.84.11,9.68.45,14.51s.86,9.2,1.86,13.71c.84,3.78,2.02,7.59,4.03,10.93,2.34,3.9,5.78,7.2,9.69,9.52,4.4,2.62,9.45,3.91,14.52,4.37.62.06,1.24.1,1.86.13.5.03.93-.44.93-.93,0-.52-.42-.9-.93-.93h0Z"/>
    <path d="M34.95,20.35c-1.04-1.34-2.51-2.31-4.13-2.81s-3.29-.49-4.91-.14c-3.42.74-6.48,3.26-7.42,6.7-.56,2.06-.37,4.27.52,6.21.81,1.76,2.25,3.24,3.94,4.17,1.86,1.04,3.98,1.37,6.08,1.07,1.99-.29,4.03-1.23,5.44-2.69s2.21-3.51,2.34-5.54c.06-.95-.06-1.92-.22-2.85-.17-.98-.44-1.93-.86-2.84-.17-.38-.38-.75-.64-1.09-.15-.2-.3-.36-.55-.43-.22-.06-.52-.03-.71.09-.38.24-.65.86-.33,1.27.25.33.45.69.63,1.06.01.02.05.15.07.16-.04-.02-.07-.18-.02-.06.04.11.09.23.13.34.08.21.14.43.21.65.12.44.22.88.3,1.33.02.1.03.2.05.3,0,.05.01.1.02.15.02.14-.03-.24,0-.04.03.22.05.44.07.66.03.41.05.81.03,1.22,0,.11-.02.22-.03.33,0,.05-.01.1-.02.15-.02.21.03-.22,0,0s-.08.44-.13.66-.11.42-.17.62c-.03.11-.07.21-.11.32-.04.1-.07.27-.13.34l.05-.11s-.02.06-.04.08c-.02.05-.04.09-.06.14-.04.09-.09.18-.14.28-.11.22-.23.43-.36.63-.05.08-.11.17-.17.25-.03.04-.06.08-.09.12-.09.12.01.07.02-.02,0,.06-.15.18-.19.23-.08.09-.16.18-.24.26-.15.15-.3.3-.47.44-.04.03-.31.28-.12.1-.09.09-.21.16-.31.23-.39.27-.8.51-1.23.72-.1.05-.2.09-.29.14-.21.09.19-.08-.02,0-.04.02-.08.03-.12.05-.24.09-.49.18-.73.25-.21.06-.42.12-.63.16-.11.02-.21.04-.32.06-.06.01-.13.02-.19.03-.03,0-.29.05-.13.02s-.05,0-.07,0c-.06,0-.13.01-.19.02-.11,0-.21.02-.32.02-.24.01-.47.02-.71.01s-.47-.02-.71-.05c-.02,0-.11,0-.13-.01l.12.02s-.09-.01-.13-.02c-.13-.02-.26-.04-.38-.07-.43-.09-.86-.21-1.27-.37-.02,0-.26-.12-.28-.11l.11.05s-.07-.03-.11-.05c-.04-.02-.07-.03-.11-.05-.22-.1-.43-.21-.64-.33-.17-.1-.34-.2-.51-.32-.08-.06-.17-.11-.25-.17-.05-.03-.1-.07-.14-.11-.16-.12.14.11,0,0-.34-.28-.67-.57-.97-.89-.15-.16-.29-.33-.43-.5-.09-.11.01.05.03.05-.02,0-.1-.13-.11-.14-.07-.1-.14-.2-.2-.29-.24-.37-.45-.75-.63-1.15-.07-.15.01.04.02.05-.03-.05-.05-.12-.07-.18-.04-.1-.07-.2-.11-.3-.08-.23-.15-.47-.2-.7-.05-.22-.09-.44-.13-.66s.02.22,0,0c0-.04,0-.08-.01-.13-.01-.13-.02-.25-.03-.38-.03-.47-.02-.93.04-1.4,0-.06.05-.27,0,0,0-.04.01-.08.02-.13.02-.12.04-.23.06-.34.05-.24.11-.48.18-.71.06-.2.13-.4.21-.6.02-.06.04-.12.07-.18-.12.21-.02.04,0-.01.05-.12.11-.23.17-.34.2-.39.44-.74.69-1.09.07-.1-.15.19-.04.05.03-.04.06-.08.09-.12.05-.06.11-.13.16-.19.12-.14.25-.27.38-.4.26-.26.54-.5.82-.73.15-.12-.18.13-.03.02.03-.02.05-.04.08-.06.07-.05.15-.11.22-.16.16-.11.32-.21.49-.31.32-.19.64-.36.98-.52.08-.03.15-.07.23-.1-.28.13-.01,0,.06-.02.17-.07.35-.13.52-.19.35-.11.71-.21,1.07-.28.18-.04.36-.07.54-.1.06,0,.18-.01-.1.01.05,0,.1-.01.15-.02.1-.01.2-.02.3-.03.36-.03.73-.04,1.09-.02.16,0,.33.02.49.03.08,0,.16.02.25.03-.34-.03.04,0,.12.02.35.06.69.14,1.03.25.17.05.34.11.51.18.03.01.06.02.09.04.17.07-.21-.09-.04-.02.09.04.18.08.27.13.33.16.65.35.95.56.07.05.14.1.21.15.06.04.17.16-.03-.02.02.02.05.04.08.06.16.13.32.27.47.41.27.26.52.54.75.84.14.17.45.27.66.27.23,0,.5-.1.66-.27s.28-.41.27-.66c-.01-.26-.11-.45-.27-.66Z"/>
    <path d="M34.58,95.84c.07.16-.07-.17,0,0,.02.05.04.11.06.16.05.12.09.24.13.36.08.24.15.49.2.73.03.11.05.23.07.34.01.06.02.12.03.17,0,.03,0,.06.01.09.02.13,0-.03,0-.07.02.24.05.49.06.73.02.5-.03.99-.06,1.49,0,0,.03-.21.01-.1,0,.03,0,.06-.01.09,0,.06-.02.12-.03.17-.02.13-.05.25-.07.38-.05.24-.11.48-.18.71s-.16.48-.25.72c-.01.03-.02.05-.03.08-.04.1.04-.09.04-.09-.03.05-.05.11-.07.16-.05.12-.11.23-.16.34-.22.44-.48.85-.77,1.24-.02.02-.04.05-.05.07,0,0,.12-.15.06-.07-.04.05-.09.11-.13.16-.08.1-.16.19-.25.29-.17.18-.34.35-.52.52-.09.08-.18.16-.27.23-.05.04-.1.07-.14.11,0,0,.15-.11.07-.05-.03.02-.06.05-.1.07-.2.15-.41.28-.62.41s-.45.26-.68.37c-.11.05-.22.09-.33.15,0,0,.18-.07.08-.04-.03.01-.06.02-.08.03-.06.03-.13.05-.19.07-.48.18-.97.31-1.47.41-.12.02-.24.04-.35.06-.18.03.19-.02,0,0-.07,0-.14.02-.21.02-.25.02-.5.04-.75.04s-.5,0-.75-.02c-.13,0-.26-.02-.39-.03-.03,0-.06,0-.09-.01-.11-.01.1.01.1.01-.07-.01-.14-.02-.21-.03-.49-.08-.97-.2-1.44-.37-.11-.04-.22-.08-.33-.13-.09-.04.08.04.08.04,0-.01-.11-.05-.11-.05-.06-.03-.13-.06-.19-.09-.22-.11-.44-.22-.65-.35s-.41-.26-.61-.4c-.03-.02-.18-.14-.07-.05s-.04-.03-.07-.05c-.1-.08-.19-.16-.29-.25-.37-.33-.7-.7-1.02-1.08-.06-.08.06.08.06.07-.02-.02-.04-.05-.05-.07-.04-.05-.07-.09-.1-.14-.07-.1-.15-.21-.22-.31-.14-.21-.27-.43-.39-.65s-.22-.43-.32-.66c-.01-.03-.02-.05-.04-.08,0,0,.07.18.04.09-.02-.05-.04-.11-.07-.16-.05-.12-.09-.24-.13-.36-.16-.47-.28-.95-.36-1.44,0-.06-.02-.12-.03-.17-.02-.1.01.11.01.1,0-.03,0-.06-.01-.09-.01-.13-.03-.25-.04-.38-.02-.24-.02-.48-.02-.73s.02-.51.05-.76c0-.03,0-.06.01-.09,0,0-.03.21-.01.1,0-.06.02-.12.03-.17.02-.11.04-.21.06-.32.08-.37.18-.74.3-1.1.03-.08.06-.17.09-.25.02-.05.04-.1.06-.14.07-.18-.07.17-.02.04.07-.16.15-.33.23-.49.16-.31.34-.61.55-.9.05-.07.11-.15.16-.22.09-.12-.14.17-.04.06.03-.04.06-.08.09-.11.11-.13.22-.26.34-.39.24-.25.49-.49.76-.71.06-.05.13-.1.19-.15.05-.04-.19.15-.06.05.04-.03.08-.06.11-.08.14-.1.28-.19.42-.28.29-.18.59-.35.9-.5.07-.04.15-.07.22-.1.04-.02.07-.03.11-.05.13-.06-.22.09-.05.02.16-.06.31-.12.47-.18.32-.11.66-.21.99-.28.16-.04.33-.07.5-.1.08-.01.16-.02.24-.04.15-.02-.24.03-.09.01.05,0,.09-.01.14-.02.34-.04.68-.06,1.03-.05s.69.02,1.03.06c.04,0,.08.01.12.01.06,0-.26-.04-.09-.01.09.01.17.03.26.04.17.03.33.06.49.1.33.08.66.18.99.3.08.03.15.06.23.09.04.02.07.03.11.05.02,0-.22-.1-.13-.05.02.01.05.02.07.03.15.07.31.14.46.22.31.16.61.34.89.54.07.05.13.1.2.14.03.02.16.12.02.02s0,0,.04.03c.14.11.27.22.39.34.27.25.51.51.74.79.03.03.05.07.08.1.01.02.03.03.04.05.06.08-.09-.12-.08-.1.05.08.11.15.17.23.11.15.21.31.31.47.2.33.38.67.54,1.02.2.44.88.58,1.27.33.46-.3.54-.79.33-1.27-.68-1.53-1.79-2.84-3.17-3.79-1.3-.89-2.82-1.38-4.37-1.54s-3.02.04-4.42.55-2.81,1.39-3.85,2.56c-1.11,1.26-1.87,2.81-2.15,4.46-.38,2.23.07,4.54,1.21,6.5s2.94,3.46,5.09,4.17,4.52.61,6.57-.22,3.89-2.41,4.89-4.49,1.28-4.37.75-6.58c-.13-.56-.33-1.09-.56-1.61-.2-.45-.88-.58-1.27-.33-.46.3-.54.79-.33,1.27Z"/>
  </g>
  <path d="M104.78,17.93c-3.1-1.65-6.97-1.29-9.88.62-.72.47-1.4,1.03-1.97,1.67s-1.09,1.34-1.44,2.12c-.45.99-.66,2.05-.74,3.14-.08,1.03-.01,2.07.21,3.07.44,2.02,1.58,3.89,3.21,5.16s3.46,1.97,5.46,2.1c1.88.11,3.78-.41,5.34-1.46s2.79-2.53,3.65-4.19c.98-1.89,1.16-4.06.63-6.11-.25-.97-.66-1.91-1.16-2.77s-1.18-1.77-1.98-2.45c-.41-.35-.85-.66-1.32-.91-.43-.23-1.03-.12-1.27.33s-.12,1.02.33,1.27c.2.11.4.23.58.35.09.06.18.13.27.19.11.08-.17-.14,0,0,.06.05.12.1.18.15.18.15.35.32.51.49.08.08.16.17.23.26.03.04.06.07.09.11.03.04.24.26.06.07.3.32.54.76.76,1.14.11.19.21.38.31.57.05.1.1.19.14.29.02.05.04.1.07.15.03.06.15.25.02.05.11.17.16.41.22.6.07.22.14.45.2.67.05.21.1.41.13.62.01.06.02.13.03.19.03.17,0-.05,0-.06.05.08.03.28.04.38.04.44.04.88,0,1.33,0,.06-.01.13-.02.19-.02.21.03-.16,0-.03-.02.1-.03.21-.05.31-.05.23-.1.46-.17.69-.06.21-.12.45-.23.65.01-.02.09-.19.01-.04-.03.06-.06.12-.08.18-.06.12-.12.24-.18.35-.2.37-.42.72-.65,1.07-.11.16-.23.32-.34.48s.1-.13.02-.02c-.03.04-.06.08-.09.11-.07.09-.15.18-.23.27-.27.31-.55.6-.85.87-.14.13-.29.25-.44.37-.16.13.17-.13,0,0-.03.02-.06.05-.09.07-.09.07-.19.13-.28.2-.33.22-.69.42-1.05.6-.05.02-.11.05-.16.07-.18.08.16-.06.03-.01-.09.04-.18.07-.27.11-.2.07-.41.14-.61.2s-.4.1-.61.14c-.07.01-.25,0-.3.05.05-.04.19-.02.06,0-.08,0-.16.02-.24.03-.42.04-.85.04-1.27.01-.1,0-.2-.02-.3-.03-.05,0-.1-.01-.15-.02-.14-.01.24.04.04,0-.22-.04-.44-.07-.66-.12-.41-.09-.82-.22-1.22-.37-.02,0-.16-.05-.17-.07,0,0,.21.09.05.02-.09-.04-.18-.08-.28-.13-.2-.1-.4-.2-.59-.31s-.36-.22-.54-.34c-.08-.06-.17-.11-.25-.17-.03-.02-.11-.06-.12-.09.11.08.12.09.04.03l-.05-.04c-.34-.27-.66-.57-.95-.89-.07-.08-.15-.17-.22-.25-.03-.03-.05-.06-.08-.09l-.04-.05c-.06-.08-.05-.06.03.04-.07-.04-.14-.19-.18-.25-.08-.11-.16-.23-.23-.35-.12-.2-.24-.4-.34-.6-.05-.1-.1-.21-.15-.31-.02-.05-.05-.11-.07-.16-.03-.06-.02-.04.03.06-.02-.04-.03-.09-.05-.13-.18-.45-.31-.92-.41-1.39-.02-.11-.04-.23-.06-.34-.01-.07-.03-.14-.03-.21,0,.03.02.21,0,.04-.02-.24-.05-.48-.06-.72-.02-.44,0-.88.03-1.32,0-.11.02-.22.03-.33,0-.06,0-.13.02-.2-.06.23-.01.08,0,.02.04-.24.08-.47.14-.7.05-.22.11-.43.18-.64.03-.1.07-.19.11-.29.05-.14-.02.06-.02.05,0,0,.09-.2.1-.22.17-.34.37-.66.59-.98.05-.07.1-.14.16-.22.09-.12-.04.05-.05.06.04-.04.07-.08.1-.13.12-.15.25-.3.39-.44.26-.27.53-.53.82-.77.07-.06.15-.11.21-.17-.2.2,0,0,.07-.05.16-.12.32-.23.49-.33.32-.2.65-.39.98-.55.08-.04.16-.08.24-.11.05-.02.1-.04.15-.06-.22.12-.11.05-.05.02.18-.07.37-.14.55-.21.36-.12.74-.22,1.11-.3.17-.04.35-.07.53-.09.15-.02-.08.01-.09.01.05,0,.11-.01.16-.02.11-.01.21-.02.32-.03.37-.03.75-.03,1.12-.01.18,0,.36.02.53.05.07,0,.24.06-.03,0,.03,0,.07.01.11.02.11.02.21.04.32.06.37.07.73.17,1.09.3.09.03.17.06.25.09.05.02.1.04.15.06-.22-.07-.13-.06-.07-.03.18.08.36.17.54.26.43.23,1.03.12,1.27-.33.23-.43.12-1.02-.33-1.27Z"/>
  <path d="M104.99,106.99c1.59-.9,2.89-2.32,3.69-3.96s1.18-3.49.97-5.3-.97-3.64-2.26-5.05c-1.13-1.24-2.63-2.13-4.22-2.63s-3.29-.59-4.94-.32-3.16.98-4.44,2.03c-1.46,1.21-2.47,2.94-2.89,4.78-.51,2.26-.21,4.68.89,6.72,1.02,1.89,2.74,3.38,4.71,4.21,2.14.9,4.56,1.02,6.77.28.59-.2,1.17-.45,1.72-.76.42-.24.6-.85.33-1.27s-.81-.59-1.27-.33c-.25.14-.5.26-.76.38-.16.07.14-.06-.02,0-.06.02-.12.05-.18.07-.13.05-.27.1-.4.14-.27.09-.54.16-.82.22-.13.03-.26.05-.39.08-.06.01-.13.02-.19.03-.03,0-.07,0-.1.01.05-.01.18-.02.05,0-.54.06-1.09.08-1.63.04-.11,0-.22-.02-.33-.03-.03,0-.06,0-.08,0-.1-.01.12.02.11.01-.06-.01-.13-.02-.19-.03-.24-.04-.47-.09-.71-.15s-.45-.12-.67-.2c-.11-.04-.23-.08-.34-.12-.05-.02-.1-.04-.16-.06-.19-.08.13.06,0,0-.43-.2-.85-.42-1.25-.67-.09-.06-.19-.12-.28-.19-.05-.04-.11-.07-.16-.11-.03-.02-.2-.15-.08-.06s-.03-.03-.06-.05c-.04-.03-.09-.07-.13-.11-.09-.08-.18-.16-.27-.24-.36-.33-.67-.69-.98-1.06,0,0,.12.16.06.08-.02-.02-.03-.04-.05-.07-.03-.04-.07-.09-.1-.14-.07-.1-.14-.2-.2-.3-.14-.21-.26-.43-.38-.65-.05-.11-.11-.21-.16-.32-.03-.05-.05-.11-.07-.16-.04-.09.04.09.03.08-.01-.04-.03-.07-.05-.11-.1-.24-.18-.48-.25-.73s-.14-.5-.19-.75c-.02-.12-.05-.23-.06-.35,0-.06-.02-.12-.03-.18,0,0,.02.2.01.1,0-.04,0-.08-.01-.12-.06-.5-.07-1.01-.04-1.52,0-.13.02-.26.03-.39,0-.06.01-.12.02-.18.01-.11-.01.1-.01.1,0-.04.01-.08.02-.12.04-.25.09-.51.15-.76s.13-.48.21-.71c.04-.11.08-.22.12-.33.09-.21-.06.13,0-.03.03-.06.06-.13.09-.19.18-.38.39-.75.62-1.1.05-.07.1-.15.15-.22.03-.03.05-.08.08-.11.01-.01-.14.18-.08.1.02-.03.05-.06.07-.09.11-.14.23-.28.36-.41.25-.27.52-.52.8-.75.03-.03.07-.05.1-.08-.24.19-.09.07-.03.03.07-.05.15-.11.23-.16.15-.1.31-.2.47-.3s.31-.17.47-.25c.08-.04.15-.08.23-.11.04-.02.09-.04.13-.06.04-.02.21-.09.04-.02s-.01,0,.03,0c.04-.02.08-.03.12-.05.09-.03.17-.06.26-.09.17-.06.35-.12.53-.17.35-.1.7-.17,1.06-.23.04,0,.08-.01.13-.02.06,0-.25.03-.08.01.1-.01.2-.02.3-.03.18-.02.36-.03.53-.03.37-.01.74,0,1.11.03.09,0,.17.01.26.02.04,0,.09,0,.13.01.02,0,.04,0,.06,0,.11.01-.23-.03-.12-.02.18.03.37.06.55.09.36.07.71.16,1.06.28.18.06.35.12.53.19.04.02.08.03.12.05.02,0,.04.02.06.02.09.04-.14-.06-.12-.05.09.02.18.08.25.11.33.15.65.33.96.52.16.1.31.2.46.31.04.03.07.05.1.08.02.01.03.03.05.04.08.06-.12-.09-.1-.08.08.05.16.13.24.19.28.24.55.5.8.77.12.14.24.28.36.42.1.12-.13-.17-.04-.05.03.04.06.08.09.13.06.09.12.17.18.26.23.34.43.7.6,1.08.02.03.08.2.02.04s0,0,.02.04c.04.1.08.21.12.31.07.19.12.38.17.57s.1.4.13.6c.02.09.03.19.05.28.03.16-.03-.22,0-.06,0,.05.01.11.02.16.04.41.06.82.04,1.23,0,.2-.02.39-.04.59,0,.05-.01.09-.02.14-.02.16.03-.23,0-.04-.02.1-.03.2-.05.3-.07.4-.17.79-.3,1.17-.06.2-.14.39-.21.58,0,.02-.02.04-.03.07,0,.02.09-.2.05-.11-.02.04-.04.09-.06.13-.04.09-.09.19-.13.28-.18.36-.38.71-.61,1.05-.06.09-.12.17-.18.25-.03.04-.06.08-.08.11-.09.12.14-.17.01-.02-.13.16-.26.32-.4.47-.28.3-.57.58-.89.83-.02.01-.04.03-.06.04-.08.06.1-.08.09-.07-.04.03-.08.06-.12.09-.08.06-.16.11-.24.17-.17.12-.35.23-.54.33-.42.24-.6.85-.33,1.27s.82.59,1.27.33Z"/>
</svg>