<?xml version="1.0" encoding="UTF-8"?>
<svg id="Layer_1" data-name="Layer 1" xmlns="http://www.w3.org/2000/svg" viewBox="0 0 125.05 131.38">
  <defs>
    <style>
      .cls-1 {
        fill: none;
        stroke: #000;
        stroke-linecap: round;
        stroke-linejoin: round;
        stroke-width: 3.14px;
      }

      .cls-2 {
        fill: #e9604d;
      }
    </style>
  </defs>
  <path class="cls-2" d="M5.09,19.98c-.43,26.28-.27,52.57.5,78.84.1,3.6-.13,7.52.76,11.03,1.45,5.71,7.22,9.03,12.86,8.69,2.87-.17,5.72-.56,8.6-.66s5.96-.06,8.93.07c11.86.52,23.59,2.51,35.39,3.76,13.67,1.44,27.66,1.67,41.01-2.11,3.93-1.11,6.37-4.64,6.56-8.61,1.14-24.38.34-48.84-2.43-73.09-.85-7.46-1.87-14.91-3.04-22.33l-.9-2.13c-.56-1.04-1.33-1.88-2.3-2.51-1.59-1.23-3.37-1.87-5.41-1.92-22.08-.53-44.18-.4-66.26.4-6.31.23-12.61.51-18.92.85-4.75.25-9.02,3.89-8.93,8.93.39,21.1,2.33,42.13,5.6,62.97.9,5.72,1.91,11.41,3.03,17.09.37,1.86,1.76,3.53,3.2,4.64s3.45,2,5.41,1.92c4.15-.19,7.23-2.69,8.61-6.56,2.9-8.13,2.32-17.22,2.36-25.72.04-8.43.08-16.86.12-25.29.02-4.88.04-9.75.07-14.63l-8.93,8.93.3.02-2.37-.32c.29.05.53.12.8.23l-2.13-.9c.25.13.46.26.69.44l-1.81-1.4c.21.19.4.39.58.61l-1.4-1.81c.3.41.54.84.75,1.3l-.9-2.13c.41.99.66,2.02.82,3.08l-.32-2.37c2.56,19.1,4.77,38.26,7.16,57.39.31,2.46.79,4.49,2.62,6.31,1.55,1.55,4.09,2.72,6.31,2.62s4.7-.86,6.31-2.62c1.7-1.85,2.34-3.83,2.62-6.31,1.93-17.29,1.78-34.79-.47-52.04-.73-5.59-1.58-11.14-2.68-16.67-5.74,1.58-11.48,3.17-17.22,4.75,5.5,19.89,9.67,40.11,12.57,60.54.37,2.58,1.12,5.22,2.51,7.45,2.45,3.91,6.27,6.29,10.92,6.44,5.03.16,8.66-4.23,8.93-8.93,1.09-18.89-.45-37.93-4.32-56.45-1.07-5.14-2.35-10.23-3.81-15.27-2.08,3.66-4.16,7.32-6.24,10.98.71-.25,1.42-.42,2.16-.53l-2.37.32c.87-.09,1.71-.08,2.58.01l-2.37-.32c1.12.16,2.19.46,3.25.89l-2.13-.9c1.05.46,2.03,1.03,2.96,1.71l-1.81-1.4c1.03.8,1.93,1.7,2.75,2.72l-1.4-1.81c1.07,1.41,1.93,2.94,2.63,4.56l-.9-2.13c1.3,3.15,1.99,6.49,2.46,9.86l-.32-2.37c1.09,8.36.56,16.79-.03,25.16-.29,4.21-.6,8.43-.71,12.65-.06,2.14-.06,4.29,0,6.43.08,2.37.09,4.97.79,7.23,1.35,4.37,4.83,7.68,9.41,8.29,3.77.51,7.65-.82,10.28-3.64s3.76-6.48,3.68-10.23c-.04-2.04-.33-4.08-.52-6.11-.82-8.69-1.73-17.38-2.74-26.05-1.21-10.39-2.62-20.76-4.02-31.12l.32,2.37c-.18-1.44-.25-2.87-.09-4.31l-.32,2.37c.1-.74.27-1.43.54-2.12l-.9,2.13c.17-.36.35-.7.58-1.03l-1.4,1.81c.25-.31.51-.58.82-.84l-1.81,1.4c.26-.18.5-.33.78-.48l-2.13.9c.43-.18.83-.29,1.29-.35l-2.37.32c.34-.02.66-.01,1,.02l-2.37-.32c.46.08.88.19,1.31.36l-2.13-.9c.54.24,1.02.53,1.5.89l-1.81-1.4c.46.38.85.79,1.21,1.26l-1.4-1.81c.39.56.69,1.14.96,1.77l-.9-2.13c.45,1.19.71,2.42.88,3.68l-.32-2.37c.7,5.77.97,11.63,1.28,17.43s.54,11.88.65,17.82c.11,5.94.12,11.89.02,17.83-.11,6.57-.47,13.06,2.57,19.12,3.9,7.78,14.19,11.44,21.86,7.08,2.55-1.45,4.68-4.68,4.42-7.71-1.54-18.29-3.07-36.58-4.61-54.87-.22-2.57-.43-5.13-.65-7.7-.16-1.94-.34-3.84-.1-5.77l-.32,2.37c.12-.82.3-1.61.59-2.39l-.9,2.13c.22-.53.49-1.01.83-1.47l-1.4,1.81c.24-.28.48-.52.77-.74l-1.81,1.4c.23-.16.45-.28.71-.4l-2.13.9c.37-.14.72-.23,1.11-.29l-2.37.32c.28-.02.53-.03.81,0l-2.37-.32c.34.05.65.12.98.24l-2.13-.9c.31.14.59.3.86.5l-1.81-1.4c.34.28.64.59.92.93l-1.4-1.81c.4.55.72,1.12,1,1.75l-.9-2.13c.49,1.17.79,2.39.98,3.64l-.32-2.37c.28,2.13.16,4.29.15,6.43-.01,2.64-.03,5.29-.04,7.93-.03,5.12-.05,10.25-.08,15.37-.05,10.41-.11,20.82-.16,31.24-.02,4.67,4.12,9.14,8.93,8.93s8.9-3.92,8.93-8.93c.06-10.99.12-21.98.17-32.97.03-5.45.06-10.91.09-16.36s.54-10.76-.82-15.88c-1.67-6.29-6.56-11.84-13.5-11.76-4.43.05-8.19,2.42-10.66,5.99-1.75,2.54-2.29,5.57-2.6,8.57-.21,2.07.03,4.13.21,6.2.23,2.73.46,5.46.69,8.19.46,5.46.92,10.92,1.38,16.39,1.04,12.41,2.09,24.83,3.13,37.24l4.42-7.71c-.19.11-.38.22-.58.3l2.13-.9c-.5.2-.99.34-1.52.41l2.37-.32c-.43.03-.84.03-1.26,0l2.37.32c-.65-.09-1.27-.25-1.88-.49l2.13.9c-.73-.32-1.39-.71-2.02-1.19l1.81,1.4c-.53-.43-1-.9-1.44-1.43l1.4,1.81c-.53-.7-.93-1.43-1.27-2.24l.9,2.13c-.45-1.17-.74-2.36-.92-3.59l.32,2.37c-.4-3.24-.16-6.52-.1-9.77.06-3.63.09-7.27.07-10.9-.03-7.27-.22-14.53-.56-21.79-.37-7.74-.67-15.59-1.78-23.27-.71-4.93-3.1-9.13-7.16-12.05s-10.2-3.32-14.65-.62c-4.7,2.86-6.7,8.24-6.7,13.53,0,2.12.39,4.23.69,6.32s.59,4.24.87,6.37l-.32-2.37c1.24,9.23,2.37,18.47,3.4,27.72.51,4.59.99,9.17,1.44,13.76.23,2.3.45,4.59.66,6.89.2,2.14.59,4.39.31,6.54l.32-2.37c-.08.41-.18.79-.32,1.18l.9-2.13c-.16.35-.31.63-.54.94l1.4-1.81c-.23.27-.46.48-.74.7l1.81-1.4c-.18.13-.38.25-.58.34l2.13-.9c-.32.13-.6.21-.94.27l2.37-.32c-.21.03-.42.02-.63,0l2.37.32c-.21-.03-.41-.09-.61-.18l2.13.9c-.2-.09-.38-.21-.54-.36l1.81,1.4-.23-.23,1.4,1.81c-.21-.27-.35-.52-.5-.82l.9,2.13c-.16-.43-.26-.85-.34-1.3l.32,2.37c-.74-5.56-.29-11.41.05-16.99s.88-11.59,1.03-17.41c.17-6.38-.22-12.77-1.39-19.05s-3.63-12.1-7.95-16.62c-5.25-5.48-13.98-8.5-21.34-5.9-2.12.75-4.24,2.03-5.34,4.1s-1.58,4.54-.9,6.88c2.83,9.78,4.94,19.75,6.31,29.84l-.32-2.37c1.75,13.09,2.26,26.32,1.5,39.5l8.93-8.93c-.2,0-.39-.01-.59-.04l2.37.32c-.28-.06-.53-.13-.8-.24l2.13.9c-.25-.13-.47-.26-.7-.43l1.81,1.4c-.29-.25-.55-.51-.79-.81l1.4,1.81c-.37-.5-.65-1.03-.91-1.6l.9,2.13c-.59-1.44-.86-2.92-1.08-4.45-.32-2.25-.65-4.5-1-6.75-.67-4.33-1.41-8.66-2.2-12.97-1.6-8.7-3.45-17.36-5.54-25.96-1.19-4.89-2.46-9.76-3.8-14.62-1.24-4.5-6.39-7.72-10.98-6.24-4.88,1.58-7.22,6.07-6.24,10.98.88,4.42,1.62,8.87,2.23,13.34l-.32-2.37c2.36,17.57,2.56,35.38.6,53h17.86c-2.35-18.87-4.68-37.73-7.05-56.6-.41-3.23-.82-6.18-2.49-9.06-1.06-1.84-2.51-3.37-4.3-4.51-1.94-1.24-3.92-1.65-6.19-1.82-2.08-.16-4.92,1.09-6.31,2.62-1.61,1.75-2.6,3.89-2.62,6.31-.04,9.67-.09,19.34-.13,29.01-.02,4.79-.04,9.59-.07,14.38s.07,9.17-.54,13.71l.32-2.37c-.31,2.1-.77,4.16-1.49,6.16h17.22c-1.77-8.96-3.26-17.96-4.47-27.01l.32,2.37c-2.24-16.8-3.52-33.73-3.84-50.68l-8.93,8.93c22.06-1.17,44.15-1.69,66.24-1.54,6.31.04,12.62.14,18.93.29-2.87-2.19-5.74-4.37-8.61-6.56.56,3.56,1.09,7.12,1.57,10.69l-.32-2.37c2.86,21.27,4.23,42.72,4.07,64.18-.04,6.06-.21,12.12-.5,18.17l6.56-8.61c-3.26.92-6.58,1.6-9.94,2.06l2.37-.32c-21.9,2.86-43.6-3.34-65.43-4.08-3.12-.11-6.25-.1-9.37.06-1.48.08-2.97.19-4.44.34-1.38.14-2.75.37-4.13.19l2.37.32c-.34-.07-.63-.15-.96-.27l2.13.9c-.2-.09-.38-.2-.56-.32l1.81,1.4c-.18-.13-.34-.29-.47-.46l1.4,1.81c-.16-.2-.29-.42-.38-.66l.9,2.13c-.13-.38-.21-.73-.28-1.13l.32,2.37c-.27-2.69-.22-5.44-.29-8.14s-.16-5.64-.22-8.45c-.14-5.64-.24-11.27-.32-16.91-.16-11.36-.21-22.72-.15-34.07.03-6.38.11-12.77.21-19.15.08-4.67-4.16-9.14-8.93-8.93s-8.85,3.92-8.93,8.93h0Z"/>
  <g>
    <rect class="cls-1" x="5.52" y="9.49" width="113.58" height="109.89"/>
    <path d="M28.75,119.09c2.98-1.23,5.51-3.27,7.29-5.96,1.66-2.5,2.57-5.43,3.05-8.37s.57-6.13.57-9.21c0-3.68-.02-7.35-.03-11.03-.02-7.48-.04-14.97-.07-22.45,0-1.85-.02-3.7-.01-5.55,0-1.74.07-3.46.46-5.14.33-1.42.76-2.46,1.5-3.69.17-.28.35-.56.53-.82.23-.33.38-.53.55-.74.42-.51.86-1,1.33-1.46.5-.49,1.03-.95,1.58-1.38-.14.11.1-.08.1-.08.05-.04.1-.07.15-.11.15-.11.3-.22.45-.32.28-.19.56-.38.84-.56.6-.38,1.22-.73,1.85-1.06.3-.16.61-.31.92-.45.14-.07.28-.13.42-.19.08-.04.17-.07.26-.11.19-.08-.05.02.12-.05,2.85-1.16,5.92-1.86,8.91-2.11,3.31-.28,6.6-.07,9.78.63s6.2,1.75,8.93,3.45c.32.2.64.41.95.63s.54.4.87.68c.57.49,1.1,1.03,1.58,1.62.36.44.81,1.15,1.14,1.76.36.67.56,1.13.79,1.82s.45,1.43.61,2.16c.08.35.15.71.21,1.07s.11.68.14.94c.19,1.5.26,3.01.29,4.52.08,3.57.05,7.15.07,10.72s.04,7.48.06,11.22.04,7.46.06,11.19-.02,7.32.07,10.97c.08,3.42.46,6.88,1.95,10,1.25,2.62,3.24,4.88,5.61,6.54,1.17.82,2.44,1.46,3.77,1.96.47.17,1.02-.19,1.14-.65.14-.52-.18-.97-.65-1.14-.38-.14-.53-.2-.82-.33-.34-.15-.68-.32-1-.5-.62-.34-1.21-.71-1.78-1.13-.06-.05-.13-.09-.19-.14-.24-.18.13.11-.11-.08-.12-.1-.24-.2-.36-.3-.29-.24-.57-.49-.83-.75-.52-.5-.99-1.03-1.45-1.59-.01-.01-.11-.14-.03-.03-.06-.07-.11-.15-.17-.22-.09-.13-.18-.25-.27-.38-.21-.31-.42-.62-.61-.94-.18-.29-.34-.6-.5-.9-.07-.14-.14-.28-.21-.42-.04-.08-.08-.17-.12-.26-.01-.03-.15-.34-.09-.21-.61-1.5-1.01-3.17-1.2-4.72-.21-1.72-.26-3.46-.28-5.19-.02-1.83-.02-3.66-.03-5.49-.02-3.72-.04-7.44-.06-11.17-.04-7.5-.08-15-.11-22.51-.03-6.03.12-12.92-4.22-17.68-2.19-2.4-5.21-3.89-8.21-5-3.16-1.17-6.5-1.85-9.87-2.05-6.21-.38-12.8.85-18.13,4.18-2.39,1.49-4.53,3.42-6.07,5.79-.76,1.17-1.36,2.45-1.76,3.78-.51,1.7-.67,3.49-.72,5.26s-.01,3.65,0,5.48.01,3.74.02,5.61c.01,3.74.02,7.48.03,11.23s.02,7.57.03,11.35c0,3.39.09,6.79-.04,10.17-.11,3.04-.38,5.83-1.3,8.74-.22.7-.49,1.41-.74,1.96-.3.65-.63,1.28-1.01,1.89-.78,1.26-1.68,2.32-2.86,3.32-.53.45-1.07.84-1.72,1.23-.32.2-.65.38-.98.55-.29.15-.69.33-.89.42-.46.19-.79.62-.65,1.14.12.44.67.84,1.14.65h0Z"/>
    <path d="M69.99,51.63c-1.76-1.41-3.8-2.27-6.03-2.55-2-.25-4.1.03-5.98.79s-3.71,2-5.03,3.65c-1.48,1.86-2.38,4.08-2.56,6.46-.2,2.55.47,5.19,1.81,7.36,1.4,2.28,3.53,3.98,6.04,4.89s5.26.96,7.76.19,4.69-2.45,6.21-4.62,2.28-4.69,2.19-7.25c-.09-2.78-1.19-5.46-3-7.56-.43-.5-.9-.95-1.41-1.36-.38-.31-.95-.39-1.31,0-.31.34-.4.98,0,1.31.49.39.94.83,1.35,1.3.1.12.2.24.3.36.03.03.14.18.04.05.05.07.1.14.15.21.18.25.36.51.52.78s.3.52.43.78c.07.14.14.28.2.42.02.05.05.1.07.16.04.1.05.1,0,.01.02.05.04.11.06.16.23.58.41,1.18.54,1.79.03.14.06.28.08.42.01.07.02.14.03.21.03.16-.02-.22,0,.05.04.32.06.63.07.95,0,.28,0,.56,0,.84,0,.13-.02.27-.03.4,0,.08-.02.16-.02.24,0,.07-.03.24,0,.07-.09.58-.21,1.15-.39,1.72-.09.28-.18.56-.29.83-.02.05-.04.1-.06.15.08-.2-.02.05-.03.07-.06.15-.13.29-.2.44-.26.53-.56,1.04-.9,1.52-.08.11-.16.22-.23.32-.16.21.12-.14-.05.07-.03.04-.07.08-.1.12-.2.25-.42.49-.64.72-.19.19-.38.38-.58.55-.1.09-.2.18-.3.26-.06.05-.12.1-.19.15-.08.07-.08.07,0,0-.03.02-.06.05-.1.07-.46.34-.95.65-1.46.91-.15.07-.29.15-.44.21-.05.02-.1.04-.15.07.19-.08-.06.02-.08.03-.28.11-.56.21-.85.3s-.58.16-.87.22c-.13.03-.27.05-.4.08-.07.01-.13.02-.2.03-.04,0-.08.01-.12.02.11-.01.11-.01,0,0-.6.07-1.2.1-1.8.08-.27,0-.55-.03-.82-.06-.08,0-.16-.02-.25-.03.19.02,0,0-.04,0-.18-.03-.35-.06-.53-.09-.58-.11-1.15-.27-1.7-.48-.14-.05-.28-.11-.42-.16.16.06.03.01,0,0-.07-.03-.15-.07-.22-.1-.27-.13-.54-.26-.8-.41s-.52-.31-.76-.48c-.11-.08-.22-.16-.33-.24-.22-.16.14.12-.07-.06-.06-.05-.13-.1-.19-.16-.45-.38-.87-.79-1.25-1.24-.09-.1-.17-.21-.25-.31.13.16-.03-.05-.05-.07-.04-.05-.08-.11-.12-.16-.18-.25-.35-.51-.5-.77-.14-.23-.26-.46-.39-.7-.07-.13-.13-.26-.19-.4-.03-.06-.05-.12-.08-.18q-.04-.1,0,0s-.04-.1-.06-.15c-.21-.53-.38-1.08-.51-1.64-.06-.27-.12-.55-.16-.83,0,0-.04-.26-.02-.11s-.01-.12-.01-.12c-.02-.16-.03-.32-.05-.48-.04-.59-.04-1.17,0-1.76.01-.13.03-.27.04-.4.03-.27-.03.19.01-.07.01-.08.03-.16.04-.24.05-.29.11-.58.19-.86.06-.23.13-.47.21-.7.04-.13.09-.26.14-.39.02-.04.03-.09.05-.13.02-.04.03-.08.05-.13-.05.12-.05.13-.01.03.2-.45.42-.89.68-1.31.12-.19.24-.37.36-.55.06-.09.13-.18.19-.27.13-.18-.13.16.01-.02.04-.05.08-.1.12-.15.3-.37.63-.72.97-1.04.17-.16.35-.32.53-.47.08-.07.17-.14.25-.2-.21.16.12-.09.17-.12.38-.27.78-.53,1.2-.75.19-.1.38-.2.57-.29.12-.06.23-.11.35-.16.05-.02.14-.08-.04.02.07-.04.16-.07.24-.1.44-.17.89-.32,1.34-.43.21-.05.42-.1.63-.14.1-.02.21-.04.32-.06.06-.01.13-.02.19-.03.13-.02.14-.04,0,0,.21-.06.48-.05.7-.07.23-.02.47-.03.71-.03.47,0,.94.03,1.41.08.23.02-.21-.03,0,0,.04,0,.09.01.13.02.12.02.23.04.35.06.24.05.49.1.73.16.47.12.92.28,1.37.46-.24-.09.09.04.14.07.1.05.2.09.3.14.23.11.46.24.68.37.21.12.41.25.6.38.09.06.19.13.28.2.06.04.11.08.17.12-.19-.14,0,0,.03.03.38.3.95.4,1.31,0,.31-.34.4-.99,0-1.31Z"/>
  </g>
</svg>